  0
SECTION
  2
HEADER
  9
$ACADVER
  1
AC1015
  9
$ACADMAINTVER
 70
     6
  9
$DWGCODEPAGE
  3
ANSI_949
  9
$INSBASE
 10
0.0
 20
0.0
 30
0.0
  9
$EXTMIN
 10
4.695161539759226
 20
6.304000735504161
 30
0.0
  9
$EXTMAX
 10
486.0124948730925
 20
344.7412540688375
 30
0.0
  9
$LIMMIN
 10
0.0
 20
0.0
  9
$LIMMAX
 10
495.0
 20
350.0
  9
$ORTHOMODE
 70
     0
  9
$REGENMODE
 70
     1
  9
$FILLMODE
 70
     1
  9
$QTEXTMODE
 70
     0
  9
$MIRRTEXT
 70
     1
  9
$LTSCALE
 40
1.666666666666667
  9
$ATTMODE
 70
     1
  9
$TEXTSIZE
 40
5.0
  9
$TRACEWID
 40
1.0
  9
$TEXTSTYLE
  7
Standard
  9
$CLAYER
  8
0
  9
$CELTYPE
  6
ByLayer
  9
$CECOLOR
 62
   256
  9
$CELTSCALE
 40
1.0
  9
$DISPSILH
 70
     0
  9
$DIMSCALE
 40
1.0
  9
$DIMASZ
 40
2.5
  9
$DIMEXO
 40
0.625
  9
$DIMDLI
 40
3.75
  9
$DIMRND
 40
0.0
  9
$DIMDLE
 40
0.0
  9
$DIMEXE
 40
1.25
  9
$DIMTP
 40
0.0
  9
$DIMTM
 40
0.0
  9
$DIMTXT
 40
2.5
  9
$DIMCEN
 40
2.5
  9
$DIMTSZ
 40
0.0
  9
$DIMTOL
 70
     0
  9
$DIMLIM
 70
     0
  9
$DIMTIH
 70
     0
  9
$DIMTOH
 70
     0
  9
$DIMSE1
 70
     0
  9
$DIMSE2
 70
     0
  9
$DIMTAD
 70
     1
  9
$DIMZIN
 70
     8
  9
$DIMBLK
  1

  9
$DIMASO
 70
     1
  9
$DIMSHO
 70
     1
  9
$DIMPOST
  1

  9
$DIMAPOST
  1

  9
$DIMALT
 70
     0
  9
$DIMALTD
 70
     3
  9
$DIMALTF
 40
0.03937007874016
  9
$DIMLFAC
 40
1.0
  9
$DIMTOFL
 70
     1
  9
$DIMTVP
 40
0.0
  9
$DIMTIX
 70
     0
  9
$DIMSOXD
 70
     0
  9
$DIMSAH
 70
     0
  9
$DIMBLK1
  1

  9
$DIMBLK2
  1

  9
$DIMSTYLE
  2
ISO-25
  9
$DIMCLRD
 70
     0
  9
$DIMCLRE
 70
     0
  9
$DIMCLRT
 70
     0
  9
$DIMTFAC
 40
1.0
  9
$DIMGAP
 40
0.625
  9
$DIMJUST
 70
     0
  9
$DIMSD1
 70
     0
  9
$DIMSD2
 70
     0
  9
$DIMTOLJ
 70
     0
  9
$DIMTZIN
 70
     8
  9
$DIMALTZ
 70
     0
  9
$DIMALTTZ
 70
     0
  9
$DIMUPT
 70
     0
  9
$DIMDEC
 70
     2
  9
$DIMTDEC
 70
     2
  9
$DIMALTU
 70
     2
  9
$DIMALTTD
 70
     3
  9
$DIMTXSTY
  7
Standard
  9
$DIMAUNIT
 70
     0
  9
$DIMADEC
 70
     0
  9
$DIMALTRND
 40
0.0
  9
$DIMAZIN
 70
     0
  9
$DIMDSEP
 70
    44
  9
$DIMATFIT
 70
     3
  9
$DIMFRAC
 70
     0
  9
$DIMLDRBLK
  1

  9
$DIMLUNIT
 70
     2
  9
$DIMLWD
 70
    -2
  9
$DIMLWE
 70
    -2
  9
$DIMTMOVE
 70
     0
  9
$LUNITS
 70
     2
  9
$LUPREC
 70
     4
  9
$SKETCHINC
 40
1.0
  9
$FILLETRAD
 40
10.0
  9
$AUNITS
 70
     0
  9
$AUPREC
 70
     0
  9
$MENU
  1
.
  9
$ELEVATION
 40
0.0
  9
$PELEVATION
 40
0.0
  9
$THICKNESS
 40
0.0
  9
$LIMCHECK
 70
     0
  9
$CHAMFERA
 40
0.0
  9
$CHAMFERB
 40
0.0
  9
$CHAMFERC
 40
0.0
  9
$CHAMFERD
 40
0.0
  9
$SKPOLY
 70
     0
  9
$TDCREATE
 40
2458869.730641123
  9
$TDUCREATE
 40
2458869.355641123
  9
$TDUPDATE
 40
2458970.652804826
  9
$TDUUPDATE
 40
2458970.277804826
  9
$TDINDWG
 40
0.0009054282
  9
$TDUSRTIMER
 40
0.0012037269
  9
$USRTIMER
 70
     1
  9
$ANGBASE
 50
0.0
  9
$ANGDIR
 70
     0
  9
$PDMODE
 70
     0
  9
$PDSIZE
 40
0.0
  9
$PLINEWID
 40
0.0
  9
$SPLFRAME
 70
     0
  9
$SPLINETYPE
 70
     6
  9
$SPLINESEGS
 70
     8
  9
$HANDSEED
  5
3D2
  9
$SURFTAB1
 70
     6
  9
$SURFTAB2
 70
     6
  9
$SURFTYPE
 70
     6
  9
$SURFU
 70
     6
  9
$SURFV
 70
     6
  9
$UCSBASE
  2

  9
$UCSNAME
  2

  9
$UCSORG
 10
0.0
 20
0.0
 30
0.0
  9
$UCSXDIR
 10
1.0
 20
0.0
 30
0.0
  9
$UCSYDIR
 10
0.0
 20
1.0
 30
0.0
  9
$UCSORTHOREF
  2

  9
$UCSORTHOVIEW
 70
     0
  9
$UCSORGTOP
 10
0.0
 20
0.0
 30
0.0
  9
$UCSORGBOTTOM
 10
0.0
 20
0.0
 30
0.0
  9
$UCSORGLEFT
 10
0.0
 20
0.0
 30
0.0
  9
$UCSORGRIGHT
 10
0.0
 20
0.0
 30
0.0
  9
$UCSORGFRONT
 10
0.0
 20
0.0
 30
0.0
  9
$UCSORGBACK
 10
0.0
 20
0.0
 30
0.0
  9
$PUCSBASE
  2

  9
$PUCSNAME
  2

  9
$PUCSORG
 10
0.0
 20
0.0
 30
0.0
  9
$PUCSXDIR
 10
1.0
 20
0.0
 30
0.0
  9
$PUCSYDIR
 10
0.0
 20
1.0
 30
0.0
  9
$PUCSORTHOREF
  2

  9
$PUCSORTHOVIEW
 70
     0
  9
$PUCSORGTOP
 10
0.0
 20
0.0
 30
0.0
  9
$PUCSORGBOTTOM
 10
0.0
 20
0.0
 30
0.0
  9
$PUCSORGLEFT
 10
0.0
 20
0.0
 30
0.0
  9
$PUCSORGRIGHT
 10
0.0
 20
0.0
 30
0.0
  9
$PUCSORGFRONT
 10
0.0
 20
0.0
 30
0.0
  9
$PUCSORGBACK
 10
0.0
 20
0.0
 30
0.0
  9
$USERI1
 70
     0
  9
$USERI2
 70
     0
  9
$USERI3
 70
     0
  9
$USERI4
 70
     0
  9
$USERI5
 70
     0
  9
$USERR1
 40
0.0
  9
$USERR2
 40
0.0
  9
$USERR3
 40
0.0
  9
$USERR4
 40
0.0
  9
$USERR5
 40
0.0
  9
$WORLDVIEW
 70
     1
  9
$SHADEDGE
 70
     3
  9
$SHADEDIF
 70
    70
  9
$TILEMODE
 70
     1
  9
$MAXACTVP
 70
    64
  9
$PINSBASE
 10
0.0
 20
0.0
 30
0.0
  9
$PLIMCHECK
 70
     0
  9
$PEXTMIN
 10
0.0
 20
0.0
 30
0.0
  9
$PEXTMAX
 10
495.0
 20
350.0
 30
0.0
  9
$PLIMMIN
 10
0.0
 20
0.0
  9
$PLIMMAX
 10
0.0
 20
0.0
  9
$UNITMODE
 70
     0
  9
$VISRETAIN
 70
     1
  9
$PLINEGEN
 70
     0
  9
$PSLTSCALE
 70
     1
  9
$TREEDEPTH
 70
  3020
  9
$CMLSTYLE
  2
Standard
  9
$CMLJUST
 70
     0
  9
$CMLSCALE
 40
20.0
  9
$PROXYGRAPHICS
 70
     1
  9
$MEASUREMENT
 70
     1
  9
$CELWEIGHT
370
    -1
  9
$ENDCAPS
280
     0
  9
$JOINSTYLE
280
     0
  9
$LWDISPLAY
290
     0
  9
$INSUNITS
 70
     4
  9
$HYPERLINKBASE
  1

  9
$STYLESHEET
  1

  9
$XEDIT
290
     1
  9
$CEPSNTYPE
380
     0
  9
$PSTYLEMODE
290
     1
  9
$FINGERPRINTGUID
  2
{86477420-e5cd-4fe0-b918-95eed0f77e36}
  9
$VERSIONGUID
  2
{FAEB1C32-E019-11D5-929B-00C0DF256EC4}
  9
$EXTNAMES
290
     1
  9
$PSVPSCALE
 40
0.0
  9
$OLESTARTUP
290
     0
  0
ENDSEC
  0
SECTION
  2
CLASSES
  0
CLASS
  1
ACDBDICTIONARYWDFLT
  2
AcDbDictionaryWithDefault
  3
ObjectDBX Classes
 90
        0
280
     0
281
     0
  0
CLASS
  1
VISUALSTYLE
  2
AcDbVisualStyle
  3
ObjectDBX Classes
 90
     4095
280
     0
281
     0
  0
CLASS
  1
MATERIAL
  2
AcDbMaterial
  3
ObjectDBX Classes
 90
     1153
280
     0
281
     0
  0
CLASS
  1
SCALE
  2
AcDbScale
  3
ObjectDBX Classes
 90
     1153
280
     0
281
     0
  0
CLASS
  1
TABLESTYLE
  2
AcDbTableStyle
  3
ObjectDBX Classes
 90
     4095
280
     0
281
     0
  0
CLASS
  1
MLEADERSTYLE
  2
AcDbMLeaderStyle
  3
ACDB_MLEADERSTYLE_CLASS
 90
     4095
280
     0
281
     0
  0
CLASS
  1
SUN
  2
AcDbSun
  3
SCENEOE
 90
     1153
280
     0
281
     0
  0
CLASS
  1
MULTILEADER
  2
AcDbMLeader
  3
ACDB_MLEADER_CLASS
 90
     1025
280
     0
281
     1
  0
CLASS
  1
DICTIONARYVAR
  2
AcDbDictionaryVar
  3
ObjectDBX Classes
 90
        0
280
     0
281
     0
  0
CLASS
  1
CELLSTYLEMAP
  2
AcDbCellStyleMap
  3
ObjectDBX Classes
 90
     1152
280
     0
281
     0
  0
CLASS
  1
ACDBPLACEHOLDER
  2
AcDbPlaceHolder
  3
ObjectDBX Classes
 90
        0
280
     0
281
     0
  0
CLASS
  1
LAYOUT
  2
AcDbLayout
  3
ObjectDBX Classes
 90
        0
280
     0
281
     0
  0
ENDSEC
  0
SECTION
  2
TABLES
  0
TABLE
  2
VPORT
  5
8
330
0
100
AcDbSymbolTable
 70
     1
  0
VPORT
  5
29
330
8
100
AcDbSymbolTableRecord
100
AcDbViewportTableRecord
  2
*Active
 70
     0
 10
0.0
 20
0.0
 11
1.0
 21
1.0
 12
303.5702761456744
 22
146.3218205816499
 13
0.0
 23
0.0
 14
10.0
 24
10.0
 15
10.0
 25
10.0
 16
0.0
 26
0.0
 36
1.0
 17
0.0
 27
0.0
 37
0.0
 40
439.4797297024107
 41
2.355685131195335
 42
50.0
 43
0.0
 44
0.0
 50
0.0
 51
0.0
 71
    16
 72
   100
 73
     1
 74
     3
 75
     0
 76
     0
 77
     0
 78
     0
281
     0
 65
     1
110
0.0
120
0.0
130
0.0
111
1.0
121
0.0
131
0.0
112
0.0
122
1.0
132
0.0
 79
     0
146
0.0
  0
ENDTAB
  0
TABLE
  2
LTYPE
  5
5
330
0
100
AcDbSymbolTable
 70
     3
  0
LTYPE
  5
14
330
5
100
AcDbSymbolTableRecord
100
AcDbLinetypeTableRecord
  2
ByBlock
 70
     0
  3

 72
    65
 73
     0
 40
0.0
  0
LTYPE
  5
15
330
5
100
AcDbSymbolTableRecord
100
AcDbLinetypeTableRecord
  2
ByLayer
 70
     0
  3

 72
    65
 73
     0
 40
0.0
  0
LTYPE
  5
16
330
5
100
AcDbSymbolTableRecord
100
AcDbLinetypeTableRecord
  2
Continuous
 70
     0
  3
Solid line
 72
    65
 73
     0
 40
0.0
  0
LTYPE
  5
8D
330
5
100
AcDbSymbolTableRecord
100
AcDbLinetypeTableRecord
  2
CENTER2
 70
     0
  3
Center (.5x) ___ _ ___ _ ___ _ ___ _ ___ _ ___
 72
    65
 73
     4
 40
28.575
 49
19.05
 74
     4
 75
     0
340
0
 46
0.0
 50
0.0
 44
0.0
 45
0.0
 49
-3.175
 74
     4
 75
     0
340
0
 46
0.0
 50
0.0
 44
0.0
 45
0.0
 49
3.175
 74
     4
 75
     0
340
0
 46
0.0
 50
0.0
 44
0.0
 45
0.0
 49
-3.175
 74
     4
 75
     0
340
0
 46
0.0
 50
0.0
 44
0.0
 45
0.0
  0
LTYPE
  5
BA
330
5
100
AcDbSymbolTableRecord
100
AcDbLinetypeTableRecord
  2
HIDDEN2
 70
     0
  3
Hidden (.5x) _ _ _ _ _ _ _ _ _ _ _ _ _ _ _ _ _ 
 72
    65
 73
     2
 40
4.7625
 49
3.175
 74
     4
 75
     0
340
0
 46
0.0
 50
0.0
 44
0.0
 45
0.0
 49
-1.5875
 74
     4
 75
     0
340
0
 46
0.0
 50
0.0
 44
0.0
 45
0.0
  0
ENDTAB
  0
TABLE
  2
LAYER
  5
2
330
0
100
AcDbSymbolTable
 70
     3
  0
LAYER
  5
10
330
2
100
AcDbSymbolTableRecord
100
AcDbLayerTableRecord
  2
0
 70
     0
 62
     7
  6
Continuous
370
    -3
390
F
  0
LAYER
  5
6E
330
2
100
AcDbSymbolTableRecord
100
AcDbLayerTableRecord
  2
Default
 70
     0
 62
     7
  6
Continuous
370
    -3
390
F
  0
LAYER
  5
B1
330
2
100
AcDbSymbolTableRecord
100
AcDbLayerTableRecord
  2
BS002-P100-01A
 70
     0
 62
     7
  6
Continuous
370
    -3
390
F
  0
ENDTAB
  0
TABLE
  2
STYLE
  5
3
330
0
100
AcDbSymbolTable
 70
     2
  0
STYLE
  5
11
330
3
100
AcDbSymbolTableRecord
100
AcDbTextStyleTableRecord
  2
Standard
 70
     0
 40
0.0
 41
1.0
 50
0.0
 71
     0
 42
5.0
  3
txt
  4

  0
STYLE
  5
76
330
3
100
AcDbSymbolTableRecord
100
AcDbTextStyleTableRecord
  2
SEACAD_Solid_Edge_ISO
 70
     0
 40
0.0
 41
1.0
 50
0.0
 71
     0
 42
5.833333333333334
  3
seiso.ttf
  4

1001
ACAD
1000
Solid Edge ISO
1071
        0
  0
ENDTAB
  0
TABLE
  2
VIEW
  5
6
330
0
100
AcDbSymbolTable
 70
     0
  0
ENDTAB
  0
TABLE
  2
UCS
  5
7
330
0
100
AcDbSymbolTable
 70
     0
  0
ENDTAB
  0
TABLE
  2
APPID
  5
9
330
0
100
AcDbSymbolTable
 70
     2
  0
APPID
  5
12
330
9
100
AcDbSymbolTableRecord
100
AcDbRegAppTableRecord
  2
ACAD
 70
     0
  0
APPID
  5
369
330
9
100
AcDbSymbolTableRecord
100
AcDbRegAppTableRecord
  2
ACAD_MLEADERVER
 70
     0
  0
ENDTAB
  0
TABLE
  2
DIMSTYLE
  5
A
330
0
100
AcDbSymbolTable
 70
     3
100
AcDbDimStyleTable
  0
DIMSTYLE
105
27
330
A
100
AcDbSymbolTableRecord
100
AcDbDimStyleTableRecord
  2
ISO-25
 70
     0
 41
2.5
 42
0.625
 43
3.75
 44
1.25
 73
     0
 74
     0
 77
     1
 78
     8
140
2.5
141
2.5
143
0.03937007874016
147
0.625
171
     3
172
     1
178
     0
271
     2
272
     2
274
     3
278
    44
283
     0
284
     8
340
11
  0
DIMSTYLE
105
DC
330
A
100
AcDbSymbolTableRecord
100
AcDbDimStyleTableRecord
  2
Standard
 70
     0
178
     0
340
11
  0
DIMSTYLE
105
E6
102
{ACAD_REACTORS
330
E7
330
F1
330
FB
330
10C
330
116
330
120
102
}
330
A
100
AcDbSymbolTableRecord
100
AcDbDimStyleTableRecord
  2
JIS
 70
     0
 41
4.0
 42
2.0
 44
2.0
 73
     0
 74
     0
 77
     1
 78
     8
140
4.0
141
2.0
143
0.9999999999999999
146
0.5
147
1.0
172
     1
173
     1
178
     0
179
     2
271
     3
272
     3
283
     0
284
     8
340
76
343
AA
344
AA
  0
ENDTAB
  0
TABLE
  2
BLOCK_RECORD
  5
1
330
0
100
AcDbSymbolTable
 70
    75
  0
BLOCK_RECORD
  5
1F
330
1
100
AcDbSymbolTableRecord
100
AcDbBlockTableRecord
  2
*Model_Space
340
22
  0
BLOCK_RECORD
  5
1B
330
1
100
AcDbSymbolTableRecord
100
AcDbBlockTableRecord
  2
*Paper_Space
340
1E
  0
BLOCK_RECORD
  5
71
330
1
100
AcDbSymbolTableRecord
100
AcDbBlockTableRecord
  2
SEANNOT_GROUP
340
0
102
{BLKREFS
331
72
102
}
  0
BLOCK_RECORD
  5
7A
330
1
100
AcDbSymbolTableRecord
100
AcDbBlockTableRecord
  2
SEANNOT_GROUP1
340
0
102
{BLKREFS
331
7B
102
}
  0
BLOCK_RECORD
  5
83
330
1
100
AcDbSymbolTableRecord
100
AcDbBlockTableRecord
  2
SEANNOT_GROUP2
340
0
102
{BLKREFS
331
84
102
}
  0
BLOCK_RECORD
  5
8B
330
1
100
AcDbSymbolTableRecord
100
AcDbBlockTableRecord
  2
SEANNOT_GROUP3
340
0
102
{BLKREFS
331
8C
102
}
  0
BLOCK_RECORD
  5
96
330
1
100
AcDbSymbolTableRecord
100
AcDbBlockTableRecord
  2
SEANNOT_GROUP4
340
0
102
{BLKREFS
331
97
102
}
  0
BLOCK_RECORD
  5
A0
330
1
100
AcDbSymbolTableRecord
100
AcDbBlockTableRecord
  2
SEANNOT_GROUP5
340
0
102
{BLKREFS
331
A1
102
}
  0
BLOCK_RECORD
  5
A5
330
1
100
AcDbSymbolTableRecord
100
AcDbBlockTableRecord
  2
SEANNOT_GROUP6
340
0
102
{BLKREFS
331
A6
102
}
  0
BLOCK_RECORD
  5
AA
330
1
100
AcDbSymbolTableRecord
100
AcDbBlockTableRecord
  2
_SE_FILLED
340
0
  0
BLOCK_RECORD
  5
AF
330
1
100
AcDbSymbolTableRecord
100
AcDbBlockTableRecord
  2
SE
340
0
102
{BLKREFS
331
B0
102
}
  0
BLOCK_RECORD
  5
BE
330
1
100
AcDbSymbolTableRecord
100
AcDbBlockTableRecord
  2
SE1
340
0
102
{BLKREFS
331
BF
102
}
  0
BLOCK_RECORD
  5
CC
330
1
100
AcDbSymbolTableRecord
100
AcDbBlockTableRecord
  2
SE2
340
0
102
{BLKREFS
331
CD
102
}
  0
BLOCK_RECORD
  5
DD
330
1
100
AcDbSymbolTableRecord
100
AcDbBlockTableRecord
  2
_Oblique
340
0
  0
BLOCK_RECORD
  5
E1
330
1
100
AcDbSymbolTableRecord
100
AcDbBlockTableRecord
  2
_Dot
340
0
  0
BLOCK_RECORD
  5
E8
330
1
100
AcDbSymbolTableRecord
100
AcDbBlockTableRecord
  2
DMBLK1
340
0
  0
BLOCK_RECORD
  5
F2
330
1
100
AcDbSymbolTableRecord
100
AcDbBlockTableRecord
  2
DMBLK2
340
0
  0
BLOCK_RECORD
  5
FC
330
1
100
AcDbSymbolTableRecord
100
AcDbBlockTableRecord
  2
DMBLK3
340
0
  0
BLOCK_RECORD
  5
105
330
1
100
AcDbSymbolTableRecord
100
AcDbBlockTableRecord
  2
GDimGGroup
340
0
102
{BLKREFS
331
106
102
}
  0
BLOCK_RECORD
  5
10D
330
1
100
AcDbSymbolTableRecord
100
AcDbBlockTableRecord
  2
DMBLK4
340
0
  0
BLOCK_RECORD
  5
117
330
1
100
AcDbSymbolTableRecord
100
AcDbBlockTableRecord
  2
DMBLK5
340
0
  0
BLOCK_RECORD
  5
121
330
1
100
AcDbSymbolTableRecord
100
AcDbBlockTableRecord
  2
DMBLK6
340
0
  0
BLOCK_RECORD
  5
163
330
1
100
AcDbSymbolTableRecord
100
AcDbBlockTableRecord
  2
SEANNOT_GROUP7
340
0
102
{BLKREFS
331
164
102
}
  0
BLOCK_RECORD
  5
168
330
1
100
AcDbSymbolTableRecord
100
AcDbBlockTableRecord
  2
SEANNOT_GROUP8
340
0
102
{BLKREFS
331
169
102
}
  0
BLOCK_RECORD
  5
16D
330
1
100
AcDbSymbolTableRecord
100
AcDbBlockTableRecord
  2
SEANNOT_GROUP9
340
0
102
{BLKREFS
331
16E
102
}
  0
BLOCK_RECORD
  5
172
330
1
100
AcDbSymbolTableRecord
100
AcDbBlockTableRecord
  2
SEANNOT_GROUP10
340
0
102
{BLKREFS
331
173
102
}
  0
BLOCK_RECORD
  5
177
330
1
100
AcDbSymbolTableRecord
100
AcDbBlockTableRecord
  2
SEANNOT_GROUP11
340
0
102
{BLKREFS
331
178
102
}
  0
BLOCK_RECORD
  5
17C
330
1
100
AcDbSymbolTableRecord
100
AcDbBlockTableRecord
  2
SEANNOT_GROUP12
340
0
102
{BLKREFS
331
17D
102
}
  0
BLOCK_RECORD
  5
182
330
1
100
AcDbSymbolTableRecord
100
AcDbBlockTableRecord
  2
SEANNOT_GROUP13
340
0
102
{BLKREFS
331
183
102
}
  0
BLOCK_RECORD
  5
245
330
1
100
AcDbSymbolTableRecord
100
AcDbBlockTableRecord
  2
SEANNOT_GROUP14
340
0
102
{BLKREFS
331
246
102
}
  0
BLOCK_RECORD
  5
24C
330
1
100
AcDbSymbolTableRecord
100
AcDbBlockTableRecord
  2
SEANNOT_GROUP15
340
0
102
{BLKREFS
331
24D
102
}
  0
BLOCK_RECORD
  5
256
330
1
100
AcDbSymbolTableRecord
100
AcDbBlockTableRecord
  2
SEANNOT_GROUP16
340
0
102
{BLKREFS
331
257
102
}
  0
BLOCK_RECORD
  5
263
330
1
100
AcDbSymbolTableRecord
100
AcDbBlockTableRecord
  2
SEANNOT_GROUP17
340
0
102
{BLKREFS
331
264
102
}
  0
BLOCK_RECORD
  5
273
330
1
100
AcDbSymbolTableRecord
100
AcDbBlockTableRecord
  2
SEANNOT_GROUP18
340
0
102
{BLKREFS
331
274
102
}
  0
BLOCK_RECORD
  5
27B
330
1
100
AcDbSymbolTableRecord
100
AcDbBlockTableRecord
  2
SEANNOT_GROUP19
340
0
102
{BLKREFS
331
27C
102
}
  0
BLOCK_RECORD
  5
283
330
1
100
AcDbSymbolTableRecord
100
AcDbBlockTableRecord
  2
SEANNOT_GROUP20
340
0
102
{BLKREFS
331
284
102
}
  0
BLOCK_RECORD
  5
28B
330
1
100
AcDbSymbolTableRecord
100
AcDbBlockTableRecord
  2
SEANNOT_GROUP21
340
0
102
{BLKREFS
331
28C
102
}
  0
BLOCK_RECORD
  5
2BA
330
1
100
AcDbSymbolTableRecord
100
AcDbBlockTableRecord
  2
SE3
340
0
102
{BLKREFS
331
2BB
102
}
  0
BLOCK_RECORD
  5
2BC
330
1
100
AcDbSymbolTableRecord
100
AcDbBlockTableRecord
  2
SE4
340
0
102
{BLKREFS
331
2BD
102
}
  0
BLOCK_RECORD
  5
2BE
330
1
100
AcDbSymbolTableRecord
100
AcDbBlockTableRecord
  2
SE5
340
0
102
{BLKREFS
331
2BF
102
}
  0
BLOCK_RECORD
  5
2C0
330
1
100
AcDbSymbolTableRecord
100
AcDbBlockTableRecord
  2
SE6
340
0
102
{BLKREFS
331
2C1
102
}
  0
BLOCK_RECORD
  5
2C7
330
1
100
AcDbSymbolTableRecord
100
AcDbBlockTableRecord
  2
SE7
340
0
102
{BLKREFS
331
2C8
102
}
  0
BLOCK_RECORD
  5
2C9
330
1
100
AcDbSymbolTableRecord
100
AcDbBlockTableRecord
  2
SE8
340
0
102
{BLKREFS
331
2CA
102
}
  0
BLOCK_RECORD
  5
2D0
330
1
100
AcDbSymbolTableRecord
100
AcDbBlockTableRecord
  2
SE9
340
0
102
{BLKREFS
331
2D1
102
}
  0
BLOCK_RECORD
  5
2D2
330
1
100
AcDbSymbolTableRecord
100
AcDbBlockTableRecord
  2
SE10
340
0
102
{BLKREFS
331
2D3
102
}
  0
BLOCK_RECORD
  5
2DD
330
1
100
AcDbSymbolTableRecord
100
AcDbBlockTableRecord
  2
SE11
340
0
102
{BLKREFS
331
2DE
102
}
  0
BLOCK_RECORD
  5
2DF
330
1
100
AcDbSymbolTableRecord
100
AcDbBlockTableRecord
  2
SE12
340
0
102
{BLKREFS
331
2E0
102
}
  0
BLOCK_RECORD
  5
2E1
330
1
100
AcDbSymbolTableRecord
100
AcDbBlockTableRecord
  2
SE13
340
0
102
{BLKREFS
331
2E2
102
}
  0
BLOCK_RECORD
  5
2E3
330
1
100
AcDbSymbolTableRecord
100
AcDbBlockTableRecord
  2
SE14
340
0
102
{BLKREFS
331
2E4
102
}
  0
BLOCK_RECORD
  5
2EA
330
1
100
AcDbSymbolTableRecord
100
AcDbBlockTableRecord
  2
SE15
340
0
102
{BLKREFS
331
2EB
102
}
  0
BLOCK_RECORD
  5
2EC
330
1
100
AcDbSymbolTableRecord
100
AcDbBlockTableRecord
  2
SE16
340
0
102
{BLKREFS
331
2ED
102
}
  0
BLOCK_RECORD
  5
2F3
330
1
100
AcDbSymbolTableRecord
100
AcDbBlockTableRecord
  2
SE17
340
0
102
{BLKREFS
331
2F4
102
}
  0
BLOCK_RECORD
  5
2F5
330
1
100
AcDbSymbolTableRecord
100
AcDbBlockTableRecord
  2
SE18
340
0
102
{BLKREFS
331
2F6
102
}
  0
BLOCK_RECORD
  5
300
330
1
100
AcDbSymbolTableRecord
100
AcDbBlockTableRecord
  2
SE19
340
0
102
{BLKREFS
331
301
102
}
  0
BLOCK_RECORD
  5
302
330
1
100
AcDbSymbolTableRecord
100
AcDbBlockTableRecord
  2
SE20
340
0
102
{BLKREFS
331
303
102
}
  0
BLOCK_RECORD
  5
304
330
1
100
AcDbSymbolTableRecord
100
AcDbBlockTableRecord
  2
SE21
340
0
102
{BLKREFS
331
305
102
}
  0
BLOCK_RECORD
  5
306
330
1
100
AcDbSymbolTableRecord
100
AcDbBlockTableRecord
  2
SE22
340
0
102
{BLKREFS
331
307
102
}
  0
BLOCK_RECORD
  5
30D
330
1
100
AcDbSymbolTableRecord
100
AcDbBlockTableRecord
  2
SE23
340
0
102
{BLKREFS
331
30E
102
}
  0
BLOCK_RECORD
  5
30F
330
1
100
AcDbSymbolTableRecord
100
AcDbBlockTableRecord
  2
SE24
340
0
102
{BLKREFS
331
310
102
}
  0
BLOCK_RECORD
  5
316
330
1
100
AcDbSymbolTableRecord
100
AcDbBlockTableRecord
  2
SE25
340
0
102
{BLKREFS
331
317
102
}
  0
BLOCK_RECORD
  5
318
330
1
100
AcDbSymbolTableRecord
100
AcDbBlockTableRecord
  2
SE26
340
0
102
{BLKREFS
331
319
102
}
  0
BLOCK_RECORD
  5
323
330
1
100
AcDbSymbolTableRecord
100
AcDbBlockTableRecord
  2
SE27
340
0
102
{BLKREFS
331
324
102
}
  0
BLOCK_RECORD
  5
325
330
1
100
AcDbSymbolTableRecord
100
AcDbBlockTableRecord
  2
SE28
340
0
102
{BLKREFS
331
326
102
}
  0
BLOCK_RECORD
  5
327
330
1
100
AcDbSymbolTableRecord
100
AcDbBlockTableRecord
  2
SE29
340
0
102
{BLKREFS
331
328
102
}
  0
BLOCK_RECORD
  5
329
330
1
100
AcDbSymbolTableRecord
100
AcDbBlockTableRecord
  2
SE30
340
0
102
{BLKREFS
331
32A
102
}
  0
BLOCK_RECORD
  5
330
330
1
100
AcDbSymbolTableRecord
100
AcDbBlockTableRecord
  2
SE31
340
0
102
{BLKREFS
331
331
102
}
  0
BLOCK_RECORD
  5
332
330
1
100
AcDbSymbolTableRecord
100
AcDbBlockTableRecord
  2
SE32
340
0
102
{BLKREFS
331
333
102
}
  0
BLOCK_RECORD
  5
339
330
1
100
AcDbSymbolTableRecord
100
AcDbBlockTableRecord
  2
SE33
340
0
102
{BLKREFS
331
33A
102
}
  0
BLOCK_RECORD
  5
33B
330
1
100
AcDbSymbolTableRecord
100
AcDbBlockTableRecord
  2
SE34
340
0
102
{BLKREFS
331
33C
102
}
  0
BLOCK_RECORD
  5
346
330
1
100
AcDbSymbolTableRecord
100
AcDbBlockTableRecord
  2
SE35
340
0
102
{BLKREFS
331
347
102
}
  0
BLOCK_RECORD
  5
348
330
1
100
AcDbSymbolTableRecord
100
AcDbBlockTableRecord
  2
SE36
340
0
102
{BLKREFS
331
349
102
}
  0
BLOCK_RECORD
  5
34A
330
1
100
AcDbSymbolTableRecord
100
AcDbBlockTableRecord
  2
SE37
340
0
102
{BLKREFS
331
34B
102
}
  0
BLOCK_RECORD
  5
34C
330
1
100
AcDbSymbolTableRecord
100
AcDbBlockTableRecord
  2
SE38
340
0
102
{BLKREFS
331
34D
102
}
  0
BLOCK_RECORD
  5
353
330
1
100
AcDbSymbolTableRecord
100
AcDbBlockTableRecord
  2
SE39
340
0
102
{BLKREFS
331
354
102
}
  0
BLOCK_RECORD
  5
355
330
1
100
AcDbSymbolTableRecord
100
AcDbBlockTableRecord
  2
SE40
340
0
102
{BLKREFS
331
356
102
}
  0
BLOCK_RECORD
  5
35C
330
1
100
AcDbSymbolTableRecord
100
AcDbBlockTableRecord
  2
SE41
340
0
102
{BLKREFS
331
35D
102
}
  0
BLOCK_RECORD
  5
35E
330
1
100
AcDbSymbolTableRecord
100
AcDbBlockTableRecord
  2
SE42
340
0
102
{BLKREFS
331
35F
102
}
  0
ENDTAB
  0
ENDSEC
  0
SECTION
  2
BLOCKS
  0
BLOCK
  5
20
330
1F
100
AcDbEntity
  8
0
100
AcDbBlockBegin
  2
*Model_Space
 70
     0
 10
0.0
 20
0.0
 30
0.0
  3
*Model_Space
  1

  0
ENDBLK
  5
21
330
1F
100
AcDbEntity
  8
0
100
AcDbBlockEnd
  0
BLOCK
  5
1C
330
1B
100
AcDbEntity
 67
     1
  8
0
100
AcDbBlockBegin
  2
*Paper_Space
 70
     0
 10
0.0
 20
0.0
 30
0.0
  3
*Paper_Space
  1

  0
ENDBLK
  5
1D
330
1B
100
AcDbEntity
 67
     1
  8
0
100
AcDbBlockEnd
  0
BLOCK
  5
78
330
71
100
AcDbEntity
  8
0
100
AcDbBlockBegin
  2
SEANNOT_GROUP
 70
     0
 10
0.0
 20
0.0
 30
0.0
  3
SEANNOT_GROUP
  1

  0
LINE
  5
73
330
71
100
AcDbEntity
  8
Default
  6
Continuous
 62
     7
100
AcDbLine
 10
36.21781776275307
 20
320.9225732417842
 30
0.0
 11
39.68191937789098
 21
314.9225732417842
 31
0.0
  0
LINE
  5
74
330
71
100
AcDbEntity
  8
Default
  6
Continuous
 62
     7
100
AcDbLine
 10
39.68191937789098
 20
314.9225732417842
 30
0.0
 11
46.6101226130289
 21
326.9225732417842
 31
0.0
  0
LINE
  5
75
330
71
100
AcDbEntity
  8
Default
  6
Continuous
 62
     7
100
AcDbLine
 10
43.14602099302889
 20
320.9225732417842
 30
0.0
 11
36.21781776275307
 21
320.9225732417842
 31
0.0
  0
TEXT
  5
77
330
71
100
AcDbEntity
  8
Default
  6
Continuous
 62
     7
100
AcDbText
 10
38.27282846880007
 20
321.9225732417842
 30
0.0
 40
4.0
  1
w
  7
SEACAD_Solid_Edge_ISO
 11
38.27282846880007
 21
325.9225732417842
 31
0.0
100
AcDbText
 73
     3
  0
ENDBLK
  5
79
330
71
100
AcDbEntity
  8
0
100
AcDbBlockEnd
  0
BLOCK
  5
80
330
7A
100
AcDbEntity
  8
0
100
AcDbBlockBegin
  2
SEANNOT_GROUP1
 70
     0
 10
0.0
 20
0.0
 30
0.0
  3
SEANNOT_GROUP1
  1

  0
LINE
  5
7C
330
7A
100
AcDbEntity
  8
Default
  6
Continuous
 62
     7
100
AcDbLine
 10
65.64813577426295
 20
320.875474280013
 30
0.0
 11
69.11223738940087
 21
314.875474280013
 31
0.0
  0
LINE
  5
7D
330
7A
100
AcDbEntity
  8
Default
  6
Continuous
 62
     7
100
AcDbLine
 10
69.11223738940086
 20
314.875474280013
 30
0.0
 11
76.04044062453877
 21
326.875474280013
 31
0.0
  0
LINE
  5
7E
330
7A
100
AcDbEntity
  8
Default
  6
Continuous
 62
     7
100
AcDbLine
 10
72.57633900453878
 20
320.875474280013
 30
0.0
 11
65.64813577426295
 21
320.875474280013
 31
0.0
  0
TEXT
  5
7F
330
7A
100
AcDbEntity
  8
Default
  6
Continuous
 62
     7
100
AcDbText
 10
68.11223738940087
 20
321.875474280013
 30
0.0
 40
4.0
  1
y
  7
SEACAD_Solid_Edge_ISO
 11
68.11223738940087
 21
325.875474280013
 31
0.0
100
AcDbText
 73
     3
  0
ENDBLK
  5
81
330
7A
100
AcDbEntity
  8
0
100
AcDbBlockEnd
  0
BLOCK
  5
89
330
83
100
AcDbEntity
  8
0
100
AcDbBlockBegin
  2
SEANNOT_GROUP2
 70
     0
 10
0.0
 20
0.0
 30
0.0
  3
SEANNOT_GROUP2
  1

  0
LINE
  5
85
330
83
100
AcDbEntity
  8
Default
  6
Continuous
 62
     7
100
AcDbLine
 10
54.47634448614407
 20
320.9151482676315
 30
0.0
 11
57.94044610128199
 21
314.9151482676315
 31
0.0
  0
LINE
  5
86
330
83
100
AcDbEntity
  8
Default
  6
Continuous
 62
     7
100
AcDbLine
 10
57.94044610128199
 20
314.9151482676316
 30
0.0
 11
64.86864933641989
 21
326.9151482676316
 31
0.0
  0
LINE
  5
87
330
83
100
AcDbEntity
  8
Default
  6
Continuous
 62
     7
100
AcDbLine
 10
61.40454771641991
 20
320.9151482676315
 30
0.0
 11
54.47634448614408
 21
320.9151482676315
 31
0.0
  0
TEXT
  5
88
330
83
100
AcDbEntity
  8
Default
  6
Continuous
 62
     7
100
AcDbText
 10
56.94044610128199
 20
321.9151482676316
 30
0.0
 40
4.0
  1
x
  7
SEACAD_Solid_Edge_ISO
 11
56.94044610128199
 21
325.9151482676316
 31
0.0
100
AcDbText
 73
     3
  0
ENDBLK
  5
8A
330
83
100
AcDbEntity
  8
0
100
AcDbBlockEnd
  0
BLOCK
  5
94
330
8B
100
AcDbEntity
  8
0
100
AcDbBlockBegin
  2
SEANNOT_GROUP3
 70
     0
 10
0.0
 20
0.0
 30
0.0
  3
SEANNOT_GROUP3
  1

  0
LINE
  5
8E
330
8B
100
AcDbEntity
  8
Default
  6
CENTER2
 62
     7
100
AcDbLine
 10
165.730130279701
 20
181.8778294574226
 30
0.0
 11
163.7301301847061
 21
181.8778294574226
 31
0.0
  0
LINE
  5
8F
330
8B
100
AcDbEntity
  8
Default
  6
CENTER2
 62
     7
100
AcDbLine
 10
164.7301302322035
 20
182.87782950492
 30
0.0
 11
164.7301302322035
 21
180.8778294099251
 31
0.0
  0
LINE
  5
90
330
8B
100
AcDbEntity
  8
Default
  6
CENTER2
 62
     7
100
AcDbLine
 10
167.7301303746959
 20
181.8778294574226
 30
0.0
 11
171.0634635655369
 21
181.8778294574226
 31
0.0
  0
LINE
  5
91
330
8B
100
AcDbEntity
  8
Default
  6
CENTER2
 62
     7
100
AcDbLine
 10
164.7301302322035
 20
184.8778295999149
 30
0.0
 11
164.7301302322035
 21
188.2111627907559
 31
0.0
  0
LINE
  5
92
330
8B
100
AcDbEntity
  8
Default
  6
CENTER2
 62
     7
100
AcDbLine
 10
161.7301300897112
 20
181.8778294574226
 30
0.0
 11
158.3967968988702
 21
181.8778294574226
 31
0.0
  0
LINE
  5
93
330
8B
100
AcDbEntity
  8
Default
  6
CENTER2
 62
     7
100
AcDbLine
 10
164.7301302322035
 20
178.8778293149302
 30
0.0
 11
164.7301302322035
 21
175.5444961240892
 31
0.0
  0
ENDBLK
  5
95
330
8B
100
AcDbEntity
  8
0
100
AcDbBlockEnd
  0
BLOCK
  5
9E
330
96
100
AcDbEntity
  8
0
100
AcDbBlockBegin
  2
SEANNOT_GROUP4
 70
     0
 10
0.0
 20
0.0
 30
0.0
  3
SEANNOT_GROUP4
  1

  0
LINE
  5
98
330
96
100
AcDbEntity
  8
Default
  6
CENTER2
 62
     7
100
AcDbLine
 10
195.730130279701
 20
181.8778294574226
 30
0.0
 11
193.7301301847061
 21
181.8778294574226
 31
0.0
  0
LINE
  5
99
330
96
100
AcDbEntity
  8
Default
  6
CENTER2
 62
     7
100
AcDbLine
 10
194.7301302322036
 20
182.87782950492
 30
0.0
 11
194.7301302322036
 21
180.8778294099251
 31
0.0
  0
LINE
  5
9A
330
96
100
AcDbEntity
  8
Default
  6
CENTER2
 62
     7
100
AcDbLine
 10
197.7301303746959
 20
181.8778294574226
 30
0.0
 11
201.0634635655369
 21
181.8778294574226
 31
0.0
  0
LINE
  5
9B
330
96
100
AcDbEntity
  8
Default
  6
CENTER2
 62
     7
100
AcDbLine
 10
194.7301302322036
 20
184.8778295999149
 30
0.0
 11
194.7301302322036
 21
188.2111627907559
 31
0.0
  0
LINE
  5
9C
330
96
100
AcDbEntity
  8
Default
  6
CENTER2
 62
     7
100
AcDbLine
 10
191.7301300897112
 20
181.8778294574226
 30
0.0
 11
188.3967968988702
 21
181.8778294574226
 31
0.0
  0
LINE
  5
9D
330
96
100
AcDbEntity
  8
Default
  6
CENTER2
 62
     7
100
AcDbLine
 10
194.7301302322036
 20
178.8778293149302
 30
0.0
 11
194.7301302322036
 21
175.5444961240892
 31
0.0
  0
ENDBLK
  5
9F
330
96
100
AcDbEntity
  8
0
100
AcDbBlockEnd
  0
BLOCK
  5
A3
330
A0
100
AcDbEntity
  8
0
100
AcDbBlockBegin
  2
SEANNOT_GROUP5
 70
     0
 10
0.0
 20
0.0
 30
0.0
  3
SEANNOT_GROUP5
  1

  0
LINE
  5
A2
330
A0
100
AcDbEntity
  8
Default
  6
CENTER2
 62
     7
100
AcDbLine
 10
336.0376372096451
 20
181.8778294574226
 30
0.0
 11
299.7043038763117
 21
181.8778294574226
 31
0.0
  0
ENDBLK
  5
A4
330
A0
100
AcDbEntity
  8
0
100
AcDbBlockEnd
  0
BLOCK
  5
A7
330
A5
100
AcDbEntity
  8
0
100
AcDbBlockBegin
  2
SEANNOT_GROUP6
 70
     0
 10
0.0
 20
0.0
 30
0.0
  3
SEANNOT_GROUP6
  1

  0
ENDBLK
  5
A8
330
A5
100
AcDbEntity
  8
0
100
AcDbBlockEnd
  0
BLOCK
  5
AD
330
AA
100
AcDbEntity
  8
0
100
AcDbBlockBegin
  2
_SE_FILLED
 70
     0
 10
0.0
 20
0.0
 30
0.0
  3
_SE_FILLED
  1

  0
SOLID
  5
AB
330
AA
100
AcDbEntity
  8
0
 62
     0
100
AcDbTrace
 10
0.0
 20
0.0
 30
0.0
 11
-1.0
 21
-0.1665
 31
0.0
 12
-1.0
 22
0.1665
 32
0.0
 13
0.0
 23
0.0
 33
0.0
  0
LINE
  5
AC
330
AA
100
AcDbEntity
  8
0
 62
     0
100
AcDbLine
 10
0.0
 20
0.0
 30
0.0
 11
-1.0
 21
0.0
 31
0.0
  0
ENDBLK
  5
AE
330
AA
100
AcDbEntity
  8
0
100
AcDbBlockEnd
  0
BLOCK
  5
BC
330
AF
100
AcDbEntity
  8
0
100
AcDbBlockBegin
  2
SE
 70
     0
 10
0.0
 20
0.0
 30
0.0
  3
SE
  1

  0
LINE
  5
B2
330
AF
100
AcDbEntity
  8
BS002-P100-01A
  6
Continuous
 62
     7
100
AcDbLine
 10
151.7301302322036
 20
166.8778294574226
 30
0.0
 11
151.7301302322036
 21
201.8778294574226
 31
0.0
  0
LINE
  5
B3
330
AF
100
AcDbEntity
  8
BS002-P100-01A
  6
Continuous
 62
     7
100
AcDbLine
 10
207.7301302322036
 20
166.8778294574226
 30
0.0
 11
207.7301302322036
 21
201.8778294574226
 31
0.0
  0
LINE
  5
B4
330
AF
100
AcDbEntity
  8
BS002-P100-01A
  6
Continuous
 62
     7
100
AcDbLine
 10
151.7301302322036
 20
201.8778294574226
 30
0.0
 11
207.7301302322036
 21
201.8778294574226
 31
0.0
  0
LINE
  5
B5
330
AF
100
AcDbEntity
  8
BS002-P100-01A
  6
Continuous
 62
     7
100
AcDbLine
 10
151.7301302322036
 20
166.8778294574226
 30
0.0
 11
207.7301302322036
 21
166.8778294574226
 31
0.0
  0
CIRCLE
  5
B6
330
AF
100
AcDbEntity
  8
BS002-P100-01A
  6
Continuous
 62
     7
100
AcDbCircle
 10
164.7301302322036
 20
181.8778294574226
 30
0.0
 40
3.299999999999999
  0
CIRCLE
  5
B7
330
AF
100
AcDbEntity
  8
BS002-P100-01A
  6
Continuous
 62
     7
100
AcDbCircle
 10
164.7301302322035
 20
181.8778294574226
 30
0.0
 40
5.499999999999999
  0
CIRCLE
  5
B8
330
AF
100
AcDbEntity
  8
BS002-P100-01A
  6
Continuous
 62
     7
100
AcDbCircle
 10
194.7301302322036
 20
181.8778294574226
 30
0.0
 40
3.299999999999999
  0
CIRCLE
  5
B9
330
AF
100
AcDbEntity
  8
BS002-P100-01A
  6
Continuous
 62
     7
100
AcDbCircle
 10
194.7301302322036
 20
181.8778294574226
 30
0.0
 40
5.499999999999999
  0
LINE
  5
BB
330
AF
100
AcDbEntity
  8
BS002-P100-01A
  6
HIDDEN2
 62
     7
100
AcDbLine
 10
151.7301302322036
 20
196.8778294574226
 30
0.0
 11
207.7301302322036
 21
196.8778294574226
 31
0.0
  0
ENDBLK
  5
BD
330
AF
100
AcDbEntity
  8
0
100
AcDbBlockEnd
  0
BLOCK
  5
CA
330
BE
100
AcDbEntity
  8
0
100
AcDbBlockBegin
  2
SE1
 70
     0
 10
0.0
 20
0.0
 30
0.0
  3
SE1
  1

  0
LINE
  5
C0
330
BE
100
AcDbEntity
  8
BS002-P100-01A
  6
Continuous
 62
     7
100
AcDbLine
 10
299.2043038763117
 20
166.8778294574226
 30
0.0
 11
299.2043038763117
 21
201.8778294574226
 31
0.0
  0
LINE
  5
C1
330
BE
100
AcDbEntity
  8
BS002-P100-01A
  6
Continuous
 62
     7
100
AcDbLine
 10
335.2043038763117
 20
166.8778294574226
 30
0.0
 11
299.2043038763117
 21
166.8778294574226
 31
0.0
  0
LINE
  5
C2
330
BE
100
AcDbEntity
  8
BS002-P100-01A
  6
Continuous
 62
     7
100
AcDbLine
 10
299.2043038763117
 20
201.8778294574226
 30
0.0
 11
330.2043038763117
 21
201.8778294574226
 31
0.0
  0
LINE
  5
C3
330
BE
100
AcDbEntity
  8
BS002-P100-01A
  6
HIDDEN2
 62
     7
100
AcDbLine
 10
322.2043038763117
 20
187.3778294574226
 30
0.0
 11
322.2043038763117
 21
176.3778294574226
 31
0.0
  0
LINE
  5
C4
330
BE
100
AcDbEntity
  8
BS002-P100-01A
  6
Continuous
 62
     7
100
AcDbLine
 10
335.2043038763117
 20
196.8778294574226
 30
0.0
 11
335.2043038763117
 21
166.8778294574226
 31
0.0
  0
LINE
  5
C5
330
BE
100
AcDbEntity
  8
BS002-P100-01A
  6
Continuous
 62
     7
100
AcDbLine
 10
335.2043038763117
 20
196.8778294574226
 30
0.0
 11
330.2043038763117
 21
201.8778294574226
 31
0.0
  0
LINE
  5
C6
330
BE
100
AcDbEntity
  8
BS002-P100-01A
  6
HIDDEN2
 62
     7
100
AcDbLine
 10
322.2043038763117
 20
178.5778294574226
 30
0.0
 11
335.2043038763117
 21
178.5778294574226
 31
0.0
  0
LINE
  5
C7
330
BE
100
AcDbEntity
  8
BS002-P100-01A
  6
HIDDEN2
 62
     7
100
AcDbLine
 10
335.2043038763117
 20
185.1778294574226
 30
0.0
 11
322.2043038763117
 21
185.1778294574226
 31
0.0
  0
LINE
  5
C8
330
BE
100
AcDbEntity
  8
BS002-P100-01A
  6
HIDDEN2
 62
     7
100
AcDbLine
 10
322.2043038763117
 20
187.3778294574226
 30
0.0
 11
299.2043038763117
 21
187.3778294574226
 31
0.0
  0
LINE
  5
C9
330
BE
100
AcDbEntity
  8
BS002-P100-01A
  6
HIDDEN2
 62
     7
100
AcDbLine
 10
299.2043038763117
 20
176.3778294574226
 30
0.0
 11
322.2043038763117
 21
176.3778294574226
 31
0.0
  0
ENDBLK
  5
CB
330
BE
100
AcDbEntity
  8
0
100
AcDbBlockEnd
  0
BLOCK
  5
DA
330
CC
100
AcDbEntity
  8
0
100
AcDbBlockBegin
  2
SE2
 70
     0
 10
0.0
 20
0.0
 30
0.0
  3
SE2
  1

  0
LINE
  5
CE
330
CC
100
AcDbEntity
  8
BS002-P100-01A
  6
Continuous
 62
     7
100
AcDbLine
 10
394.3350731049871
 20
271.5759672630822
 30
0.0
 11
394.3350731049871
 21
295.3904508734743
 31
0.0
  0
LINE
  5
CF
330
CC
100
AcDbEntity
  8
BS002-P100-01A
  6
Continuous
 62
     7
100
AcDbLine
 10
394.3350731049871
 20
295.3904508734743
 30
0.0
 11
412.6019982856396
 21
305.9368650437907
 31
0.0
  0
LINE
  5
D0
330
CC
100
AcDbEntity
  8
BS002-P100-01A
  6
Continuous
 62
     7
100
AcDbLine
 10
427.3333895603594
 20
252.5243803747686
 30
0.0
 11
427.3333895603594
 21
276.3388639851607
 31
0.0
  0
LINE
  5
D1
330
CC
100
AcDbEntity
  8
BS002-P100-01A
  6
Continuous
 62
     7
100
AcDbLine
 10
448.5465929959558
 20
264.7718290886846
 30
0.0
 11
427.3333895603594
 21
252.5243803747687
 31
0.0
  0
LINE
  5
D2
330
CC
100
AcDbEntity
  8
BS002-P100-01A
  6
Continuous
 62
     7
100
AcDbLine
 10
427.3333895603594
 20
276.3388639851607
 30
0.0
 11
445.6003147410119
 21
286.8852781554771
 31
0.0
  0
LINE
  5
D3
330
CC
100
AcDbEntity
  8
BS002-P100-01A
  6
Continuous
 62
     7
100
AcDbLine
 10
394.3350731049871
 20
295.3904508734743
 30
0.0
 11
427.3333895603594
 21
276.3388639851606
 31
0.0
  0
LINE
  5
D4
330
CC
100
AcDbEntity
  8
BS002-P100-01A
  6
Continuous
 62
     7
100
AcDbLine
 10
394.3350731049871
 20
271.5759672630822
 30
0.0
 11
427.3333895603594
 21
252.5243803747686
 31
0.0
  0
ELLIPSE
  5
D5
330
CC
100
AcDbEntity
  8
BS002-P100-01A
  6
Continuous
 62
     7
100
AcDbEllipse
 10
401.9953965678414
 20
277.3594847113204
 30
0.0
 11
2.291666666666668
 21
-3.96928310067868
 31
0.0
210
0.0
220
0.0
230
1.0
 40
0.5773502691896254
 41
0.0
 42
6.283185307179586
  0
ELLIPSE
  5
D6
330
CC
100
AcDbEntity
  8
BS002-P100-01A
  6
Continuous
 62
     7
100
AcDbEllipse
 10
419.6730660975051
 20
267.1532774497238
 30
0.0
 11
2.291666666666668
 21
-3.96928310067868
 31
0.0
210
0.0
220
0.0
230
1.0
 40
0.5773502691896258
 41
0.0
 42
6.283185307179586
  0
LINE
  5
D7
330
CC
100
AcDbEntity
  8
BS002-P100-01A
  6
Continuous
 62
     7
100
AcDbLine
 10
448.5465929959558
 20
285.1842436118777
 30
0.0
 11
448.5465929959558
 21
264.7718290886846
 31
0.0
  0
LINE
  5
D8
330
CC
100
AcDbEntity
  8
BS002-P100-01A
  6
Continuous
 62
     7
100
AcDbLine
 10
448.5465929959558
 20
285.1842436118777
 30
0.0
 11
445.6003147410119
 21
286.8852781554771
 31
0.0
  0
LINE
  5
D9
330
CC
100
AcDbEntity
  8
BS002-P100-01A
  6
Continuous
 62
     7
100
AcDbLine
 10
445.6003147410119
 20
286.8852781554771
 30
0.0
 11
412.6019982856396
 21
305.9368650437908
 31
0.0
  0
ENDBLK
  5
DB
330
CC
100
AcDbEntity
  8
0
100
AcDbBlockEnd
  0
BLOCK
  5
DE
330
DD
100
AcDbEntity
  8
0
100
AcDbBlockBegin
  2
_Oblique
 70
     0
 10
0.0
 20
0.0
 30
0.0
  3
_Oblique
  1

  0
LINE
  5
E0
330
DD
100
AcDbEntity
  8
0
  6
ByBlock
 62
     0
370
    -2
100
AcDbLine
 10
-0.5
 20
-0.5
 30
0.0
 11
0.5
 21
0.5
 31
0.0
  0
ENDBLK
  5
DF
330
DD
100
AcDbEntity
  8
0
100
AcDbBlockEnd
  0
BLOCK
  5
E2
330
E1
100
AcDbEntity
  8
0
100
AcDbBlockBegin
  2
_Dot
 70
     0
 10
0.0
 20
0.0
 30
0.0
  3
_Dot
  1

  0
LWPOLYLINE
  5
E4
330
E1
100
AcDbEntity
  8
0
  6
ByBlock
 62
     0
100
AcDbPolyline
 90
        2
 70
     1
 43
0.5
 10
-0.25
 20
0.0
 42
1.0
 10
0.25
 20
0.0
 42
1.0
  0
LINE
  5
E5
330
E1
100
AcDbEntity
  8
0
  6
ByBlock
 62
     0
370
    -2
100
AcDbLine
 10
-0.5
 20
0.0
 30
0.0
 11
-1.0
 21
0.0
 31
0.0
  0
ENDBLK
  5
E3
330
E1
100
AcDbEntity
  8
0
100
AcDbBlockEnd
  0
BLOCK
  5
EF
330
E8
100
AcDbEntity
  8
0
100
AcDbBlockBegin
  2
DMBLK1
 70
     0
 10
0.0
 20
0.0
 30
0.0
  3
DMBLK1
  1

  0
HATCH
  5
E9
330
E8
100
AcDbEntity
  8
Default
  6
Continuous
 62
     7
100
AcDbHatch
 10
0.0
 20
0.0
 30
0.0
210
0.0
220
0.0
230
1.0
  2
SOLID
 70
     1
 71
     0
 91
        1
 92
        1
 93
        3
 72
     1
 10
168.7301304221934
 20
150.2205038102721
 11
168.7301304221934
 21
151.5538372069354
 72
     1
 10
168.7301304221934
 20
151.5538372069354
 11
164.7301302322035
 21
150.8871705086038
 72
     1
 10
164.7301302322035
 20
150.8871705086038
 11
168.7301304221934
 21
150.2205038102721
 97
        0
 75
     0
 76
     1
 98
        0
  0
HATCH
  5
EA
330
E8
100
AcDbEntity
  8
Default
  6
Continuous
 62
     7
100
AcDbHatch
 10
0.0
 20
0.0
 30
0.0
210
0.0
220
0.0
230
1.0
  2
SOLID
 70
     1
 71
     0
 91
        1
 92
        1
 93
        3
 72
     1
 10
190.7301287507798
 20
150.2205038102721
 11
194.7301289407696
 21
150.8871705086038
 72
     1
 10
194.7301289407696
 20
150.8871705086038
 11
190.7301287507798
 21
151.5538372069354
 72
     1
 10
190.7301287507798
 20
151.5538372069354
 11
190.7301287507798
 21
150.2205038102721
 97
        0
 75
     0
 76
     1
 98
        0
  0
LINE
  5
EB
330
E8
100
AcDbEntity
  8
Default
  6
Continuous
 62
     7
100
AcDbLine
 10
164.7301302322035
 20
179.8778293624277
 30
0.0
 11
164.7301302322035
 21
148.8871704136089
 31
0.0
  0
LINE
  5
EC
330
E8
100
AcDbEntity
  8
Default
  6
Continuous
 62
     7
100
AcDbLine
 10
194.7301302322036
 20
179.8778293624277
 30
0.0
 11
194.7301302322036
 21
148.8871704136089
 31
0.0
  0
LINE
  5
ED
330
E8
100
AcDbEntity
  8
Default
  6
Continuous
 62
     7
100
AcDbLine
 10
164.7301302322035
 20
150.8871705086038
 30
0.0
 11
194.7301289407696
 21
150.8871705086038
 31
0.0
  0
TEXT
  5
EE
330
E8
100
AcDbEntity
  8
Default
  6
Continuous
 62
     7
100
AcDbText
 10
177.5028568592139
 20
151.8871705086038
 30
0.0
 40
4.0
  1
30
  7
SEACAD_Solid_Edge_ISO
 11
177.5028568592139
 21
155.8871705086038
 31
0.0
100
AcDbText
 73
     3
  0
ENDBLK
  5
F0
330
E8
100
AcDbEntity
  8
0
100
AcDbBlockEnd
  0
BLOCK
  5
F9
330
F2
100
AcDbEntity
  8
0
100
AcDbBlockBegin
  2
DMBLK2
 70
     0
 10
0.0
 20
0.0
 30
0.0
  3
DMBLK2
  1

  0
HATCH
  5
F3
330
F2
100
AcDbEntity
  8
Default
  6
Continuous
 62
     7
100
AcDbHatch
 10
0.0
 20
0.0
 30
0.0
210
0.0
220
0.0
230
1.0
  2
SOLID
 70
     1
 71
     0
 91
        1
 92
        1
 93
        3
 72
     1
 10
155.7301304221934
 20
150.2205031645551
 11
155.7301304221934
 21
151.5538365612184
 72
     1
 10
155.7301304221934
 20
151.5538365612184
 11
151.7301302322036
 21
150.8871698628868
 72
     1
 10
151.7301302322036
 20
150.8871698628868
 11
155.7301304221934
 21
150.2205031645551
 97
        0
 75
     0
 76
     1
 98
        0
  0
HATCH
  5
F4
330
F2
100
AcDbEntity
  8
Default
  6
Continuous
 62
     7
100
AcDbHatch
 10
0.0
 20
0.0
 30
0.0
210
0.0
220
0.0
230
1.0
  2
SOLID
 70
     1
 71
     0
 91
        1
 92
        1
 93
        3
 72
     1
 10
160.730129689553
 20
150.2205031645551
 11
164.7301298795428
 21
150.8871698628868
 72
     1
 10
164.7301298795428
 20
150.8871698628868
 11
160.730129689553
 21
151.5538365612184
 72
     1
 10
160.730129689553
 20
151.5538365612184
 11
160.730129689553
 21
150.2205031645551
 97
        0
 75
     0
 76
     1
 98
        0
  0
LINE
  5
F5
330
F2
100
AcDbEntity
  8
Default
  6
Continuous
 62
     7
100
AcDbLine
 10
151.7301302322036
 20
164.8778293624277
 30
0.0
 11
151.7301302322036
 21
148.8871697678919
 31
0.0
  0
LINE
  5
F6
330
F2
100
AcDbEntity
  8
Default
  6
Continuous
 62
     7
100
AcDbLine
 10
164.7301302322036
 20
179.8778293624277
 30
0.0
 11
164.7301302322036
 21
148.8871697678919
 31
0.0
  0
LINE
  5
F7
330
F2
100
AcDbEntity
  8
Default
  6
Continuous
 62
     7
100
AcDbLine
 10
151.7301302322036
 20
150.8871698628868
 30
0.0
 11
164.7301298795428
 21
150.8871698628868
 31
0.0
  0
TEXT
  5
F8
330
F2
100
AcDbEntity
  8
Default
  6
Continuous
 62
     7
100
AcDbText
 10
156.3664936922368
 20
151.8871698628868
 30
0.0
 40
4.0
  1
13
  7
SEACAD_Solid_Edge_ISO
 11
156.3664936922368
 21
155.8871698628868
 31
0.0
100
AcDbText
 73
     3
  0
ENDBLK
  5
FA
330
F2
100
AcDbEntity
  8
0
100
AcDbBlockEnd
  0
BLOCK
  5
103
330
FC
100
AcDbEntity
  8
0
100
AcDbBlockBegin
  2
DMBLK3
 70
     0
 10
0.0
 20
0.0
 30
0.0
  3
DMBLK3
  1

  0
HATCH
  5
FD
330
FC
100
AcDbEntity
  8
Default
  6
Continuous
 62
     7
100
AcDbHatch
 10
0.0
 20
0.0
 30
0.0
210
0.0
220
0.0
230
1.0
  2
SOLID
 70
     1
 71
     0
 91
        1
 92
        1
 93
        3
 72
     1
 10
155.7301304221934
 20
141.4205044540023
 11
155.7301304221934
 21
142.7538378506655
 72
     1
 10
155.7301304221934
 20
142.7538378506655
 11
151.7301302322036
 21
142.0871711523339
 72
     1
 10
151.7301302322036
 20
142.0871711523339
 11
155.7301304221934
 21
141.4205044540023
 97
        0
 75
     0
 76
     1
 98
        0
  0
HATCH
  5
FE
330
FC
100
AcDbEntity
  8
Default
  6
Continuous
 62
     7
100
AcDbHatch
 10
0.0
 20
0.0
 30
0.0
210
0.0
220
0.0
230
1.0
  2
SOLID
 70
     1
 71
     0
 91
        1
 92
        1
 93
        3
 72
     1
 10
203.7301280454582
 20
141.4205044540023
 11
207.730128235448
 21
142.0871711523339
 72
     1
 10
207.730128235448
 20
142.0871711523339
 11
203.7301280454582
 21
142.7538378506655
 72
     1
 10
203.7301280454582
 20
142.7538378506655
 11
203.7301280454582
 21
141.4205044540023
 97
        0
 75
     0
 76
     1
 98
        0
  0
LINE
  5
FF
330
FC
100
AcDbEntity
  8
Default
  6
Continuous
 62
     7
100
AcDbLine
 10
151.7301302322036
 20
164.8778293624277
 30
0.0
 11
151.7301302322036
 21
140.087171057339
 31
0.0
  0
LINE
  5
100
330
FC
100
AcDbEntity
  8
Default
  6
Continuous
 62
     7
100
AcDbLine
 10
207.7301302322036
 20
164.8778293624277
 30
0.0
 11
207.7301302322036
 21
140.087171057339
 31
0.0
  0
LINE
  5
101
330
FC
100
AcDbEntity
  8
Default
  6
Continuous
 62
     7
100
AcDbLine
 10
151.7301302322036
 20
142.0871711523339
 30
0.0
 11
207.730128235448
 21
142.0871711523339
 31
0.0
  0
TEXT
  5
102
330
FC
100
AcDbEntity
  8
Default
  6
Continuous
 62
     7
100
AcDbText
 10
177.3664928701894
 20
143.0871711523339
 30
0.0
 40
4.0
  1
56
  7
SEACAD_Solid_Edge_ISO
 11
177.3664928701894
 21
147.0871711523339
 31
0.0
100
AcDbText
 73
     3
  0
ENDBLK
  5
104
330
FC
100
AcDbEntity
  8
0
100
AcDbBlockEnd
  0
BLOCK
  5
10A
330
105
100
AcDbEntity
  8
0
100
AcDbBlockBegin
  2
GDimGGroup
 70
     0
 10
0.0
 20
0.0
 30
0.0
  3
GDimGGroup
  1

  0
HATCH
  5
107
330
105
100
AcDbEntity
  8
Default
  6
Continuous
 62
     7
100
AcDbHatch
 10
0.0
 20
0.0
 30
0.0
210
0.0
220
0.0
230
1.0
  2
SOLID
 70
     1
 71
     0
 91
        1
 92
        1
 93
        3
 72
     1
 10
335.0613265200994
 20
202.6776613112078
 11
332.7043038763118
 21
199.3778294574226
 72
     1
 10
332.7043038763117
 20
199.3778294574226
 11
336.0041356270681
 21
201.7348522454505
 72
     1
 10
336.0041356270682
 20
201.7348522454505
 11
335.0613265200994
 21
202.6776613112078
 97
        0
 75
     0
 76
     1
 98
        0
  0
LINE
  5
108
330
105
100
AcDbEntity
  8
Default
  6
Continuous
 62
     7
100
AcDbLine
 10
332.7043038763117
 20
199.3778294574226
 30
0.0
 11
342.8853293073153
 21
209.558855333453
 31
0.0
  0
TEXT
  5
109
330
105
100
AcDbEntity
  8
Default
  6
Continuous
 62
     7
100
AcDbText
 10
338.1798549249262
 20
206.2675943386628
 30
0.0
 40
4.0
  1
C5
 50
45.00000125223908
  7
SEACAD_Solid_Edge_ISO
 11
335.3514277383628
 21
209.0960214015917
 31
0.0
100
AcDbText
 73
     3
  0
ENDBLK
  5
10B
330
105
100
AcDbEntity
  8
0
100
AcDbBlockEnd
  0
BLOCK
  5
114
330
10D
100
AcDbEntity
  8
0
100
AcDbBlockBegin
  2
DMBLK4
 70
     0
 10
0.0
 20
0.0
 30
0.0
  3
DMBLK4
  1

  0
HATCH
  5
10E
330
10D
100
AcDbEntity
  8
Default
  6
Continuous
 62
     7
100
AcDbHatch
 10
0.0
 20
0.0
 30
0.0
210
0.0
220
0.0
230
1.0
  2
SOLID
 70
     1
 71
     0
 91
        1
 92
        1
 93
        3
 72
     1
 10
230.0901324661608
 20
197.8778292674328
 11
229.4234657678292
 21
201.8778294574226
 72
     1
 10
229.4234657678292
 20
201.8778294574226
 11
228.7567990694976
 21
197.8778292674328
 72
     1
 10
228.7567990694976
 20
197.8778292674328
 11
230.0901324661609
 21
197.8778292674328
 97
        0
 75
     0
 76
     1
 98
        0
  0
HATCH
  5
10F
330
10D
100
AcDbEntity
  8
Default
  6
Continuous
 62
     7
100
AcDbHatch
 10
0.0
 20
0.0
 30
0.0
210
0.0
220
0.0
230
1.0
  2
SOLID
 70
     1
 71
     0
 91
        1
 92
        1
 93
        3
 72
     1
 10
230.0901324661608
 20
170.8778301192825
 11
228.7567990694976
 21
170.8778301192825
 72
     1
 10
228.7567990694976
 20
170.8778301192825
 11
229.4234657678292
 21
166.8778299292927
 72
     1
 10
229.4234657678292
 20
166.8778299292927
 11
230.0901324661608
 21
170.8778301192825
 97
        0
 75
     0
 76
     1
 98
        0
  0
LINE
  5
110
330
10D
100
AcDbEntity
  8
Default
  6
Continuous
 62
     7
100
AcDbLine
 10
209.7301303271985
 20
201.8778294574226
 30
0.0
 11
231.4234658628241
 21
201.8778294574226
 31
0.0
  0
LINE
  5
111
330
10D
100
AcDbEntity
  8
Default
  6
Continuous
 62
     7
100
AcDbLine
 10
209.7301303271985
 20
166.8778294574226
 30
0.0
 11
231.4234658628241
 21
166.8778294574226
 31
0.0
  0
LINE
  5
112
330
10D
100
AcDbEntity
  8
Default
  6
Continuous
 62
     7
100
AcDbLine
 10
229.4234657678292
 20
201.8778294574226
 30
0.0
 11
229.4234657678292
 21
166.8778299292927
 31
0.0
  0
TEXT
  5
113
330
10D
100
AcDbEntity
  8
Default
  6
Continuous
 62
     7
100
AcDbText
 10
228.4234657678292
 20
182.1960115115395
 30
0.0
 40
4.0
  1
35
 50
90.0
  7
SEACAD_Solid_Edge_ISO
 11
224.4234657678292
 21
182.1960115115395
 31
0.0
100
AcDbText
 73
     3
  0
ENDBLK
  5
115
330
10D
100
AcDbEntity
  8
0
100
AcDbBlockEnd
  0
BLOCK
  5
11E
330
117
100
AcDbEntity
  8
0
100
AcDbBlockBegin
  2
DMBLK5
 70
     0
 10
0.0
 20
0.0
 30
0.0
  3
DMBLK5
  1

  0
HATCH
  5
118
330
117
100
AcDbEntity
  8
Default
  6
Continuous
 62
     7
100
AcDbHatch
 10
0.0
 20
0.0
 30
0.0
210
0.0
220
0.0
230
1.0
  2
SOLID
 70
     1
 71
     0
 91
        1
 92
        1
 93
        3
 72
     1
 10
303.2043040663015
 20
150.2205036364253
 11
303.2043040663015
 21
151.5538370330885
 72
     1
 10
303.2043040663015
 20
151.5538370330885
 11
299.2043038763117
 21
150.8871703347569
 72
     1
 10
299.2043038763117
 20
150.8871703347569
 11
303.2043040663015
 21
150.2205036364253
 97
        0
 75
     0
 76
     1
 98
        0
  0
HATCH
  5
119
330
117
100
AcDbEntity
  8
Default
  6
Continuous
 62
     7
100
AcDbHatch
 10
0.0
 20
0.0
 30
0.0
210
0.0
220
0.0
230
1.0
  2
SOLID
 70
     1
 71
     0
 91
        1
 92
        1
 93
        3
 72
     1
 10
331.204304620128
 20
150.2205036364253
 11
335.2043048101178
 21
150.8871703347569
 72
     1
 10
335.2043048101178
 20
150.8871703347569
 11
331.204304620128
 21
151.5538370330885
 72
     1
 10
331.204304620128
 20
151.5538370330885
 11
331.204304620128
 21
150.2205036364253
 97
        0
 75
     0
 76
     1
 98
        0
  0
LINE
  5
11A
330
117
100
AcDbEntity
  8
Default
  6
Continuous
 62
     7
100
AcDbLine
 10
299.2043038763117
 20
164.8778302223489
 30
0.0
 11
299.2043038763117
 21
148.887170239762
 31
0.0
  0
LINE
  5
11B
330
117
100
AcDbEntity
  8
Default
  6
Continuous
 62
     7
100
AcDbLine
 10
335.2043038763117
 20
164.8778293624277
 30
0.0
 11
335.2043038763117
 21
148.887170239762
 31
0.0
  0
LINE
  5
11C
330
117
100
AcDbEntity
  8
Default
  6
Continuous
 62
     7
100
AcDbLine
 10
299.2043038763117
 20
150.8871703347569
 30
0.0
 11
335.2043048101178
 21
150.8871703347569
 31
0.0
  0
TEXT
  5
11D
330
117
100
AcDbEntity
  8
Default
  6
Continuous
 62
     7
100
AcDbText
 10
314.9315770704875
 20
151.8871703347569
 30
0.0
 40
4.0
  1
36
  7
SEACAD_Solid_Edge_ISO
 11
314.9315770704875
 21
155.8871703347569
 31
0.0
100
AcDbText
 73
     3
  0
ENDBLK
  5
11F
330
117
100
AcDbEntity
  8
0
100
AcDbBlockEnd
  0
BLOCK
  5
128
330
121
100
AcDbEntity
  8
0
100
AcDbBlockBegin
  2
DMBLK6
 70
     0
 10
0.0
 20
0.0
 30
0.0
  3
DMBLK6
  1

  0
HATCH
  5
122
330
121
100
AcDbEntity
  8
Default
  6
Continuous
 62
     7
100
AcDbHatch
 10
0.0
 20
0.0
 30
0.0
210
0.0
220
0.0
230
1.0
  2
SOLID
 70
     1
 71
     0
 91
        1
 92
        1
 93
        3
 72
     1
 10
221.2901318507429
 20
177.8778292674328
 11
220.6234651524113
 21
181.8778294574226
 72
     1
 10
220.6234651524113
 20
181.8778294574226
 11
219.9567984540796
 21
177.8778292674328
 72
     1
 10
219.9567984540796
 20
177.8778292674328
 11
221.2901318507429
 21
177.8778292674328
 97
        0
 75
     0
 76
     1
 98
        0
  0
HATCH
  5
123
330
121
100
AcDbEntity
  8
Default
  6
Continuous
 62
     7
100
AcDbHatch
 10
0.0
 20
0.0
 30
0.0
210
0.0
220
0.0
230
1.0
  2
SOLID
 70
     1
 71
     0
 91
        1
 92
        1
 93
        3
 72
     1
 10
221.2901318507429
 20
170.8778302931294
 11
219.9567984540796
 21
170.8778302931294
 72
     1
 10
219.9567984540796
 20
170.8778302931294
 11
220.6234651524112
 21
166.8778301031396
 72
     1
 10
220.6234651524113
 20
166.8778301031396
 11
221.2901318507429
 21
170.8778302931294
 97
        0
 75
     0
 76
     1
 98
        0
  0
LINE
  5
124
330
121
100
AcDbEntity
  8
Default
  6
Continuous
 62
     7
100
AcDbLine
 10
196.7301303271985
 20
181.8778294574226
 30
0.0
 11
222.6234652474061
 21
181.8778294574226
 31
0.0
  0
LINE
  5
125
330
121
100
AcDbEntity
  8
Default
  6
Continuous
 62
     7
100
AcDbLine
 10
209.7301303271985
 20
166.8778294574226
 30
0.0
 11
222.6234652474062
 21
166.8778294574226
 31
0.0
  0
LINE
  5
126
330
121
100
AcDbEntity
  8
Default
  6
Continuous
 62
     7
100
AcDbLine
 10
220.6234651524113
 20
181.8778294574226
 30
0.0
 11
220.6234651524113
 21
166.8778301031396
 31
0.0
  0
TEXT
  5
127
330
121
100
AcDbEntity
  8
Default
  6
Continuous
 62
     7
100
AcDbText
 10
219.6234651524113
 20
172.4232843257356
 30
0.0
 40
4.0
  1
15
 50
90.0
  7
SEACAD_Solid_Edge_ISO
 11
215.6234651524113
 21
172.4232843257356
 31
0.0
100
AcDbText
 73
     3
  0
ENDBLK
  5
129
330
121
100
AcDbEntity
  8
0
100
AcDbBlockEnd
  0
BLOCK
  5
165
330
163
100
AcDbEntity
  8
0
100
AcDbBlockBegin
  2
SEANNOT_GROUP7
 70
     0
 10
0.0
 20
0.0
 30
0.0
  3
SEANNOT_GROUP7
  1

  0
ENDBLK
  5
166
330
163
100
AcDbEntity
  8
0
100
AcDbBlockEnd
  0
BLOCK
  5
16A
330
168
100
AcDbEntity
  8
0
100
AcDbBlockBegin
  2
SEANNOT_GROUP8
 70
     0
 10
0.0
 20
0.0
 30
0.0
  3
SEANNOT_GROUP8
  1

  0
ENDBLK
  5
16B
330
168
100
AcDbEntity
  8
0
100
AcDbBlockEnd
  0
BLOCK
  5
16F
330
16D
100
AcDbEntity
  8
0
100
AcDbBlockBegin
  2
SEANNOT_GROUP9
 70
     0
 10
0.0
 20
0.0
 30
0.0
  3
SEANNOT_GROUP9
  1

  0
ENDBLK
  5
170
330
16D
100
AcDbEntity
  8
0
100
AcDbBlockEnd
  0
BLOCK
  5
174
330
172
100
AcDbEntity
  8
0
100
AcDbBlockBegin
  2
SEANNOT_GROUP10
 70
     0
 10
0.0
 20
0.0
 30
0.0
  3
SEANNOT_GROUP10
  1

  0
ENDBLK
  5
175
330
172
100
AcDbEntity
  8
0
100
AcDbBlockEnd
  0
BLOCK
  5
179
330
177
100
AcDbEntity
  8
0
100
AcDbBlockBegin
  2
SEANNOT_GROUP11
 70
     0
 10
0.0
 20
0.0
 30
0.0
  3
SEANNOT_GROUP11
  1

  0
ENDBLK
  5
17A
330
177
100
AcDbEntity
  8
0
100
AcDbBlockEnd
  0
BLOCK
  5
17E
330
17C
100
AcDbEntity
  8
0
100
AcDbBlockBegin
  2
SEANNOT_GROUP12
 70
     0
 10
0.0
 20
0.0
 30
0.0
  3
SEANNOT_GROUP12
  1

  0
ENDBLK
  5
17F
330
17C
100
AcDbEntity
  8
0
100
AcDbBlockEnd
  0
BLOCK
  5
184
330
182
100
AcDbEntity
  8
0
100
AcDbBlockBegin
  2
SEANNOT_GROUP13
 70
     0
 10
0.0
 20
0.0
 30
0.0
  3
SEANNOT_GROUP13
  1

  0
ENDBLK
  5
185
330
182
100
AcDbEntity
  8
0
100
AcDbBlockEnd
  0
BLOCK
  5
24A
330
245
100
AcDbEntity
  8
0
100
AcDbBlockBegin
  2
SEANNOT_GROUP14
 70
     0
 10
0.0
 20
0.0
 30
0.0
  3
SEANNOT_GROUP14
  1

  0
LINE
  5
247
330
245
100
AcDbEntity
  8
Default
  6
Continuous
 62
     7
100
AcDbLine
 10
224.3508613427533
 20
46.34756345619476
 30
0.0
 11
225.5055618811326
 21
44.34756345619476
 31
0.0
  0
LINE
  5
248
330
245
100
AcDbEntity
  8
Default
  6
Continuous
 62
     7
100
AcDbLine
 10
225.5055618811326
 20
44.34756345619476
 30
0.0
 11
226.6602624195119
 21
46.34756345619476
 31
0.0
  0
LINE
  5
249
330
245
100
AcDbEntity
  8
Default
  6
Continuous
 62
     7
100
AcDbLine
 10
226.6602624195119
 20
46.34756345619476
 30
0.0
 11
224.3508613427533
 21
46.34756345619476
 31
0.0
  0
ENDBLK
  5
24B
330
245
100
AcDbEntity
  8
0
100
AcDbBlockEnd
  0
BLOCK
  5
254
330
24C
100
AcDbEntity
  8
0
100
AcDbBlockBegin
  2
SEANNOT_GROUP15
 70
     0
 10
0.0
 20
0.0
 30
0.0
  3
SEANNOT_GROUP15
  1

  0
LINE
  5
24E
330
24C
100
AcDbEntity
  8
Default
  6
Continuous
 62
     7
100
AcDbLine
 10
225.6572958423463
 20
52.50937647138323
 30
0.0
 11
226.8119963807256
 21
50.50937647138323
 31
0.0
  0
LINE
  5
24F
330
24C
100
AcDbEntity
  8
Default
  6
Continuous
 62
     7
100
AcDbLine
 10
226.8119963807256
 20
50.50937647138323
 30
0.0
 11
227.9666969191049
 21
52.50937647138323
 31
0.0
  0
LINE
  5
250
330
24C
100
AcDbEntity
  8
Default
  6
Continuous
 62
     7
100
AcDbLine
 10
227.9666969191049
 20
52.50937647138323
 30
0.0
 11
225.6572958423463
 21
52.50937647138323
 31
0.0
  0
LINE
  5
251
330
24C
100
AcDbEntity
  8
Default
  6
Continuous
 62
     7
100
AcDbLine
 10
225.6572958423463
 20
52.50937647138323
 30
0.0
 11
224.502595303967
 21
50.50937647138323
 31
0.0
  0
LINE
  5
252
330
24C
100
AcDbEntity
  8
Default
  6
Continuous
 62
     7
100
AcDbLine
 10
224.502595303967
 20
50.50937647138323
 30
0.0
 11
223.3478947655877
 21
52.50937647138323
 31
0.0
  0
LINE
  5
253
330
24C
100
AcDbEntity
  8
Default
  6
Continuous
 62
     7
100
AcDbLine
 10
223.3478947655877
 20
52.50937647138323
 30
0.0
 11
225.6572958423463
 21
52.50937647138323
 31
0.0
  0
ENDBLK
  5
255
330
24C
100
AcDbEntity
  8
0
100
AcDbBlockEnd
  0
BLOCK
  5
261
330
256
100
AcDbEntity
  8
0
100
AcDbBlockBegin
  2
SEANNOT_GROUP16
 70
     0
 10
0.0
 20
0.0
 30
0.0
  3
SEANNOT_GROUP16
  1

  0
LINE
  5
258
330
256
100
AcDbEntity
  8
Default
  6
Continuous
 62
     7
100
AcDbLine
 10
252.8168748897814
 20
46.45395844528483
 30
0.0
 11
253.9715754281607
 21
44.45395844528483
 31
0.0
  0
LINE
  5
259
330
256
100
AcDbEntity
  8
Default
  6
Continuous
 62
     7
100
AcDbLine
 10
253.9715754281607
 20
44.45395844528483
 30
0.0
 11
255.12627596654
 21
46.45395844528483
 31
0.0
  0
LINE
  5
25A
330
256
100
AcDbEntity
  8
Default
  6
Continuous
 62
     7
100
AcDbLine
 10
255.12627596654
 20
46.45395844528483
 30
0.0
 11
252.8168748897814
 21
46.45395844528483
 31
0.0
  0
LINE
  5
25B
330
256
100
AcDbEntity
  8
Default
  6
Continuous
 62
     7
100
AcDbLine
 10
252.8168748897814
 20
46.45395844528483
 30
0.0
 11
251.6621743514021
 21
44.45395844528483
 31
0.0
  0
LINE
  5
25C
330
256
100
AcDbEntity
  8
Default
  6
Continuous
 62
     7
100
AcDbLine
 10
251.6621743514021
 20
44.45395844528483
 30
0.0
 11
250.5074738130228
 21
46.45395844528483
 31
0.0
  0
LINE
  5
25D
330
256
100
AcDbEntity
  8
Default
  6
Continuous
 62
     7
100
AcDbLine
 10
250.5074738130228
 20
46.45395844528483
 30
0.0
 11
252.8168748897814
 21
46.45395844528483
 31
0.0
  0
LINE
  5
25E
330
256
100
AcDbEntity
  8
Default
  6
Continuous
 62
     7
100
AcDbLine
 10
250.5074738130228
 20
46.45395844528483
 30
0.0
 11
249.3527732746435
 21
44.45395844528483
 31
0.0
  0
LINE
  5
25F
330
256
100
AcDbEntity
  8
Default
  6
Continuous
 62
     7
100
AcDbLine
 10
249.3527732746435
 20
44.45395844528483
 30
0.0
 11
248.1980727362642
 21
46.45395844528483
 31
0.0
  0
LINE
  5
260
330
256
100
AcDbEntity
  8
Default
  6
Continuous
 62
     7
100
AcDbLine
 10
248.1980727362642
 20
46.45395844528483
 30
0.0
 11
250.5074738130228
 21
46.45395844528483
 31
0.0
  0
ENDBLK
  5
262
330
256
100
AcDbEntity
  8
0
100
AcDbBlockEnd
  0
BLOCK
  5
271
330
263
100
AcDbEntity
  8
0
100
AcDbBlockBegin
  2
SEANNOT_GROUP17
 70
     0
 10
0.0
 20
0.0
 30
0.0
  3
SEANNOT_GROUP17
  1

  0
LINE
  5
265
330
263
100
AcDbEntity
  8
Default
  6
Continuous
 62
     7
100
AcDbLine
 10
254.209160896968
 20
52.38490136273374
 30
0.0
 11
255.3638614353473
 21
50.38490136273374
 31
0.0
  0
LINE
  5
266
330
263
100
AcDbEntity
  8
Default
  6
Continuous
 62
     7
100
AcDbLine
 10
255.3638614353474
 20
50.38490136273374
 30
0.0
 11
256.5185619737267
 21
52.38490136273374
 31
0.0
  0
LINE
  5
267
330
263
100
AcDbEntity
  8
Default
  6
Continuous
 62
     7
100
AcDbLine
 10
256.5185619737267
 20
52.38490136273374
 30
0.0
 11
254.209160896968
 21
52.38490136273374
 31
0.0
  0
LINE
  5
268
330
263
100
AcDbEntity
  8
Default
  6
Continuous
 62
     7
100
AcDbLine
 10
254.209160896968
 20
52.38490136273374
 30
0.0
 11
253.0544603585888
 21
50.38490136273374
 31
0.0
  0
LINE
  5
269
330
263
100
AcDbEntity
  8
Default
  6
Continuous
 62
     7
100
AcDbLine
 10
253.0544603585888
 20
50.38490136273374
 30
0.0
 11
251.8997598202095
 21
52.38490136273374
 31
0.0
  0
LINE
  5
26A
330
263
100
AcDbEntity
  8
Default
  6
Continuous
 62
     7
100
AcDbLine
 10
251.8997598202095
 20
52.38490136273374
 30
0.0
 11
254.209160896968
 21
52.38490136273374
 31
0.0
  0
LINE
  5
26B
330
263
100
AcDbEntity
  8
Default
  6
Continuous
 62
     7
100
AcDbLine
 10
251.8997598202095
 20
52.38490136273374
 30
0.0
 11
250.7450592818302
 21
50.38490136273374
 31
0.0
  0
LINE
  5
26C
330
263
100
AcDbEntity
  8
Default
  6
Continuous
 62
     7
100
AcDbLine
 10
250.7450592818302
 20
50.38490136273374
 30
0.0
 11
249.5903587434508
 21
52.38490136273374
 31
0.0
  0
LINE
  5
26D
330
263
100
AcDbEntity
  8
Default
  6
Continuous
 62
     7
100
AcDbLine
 10
249.5903587434508
 20
52.38490136273374
 30
0.0
 11
251.8997598202095
 21
52.38490136273374
 31
0.0
  0
LINE
  5
26E
330
263
100
AcDbEntity
  8
Default
  6
Continuous
 62
     7
100
AcDbLine
 10
249.5903587434508
 20
52.38490136273374
 30
0.0
 11
248.4356582050715
 21
50.38490136273374
 31
0.0
  0
LINE
  5
26F
330
263
100
AcDbEntity
  8
Default
  6
Continuous
 62
     7
100
AcDbLine
 10
248.4356582050715
 20
50.38490136273374
 30
0.0
 11
247.2809576666922
 21
52.38490136273374
 31
0.0
  0
LINE
  5
270
330
263
100
AcDbEntity
  8
Default
  6
Continuous
 62
     7
100
AcDbLine
 10
247.2809576666922
 20
52.38490136273374
 30
0.0
 11
249.5903587434508
 21
52.38490136273374
 31
0.0
  0
ENDBLK
  5
272
330
263
100
AcDbEntity
  8
0
100
AcDbBlockEnd
  0
BLOCK
  5
279
330
273
100
AcDbEntity
  8
0
100
AcDbBlockBegin
  2
SEANNOT_GROUP18
 70
     0
 10
0.0
 20
0.0
 30
0.0
  3
SEANNOT_GROUP18
  1

  0
LINE
  5
275
330
273
100
AcDbEntity
  8
Default
  6
Continuous
 62
     7
100
AcDbLine
 10
218.0465042800361
 20
52.61901919902761
 30
0.0
 11
219.2012048184153
 21
50.6190191990276
 31
0.0
  0
LINE
  5
276
330
273
100
AcDbEntity
  8
Default
  6
Continuous
 62
     7
100
AcDbLine
 10
219.2012048184153
 20
50.6190191990276
 30
0.0
 11
221.5106058967946
 21
54.61901919902761
 31
0.0
  0
LINE
  5
277
330
273
100
AcDbEntity
  8
Default
  6
Continuous
 62
     7
100
AcDbLine
 10
220.3559053567946
 20
52.61901919902761
 30
0.0
 11
218.0465042800361
 21
52.61901919902761
 31
0.0
  0
TEXT
  5
278
330
273
100
AcDbEntity
  8
Default
  6
Continuous
 62
     7
100
AcDbText
 10
218.867871485082
 20
52.95235253236095
 30
0.0
 40
1.333333333333333
  1
x
  7
SEACAD_Solid_Edge_ISO
 11
218.867871485082
 21
54.28568586569428
 31
0.0
100
AcDbText
 73
     3
  0
ENDBLK
  5
27A
330
273
100
AcDbEntity
  8
0
100
AcDbBlockEnd
  0
BLOCK
  5
281
330
27B
100
AcDbEntity
  8
0
100
AcDbBlockBegin
  2
SEANNOT_GROUP19
 70
     0
 10
0.0
 20
0.0
 30
0.0
  3
SEANNOT_GROUP19
  1

  0
LINE
  5
27D
330
27B
100
AcDbEntity
  8
Default
  6
Continuous
 62
     7
100
AcDbLine
 10
217.5124142676804
 20
46.30643348538637
 30
0.0
 11
218.6671148060597
 21
44.30643348538636
 31
0.0
  0
LINE
  5
27E
330
27B
100
AcDbEntity
  8
Default
  6
Continuous
 62
     7
100
AcDbLine
 10
218.6671148060597
 20
44.30643348538636
 30
0.0
 11
220.976515884439
 21
48.30643348538637
 31
0.0
  0
LINE
  5
27F
330
27B
100
AcDbEntity
  8
Default
  6
Continuous
 62
     7
100
AcDbLine
 10
219.821815344439
 20
46.30643348538637
 30
0.0
 11
217.5124142676804
 21
46.30643348538637
 31
0.0
  0
TEXT
  5
280
330
27B
100
AcDbEntity
  8
Default
  6
Continuous
 62
     7
100
AcDbText
 10
218.1974178363627
 20
46.63976681871971
 30
0.0
 40
1.333333333333333
  1
w
  7
SEACAD_Solid_Edge_ISO
 11
218.1974178363627
 21
47.97310015205304
 31
0.0
100
AcDbText
 73
     3
  0
ENDBLK
  5
282
330
27B
100
AcDbEntity
  8
0
100
AcDbBlockEnd
  0
BLOCK
  5
289
330
283
100
AcDbEntity
  8
0
100
AcDbBlockBegin
  2
SEANNOT_GROUP20
 70
     0
 10
0.0
 20
0.0
 30
0.0
  3
SEANNOT_GROUP20
  1

  0
LINE
  5
285
330
283
100
AcDbEntity
  8
Default
  6
Continuous
 62
     7
100
AcDbLine
 10
242.6215083495315
 20
52.54019730777087
 30
0.0
 11
243.7762088879107
 21
50.54019730777086
 31
0.0
  0
LINE
  5
286
330
283
100
AcDbEntity
  8
Default
  6
Continuous
 62
     7
100
AcDbLine
 10
243.7762088879107
 20
50.54019730777087
 30
0.0
 11
246.08560996629
 21
54.54019730777087
 31
0.0
  0
LINE
  5
287
330
283
100
AcDbEntity
  8
Default
  6
Continuous
 62
     7
100
AcDbLine
 10
244.93090942629
 20
52.54019730777087
 30
0.0
 11
242.6215083495315
 21
52.54019730777087
 31
0.0
  0
TEXT
  5
288
330
283
100
AcDbEntity
  8
Default
  6
Continuous
 62
     7
100
AcDbText
 10
243.3974210091229
 20
52.8735306411042
 30
0.0
 40
1.333333333333333
  1
z
  7
SEACAD_Solid_Edge_ISO
 11
243.3974210091229
 21
54.20686397443754
 31
0.0
100
AcDbText
 73
     3
  0
ENDBLK
  5
28A
330
283
100
AcDbEntity
  8
0
100
AcDbBlockEnd
  0
BLOCK
  5
291
330
28B
100
AcDbEntity
  8
0
100
AcDbBlockBegin
  2
SEANNOT_GROUP21
 70
     0
 10
0.0
 20
0.0
 30
0.0
  3
SEANNOT_GROUP21
  1

  0
LINE
  5
28D
330
28B
100
AcDbEntity
  8
Default
  6
Continuous
 62
     7
100
AcDbLine
 10
242.7751639964706
 20
46.55674701679208
 30
0.0
 11
243.9298645348498
 21
44.55674701679207
 31
0.0
  0
LINE
  5
28E
330
28B
100
AcDbEntity
  8
Default
  6
Continuous
 62
     7
100
AcDbLine
 10
243.9298645348498
 20
44.55674701679207
 30
0.0
 11
246.2392656132292
 21
48.55674701679208
 31
0.0
  0
LINE
  5
28F
330
28B
100
AcDbEntity
  8
Default
  6
Continuous
 62
     7
100
AcDbLine
 10
245.0845650732291
 20
46.55674701679208
 30
0.0
 11
242.7751639964706
 21
46.55674701679208
 31
0.0
  0
TEXT
  5
290
330
28B
100
AcDbEntity
  8
Default
  6
Continuous
 62
     7
100
AcDbText
 10
243.5965312015165
 20
46.8900803501254
 30
0.0
 40
1.333333333333333
  1
y
  7
SEACAD_Solid_Edge_ISO
 11
243.5965312015165
 21
48.22341368345874
 31
0.0
100
AcDbText
 73
     3
  0
ENDBLK
  5
292
330
28B
100
AcDbEntity
  8
0
100
AcDbBlockEnd
  0
BLOCK
  5
2DB
330
2BA
100
AcDbEntity
  8
0
100
AcDbBlockBegin
  2
SE3
 70
     0
 10
0.0
 20
0.0
 30
0.0
  3
SE3
  1

  0
INSERT
  5
2BD
330
2BA
100
AcDbEntity
  8
Default
100
AcDbBlockReference
  2
SE4
 10
0.0
 20
0.0
 30
0.0
  0
ENDBLK
  5
2DC
330
2BA
100
AcDbEntity
  8
0
100
AcDbBlockEnd
  0
BLOCK
  5
2D9
330
2BC
100
AcDbEntity
  8
0
100
AcDbBlockBegin
  2
SE4
 70
     0
 10
0.0
 20
0.0
 30
0.0
  3
SE4
  1

  0
INSERT
  5
2BF
330
2BC
100
AcDbEntity
  8
0
100
AcDbBlockReference
  2
SE5
 10
0.0
 20
0.0
 30
0.0
  0
INSERT
  5
2C8
330
2BC
100
AcDbEntity
  8
0
100
AcDbBlockReference
  2
SE7
 10
0.0
 20
0.0
 30
0.0
  0
INSERT
  5
2D1
330
2BC
100
AcDbEntity
  8
0
100
AcDbBlockReference
  2
SE9
 10
0.0
 20
0.0
 30
0.0
  0
ENDBLK
  5
2DA
330
2BC
100
AcDbEntity
  8
0
100
AcDbBlockEnd
  0
BLOCK
  5
2C5
330
2BE
100
AcDbEntity
  8
0
100
AcDbBlockBegin
  2
SE5
 70
     0
 10
0.0
 20
0.0
 30
0.0
  3
SE5
  1

  0
INSERT
  5
2C1
330
2BE
100
AcDbEntity
  8
Default
100
AcDbBlockReference
  2
SE6
 10
0.0
 20
0.0
 30
0.0
  0
ENDBLK
  5
2C6
330
2BE
100
AcDbEntity
  8
0
100
AcDbBlockEnd
  0
BLOCK
  5
2C3
330
2C0
100
AcDbEntity
  8
0
100
AcDbBlockBegin
  2
SE6
 70
     0
 10
0.0
 20
0.0
 30
0.0
  3
SE6
  1

  0
LINE
  5
2C2
330
2C0
100
AcDbEntity
  8
Default
  6
Continuous
 62
     7
100
AcDbLine
 10
245.3538282064259
 20
336.4079207355043
 30
0.0
 11
245.353828206426
 21
344.7412540688376
 31
0.0
  0
ENDBLK
  5
2C4
330
2C0
100
AcDbEntity
  8
0
100
AcDbBlockEnd
  0
BLOCK
  5
2CE
330
2C7
100
AcDbEntity
  8
0
100
AcDbBlockBegin
  2
SE7
 70
     0
 10
0.0
 20
0.0
 30
0.0
  3
SE7
  1

  0
INSERT
  5
2CA
330
2C7
100
AcDbEntity
  8
Default
100
AcDbBlockReference
  2
SE8
 10
0.0
 20
0.0
 30
0.0
  0
ENDBLK
  5
2CF
330
2C7
100
AcDbEntity
  8
0
100
AcDbBlockEnd
  0
BLOCK
  5
2CC
330
2C9
100
AcDbEntity
  8
0
100
AcDbBlockBegin
  2
SE8
 70
     0
 10
0.0
 20
0.0
 30
0.0
  3
SE8
  1

  0
LINE
  5
2CB
330
2C9
100
AcDbEntity
  8
Default
  6
Continuous
 62
     7
100
AcDbLine
 10
322.7427170953148
 20
336.4079207355043
 30
0.0
 11
322.7427170953149
 21
344.7412540688376
 31
0.0
  0
ENDBLK
  5
2CD
330
2C9
100
AcDbEntity
  8
0
100
AcDbBlockEnd
  0
BLOCK
  5
2D7
330
2D0
100
AcDbEntity
  8
0
100
AcDbBlockBegin
  2
SE9
 70
     0
 10
0.0
 20
0.0
 30
0.0
  3
SE9
  1

  0
INSERT
  5
2D3
330
2D0
100
AcDbEntity
  8
Default
100
AcDbBlockReference
  2
SE10
 10
0.0
 20
0.0
 30
0.0
  0
ENDBLK
  5
2D8
330
2D0
100
AcDbEntity
  8
0
100
AcDbBlockEnd
  0
BLOCK
  5
2D5
330
2D2
100
AcDbEntity
  8
0
100
AcDbBlockBegin
  2
SE10
 70
     0
 10
0.0
 20
0.0
 30
0.0
  3
SE10
  1

  0
LINE
  5
2D4
330
2D2
100
AcDbEntity
  8
Default
  6
Continuous
 62
     7
100
AcDbLine
 10
400.1316059842037
 20
336.4079207355043
 30
0.0
 11
400.1316059842038
 21
344.7412540688376
 31
0.0
  0
ENDBLK
  5
2D6
330
2D2
100
AcDbEntity
  8
0
100
AcDbBlockEnd
  0
BLOCK
  5
2FE
330
2DD
100
AcDbEntity
  8
0
100
AcDbBlockBegin
  2
SE11
 70
     0
 10
0.0
 20
0.0
 30
0.0
  3
SE11
  1

  0
INSERT
  5
2E0
330
2DD
100
AcDbEntity
  8
Default
100
AcDbBlockReference
  2
SE12
 10
0.0
 20
0.0
 30
0.0
  0
ENDBLK
  5
2FF
330
2DD
100
AcDbEntity
  8
0
100
AcDbBlockEnd
  0
BLOCK
  5
2FC
330
2DF
100
AcDbEntity
  8
0
100
AcDbBlockBegin
  2
SE12
 70
     0
 10
0.0
 20
0.0
 30
0.0
  3
SE12
  1

  0
INSERT
  5
2E2
330
2DF
100
AcDbEntity
  8
0
100
AcDbBlockReference
  2
SE13
 10
0.0
 20
0.0
 30
0.0
  0
INSERT
  5
2EB
330
2DF
100
AcDbEntity
  8
0
100
AcDbBlockReference
  2
SE15
 10
0.0
 20
0.0
 30
0.0
  0
INSERT
  5
2F4
330
2DF
100
AcDbEntity
  8
0
100
AcDbBlockReference
  2
SE17
 10
0.0
 20
0.0
 30
0.0
  0
ENDBLK
  5
2FD
330
2DF
100
AcDbEntity
  8
0
100
AcDbBlockEnd
  0
BLOCK
  5
2E8
330
2E1
100
AcDbEntity
  8
0
100
AcDbBlockBegin
  2
SE13
 70
     0
 10
0.0
 20
0.0
 30
0.0
  3
SE13
  1

  0
INSERT
  5
2E4
330
2E1
100
AcDbEntity
  8
Default
100
AcDbBlockReference
  2
SE14
 10
0.0
 20
0.0
 30
0.0
  0
ENDBLK
  5
2E9
330
2E1
100
AcDbEntity
  8
0
100
AcDbBlockEnd
  0
BLOCK
  5
2E6
330
2E3
100
AcDbEntity
  8
0
100
AcDbBlockBegin
  2
SE14
 70
     0
 10
0.0
 20
0.0
 30
0.0
  3
SE14
  1

  0
LINE
  5
2E5
330
2E3
100
AcDbEntity
  8
Default
  6
Continuous
 62
     7
100
AcDbLine
 10
245.3538282064259
 20
336.4079207355043
 30
0.0
 11
245.3538282064258
 21
344.7412540688376
 31
0.0
  0
ENDBLK
  5
2E7
330
2E3
100
AcDbEntity
  8
0
100
AcDbBlockEnd
  0
BLOCK
  5
2F1
330
2EA
100
AcDbEntity
  8
0
100
AcDbBlockBegin
  2
SE15
 70
     0
 10
0.0
 20
0.0
 30
0.0
  3
SE15
  1

  0
INSERT
  5
2ED
330
2EA
100
AcDbEntity
  8
Default
100
AcDbBlockReference
  2
SE16
 10
0.0
 20
0.0
 30
0.0
  0
ENDBLK
  5
2F2
330
2EA
100
AcDbEntity
  8
0
100
AcDbBlockEnd
  0
BLOCK
  5
2EF
330
2EC
100
AcDbEntity
  8
0
100
AcDbBlockBegin
  2
SE16
 70
     0
 10
0.0
 20
0.0
 30
0.0
  3
SE16
  1

  0
LINE
  5
2EE
330
2EC
100
AcDbEntity
  8
Default
  6
Continuous
 62
     7
100
AcDbLine
 10
167.964939317537
 20
336.4079207355043
 30
0.0
 11
167.9649393175369
 21
344.7412540688376
 31
0.0
  0
ENDBLK
  5
2F0
330
2EC
100
AcDbEntity
  8
0
100
AcDbBlockEnd
  0
BLOCK
  5
2FA
330
2F3
100
AcDbEntity
  8
0
100
AcDbBlockBegin
  2
SE17
 70
     0
 10
0.0
 20
0.0
 30
0.0
  3
SE17
  1

  0
INSERT
  5
2F6
330
2F3
100
AcDbEntity
  8
Default
100
AcDbBlockReference
  2
SE18
 10
0.0
 20
0.0
 30
0.0
  0
ENDBLK
  5
2FB
330
2F3
100
AcDbEntity
  8
0
100
AcDbBlockEnd
  0
BLOCK
  5
2F8
330
2F5
100
AcDbEntity
  8
0
100
AcDbBlockBegin
  2
SE18
 70
     0
 10
0.0
 20
0.0
 30
0.0
  3
SE18
  1

  0
LINE
  5
2F7
330
2F5
100
AcDbEntity
  8
Default
  6
Continuous
 62
     7
100
AcDbLine
 10
90.5760504286481
 20
336.4079207355043
 30
0.0
 11
90.57605042864806
 21
344.7412540688376
 31
0.0
  0
ENDBLK
  5
2F9
330
2F5
100
AcDbEntity
  8
0
100
AcDbBlockEnd
  0
BLOCK
  5
321
330
300
100
AcDbEntity
  8
0
100
AcDbBlockBegin
  2
SE19
 70
     0
 10
0.0
 20
0.0
 30
0.0
  3
SE19
  1

  0
INSERT
  5
303
330
300
100
AcDbEntity
  8
Default
100
AcDbBlockReference
  2
SE20
 10
0.0
 20
0.0
 30
0.0
  0
ENDBLK
  5
322
330
300
100
AcDbEntity
  8
0
100
AcDbBlockEnd
  0
BLOCK
  5
31F
330
302
100
AcDbEntity
  8
0
100
AcDbBlockBegin
  2
SE20
 70
     0
 10
0.0
 20
0.0
 30
0.0
  3
SE20
  1

  0
INSERT
  5
305
330
302
100
AcDbEntity
  8
0
100
AcDbBlockReference
  2
SE21
 10
0.0
 20
0.0
 30
0.0
  0
INSERT
  5
30E
330
302
100
AcDbEntity
  8
0
100
AcDbBlockReference
  2
SE23
 10
0.0
 20
0.0
 30
0.0
  0
INSERT
  5
317
330
302
100
AcDbEntity
  8
0
100
AcDbBlockReference
  2
SE25
 10
0.0
 20
0.0
 30
0.0
  0
ENDBLK
  5
320
330
302
100
AcDbEntity
  8
0
100
AcDbBlockEnd
  0
BLOCK
  5
30B
330
304
100
AcDbEntity
  8
0
100
AcDbBlockBegin
  2
SE21
 70
     0
 10
0.0
 20
0.0
 30
0.0
  3
SE21
  1

  0
INSERT
  5
307
330
304
100
AcDbEntity
  8
Default
100
AcDbBlockReference
  2
SE22
 10
0.0
 20
0.0
 30
0.0
  0
ENDBLK
  5
30C
330
304
100
AcDbEntity
  8
0
100
AcDbBlockEnd
  0
BLOCK
  5
309
330
306
100
AcDbEntity
  8
0
100
AcDbBlockBegin
  2
SE22
 70
     0
 10
0.0
 20
0.0
 30
0.0
  3
SE22
  1

  0
LINE
  5
308
330
306
100
AcDbEntity
  8
Default
  6
Continuous
 62
     7
100
AcDbLine
 10
245.3538282064259
 20
14.63733406883762
 30
0.0
 11
245.353828206426
 21
6.304000735504282
 31
0.0
  0
ENDBLK
  5
30A
330
306
100
AcDbEntity
  8
0
100
AcDbBlockEnd
  0
BLOCK
  5
314
330
30D
100
AcDbEntity
  8
0
100
AcDbBlockBegin
  2
SE23
 70
     0
 10
0.0
 20
0.0
 30
0.0
  3
SE23
  1

  0
INSERT
  5
310
330
30D
100
AcDbEntity
  8
Default
100
AcDbBlockReference
  2
SE24
 10
0.0
 20
0.0
 30
0.0
  0
ENDBLK
  5
315
330
30D
100
AcDbEntity
  8
0
100
AcDbBlockEnd
  0
BLOCK
  5
312
330
30F
100
AcDbEntity
  8
0
100
AcDbBlockBegin
  2
SE24
 70
     0
 10
0.0
 20
0.0
 30
0.0
  3
SE24
  1

  0
LINE
  5
311
330
30F
100
AcDbEntity
  8
Default
  6
Continuous
 62
     7
100
AcDbLine
 10
322.7427170953148
 20
14.63733406883762
 30
0.0
 11
322.7427170953149
 21
6.304000735504282
 31
0.0
  0
ENDBLK
  5
313
330
30F
100
AcDbEntity
  8
0
100
AcDbBlockEnd
  0
BLOCK
  5
31D
330
316
100
AcDbEntity
  8
0
100
AcDbBlockBegin
  2
SE25
 70
     0
 10
0.0
 20
0.0
 30
0.0
  3
SE25
  1

  0
INSERT
  5
319
330
316
100
AcDbEntity
  8
Default
100
AcDbBlockReference
  2
SE26
 10
0.0
 20
0.0
 30
0.0
  0
ENDBLK
  5
31E
330
316
100
AcDbEntity
  8
0
100
AcDbBlockEnd
  0
BLOCK
  5
31B
330
318
100
AcDbEntity
  8
0
100
AcDbBlockBegin
  2
SE26
 70
     0
 10
0.0
 20
0.0
 30
0.0
  3
SE26
  1

  0
LINE
  5
31A
330
318
100
AcDbEntity
  8
Default
  6
Continuous
 62
     7
100
AcDbLine
 10
400.1316059842037
 20
14.63733406883762
 30
0.0
 11
400.1316059842038
 21
6.304000735504282
 31
0.0
  0
ENDBLK
  5
31C
330
318
100
AcDbEntity
  8
0
100
AcDbBlockEnd
  0
BLOCK
  5
344
330
323
100
AcDbEntity
  8
0
100
AcDbBlockBegin
  2
SE27
 70
     0
 10
0.0
 20
0.0
 30
0.0
  3
SE27
  1

  0
INSERT
  5
326
330
323
100
AcDbEntity
  8
Default
100
AcDbBlockReference
  2
SE28
 10
0.0
 20
0.0
 30
0.0
  0
ENDBLK
  5
345
330
323
100
AcDbEntity
  8
0
100
AcDbBlockEnd
  0
BLOCK
  5
342
330
325
100
AcDbEntity
  8
0
100
AcDbBlockBegin
  2
SE28
 70
     0
 10
0.0
 20
0.0
 30
0.0
  3
SE28
  1

  0
INSERT
  5
328
330
325
100
AcDbEntity
  8
0
100
AcDbBlockReference
  2
SE29
 10
0.0
 20
0.0
 30
0.0
  0
INSERT
  5
331
330
325
100
AcDbEntity
  8
0
100
AcDbBlockReference
  2
SE31
 10
0.0
 20
0.0
 30
0.0
  0
INSERT
  5
33A
330
325
100
AcDbEntity
  8
0
100
AcDbBlockReference
  2
SE33
 10
0.0
 20
0.0
 30
0.0
  0
ENDBLK
  5
343
330
325
100
AcDbEntity
  8
0
100
AcDbBlockEnd
  0
BLOCK
  5
32E
330
327
100
AcDbEntity
  8
0
100
AcDbBlockBegin
  2
SE29
 70
     0
 10
0.0
 20
0.0
 30
0.0
  3
SE29
  1

  0
INSERT
  5
32A
330
327
100
AcDbEntity
  8
Default
100
AcDbBlockReference
  2
SE30
 10
0.0
 20
0.0
 30
0.0
  0
ENDBLK
  5
32F
330
327
100
AcDbEntity
  8
0
100
AcDbBlockEnd
  0
BLOCK
  5
32C
330
329
100
AcDbEntity
  8
0
100
AcDbBlockBegin
  2
SE30
 70
     0
 10
0.0
 20
0.0
 30
0.0
  3
SE30
  1

  0
LINE
  5
32B
330
329
100
AcDbEntity
  8
Default
  6
Continuous
 62
     7
100
AcDbLine
 10
245.3538282064259
 20
14.63733406883762
 30
0.0
 11
245.3538282064258
 21
6.304000735504282
 31
0.0
  0
ENDBLK
  5
32D
330
329
100
AcDbEntity
  8
0
100
AcDbBlockEnd
  0
BLOCK
  5
337
330
330
100
AcDbEntity
  8
0
100
AcDbBlockBegin
  2
SE31
 70
     0
 10
0.0
 20
0.0
 30
0.0
  3
SE31
  1

  0
INSERT
  5
333
330
330
100
AcDbEntity
  8
Default
100
AcDbBlockReference
  2
SE32
 10
0.0
 20
0.0
 30
0.0
  0
ENDBLK
  5
338
330
330
100
AcDbEntity
  8
0
100
AcDbBlockEnd
  0
BLOCK
  5
335
330
332
100
AcDbEntity
  8
0
100
AcDbBlockBegin
  2
SE32
 70
     0
 10
0.0
 20
0.0
 30
0.0
  3
SE32
  1

  0
LINE
  5
334
330
332
100
AcDbEntity
  8
Default
  6
Continuous
 62
     7
100
AcDbLine
 10
167.964939317537
 20
14.63733406883762
 30
0.0
 11
167.9649393175369
 21
6.304000735504282
 31
0.0
  0
ENDBLK
  5
336
330
332
100
AcDbEntity
  8
0
100
AcDbBlockEnd
  0
BLOCK
  5
340
330
339
100
AcDbEntity
  8
0
100
AcDbBlockBegin
  2
SE33
 70
     0
 10
0.0
 20
0.0
 30
0.0
  3
SE33
  1

  0
INSERT
  5
33C
330
339
100
AcDbEntity
  8
Default
100
AcDbBlockReference
  2
SE34
 10
0.0
 20
0.0
 30
0.0
  0
ENDBLK
  5
341
330
339
100
AcDbEntity
  8
0
100
AcDbBlockEnd
  0
BLOCK
  5
33E
330
33B
100
AcDbEntity
  8
0
100
AcDbBlockBegin
  2
SE34
 70
     0
 10
0.0
 20
0.0
 30
0.0
  3
SE34
  1

  0
LINE
  5
33D
330
33B
100
AcDbEntity
  8
Default
  6
Continuous
 62
     7
100
AcDbLine
 10
90.5760504286481
 20
14.63733406883762
 30
0.0
 11
90.57605042864806
 21
6.304000735504282
 31
0.0
  0
ENDBLK
  5
33F
330
33B
100
AcDbEntity
  8
0
100
AcDbBlockEnd
  0
BLOCK
  5
367
330
346
100
AcDbEntity
  8
0
100
AcDbBlockBegin
  2
SE35
 70
     0
 10
0.0
 20
0.0
 30
0.0
  3
SE35
  1

  0
INSERT
  5
349
330
346
100
AcDbEntity
  8
Default
100
AcDbBlockReference
  2
SE36
 10
0.0
 20
0.0
 30
0.0
  0
ENDBLK
  5
368
330
346
100
AcDbEntity
  8
0
100
AcDbBlockEnd
  0
BLOCK
  5
365
330
348
100
AcDbEntity
  8
0
100
AcDbBlockBegin
  2
SE36
 70
     0
 10
0.0
 20
0.0
 30
0.0
  3
SE36
  1

  0
INSERT
  5
34B
330
348
100
AcDbEntity
  8
0
100
AcDbBlockReference
  2
SE37
 10
0.0
 20
0.0
 30
0.0
  0
INSERT
  5
354
330
348
100
AcDbEntity
  8
0
100
AcDbBlockReference
  2
SE39
 10
0.0
 20
0.0
 30
0.0
  0
INSERT
  5
35D
330
348
100
AcDbEntity
  8
0
100
AcDbBlockReference
  2
SE41
 10
0.0
 20
0.0
 30
0.0
  0
ENDBLK
  5
366
330
348
100
AcDbEntity
  8
0
100
AcDbBlockEnd
  0
BLOCK
  5
351
330
34A
100
AcDbEntity
  8
0
100
AcDbBlockBegin
  2
SE37
 70
     0
 10
0.0
 20
0.0
 30
0.0
  3
SE37
  1

  0
INSERT
  5
34D
330
34A
100
AcDbEntity
  8
Default
100
AcDbBlockReference
  2
SE38
 10
0.0
 20
0.0
 30
0.0
  0
ENDBLK
  5
352
330
34A
100
AcDbEntity
  8
0
100
AcDbBlockEnd
  0
BLOCK
  5
34F
330
34C
100
AcDbEntity
  8
0
100
AcDbBlockBegin
  2
SE38
 70
     0
 10
0.0
 20
0.0
 30
0.0
  3
SE38
  1

  0
LINE
  5
34E
330
34C
100
AcDbEntity
  8
Default
  6
Continuous
 62
     7
100
AcDbLine
 10
245.3538282064259
 20
336.4079207355043
 30
0.0
 11
245.353828206426
 21
344.7412540688376
 31
0.0
  0
ENDBLK
  5
350
330
34C
100
AcDbEntity
  8
0
100
AcDbBlockEnd
  0
BLOCK
  5
35A
330
353
100
AcDbEntity
  8
0
100
AcDbBlockBegin
  2
SE39
 70
     0
 10
0.0
 20
0.0
 30
0.0
  3
SE39
  1

  0
INSERT
  5
356
330
353
100
AcDbEntity
  8
Default
100
AcDbBlockReference
  2
SE40
 10
0.0
 20
0.0
 30
0.0
  0
ENDBLK
  5
35B
330
353
100
AcDbEntity
  8
0
100
AcDbBlockEnd
  0
BLOCK
  5
358
330
355
100
AcDbEntity
  8
0
100
AcDbBlockBegin
  2
SE40
 70
     0
 10
0.0
 20
0.0
 30
0.0
  3
SE40
  1

  0
LINE
  5
357
330
355
100
AcDbEntity
  8
Default
  6
Continuous
 62
     7
100
AcDbLine
 10
322.7427170953148
 20
336.4079207355043
 30
0.0
 11
322.7427170953149
 21
344.7412540688376
 31
0.0
  0
ENDBLK
  5
359
330
355
100
AcDbEntity
  8
0
100
AcDbBlockEnd
  0
BLOCK
  5
363
330
35C
100
AcDbEntity
  8
0
100
AcDbBlockBegin
  2
SE41
 70
     0
 10
0.0
 20
0.0
 30
0.0
  3
SE41
  1

  0
INSERT
  5
35F
330
35C
100
AcDbEntity
  8
Default
100
AcDbBlockReference
  2
SE42
 10
0.0
 20
0.0
 30
0.0
  0
ENDBLK
  5
364
330
35C
100
AcDbEntity
  8
0
100
AcDbBlockEnd
  0
BLOCK
  5
361
330
35E
100
AcDbEntity
  8
0
100
AcDbBlockBegin
  2
SE42
 70
     0
 10
0.0
 20
0.0
 30
0.0
  3
SE42
  1

  0
LINE
  5
360
330
35E
100
AcDbEntity
  8
Default
  6
Continuous
 62
     7
100
AcDbLine
 10
400.1316059842037
 20
336.4079207355043
 30
0.0
 11
400.1316059842038
 21
344.7412540688376
 31
0.0
  0
ENDBLK
  5
362
330
35E
100
AcDbEntity
  8
0
100
AcDbBlockEnd
  0
ENDSEC
  0
SECTION
  2
ENTITIES
  0
MTEXT
  5
6F
330
1F
100
AcDbEntity
  8
Default
100
AcDbMText
 10
77.22755145200958
 20
320.8051961245263
 30
0.0
 40
5.833333333333334
 41
1.631461236437255
 71
     1
 72
     1
  1
{\fSolid Edge ANSI|b0||i0||c0|p34;\C7;\H5.833333333;\W1.;)}
 73
     1
 44
1.0
1001
ACAD
1000
ACAD_MTEXT_DEFINED_HEIGHT_BEGIN
1070
    46
1040
9.767458527131799
1000
ACAD_MTEXT_DEFINED_HEIGHT_END
  0
MTEXT
  5
70
330
1F
100
AcDbEntity
  8
Default
100
AcDbMText
 10
49.82450860188585
 20
320.5279951849891
 30
0.0
 40
5.833333333333334
 41
1.631461236437255
 71
     1
 72
     1
  1
{\fSolid Edge ANSI|b0||i0||c0|p34;\C7;\H5.833333333;\W1.;(}
 73
     1
 44
1.0
1001
ACAD
1000
ACAD_MTEXT_DEFINED_HEIGHT_BEGIN
1070
    46
1040
9.767458527131799
1000
ACAD_MTEXT_DEFINED_HEIGHT_END
  0
INSERT
  5
72
330
1F
100
AcDbEntity
  8
Default
100
AcDbBlockReference
  2
SEANNOT_GROUP
 10
0.0
 20
0.0
 30
0.0
  0
INSERT
  5
7B
330
1F
100
AcDbEntity
  8
Default
100
AcDbBlockReference
  2
SEANNOT_GROUP1
 10
0.0
 20
0.0
 30
0.0
  0
MTEXT
  5
82
330
1F
100
AcDbEntity
  8
Default
100
AcDbMText
 10
401.9753250847831
 20
56.42630321200269
 30
0.0
 40
4.333333333333334
 41
15.35146560925604
 71
     5
 72
     1
  1
{\fSolid Edge ISO|b0||i0||c0|p34;\C7;\H4.333333333;\W1.;52\P}
 73
     1
 44
1.0
1001
ACAD
1000
ACAD_MTEXT_DEFINED_HEIGHT_BEGIN
1070
    46
1040
7.445460820489185
1000
ACAD_MTEXT_DEFINED_HEIGHT_END
  0
INSERT
  5
84
330
1F
100
AcDbEntity
  8
Default
100
AcDbBlockReference
  2
SEANNOT_GROUP2
 10
0.0
 20
0.0
 30
0.0
  0
INSERT
  5
8C
330
1F
100
AcDbEntity
  8
Default
100
AcDbBlockReference
  2
SEANNOT_GROUP3
 10
0.0
 20
0.0
 30
0.0
  0
INSERT
  5
97
330
1F
100
AcDbEntity
  8
Default
100
AcDbBlockReference
  2
SEANNOT_GROUP4
 10
0.0
 20
0.0
 30
0.0
  0
INSERT
  5
A1
330
1F
100
AcDbEntity
  8
Default
100
AcDbBlockReference
  2
SEANNOT_GROUP5
 10
0.0
 20
0.0
 30
0.0
  0
INSERT
  5
A6
330
1F
100
AcDbEntity
  8
Default
100
AcDbBlockReference
  2
SEANNOT_GROUP6
 10
0.0
 20
0.0
 30
0.0
  0
MULTILEADER
  5
A9
330
1F
100
AcDbEntity
  8
Default
  6
Continuous
 62
     7
 92
     1752
310
D8060000160000000C00000013000000993A0000B00000000B00000004AFB0C48B1A6B4035931B78885D6040000000000000000000000000000000000000000000000000000000000000F03F000000000000F03F00000000000000000000000000000000322DA8AA362E362054485255200000000D00000001000000000000
310
0000001040000000000000F03F0000000000000000000000000000F03F0000000000000000000000000000000000000000536F6C696420456467652049534F000000000000A40000000B000000EB2C101247246B400E9A490E68245F40000000000000000000000000000000000000000000000000000000000000F03F0000
310
00000000F03F000000000000000000000000000000002000000001000000010000000000000000001040000000000000F03F0000000000000000000000000000F03F0000000000000000000000000000000000000000536F6C696420456467652049534F000000000000B00000000B0000001F1F6B05AE546B400E9A490E68
310
245F40000000000000000000000000000000000000000000000000000000000000F03F000000000000F03F000000000000000000000000000000006300000001000000010000000000000000001040000000000000F03F0000000000000000000000000000F03F0000000000000000000000000000000000000000536F6C69
310
6420456467652049534F204744542053796D626F6C73000000000000A80000000B0000006AE89B0171AE6B400E9A490E68245F40000000000000000000000000000000000000000000000000000000000000F03F000000000000F03F0000000000000000000000000000000020A8AA31312000000600000001000000000000
310
0000001040000000000000F03F0000000000000000000000000000F03F0000000000000000000000000000000000000000536F6C696420456467652049534F000000000000B00000000B00000049FD1F8C7EFB6C400E9A490E68245F40000000000000000000000000000000000000000000000000000000000000F03F0000
310
00000000F03F000000000000000000000000000000006000000001000000010000000000000000001040000000000000F03F0000000000000000000000000000F03F0000000000000000000000000000000000000000536F6C696420456467652049534F204744542053796D626F6C73000000000000A40000000B000000C8
310
6C695EA2306D400E9A490E68245F40000000000000000000000000000000000000000000000000000000000000F03F000000000000F03F000000000000000000000000000000002032330003000000010000000000000000001040000000000000F03F0000000000000000000000000000F03F000000000000000000000000
310
0000000000000000536F6C696420456467652049534F0000000000000C000000130000009A3A0000540000002000000002000000EB2C101247E46A40DB6616DB34F15E400000000000000000230851E0C0036F40DB6616DB34F15E40000000000000000000000000000000000000000000000000000000000000F03F0C0000
310
0013000000112700000C0000001300000001000000880000001D0000002731837E475DF0BF84B5D65CAEEF0EC00000000000000000F33604F42FD8684084B5D65CAEEF0E402731837E475DF0BF0000000000000000F3BD25E22B44664000000000000000000000000000000000000000000000104000000000000000000000
310
00000000000000000000000000000000000000000000000000000000F03F0C00000012000000FF7F0000540000002000000002000000000000000000000000000000000000000000000000000000000000000000F0BF0000000000000000000000000000000000000000000000000000000000000000000000000000F03F08
310
0000001F000000880000001D000000000000000000F03F0000000000000000000000000000000000000000000000000000000000000000000000000000F03F0000000000000000000000000000000000000000000000000000000000000000000000000000F03F000000000000000000000000000000000000000000000000
310
0000000000000000000000000000F03F080000001F0000000C00000013000000891300000C0000001200000000000000540000002000000002000000553D0183EAF868401D63B2286DC865400000000000000000EB2C101247A46A40DB6616DB34F15E40000000000000000000000000000000000000000000000000000000
310
000000F03F0C0000001300000011270000540000002000000002000000EB2C101247A46A40DB6616DB34F15E400000000000000000EB2C101247E46A40DB6616DB34F15E40000000000000000000000000000000000000000000000000000000000000F03F
100
AcDbMLeader
300
CONTEXT_DATA{
 40
1.0
 10
215.1336756053855
 20
123.847506358393
 30
0.0
 41
4.0
140
4.0
145
2.0
174
     5
175
     5
176
     0
177
     0
290
     1
304
{\pxsm0.9;\fSolid Edge ISO|b0||i0||c0|p34;\W1.;2-%%c6.6 THRU \P {\FSolid Edge ISO GDT Symbols;c} %%c11 {\FSolid Edge ISO GDT Symbols;`} 23\P}
 11
0.0
 21
0.0
 31
1.0
340
11
 12
217.1336756053855
 22
135.316306358393
 32
0.0
 13
1.0
 23
0.0
 33
0.0
 42
0.0
 43
0.0
 44
0.0
 45
1.0
170
     1
 90
-1073741824
171
     1
172
     1
 91
-939524096
141
1.5
 92
        0
291
     0
292
     0
173
     0
293
     0
142
0.0
143
0.0
294
     0
295
     0
296
     0
110
0.0
120
0.0
130
0.0
111
1.0
121
0.0
131
0.0
112
0.0
122
1.0
132
0.0
297
     0
302
LEADER{
290
     1
291
     1
 10
213.1336756053855
 20
123.7688510626571
 30
0.0
 11
1.0
 21
0.0
 31
0.0
 90
        0
 40
2.0
304
LEADER_LINE{
 10
198.7558536608045
 20
178.1303568589352
 30
0.0
 91
        0
305
}
303
}
301
}
340
0
 90
1108794272
170
     1
 91
-1056964608
341
14
171
    -2
290
     1
291
     1
 41
2.0
342
AA
 42
4.0
172
     2
343
11
173
     5
 95
        5
174
     1
175
     0
 92
-1073741824
292
     0
 93
-1023410169
 10
1.0
 20
1.0
 30
1.0
 43
0.0
176
     0
293
     0
294
     0
178
     0
179
     1
 45
1.0
1001
ACAD_MLEADERVER
1070
     2
  0
INSERT
  5
B0
330
1F
100
AcDbEntity
  8
Default
100
AcDbBlockReference
  2
SE
 10
0.0
 20
0.0
 30
0.0
  0
INSERT
  5
BF
330
1F
100
AcDbEntity
  8
Default
100
AcDbBlockReference
  2
SE1
 10
0.0
 20
0.0
 30
0.0
  0
INSERT
  5
CD
330
1F
100
AcDbEntity
  8
Default
100
AcDbBlockReference
  2
SE2
 10
0.0
 20
0.0
 30
0.0
  0
DIMENSION
  5
E7
330
1F
100
AcDbEntity
  8
Default
  6
Continuous
 62
     7
100
AcDbDimension
  2
DMBLK1
 10
164.7301302322035
 20
150.8871705086038
 30
0.0
 11
179.7301295864866
 21
150.8871705086038
 31
0.0
 70
   161
  1
\A1;<>
 71
     5
 42
-1.0
  3
JIS
100
AcDbAlignedDimension
 13
164.7301302322035
 23
181.8778294574226
 33
0.0
 14
194.7301302322036
 24
181.8778294574226
 34
0.0
  0
DIMENSION
  5
F1
330
1F
100
AcDbEntity
  8
Default
  6
Continuous
 62
     7
100
AcDbDimension
  2
DMBLK2
 10
164.7301302322036
 20
150.8871698628868
 30
0.0
 11
158.2301300558732
 21
150.8871698628868
 31
0.0
 70
   160
  1
\A1;<>
 71
     5
 42
-1.0
  3
JIS
100
AcDbAlignedDimension
 13
151.7301302322036
 23
166.8778294574226
 33
0.0
 14
164.7301302322036
 24
181.8778294574226
 34
0.0
100
AcDbRotatedDimension
  0
DIMENSION
  5
FB
330
1F
100
AcDbEntity
  8
Default
  6
Continuous
 62
     7
100
AcDbDimension
  2
DMBLK3
 10
151.7301302322036
 20
142.0871711523339
 30
0.0
 11
179.7301292338258
 21
142.0871711523339
 31
0.0
 70
   161
  1
\A1;<>
 71
     5
 42
-1.0
  3
JIS
100
AcDbAlignedDimension
 13
151.7301302322036
 23
166.8778294574226
 33
0.0
 14
207.7301302322036
 24
166.8778294574226
 34
0.0
  0
INSERT
  5
106
330
1F
100
AcDbEntity
  8
Default
100
AcDbBlockReference
  2
GDimGGroup
 10
0.0
 20
0.0
 30
0.0
  0
DIMENSION
  5
10C
330
1F
100
AcDbEntity
  8
Default
  6
Continuous
 62
     7
100
AcDbDimension
  2
DMBLK4
 10
229.4234657678292
 20
201.8778294574226
 30
0.0
 11
229.4234657678292
 21
184.3778296933577
 31
0.0
 70
   161
  1
\A1;<>
 71
     5
 42
-1.0
  3
JIS
100
AcDbAlignedDimension
 13
207.7301302322036
 23
201.8778294574226
 33
0.0
 14
207.7301302322036
 24
166.8778294574226
 34
0.0
  0
DIMENSION
  5
116
330
1F
100
AcDbEntity
  8
Default
  6
Continuous
 62
     7
100
AcDbDimension
  2
DMBLK5
 10
335.2043038763117
 20
150.8871703347569
 30
0.0
 11
317.2043043432147
 21
150.8871703347569
 31
0.0
 70
   160
  1
\A1;<>
 71
     5
 42
-1.0
  3
JIS
100
AcDbAlignedDimension
 13
299.2043038763117
 23
201.8778294574226
 33
0.0
 14
335.2043038763117
 24
166.8778294574226
 34
0.0
100
AcDbRotatedDimension
  0
DIMENSION
  5
120
330
1F
100
AcDbEntity
  8
Default
  6
Continuous
 62
     7
100
AcDbDimension
  2
DMBLK6
 10
220.6234651524113
 20
166.8778294574226
 30
0.0
 11
220.6234651524113
 21
174.3778297802811
 31
0.0
 70
   160
  1
\A1;<>
 71
     5
 42
-1.0
  3
JIS
100
AcDbAlignedDimension
 13
194.7301302322036
 23
181.8778294574226
 33
0.0
 14
207.7301302322036
 24
166.8778294574226
 34
0.0
 50
90.0
100
AcDbRotatedDimension
  0
MTEXT
  5
12A
330
1F
100
AcDbEntity
  8
Default
100
AcDbMText
 10
320.5856634163974
 20
34.58963223503613
 30
0.0
 40
3.252554666666667
 41
20.36148375327623
 71
     5
 72
     1
  1
{\fSolid Edge ISO|b0||i0||c0|p34;\C7;\H3.252554667;\W0.9;BYUN}
  7
SEACAD_Solid_Edge_ISO
 73
     1
 44
1.0
1001
ACAD
1000
ACAD_MTEXT_DEFINED_HEIGHT_BEGIN
1070
    46
1040
5.446154713178293
1000
ACAD_MTEXT_DEFINED_HEIGHT_END
  0
LINE
  5
12B
330
1F
100
AcDbEntity
  8
Default
  6
Continuous
 62
     7
100
AcDbLine
 10
13.02849487309254
 20
14.63733406883748
 30
0.0
 11
477.6791615397591
 21
14.63733406883748
 31
0.0
  0
LINE
  5
12C
330
1F
100
AcDbEntity
  8
Default
  6
Continuous
 62
     7
100
AcDbLine
 10
477.6791615397592
 20
14.63733406883748
 30
0.0
 11
477.6791615397592
 21
336.4079207355041
 31
0.0
  0
LINE
  5
12D
330
1F
100
AcDbEntity
  8
Default
  6
Continuous
 62
     7
100
AcDbLine
 10
477.6791615397592
 20
336.4079207355043
 30
0.0
 11
13.0284948730926
 21
336.4079207355043
 31
0.0
  0
LINE
  5
12E
330
1F
100
AcDbEntity
  8
Default
  6
Continuous
 62
     7
100
AcDbLine
 10
477.6791615397594
 20
67.60751006883753
 30
0.0
 11
268.5863615397594
 21
67.6075100688375
 31
0.0
  0
LINE
  5
12F
330
1F
100
AcDbEntity
  8
Default
  6
Continuous
 62
     7
100
AcDbLine
 10
373.1327615397593
 20
22.07174473550418
 30
0.0
 11
268.5863615397593
 21
22.07174473550417
 31
0.0
  0
LINE
  5
130
330
1F
100
AcDbEntity
  8
Default
  6
Continuous
 62
     7
100
AcDbLine
 10
477.6791615397594
 20
29.50615540217085
 30
0.0
 11
268.5863615397594
 21
29.50615540217083
 31
0.0
  0
LINE
  5
131
330
1F
100
AcDbEntity
  8
Default
  6
Continuous
 62
     7
100
AcDbLine
 10
373.1327615397593
 20
22.07174473550418
 30
0.0
 11
268.5863615397593
 21
22.07174473550417
 31
0.0
  0
LINE
  5
132
330
1F
100
AcDbEntity
  8
Default
  6
Continuous
 62
     7
100
AcDbLine
 10
477.6791615397594
 20
52.73868873550418
 30
0.0
 11
268.5863615397594
 21
52.73868873550416
 31
0.0
  0
LINE
  5
133
330
1F
100
AcDbEntity
  8
Default
  6
Continuous
 62
     7
100
AcDbLine
 10
394.3523051296876
 20
67.36768265520304
 30
0.0
 11
394.3523051296876
 21
52.73868873550419
 31
0.0
  0
LINE
  5
134
330
1F
100
AcDbEntity
  8
Default
  6
Continuous
 62
     7
100
AcDbLine
 10
409.6371467678214
 20
67.5958146199513
 30
0.0
 11
409.6371467678214
 21
52.73868873550419
 31
0.0
  0
LINE
  5
135
330
1F
100
AcDbEntity
  8
Default
  6
Continuous
 62
     7
100
AcDbLine
 10
373.1327615397593
 20
41.12774172196043
 30
0.0
 11
477.6791615397592
 21
41.12774172196043
 31
0.0
  0
LINE
  5
136
330
1F
100
AcDbEntity
  8
Default
  6
Continuous
 62
     7
100
AcDbLine
 10
477.6791615397594
 20
22.07174473550419
 30
0.0
 11
460.2547615397594
 21
22.07174473550419
 31
0.0
  0
MTEXT
  5
137
330
1F
100
AcDbEntity
  8
Default
100
AcDbMText
 10
309.6892473212858
 20
63.89030473550417
 30
0.0
 40
4.065693333333333
 41
82.20577156305323
 71
     5
 72
     1
  1
{\fSolid Edge ANSI|b0||i0||c0|p34;\C7;\H4.065693333;\W1.;Part Name}
 73
     1
 44
1.0
1001
ACAD
1000
ACAD_MTEXT_DEFINED_HEIGHT_BEGIN
1070
    46
1040
7.434410666666674
1000
ACAD_MTEXT_DEFINED_HEIGHT_END
  0
MTEXT
  5
138
330
1F
100
AcDbEntity
  8
Default
100
AcDbMText
 10
372.57221911625
 20
63.89030473550417
 30
0.0
 40
4.065693333333333
 41
43.56017202687514
 71
     5
 72
     1
  1
{\fSolid Edge ISO|b0||i0||c0|p34;\C7;\H4.065693333;\W1.;Material}
 73
     1
 44
1.0
1001
ACAD
1000
ACAD_MTEXT_DEFINED_HEIGHT_BEGIN
1070
    46
1040
7.434410666666685
1000
ACAD_MTEXT_DEFINED_HEIGHT_END
  0
MTEXT
  5
139
330
1F
100
AcDbEntity
  8
Default
100
AcDbMText
 10
401.9947259487545
 20
63.89030473550419
 30
0.0
 40
4.065693333333333
 41
15.28484163813372
 71
     5
 72
     1
  1
{\fSolid Edge ISO|b0||i0||c0|p34;\C7;\H4.065693333;\W1.;Q'ty}
 73
     1
 44
1.0
1001
ACAD
1000
ACAD_MTEXT_DEFINED_HEIGHT_BEGIN
1070
    46
1040
7.434410666666685
1000
ACAD_MTEXT_DEFINED_HEIGHT_END
  0
MTEXT
  5
13A
330
1F
100
AcDbEntity
  8
Default
100
AcDbMText
 10
443.6581541537903
 20
63.89030473550418
 30
0.0
 40
4.065693333333333
 41
68.04201477193786
 71
     5
 72
     1
  1
{\fSolid Edge ISO|b0||i0||c0|p34;\C7;\H4.065693333;\W1.;Finish}
 73
     1
 44
1.0
1001
ACAD
1000
ACAD_MTEXT_DEFINED_HEIGHT_BEGIN
1070
    46
1040
7.434410666666697
1000
ACAD_MTEXT_DEFINED_HEIGHT_END
  0
MTEXT
  5
13B
330
1F
100
AcDbEntity
  8
Default
100
AcDbMText
 10
340.779269197924
 20
49.02232652838515
 30
0.0
 40
4.065693333333333
 41
20.02572780977698
 71
     5
 72
     1
  1
{\fSolid Edge ISO|b0||i0||c0|p34;\C7;\H4.065693333;\W1.;Check}
 73
     1
 44
1.0
1001
ACAD
1000
ACAD_MTEXT_DEFINED_HEIGHT_BEGIN
1070
    46
1040
7.432724414238023
1000
ACAD_MTEXT_DEFINED_HEIGHT_END
  0
MTEXT
  5
13C
330
1F
100
AcDbEntity
  8
Default
100
AcDbMText
 10
320.5856634163974
 20
49.02232652838515
 30
0.0
 40
4.065693333333333
 41
20.36148375327623
 71
     5
 72
     1
  1
{\fSolid Edge ISO|b0||i0||c0|p34;\C7;\H4.065693333;\W1.;Drawn}
 73
     1
 44
1.0
1001
ACAD
1000
ACAD_MTEXT_DEFINED_HEIGHT_BEGIN
1070
    46
1040
7.432724414238023
1000
ACAD_MTEXT_DEFINED_HEIGHT_END
  0
MTEXT
  5
13D
330
1F
100
AcDbEntity
  8
Default
100
AcDbMText
 10
361.9424671898591
 20
48.97626790787163
 30
0.0
 40
4.065693333333333
 41
21.83039217236486
 71
     5
 72
     1
  1
{\fSolid Edge ISO|b0||i0||c0|p34;\C7;\H4.065693333;\W1.;Approved}
 73
     1
 44
1.0
1001
ACAD
1000
ACAD_MTEXT_DEFINED_HEIGHT_BEGIN
1070
    46
1040
6.652969393939395
1000
ACAD_MTEXT_DEFINED_HEIGHT_END
  0
MTEXT
  5
13E
330
1F
100
AcDbEntity
  8
Default
100
AcDbMText
 10
383.7425333347235
 20
46.9332152287323
 30
0.0
 40
4.065693333333333
 41
21.21954358992831
 71
     5
 72
     1
  1
{\fSolid Edge ISO|b0||i0||c0|p34;\C7;\H4.065693333;\W1.;Project}
 73
     1
 44
1.0
1001
ACAD
1000
ACAD_MTEXT_DEFINED_HEIGHT_BEGIN
1070
    46
1040
11.61094701354374
1000
ACAD_MTEXT_DEFINED_HEIGHT_END
  0
MTEXT
  5
13F
330
1F
100
AcDbEntity
  8
Default
100
AcDbMText
 10
279.0410015397593
 20
25.7889500688375
 30
0.0
 40
4.065693333333333
 41
20.90927999999987
 71
     5
 72
     1
  1
{\fSolid Edge ISO|b0||i0||c0|p34;\C7;\H4.065693333;\W1.;Unit}
 73
     1
 44
1.0
1001
ACAD
1000
ACAD_MTEXT_DEFINED_HEIGHT_BEGIN
1070
    46
1040
7.434410666666662
1000
ACAD_MTEXT_DEFINED_HEIGHT_END
  0
MTEXT
  5
140
330
1F
100
AcDbEntity
  8
Default
100
AcDbMText
 10
299.9502815397593
 20
25.7889500688375
 30
0.0
 40
4.065693333333333
 41
20.90927999999997
 71
     5
 72
     1
  1
{\fSolid Edge ISO|b0||i0||c0|p34;\C7;\H4.065693333;\W1.;Scale}
 73
     1
 44
1.0
1001
ACAD
1000
ACAD_MTEXT_DEFINED_HEIGHT_BEGIN
1070
    46
1040
7.434410666666668
1000
ACAD_MTEXT_DEFINED_HEIGHT_END
  0
MTEXT
  5
141
330
1F
100
AcDbEntity
  8
Default
100
AcDbMText
 10
351.9495834163975
 20
25.78895006883751
 30
0.0
 40
4.065693333333333
 41
42.36635624672381
 71
     5
 72
     1
  1
{\fSolid Edge ISO|b0||i0||c0|p34;\C7;\H4.065693333;\W1.;Finish Layout}
 73
     1
 44
1.0
1001
ACAD
1000
ACAD_MTEXT_DEFINED_HEIGHT_BEGIN
1070
    46
1040
7.434410666666665
1000
ACAD_MTEXT_DEFINED_HEIGHT_END
  0
MTEXT
  5
142
330
1F
100
AcDbEntity
  8
Default
100
AcDbMText
 10
383.7425333347235
 20
22.07174473550416
 30
0.0
 40
4.065693333333333
 41
21.21954358992831
 71
     5
 72
     1
  1
{\fSolid Edge ISO|b0||i0||c0|p34;\C7;\H4.065693333;\W1.;Dwg.no}
 73
     1
 44
1.0
1001
ACAD
1000
ACAD_MTEXT_DEFINED_HEIGHT_BEGIN
1070
    46
1040
14.86882133333336
1000
ACAD_MTEXT_DEFINED_HEIGHT_END
  0
LINE
  5
143
330
1F
100
AcDbEntity
  8
Default
  6
Continuous
 62
     7
100
AcDbLine
 10
477.6791615397594
 20
22.07174473550419
 30
0.0
 11
460.2547615397594
 21
22.07174473550419
 31
0.0
  0
MTEXT
  5
144
330
1F
100
AcDbEntity
  8
Default
100
AcDbMText
 10
468.9669615397594
 20
25.78895006883752
 30
0.0
 40
4.065693333333333
 41
17.42439999999984
 71
     5
 72
     1
  1
{\fSolid Edge ISO|b0||i0||c0|p34;\C7;\H4.065693333;\W1.;Sheet}
 73
     1
 44
1.0
1001
ACAD
1000
ACAD_MTEXT_DEFINED_HEIGHT_BEGIN
1070
    46
1040
7.434410666666662
1000
ACAD_MTEXT_DEFINED_HEIGHT_END
  0
MTEXT
  5
145
330
1F
100
AcDbEntity
  8
Default
100
AcDbMText
 10
469.0301417955666
 20
18.30955613020843
 30
0.0
 40
4.065693333333333
 41
2.915878317840185
 71
     5
 72
     1
  1
{\fArial|b0||i0||c0|p34;\C7;\H4.065693333;\W1.;/}
 73
     1
 44
1.0
1001
ACAD
1000
ACAD_MTEXT_DEFINED_HEIGHT_BEGIN
1070
    46
1040
6.363694370376812
1000
ACAD_MTEXT_DEFINED_HEIGHT_END
  0
LINE
  5
146
330
1F
100
AcDbEntity
  8
Default
  6
Continuous
 62
     7
100
AcDbLine
 10
268.5863615397593
 20
60.17309940217083
 30
0.0
 11
477.6791615397592
 21
60.17309940217083
 31
0.0
  0
MTEXT
  5
147
330
1F
100
AcDbEntity
  8
Default
100
AcDbMText
 10
23.30889087309256
 20
18.35453940217083
 30
0.0
 40
4.065693333333333
 41
20.56079200000003
 71
     5
 72
     1
  1
{\fSolid Edge ISO|b0||i0||c0|p34;\C7;\H4.065693333;\W1.;Rev No}
 73
     1
 44
1.0
1001
ACAD
1000
ACAD_MTEXT_DEFINED_HEIGHT_BEGIN
1070
    46
1040
7.434410666666698
1000
ACAD_MTEXT_DEFINED_HEIGHT_END
  0
MTEXT
  5
148
330
1F
100
AcDbEntity
  8
Default
100
AcDbMText
 10
95.32966217874458
 20
18.35453940217083
 30
0.0
 40
4.065693333333333
 41
81.34787064190667
 71
     5
 72
     1
  1
{\fSolid Edge ISO|b0||i0||c0|p34;\C7;\H4.065693333;\W1.;Revision Note}
 73
     1
 44
1.0
1001
ACAD
1000
ACAD_MTEXT_DEFINED_HEIGHT_BEGIN
1070
    46
1040
7.43441066666669
1000
ACAD_MTEXT_DEFINED_HEIGHT_END
  0
MTEXT
  5
149
330
1F
100
AcDbEntity
  8
Default
100
AcDbMText
 10
148.4535345197286
 20
18.35453940217083
 30
0.0
 40
4.065693333333333
 41
24.89987404006138
 71
     5
 72
     1
  1
{\fSolid Edge ISO|b0||i0||c0|p34;\C7;\H4.065693333;\W1.;Date}
 73
     1
 44
1.0
1001
ACAD
1000
ACAD_MTEXT_DEFINED_HEIGHT_BEGIN
1070
    46
1040
7.434410666666681
1000
ACAD_MTEXT_DEFINED_HEIGHT_END
  0
MTEXT
  5
14A
330
1F
100
AcDbEntity
  8
Default
100
AcDbMText
 10
173.390958206426
 20
18.35453940217082
 30
0.0
 40
4.065693333333333
 41
24.97497333333348
 71
     5
 72
     1
  1
{\fSolid Edge ISO|b0||i0||c0|p34;\C7;\H4.065693333;\W1.;Aproved}
 73
     1
 44
1.0
1001
ACAD
1000
ACAD_MTEXT_DEFINED_HEIGHT_BEGIN
1070
    46
1040
7.434410666666672
1000
ACAD_MTEXT_DEFINED_HEIGHT_END
  0
LINE
  5
14B
330
1F
100
AcDbEntity
  8
Default
  6
Continuous
 62
     7
100
AcDbLine
 10
13.02849487309255
 20
336.4079207355043
 30
0.0
 11
13.02849487309254
 21
14.63733406883762
 31
0.0
  0
LINE
  5
14C
330
1F
100
AcDbEntity
  8
Default
  6
Continuous
 62
     7
100
AcDbLine
 10
268.5863615397593
 20
14.63733406883748
 30
0.0
 11
268.5863615397593
 21
52.73868873550416
 31
0.0
  0
LINE
  5
14D
330
1F
100
AcDbEntity
  8
Default
  6
Continuous
 62
     7
100
AcDbLine
 10
310.4049215397593
 20
52.73868873550417
 30
0.0
 11
310.4049215397592
 21
14.63733406883753
 31
0.0
  0
LINE
  5
14E
330
1F
100
AcDbEntity
  8
Default
  6
Continuous
 62
     7
100
AcDbLine
 10
289.4956415397593
 20
14.63733406883748
 30
0.0
 11
289.4956415397593
 21
29.50615540217083
 31
0.0
  0
LINE
  5
14F
330
1F
100
AcDbEntity
  8
Default
  6
Continuous
 62
     7
100
AcDbLine
 10
373.1327615397593
 20
45.30596432126615
 30
0.0
 11
310.4049215397594
 21
45.30596432126615
 31
0.0
  0
LINE
  5
150
330
1F
100
AcDbEntity
  8
Default
  6
Continuous
 62
     7
100
AcDbLine
 10
330.7664052930355
 20
52.73868873550417
 30
0.0
 11
330.7664052930355
 21
14.63733406883749
 31
0.0
  0
LINE
  5
151
330
1F
100
AcDbEntity
  8
Default
  6
Continuous
 62
     7
100
AcDbLine
 10
350.7921331028125
 20
67.60751006883751
 30
0.0
 11
350.7921331028125
 21
29.50615540217083
 31
0.0
  0
LINE
  5
152
330
1F
100
AcDbEntity
  8
Default
  6
Continuous
 62
     7
100
AcDbLine
 10
373.1327615397593
 20
52.73868873550417
 30
0.0
 11
373.1327615397593
 21
14.63733406883748
 31
0.0
  0
LINE
  5
153
330
1F
100
AcDbEntity
  8
Default
  6
Continuous
 62
     7
100
AcDbLine
 10
394.3523051296876
 20
14.63733406883748
 30
0.0
 11
394.3523051296876
 21
52.73868873550418
 31
0.0
  0
LINE
  5
154
330
1F
100
AcDbEntity
  8
Default
  6
Continuous
 62
     7
100
AcDbLine
 10
460.2547615397594
 20
29.50615540217085
 30
0.0
 11
460.2547615397594
 21
14.63733406883749
 31
0.0
  0
LINE
  5
155
330
1F
100
AcDbEntity
  8
Default
  6
Continuous
 62
     7
100
AcDbLine
 10
13.02849487309254
 20
36.94056606883751
 30
0.0
 11
185.8784448730926
 21
36.9405660688375
 31
0.0
  0
LINE
  5
156
330
1F
100
AcDbEntity
  8
Default
  6
Continuous
 62
     7
100
AcDbLine
 10
185.8784448730926
 20
22.07174473550415
 30
0.0
 11
13.0284948730926
 21
22.07174473550419
 31
0.0
  0
LINE
  5
157
330
1F
100
AcDbEntity
  8
Default
  6
Continuous
 62
     7
100
AcDbLine
 10
13.02849487309254
 20
29.50615540217083
 30
0.0
 11
185.8784448730926
 21
29.50615540217082
 31
0.0
  0
LINE
  5
158
330
1F
100
AcDbEntity
  8
Default
  6
Continuous
 62
     7
100
AcDbLine
 10
160.9034715397593
 20
36.94056606883748
 30
0.0
 11
160.9034715397593
 21
14.63733406883749
 31
0.0
  0
LINE
  5
159
330
1F
100
AcDbEntity
  8
Default
  6
Continuous
 62
     7
100
AcDbLine
 10
54.65572685779125
 20
36.94056606883748
 30
0.0
 11
54.65572685779125
 21
14.63733406883749
 31
0.0
  0
LINE
  5
15A
330
1F
100
AcDbEntity
  8
Default
  6
Continuous
 62
     7
100
AcDbLine
 10
136.0035974996979
 20
36.94056606883748
 30
0.0
 11
136.0035974996979
 21
14.63733406883749
 31
0.0
  0
LINE
  5
15B
330
1F
100
AcDbEntity
  8
Default
  6
Continuous
 62
     7
100
AcDbLine
 10
33.58928687309257
 20
36.94056606883751
 30
0.0
 11
33.58928687309257
 21
14.63733406883749
 31
0.0
  0
LINE
  5
15C
330
1F
100
AcDbEntity
  8
Default
  6
Continuous
 62
     7
100
AcDbLine
 10
20.45704814732618
 20
31.09470026022905
 30
0.0
 11
23.07070814732619
 21
35.62169217393954
 31
0.0
  0
LINE
  5
15D
330
1F
100
AcDbEntity
  8
Default
  6
Continuous
 62
     7
100
AcDbLine
 10
23.07070814732617
 20
35.62169217393953
 30
0.0
 11
25.68436814732618
 21
31.09470026022906
 31
0.0
  0
LINE
  5
15E
330
1F
100
AcDbEntity
  8
Default
  6
Continuous
 62
     7
100
AcDbLine
 10
25.68436814732618
 20
31.09470026022905
 30
0.0
 11
20.45704814732618
 21
31.09470026022905
 31
0.0
  0
LINE
  5
15F
330
1F
100
AcDbEntity
  8
Default
  6
Continuous
 62
     7
100
AcDbLine
 10
20.22891618257792
 20
23.33821345878807
 30
0.0
 11
22.84257618257792
 21
27.86520537249854
 31
0.0
  0
LINE
  5
160
330
1F
100
AcDbEntity
  8
Default
  6
Continuous
 62
     7
100
AcDbLine
 10
22.84257618257792
 20
27.86520537249854
 30
0.0
 11
25.45623618257792
 21
23.33821345878807
 31
0.0
  0
LINE
  5
161
330
1F
100
AcDbEntity
  8
Default
  6
Continuous
 62
     7
100
AcDbLine
 10
25.45623618257791
 20
23.33821345878807
 30
0.0
 11
20.22891618257792
 21
23.33821345878807
 31
0.0
  0
MTEXT
  5
162
330
1F
100
AcDbEntity
  8
Default
100
AcDbMText
 10
279.0410015397593
 20
18.35453940217083
 30
0.0
 40
4.065693333333333
 41
20.90927999999992
 71
     5
 72
     1
  1
{\fSolid Edge ISO|b0||i0||c0|p34;\C7;\H4.065693333;\W1.;mm}
 73
     1
 44
1.0
1001
ACAD
1000
ACAD_MTEXT_DEFINED_HEIGHT_BEGIN
1070
    46
1040
7.434410666666681
1000
ACAD_MTEXT_DEFINED_HEIGHT_END
  0
INSERT
  5
164
330
1F
100
AcDbEntity
  8
Default
100
AcDbBlockReference
  2
SEANNOT_GROUP7
 10
0.0
 20
0.0
 30
0.0
  0
MULTILEADER
  5
167
330
1F
100
AcDbEntity
  8
Default
  6
Continuous
 62
     7
 92
      204
310
CC000000020000000C00000013000000993A0000B80000000B000000215EA5B80D4C7140EAB75400C91E4B40000000000000000000000000000000000000000000000000000000000000F03F000000000000F03F00000000000000000000000000000000444F4F522053544F505045522043555348494F4E00000000140000
310
0001000000ABAAAAAAAAAA1040000000000000F03F0000000000000000000000000000F03F0000000000000000000000000000000000000000536F6C696420456467652049534F000000000000
100
AcDbMLeader
300
CONTEXT_DATA{
 40
1.0
 10
285.8676388723489
 20
56.34625445633877
 30
0.0
 41
4.166666666666667
140
4.166666666666667
145
1.458333333333333
174
     1
175
     1
176
     1
177
     0
290
     1
304
{\pxsm0.9;\fSolid Edge ISO|b0||i0||c0|p34;\W1.;DOOR STOPPER CUSHION\P}
 11
0.0
 21
0.0
 31
1.0
340
11
 12
310.6905555390156
 22
58.45042112300543
 32
0.0
 13
1.0
 23
0.0
 33
0.0
 42
0.0
 43
0.0
 44
0.0
 45
1.0
170
     1
 90
-1073741824
171
     2
172
     1
 91
-939524096
141
1.5
 92
        0
291
     0
292
     0
173
     0
293
     0
142
0.0
143
0.0
294
     0
295
     0
296
     0
110
0.0
120
0.0
130
0.0
111
1.0
121
0.0
131
0.0
112
0.0
122
1.0
132
0.0
297
     0
301
}
340
0
 90
 35052449
170
     0
 91
-1056964608
341
14
171
    -2
290
     1
291
     1
 41
0.0
342
E1
 42
4.0
172
     2
343
11
173
     1
 95
        1
174
     1
175
     0
 92
-1073741824
292
     0
 93
-1023410169
 10
1.0
 20
1.0
 30
1.0
 43
0.0
176
     0
293
     0
294
     0
178
     0
179
     1
 45
1.0
1001
ACAD_MLEADERVER
1070
     2
  0
INSERT
  5
169
330
1F
100
AcDbEntity
  8
Default
100
AcDbBlockReference
  2
SEANNOT_GROUP8
 10
0.0
 20
0.0
 30
0.0
  0
MULTILEADER
  5
16C
330
1F
100
AcDbEntity
  8
Default
  6
Continuous
 62
     7
 92
      188
310
BC000000020000000C00000013000000993A0000A80000000B00000074A62E3CC19176408BED82DD40334B40000000000000000000000000000000000000000000000000000000000000F03F000000000000F03F000000000000000000000000000000005552455448414E000700000001000000ABAAAAAAAAAA1040000000
310
000000F03F0000000000000000000000000000F03F0000000000000000000000000000000000000000536F6C696420456467652049534F000000000000
100
AcDbMLeader
300
CONTEXT_DATA{
 40
1.0
 10
363.699939550167
 20
56.47619935584278
 30
0.0
 41
4.166666666666667
140
4.166666666666667
145
1.458333333333333
174
     1
175
     1
176
     1
177
     0
290
     1
304
{\pxsm0.9;\fSolid Edge ISO|b0||i0||c0|p34;\W1.;URETHAN\P}
 11
0.0
 21
0.0
 31
1.0
340
11
 12
374.0332728835003
 22
58.56994935584278
 32
0.0
 13
1.0
 23
0.0
 33
0.0
 42
0.0
 43
0.0
 44
0.0
 45
1.0
170
     1
 90
-1073741824
171
     2
172
     1
 91
-939524096
141
1.5
 92
        0
291
     0
292
     0
173
     0
293
     0
142
0.0
143
0.0
294
     0
295
     0
296
     0
110
0.0
120
0.0
130
0.0
111
1.0
121
0.0
131
0.0
112
0.0
122
1.0
132
0.0
297
     0
301
}
340
0
 90
 35052449
170
     0
 91
-1056964608
341
14
171
    -2
290
     1
291
     1
 41
0.0
342
E1
 42
4.0
172
     2
343
11
173
     1
 95
        1
174
     1
175
     0
 92
-1073741824
292
     0
 93
-1023410169
 10
1.0
 20
1.0
 30
1.0
 43
0.0
176
     0
293
     0
294
     0
178
     0
179
     1
 45
1.0
1001
ACAD_MLEADERVER
1070
     2
  0
INSERT
  5
16E
330
1F
100
AcDbEntity
  8
Default
100
AcDbBlockReference
  2
SEANNOT_GROUP9
 10
0.0
 20
0.0
 30
0.0
  0
MULTILEADER
  5
171
330
1F
100
AcDbEntity
  8
Default
  6
Continuous
 62
     7
 92
      196
310
C4000000020000000C00000013000000993A0000B00000000B000000AA4F60DFB5FC78400A059DC930793340000000000000000000000000000000000000000000000000000000000000F03F000000000000F03F0000000000000000000000000000000042533030322D503130302D30314100000E00000001000000000000
310
0000001440000000000000F03F0000000000000000000000000000F03F0000000000000000000000000000000000000000536F6C696420456467652049534F000000000000
100
AcDbMLeader
300
CONTEXT_DATA{
 40
1.0
 10
404.6876254525941
 20
22.01029890079704
 30
0.0
 41
5.0
140
5.0
145
1.75
174
     1
175
     1
176
     1
177
     0
290
     1
304
{\pxsm0.9;\fSolid Edge ISO|b0||i0||c0|p34;\W1.;BS002-P100-01A\P}
 11
0.0
 21
0.0
 31
1.0
340
11
 12
426.2014926400942
 22
24.53529890079703
 32
0.0
 13
1.0
 23
0.0
 33
0.0
 42
0.0
 43
0.0
 44
0.0
 45
1.0
170
     1
 90
-1073741824
171
     2
172
     1
 91
-939524096
141
1.5
 92
        0
291
     0
292
     0
173
     0
293
     0
142
0.0
143
0.0
294
     0
295
     0
296
     0
110
0.0
120
0.0
130
0.0
111
1.0
121
0.0
131
0.0
112
0.0
122
1.0
132
0.0
297
     0
301
}
340
0
 90
 35052449
170
     0
 91
-1056964608
341
14
171
    -2
290
     1
291
     1
 41
0.0
342
E1
 42
4.0
172
     2
343
11
173
     1
 95
        1
174
     1
175
     0
 92
-1073741824
292
     0
 93
-1023410169
 10
1.0
 20
1.0
 30
1.0
 43
0.0
176
     0
293
     0
294
     0
178
     0
179
     1
 45
1.0
1001
ACAD_MLEADERVER
1070
     2
  0
INSERT
  5
173
330
1F
100
AcDbEntity
  8
Default
100
AcDbBlockReference
  2
SEANNOT_GROUP10
 10
0.0
 20
0.0
 30
0.0
  0
MULTILEADER
  5
176
330
1F
100
AcDbEntity
  8
Default
  6
Continuous
 62
     7
 92
      192
310
C0000000020000000C00000013000000993A0000AC0000000B0000002ADF18D14C2F7540102CE3AD23143040000000000000000000000000000000000000000000000000000000000000F03F000000000000F03F00000000000000000000000000000000323032302D30312D323000000A00000001000000ABAAAAAAAAAA10
310
40000000000000F03F0000000000000000000000000000F03F0000000000000000000000000000000000000000536F6C696420456467652049534F000000000000
100
AcDbMLeader
300
CONTEXT_DATA{
 40
1.0
 10
339.7341830610311
 20
18.19275126530456
 30
0.0
 41
4.166666666666667
140
4.166666666666667
145
1.458333333333333
174
     1
175
     1
176
     1
177
     0
290
     1
304
{\pxsm0.9;\fSolid Edge ISO|b0||i0||c0|p34;\W1.;2020-01-20\P}
 11
0.0
 21
0.0
 31
1.0
340
11
 12
353.7112663943644
 22
20.29691793197123
 32
0.0
 13
1.0
 23
0.0
 33
0.0
 42
0.0
 43
0.0
 44
0.0
 45
1.0
170
     1
 90
-1073741824
171
     2
172
     1
 91
-939524096
141
1.5
 92
        0
291
     0
292
     0
173
     0
293
     0
142
0.0
143
0.0
294
     0
295
     0
296
     0
110
0.0
120
0.0
130
0.0
111
1.0
121
0.0
131
0.0
112
0.0
122
1.0
132
0.0
297
     0
301
}
340
0
 90
 35052449
170
     0
 91
-1056964608
341
14
171
    -2
290
     1
291
     1
 41
0.0
342
E1
 42
4.0
172
     2
343
11
173
     1
 95
        1
174
     1
175
     0
 92
-1073741824
292
     0
 93
-1023410169
 10
1.0
 20
1.0
 30
1.0
 43
0.0
176
     0
293
     0
294
     0
178
     0
179
     1
 45
1.0
1001
ACAD_MLEADERVER
1070
     2
  0
INSERT
  5
178
330
1F
100
AcDbEntity
  8
Default
100
AcDbBlockReference
  2
SEANNOT_GROUP11
 10
0.0
 20
0.0
 30
0.0
  0
MULTILEADER
  5
17B
330
1F
100
AcDbEntity
  8
Default
  6
Continuous
 62
     7
 92
      184
310
B8000000020000000C00000013000000993A0000A40000000B000000D965DACEA5047D401640066E84473040000000000000000000000000000000000000000000000000000000000000F03F000000000000F03F00000000000000000000000000000000310000000100000001000000ABAAAAAAAAAA1040000000000000F0
310
3F0000000000000000000000000000F03F0000000000000000000000000000000000000000536F6C696420456467652049534F000000000000
100
AcDbMLeader
300
CONTEXT_DATA{
 40
1.0
 10
462.5489107183046
 20
18.36009422094642
 30
0.0
 41
4.166666666666667
140
4.166666666666667
145
1.458333333333333
174
     1
175
     1
176
     0
177
     0
290
     1
304
{\pxsm0.9;\fSolid Edge ISO|b0||i0||c0|p34;\W1.;1\P}
 11
0.0
 21
0.0
 31
1.0
340
11
 12
464.5489107183046
 22
20.44759422094642
 32
0.0
 13
1.0
 23
0.0
 33
0.0
 42
0.0
 43
0.0
 44
0.0
 45
1.0
170
     1
 90
-1073741824
171
     1
172
     1
 91
-939524096
141
1.5
 92
        0
291
     0
292
     0
173
     0
293
     0
142
0.0
143
0.0
294
     0
295
     0
296
     0
110
0.0
120
0.0
130
0.0
111
1.0
121
0.0
131
0.0
112
0.0
122
1.0
132
0.0
297
     0
301
}
340
0
 90
 35052449
170
     0
 91
-1056964608
341
14
171
    -2
290
     1
291
     1
 41
0.0
342
E1
 42
4.0
172
     2
343
11
173
     1
 95
        1
174
     1
175
     0
 92
-1073741824
292
     0
 93
-1023410169
 10
1.0
 20
1.0
 30
1.0
 43
0.0
176
     0
293
     0
294
     0
178
     0
179
     1
 45
1.0
1001
ACAD_MLEADERVER
1070
     2
  0
INSERT
  5
17D
330
1F
100
AcDbEntity
  8
Default
100
AcDbBlockReference
  2
SEANNOT_GROUP12
 10
0.0
 20
0.0
 30
0.0
  0
MULTILEADER
  5
180
330
1F
100
AcDbEntity
  8
Default
  6
Continuous
 62
     7
 92
      184
310
B8000000020000000C00000013000000993A0000A40000000B000000A800248C939E7D40252566726C3D3040000000000000000000000000000000000000000000000000000000000000F03F000000000000F03F00000000000000000000000000000000310000000100000001000000ABAAAAAAAAAA1040000000000000F0
310
3F0000000000000000000000000000F03F0000000000000000000000000000000000000000536F6C696420456467652049534F000000000000
100
AcDbMLeader
300
CONTEXT_DATA{
 40
1.0
 10
472.1694525650744
 20
18.32066577075474
 30
0.0
 41
4.166666666666667
140
4.166666666666667
145
1.458333333333333
174
     1
175
     1
176
     0
177
     0
290
     1
304
{\pxsm0.9;\fSolid Edge ISO|b0||i0||c0|p34;\W1.;1\P}
 11
0.0
 21
0.0
 31
1.0
340
11
 12
474.1694525650744
 22
20.40816577075474
 32
0.0
 13
1.0
 23
0.0
 33
0.0
 42
0.0
 43
0.0
 44
0.0
 45
1.0
170
     1
 90
-1073741824
171
     1
172
     1
 91
-939524096
141
1.5
 92
        0
291
     0
292
     0
173
     0
293
     0
142
0.0
143
0.0
294
     0
295
     0
296
     0
110
0.0
120
0.0
130
0.0
111
1.0
121
0.0
131
0.0
112
0.0
122
1.0
132
0.0
297
     0
301
}
340
0
 90
 35052449
170
     0
 91
-1056964608
341
14
171
    -2
290
     1
291
     1
 41
0.0
342
E1
 42
4.0
172
     2
343
11
173
     1
 95
        1
174
     1
175
     0
 92
-1073741824
292
     0
 93
-1023410169
 10
1.0
 20
1.0
 30
1.0
 43
0.0
176
     0
293
     0
294
     0
178
     0
179
     1
 45
1.0
1001
ACAD_MLEADERVER
1070
     2
  0
MTEXT
  5
181
330
1F
100
AcDbEntity
  8
Default
100
AcDbMText
 10
320.5856634163974
 20
25.7889500688375
 30
0.0
 40
4.065693333333333
 41
20.36148375327627
 71
     5
 72
     1
  1
{\fSolid Edge ISO|b0||i0||c0|p34;\C7;\H4.065693333;\W1.;Weight}
 73
     1
 44
1.0
1001
ACAD
1000
ACAD_MTEXT_DEFINED_HEIGHT_BEGIN
1070
    46
1040
7.434410666666662
1000
ACAD_MTEXT_DEFINED_HEIGHT_END
  0
INSERT
  5
183
330
1F
100
AcDbEntity
  8
Default
100
AcDbBlockReference
  2
SEANNOT_GROUP13
 10
0.0
 20
0.0
 30
0.0
  0
MULTILEADER
  5
186
330
1F
100
AcDbEntity
  8
Default
  6
Continuous
 62
     7
 92
      192
310
C0000000020000000C00000013000000993A0000AC0000000B0000003305059A6A7373409243069B74403040000000000000000000000000000000000000000000000000000000000000F03F000000000000F03F00000000000000000000000000000000302E303732206B67000000000800000001000000ABAAAAAAAAAA10
310
40000000000000F03F0000000000000000000000000000F03F0000000000000000000000000000000000000000536F6C696420456467652049534F000000000000
100
AcDbMLeader
300
CONTEXT_DATA{
 40
1.0
 10
311.5529994475849
 20
17.84294443623416
 30
0.0
 41
4.166666666666667
140
4.166666666666667
145
1.458333333333333
174
     1
175
     1
176
     1
177
     0
290
     1
304
{\pxsm0.9;\fSolid Edge ISO|b0||i0||c0|p34;\W1.;0.072 kg\P}
 11
0.0
 21
0.0
 31
1.0
340
11
 12
322.0321661142515
 22
20.47002776956749
 32
0.0
 13
1.0
 23
0.0
 33
0.0
 42
0.0
 43
0.0
 44
0.0
 45
1.0
170
     1
 90
-1073741824
171
     2
172
     1
 91
-939524096
141
1.5
 92
        0
291
     0
292
     0
173
     0
293
     0
142
0.0
143
0.0
294
     0
295
     0
296
     0
110
0.0
120
0.0
130
0.0
111
1.0
121
0.0
131
0.0
112
0.0
122
1.0
132
0.0
297
     0
301
}
340
0
 90
 35052449
170
     0
 91
-1056964608
341
14
171
    -2
290
     1
291
     1
 41
0.0
342
E1
 42
4.0
172
     2
343
11
173
     1
 95
        1
174
     1
175
     0
 92
-1073741824
292
     0
 93
-1023410169
 10
1.0
 20
1.0
 30
1.0
 43
0.0
176
     0
293
     0
294
     0
178
     0
179
     1
 45
1.0
1001
ACAD_MLEADERVER
1070
     2
  0
MTEXT
  5
187
330
1F
100
AcDbEntity
  8
Default
100
AcDbMText
 10
299.9502815397593
 20
18.35453940217083
 30
0.0
 40
4.065693333333333
 41
20.90927999999997
 71
     5
 72
     1
  1
{\fSolid Edge ISO|b0||i0||c0|p34;\C7;\H4.065693333;\W1.;1 / 1}
 73
     1
 44
1.0
1001
ACAD
1000
ACAD_MTEXT_DEFINED_HEIGHT_BEGIN
1070
    46
1040
7.434410666666683
1000
ACAD_MTEXT_DEFINED_HEIGHT_END
  0
HATCH
  5
188
330
1F
100
AcDbEntity
  8
Default
  6
Continuous
 62
     7
100
AcDbHatch
 10
0.0
 20
0.0
 30
0.0
210
0.0
220
0.0
230
1.0
  2
SOLID
 70
     1
 71
     0
 91
        1
 92
        1
 93
        4
 72
     1
 10
285.4437256942218
 20
40.56279324678278
 11
287.7521355672837
 21
42.93116181784647
 72
     1
 10
287.7521355672837
 20
42.93116181784647
 11
286.3930717459139
 21
42.93116181784647
 72
     1
 10
286.3930717459139
 20
42.93116181784647
 11
285.0440010408776
 21
41.5321255311422
 72
     1
 10
285.0440010408776
 20
41.5321255311422
 11
285.4437256942218
 21
40.5627932467828
 97
        0
 75
     0
 76
     1
 98
        0
  0
LINE
  5
189
330
1F
100
AcDbEntity
  8
Default
  6
Continuous
 62
     7
100
AcDbLine
 10
285.4437256942218
 20
40.56279324678278
 30
0.0
 11
287.7521355672837
 21
42.93116181784647
 31
0.0
  0
LINE
  5
18A
330
1F
100
AcDbEntity
  8
Default
  6
Continuous
 62
     7
100
AcDbLine
 10
287.7521355672837
 20
42.93116181784647
 30
0.0
 11
286.3930717459139
 21
42.93116181784647
 31
0.0
  0
LINE
  5
18B
330
1F
100
AcDbEntity
  8
Default
  6
Continuous
 62
     7
100
AcDbLine
 10
286.3930717459139
 20
42.93116181784647
 30
0.0
 11
285.0440010408776
 21
41.5321255311422
 31
0.0
  0
HATCH
  5
18C
330
1F
100
AcDbEntity
  8
Default
  6
Continuous
 62
     7
100
AcDbHatch
 10
0.0
 20
0.0
 30
0.0
210
0.0
220
0.0
230
1.0
  2
SOLID
 70
     1
 71
     0
 91
        1
 92
        1
 93
        4
 72
     1
 10
282.8348858269267
 20
37.88463806937749
 11
284.5143658751969
 21
39.55348849708901
 72
     1
 10
284.5143658751969
 20
39.55348849708901
 11
284.1356947585646
 21
40.59017827541016
 72
     1
 10
284.1356947585646
 20
40.59017827541015
 11
281.6027508810518
 21
37.88463806937749
 72
     1
 10
281.6027508810518
 20
37.88463806937749
 11
282.8348858269267
 21
37.88463806937749
 97
        0
 75
     0
 76
     1
 98
        0
  0
LINE
  5
18D
330
1F
100
AcDbEntity
  8
Default
  6
Continuous
 62
     7
100
AcDbLine
 10
282.8348858269267
 20
37.88463806937749
 30
0.0
 11
284.5143658751969
 21
39.55348849708901
 31
0.0
  0
LINE
  5
18E
330
1F
100
AcDbEntity
  8
Default
  6
Continuous
 62
     7
100
AcDbLine
 10
284.1356947585646
 20
40.59017827541015
 30
0.0
 11
281.6027508810518
 21
37.88463806937749
 31
0.0
  0
LINE
  5
18F
330
1F
100
AcDbEntity
  8
Default
  6
Continuous
 62
     7
100
AcDbLine
 10
281.6027508810518
 20
37.88463806937749
 30
0.0
 11
282.8348858269267
 21
37.88463806937749
 31
0.0
  0
HATCH
  5
190
330
1F
100
AcDbEntity
  8
Default
  6
Continuous
 62
     7
100
AcDbHatch
 10
0.0
 20
0.0
 30
0.0
210
0.0
220
0.0
230
1.0
  2
SOLID
 70
     1
 71
     0
 91
        1
 92
        1
 93
        8
 72
     1
 10
286.4830097929164
 20
37.88463806937749
 11
285.4437256942218
 21
40.56279324678278
 72
     1
 10
285.4437256942218
 20
40.56279324678278
 11
285.0440010408776
 21
41.5321255311422
 72
     1
 10
285.0440010408776
 20
41.5321255311422
 11
284.5246572935105
 21
42.93116181784647
 72
     1
 10
284.5246572935105
 20
42.93116181784647
 11
283.1153295884925
 21
42.93116181784647
 72
     1
 10
283.1153295884924
 20
42.93116181784647
 11
284.1356947585646
 21
40.59017827541015
 72
     1
 10
284.1356947585646
 20
40.59017827541015
 11
284.5143658751969
 21
39.553488497089
 72
     1
 10
284.5143658751969
 20
39.55348849708901
 11
285.1239459715466
 21
37.88463806937749
 72
     1
 10
285.1239459715465
 20
37.88463806937749
 11
286.4830097929163
 21
37.88463806937749
 97
        0
 75
     0
 76
     1
 98
        0
  0
HATCH
  5
191
330
1F
100
AcDbEntity
  8
Default
  6
Continuous
 62
     7
100
AcDbHatch
 10
0.0
 20
0.0
 30
0.0
210
0.0
220
0.0
230
1.0
  2
SOLID
 70
     1
 71
     0
 91
        1
 92
        1
 93
        8
 72
     1
 10
285.0440010408776
 20
41.5321255311422
 11
284.5246572935105
 21
42.93116181784647
 72
     1
 10
284.5246572935105
 20
42.93116181784647
 11
283.1153295884925
 21
42.93116181784647
 72
     1
 10
283.1153295884924
 20
42.93116181784647
 11
284.1356947585646
 21
40.59017827541015
 72
     1
 10
284.1356947585646
 20
40.59017827541015
 11
284.5143658751969
 21
39.553488497089
 72
     1
 10
284.5143658751969
 20
39.55348849708901
 11
285.1239459715466
 21
37.88463806937749
 72
     1
 10
285.1239459715465
 20
37.88463806937749
 11
286.4830097929163
 21
37.88463806937749
 72
     1
 10
286.4830097929164
 20
37.88463806937749
 11
285.4437256942218
 21
40.56279324678278
 72
     1
 10
285.4437256942218
 20
40.56279324678278
 11
285.0440010408776
 21
41.5321255311422
 97
        0
 75
     0
 76
     1
 98
        0
  0
LINE
  5
192
330
1F
100
AcDbEntity
  8
Default
  6
Continuous
 62
     7
100
AcDbLine
 10
285.0440010408776
 20
41.5321255311422
 30
0.0
 11
284.5246572935105
 21
42.93116181784647
 31
0.0
  0
LINE
  5
193
330
1F
100
AcDbEntity
  8
Default
  6
Continuous
 62
     7
100
AcDbLine
 10
284.5246572935105
 20
42.93116181784647
 30
0.0
 11
283.1153295884925
 21
42.93116181784647
 31
0.0
  0
LINE
  5
194
330
1F
100
AcDbEntity
  8
Default
  6
Continuous
 62
     7
100
AcDbLine
 10
283.1153295884924
 20
42.93116181784647
 30
0.0
 11
284.1356947585646
 21
40.59017827541015
 31
0.0
  0
LINE
  5
195
330
1F
100
AcDbEntity
  8
Default
  6
Continuous
 62
     7
100
AcDbLine
 10
284.5143658751969
 20
39.55348849708901
 30
0.0
 11
284.1356947585646
 21
40.59017827541016
 31
0.0
  0
LINE
  5
196
330
1F
100
AcDbEntity
  8
Default
  6
Continuous
 62
     7
100
AcDbLine
 10
284.5143658751969
 20
39.55348849708901
 30
0.0
 11
285.1239459715466
 21
37.88463806937749
 31
0.0
  0
LINE
  5
197
330
1F
100
AcDbEntity
  8
Default
  6
Continuous
 62
     7
100
AcDbLine
 10
285.1239459715465
 20
37.88463806937749
 30
0.0
 11
286.4830097929163
 21
37.88463806937749
 31
0.0
  0
LINE
  5
198
330
1F
100
AcDbEntity
  8
Default
  6
Continuous
 62
     7
100
AcDbLine
 10
286.4830097929164
 20
37.88463806937749
 30
0.0
 11
285.4437256942218
 21
40.56279324678278
 31
0.0
  0
LINE
  5
199
330
1F
100
AcDbEntity
  8
Default
  6
Continuous
 62
     7
100
AcDbLine
 10
285.0440010408776
 20
41.5321255311422
 30
0.0
 11
285.4437256942218
 21
40.5627932467828
 31
0.0
  0
HATCH
  5
19A
330
1F
100
AcDbEntity
  8
Default
  6
Continuous
 62
     7
100
AcDbHatch
 10
0.0
 20
0.0
 30
0.0
210
0.0
220
0.0
230
1.0
  2
SOLID
 70
     1
 71
     0
 91
        2
 92
        1
 93
       15
 72
     1
 10
281.7386273873965
 20
42.95114805051362
 11
279.8775598964056
 21
42.95114805051362
 72
     2
 10
279.8775598964056
 20
41.13356917267321
 40
1.817578877840412
 50
90.0
 51
163.0141591821138
 73
     1
 72
     1
 10
278.1392693002533
 20
41.66454824994443
 11
277.5858211640075
 21
39.85269966329389
 72
     2
 10
279.7968506054532
 20
39.17731755213619
 40
2.311880660201546
 50
163.0141591821605
 51
196.4098246070498
 73
     1
 72
     2
 10
278.4074917998273
 20
38.76814813321657
 40
0.8635238311889372
 50
196.409824607008
 51
270.0
 73
     1
 72
     1
 10
278.4074917998273
 20
37.90462430202763
 11
280.3600615974084
 21
37.90462430202762
 72
     2
 10
280.3600615974084
 20
39.70869193143931
 40
1.804067629411701
 50
270.0
 51
351.8698685544829
 73
     1
 72
     1
 10
282.1459973041332
 20
39.45355733375298
 11
281.0767338564379
 21
39.45355733375298
 72
     2
 10
280.6570229704266
 20
39.45355733375298
 40
0.4197108860112819
 50
0.0
 51
90.0
 73
     0
 72
     1
 10
280.6570229704266
 20
39.0338464477417
 11
279.0481312407167
 21
39.0338464477417
 72
     2
 10
279.0481312407167
 20
39.46452803755401
 40
0.430681589812295
 50
90.0
 51
196.4012860571503
 73
     0
 72
     1
 10
278.6349751025455
 20
39.58613657876209
 11
278.7871412331581
 21
40.10310989543709
 72
     1
 10
278.7871412331581
 20
40.10310989543709
 11
282.306780964711
 21
40.10310989543709
 72
     1
 10
282.306780964711
 20
40.10310989543709
 11
282.6307229348254
 21
41.88191909585406
 72
     2
 10
281.7386273873965
 20
42.04438013388816
 40
0.9067679166254705
 50
349.6788750922273
 51
450.0
 73
     1
 97
        0
 92
        1
 93
        4
 72
     1
 10
280.7472908760996
 20
41.76163734814331
 11
279.887553012739
 21
41.76163734814331
 72
     2
 10
279.887553012739
 20
40.85919232244726
 40
0.9024450256986914
 50
90.0
 51
170.2202017239558
 73
     1
 72
     1
 10
278.9982224527816
 20
41.0124834817949
 11
281.4964447424491
 21
41.01248348179487
 72
     2
 10
280.7472908760996
 20
41.01248348179487
 40
0.7491538663484514
 50
0.0
 51
90.0
 73
     1
 97
        0
 75
     0
 76
     1
 98
        0
  0
LINE
  5
19B
330
1F
100
AcDbEntity
  8
Default
  6
Continuous
 62
     7
100
AcDbLine
 10
281.7386273873965
 20
42.95114805051362
 30
0.0
 11
279.8775598964056
 21
42.95114805051362
 31
0.0
  0
ARC
  5
19C
330
1F
100
AcDbEntity
  8
Default
  6
Continuous
 62
     7
100
AcDbCircle
 10
279.8775598964056
 20
41.13356917267321
 30
0.0
 40
1.817578877840412
100
AcDbArc
 50
90.0
 51
163.0141591821138
  0
LINE
  5
19D
330
1F
100
AcDbEntity
  8
Default
  6
Continuous
 62
     7
100
AcDbLine
 10
278.1392693002532
 20
41.66454824994446
 30
0.0
 11
277.5858211640075
 21
39.85269966329389
 31
0.0
  0
ARC
  5
19E
330
1F
100
AcDbEntity
  8
Default
  6
Continuous
 62
     7
100
AcDbCircle
 10
279.7968506054532
 20
39.17731755213619
 30
0.0
 40
2.311880660201546
100
AcDbArc
 50
163.0141591821605
 51
196.4098246070496
  0
ARC
  5
19F
330
1F
100
AcDbEntity
  8
Default
  6
Continuous
 62
     7
100
AcDbCircle
 10
278.4074917998273
 20
38.76814813321657
 30
0.0
 40
0.8635238311889372
100
AcDbArc
 50
196.409824607008
 51
270.0
  0
LINE
  5
1A0
330
1F
100
AcDbEntity
  8
Default
  6
Continuous
 62
     7
100
AcDbLine
 10
278.4074917998273
 20
37.90462430202761
 30
0.0
 11
280.3600615974084
 21
37.90462430202761
 31
0.0
  0
ARC
  5
1A1
330
1F
100
AcDbEntity
  8
Default
  6
Continuous
 62
     7
100
AcDbCircle
 10
280.3600615974084
 20
39.70869193143931
 30
0.0
 40
1.804067629411701
100
AcDbArc
 50
270.0
 51
351.8698685544829
  0
LINE
  5
1A2
330
1F
100
AcDbEntity
  8
Default
  6
Continuous
 62
     7
100
AcDbLine
 10
282.1459973041332
 20
39.45355733375298
 30
0.0
 11
281.0767338564379
 21
39.45355733375298
 31
0.0
  0
ARC
  5
1A3
330
1F
100
AcDbEntity
  8
Default
  6
Continuous
 62
     7
100
AcDbCircle
 10
280.6570229704266
 20
39.45355733375298
 30
0.0
 40
0.4197108860112819
100
AcDbArc
 50
270.0
 51
0.0
  0
LINE
  5
1A4
330
1F
100
AcDbEntity
  8
Default
  6
Continuous
 62
     7
100
AcDbLine
 10
280.6570229704266
 20
39.0338464477417
 30
0.0
 11
279.0481312407167
 21
39.0338464477417
 31
0.0
  0
ARC
  5
1A5
330
1F
100
AcDbEntity
  8
Default
  6
Continuous
 62
     7
100
AcDbCircle
 10
279.0481312407167
 20
39.46452803755401
 30
0.0
 40
0.430681589812295
100
AcDbArc
 50
163.5987139428497
 51
270.0
  0
LINE
  5
1A6
330
1F
100
AcDbEntity
  8
Default
  6
Continuous
 62
     7
100
AcDbLine
 10
278.6349751025455
 20
39.58613657876207
 30
0.0
 11
278.7871412331581
 21
40.10310989543709
 31
0.0
  0
LINE
  5
1A7
330
1F
100
AcDbEntity
  8
Default
  6
Continuous
 62
     7
100
AcDbLine
 10
278.7871412331581
 20
40.10310989543709
 30
0.0
 11
282.306780964711
 21
40.10310989543709
 31
0.0
  0
LINE
  5
1A8
330
1F
100
AcDbEntity
  8
Default
  6
Continuous
 62
     7
100
AcDbLine
 10
282.306780964711
 20
40.10310989543709
 30
0.0
 11
282.6307229348254
 21
41.88191909585406
 31
0.0
  0
ARC
  5
1A9
330
1F
100
AcDbEntity
  8
Default
  6
Continuous
 62
     7
100
AcDbCircle
 10
281.7386273873965
 20
42.04438013388816
 30
0.0
 40
0.9067679166254705
100
AcDbArc
 50
349.6788750922273
 51
90.0
  0
LINE
  5
1AA
330
1F
100
AcDbEntity
  8
Default
  6
Continuous
 62
     7
100
AcDbLine
 10
280.7472908760996
 20
41.76163734814331
 30
0.0
 11
279.887553012739
 21
41.76163734814331
 31
0.0
  0
ARC
  5
1AB
330
1F
100
AcDbEntity
  8
Default
  6
Continuous
 62
     7
100
AcDbCircle
 10
280.7472908760996
 20
41.01248348179487
 30
0.0
 40
0.7491538663484514
100
AcDbArc
 50
0.0
 51
90.0
  0
LINE
  5
1AC
330
1F
100
AcDbEntity
  8
Default
  6
Continuous
 62
     7
100
AcDbLine
 10
278.9982224527816
 20
41.01248348179487
 30
0.0
 11
281.4964447424491
 21
41.01248348179487
 31
0.0
  0
ARC
  5
1AD
330
1F
100
AcDbEntity
  8
Default
  6
Continuous
 62
     7
100
AcDbCircle
 10
279.887553012739
 20
40.85919232244726
 30
0.0
 40
0.9024450256986914
100
AcDbArc
 50
90.0
 51
170.2202017239554
  0
HATCH
  5
1AE
330
1F
100
AcDbEntity
  8
Default
  6
Continuous
 62
     7
100
AcDbHatch
 10
0.0
 20
0.0
 30
0.0
210
0.0
220
0.0
230
1.0
  2
SOLID
 70
     1
 71
     0
 91
        1
 92
        1
 93
       10
 72
     1
 10
276.493379430129
 20
37.84129583225609
 11
278.3561660341287
 21
44.97440551098647
 72
     1
 10
278.3561660341287
 20
44.97440551098646
 11
277.0926594310989
 21
44.97440551098646
 72
     1
 10
277.0926594310989
 20
44.97440551098646
 11
275.7437214065682
 21
40.19249599706051
 72
     1
 10
275.7437214065682
 20
40.19249599706051
 11
274.0517981148626
 21
44.97440551098646
 72
     1
 10
274.0517981148625
 20
44.97440551098646
 11
272.1544496573981
 21
44.97440551098646
 72
     1
 10
272.1544496573981
 20
44.97440551098646
 11
270.2689461435936
 21
37.84129583225608
 72
     1
 10
270.2689461435936
 20
37.84129583225609
 11
271.5961750206877
 21
37.84129583225609
 72
     1
 10
271.5961750206877
 20
37.84129583225609
 11
272.9848789158208
 21
43.46120690787295
 72
     1
 10
272.9848789158207
 20
43.46120690787295
 11
275.1113317552433
 21
37.84129583225608
 72
     1
 10
275.1113317552433
 20
37.84129583225609
 11
276.493379430129
 21
37.84129583225609
 97
        0
 75
     0
 76
     1
 98
        0
  0
LINE
  5
1AF
330
1F
100
AcDbEntity
  8
Default
  6
Continuous
 62
     7
100
AcDbLine
 10
278.3561660341287
 20
44.97440551098646
 30
0.0
 11
276.493379430129
 21
37.84129583225608
 31
0.0
  0
LINE
  5
1B0
330
1F
100
AcDbEntity
  8
Default
  6
Continuous
 62
     7
100
AcDbLine
 10
277.0926594310989
 20
44.97440551098646
 30
0.0
 11
278.3561660341287
 21
44.97440551098646
 31
0.0
  0
LINE
  5
1B1
330
1F
100
AcDbEntity
  8
Default
  6
Continuous
 62
     7
100
AcDbLine
 10
275.7437214065682
 20
40.19249599706051
 30
0.0
 11
277.0926594310989
 21
44.97440551098646
 31
0.0
  0
LINE
  5
1B2
330
1F
100
AcDbEntity
  8
Default
  6
Continuous
 62
     7
100
AcDbLine
 10
275.7437214065682
 20
40.19249599706051
 30
0.0
 11
274.0517981148626
 21
44.97440551098646
 31
0.0
  0
LINE
  5
1B3
330
1F
100
AcDbEntity
  8
Default
  6
Continuous
 62
     7
100
AcDbLine
 10
272.1544496573981
 20
44.97440551098646
 30
0.0
 11
274.0517981148625
 21
44.97440551098646
 31
0.0
  0
LINE
  5
1B4
330
1F
100
AcDbEntity
  8
Default
  6
Continuous
 62
     7
100
AcDbLine
 10
270.2689461435936
 20
37.84129583225609
 30
0.0
 11
272.1544496573981
 21
44.97440551098649
 31
0.0
  0
LINE
  5
1B5
330
1F
100
AcDbEntity
  8
Default
  6
Continuous
 62
     7
100
AcDbLine
 10
271.5961750206877
 20
37.84129583225609
 30
0.0
 11
270.2689461435936
 21
37.84129583225609
 31
0.0
  0
LINE
  5
1B6
330
1F
100
AcDbEntity
  8
Default
  6
Continuous
 62
     7
100
AcDbLine
 10
272.9848789158207
 20
43.46120690787295
 30
0.0
 11
271.5961750206876
 21
37.84129583225606
 31
0.0
  0
LINE
  5
1B7
330
1F
100
AcDbEntity
  8
Default
  6
Continuous
 62
     7
100
AcDbLine
 10
272.9848789158207
 20
43.46120690787295
 30
0.0
 11
275.1113317552433
 21
37.84129583225608
 31
0.0
  0
LINE
  5
1B8
330
1F
100
AcDbEntity
  8
Default
  6
Continuous
 62
     7
100
AcDbLine
 10
276.493379430129
 20
37.84129583225609
 30
0.0
 11
275.1113317552433
 21
37.84129583225609
 31
0.0
  0
HATCH
  5
1B9
330
1F
100
AcDbEntity
  8
Default
  6
Continuous
 62
     7
100
AcDbHatch
 10
0.0
 20
0.0
 30
0.0
210
0.0
220
0.0
230
1.0
  2
SOLID
 70
     1
 71
     0
 91
        1
 92
        1
 93
       25
 72
     2
 10
290.065741860839
 20
42.89435360644249
 40
0.7357375711449968
 50
134.495580751958
 51
270.0000000000044
 73
     0
 72
     1
 10
290.065741860839
 20
43.6300911775875
 11
292.3115840222834
 21
43.63009117758748
 72
     2
 10
292.3115840222834
 20
43.07426324374357
 40
0.5558279338439107
 50
270.0
 51
360.0
 73
     0
 72
     1
 10
292.8674119561273
 20
43.07426324374357
 11
294.2698385000769
 21
43.07426324374357
 72
     1
 10
294.2698385000768
 20
43.07426324374357
 11
294.2698385000768
 21
44.21568439367596
 72
     2
 10
293.4689975594104
 20
44.21568439367596
 40
0.8008409406664567
 50
0.0
 51
90.0
 73
     1
 72
     1
 10
293.4689975594104
 20
45.01652533434242
 11
290.0141773805576
 21
45.01652533434243
 72
     2
 10
290.0141773805576
 20
43.38733330259482
 40
1.629192031747615
 50
90.0
 51
160.9692997852031
 73
     1
 72
     1
 10
288.4740304782655
 20
43.91857166309799
 11
287.962045136724
 21
42.43424241201152
 72
     2
 10
289.0374374972041
 20
42.06331047452628
 40
1.137567242507136
 50
160.9692997852025
 51
270.0
 73
     1
 72
     1
 10
289.0374374972041
 20
40.92574323201915
 11
291.6642407495619
 21
40.92574323201917
 72
     2
 10
291.6642407495619
 20
40.40521542917864
 40
0.520527802840498
 50
270.0
 51
384.2703698681694
 73
     0
 72
     1
 10
292.1387622057279
 20
40.19125613125472
 11
291.8189341904061
 21
39.48193778414035
 72
     1
 10
291.8189341904061
 20
39.48193778414035
 11
291.2689130674046
 21
39.22411538273343
 72
     1
 10
291.2689130674046
 20
39.22411538273344
 11
288.8797588143671
 21
39.22411538273344
 72
     2
 10
289.2427727555479
 20
39.92882994657904
 40
0.7927179435257921
 50
117.2539897197751
 51
180.0
 73
     0
 72
     1
 10
288.4500548120221
 20
39.92882994657904
 11
287.3559955648286
 21
39.92882994657904
 72
     1
 10
287.3559955648287
 20
39.92882994657904
 11
287.0736910431556
 21
38.96760394268955
 72
     2
 10
288.0478133724573
 20
38.91560809274294
 40
0.9755090367884461
 50
176.9446154942597
 51
270.0
 73
     1
 72
     1
 10
288.0478133724573
 20
37.94009905595448
 11
291.3539648559938
 21
37.94009905595449
 72
     2
 10
291.3539648559938
 20
39.62661561047099
 40
1.686516554516513
 50
270.0
 51
338.1102367889216
 73
     1
 72
     1
 10
292.9188884227519
 20
38.9978451286073
 11
293.4367935453758
 21
40.28684000848215
 72
     1
 10
293.4367935453758
 20
40.28684000848215
 11
293.5377501997856
 21
41.14918931323852
 72
     2
 10
292.5829676716267
 20
41.26096727745809
 40
0.9613032764754749
 50
353.3226838785851
 51
447.2408923413777
 73
     1
 72
     1
 10
292.6292418346669
 20
42.22115616054173
 11
289.5500970580251
 21
42.36954867989797
 97
        0
 75
     0
 76
     1
 98
        0
  0
ARC
  5
1BA
330
1F
100
AcDbEntity
  8
Default
  6
Continuous
 62
     7
100
AcDbCircle
 10
290.065741860839
 20
42.89435360644249
 30
0.0
 40
0.7357375711449968
100
AcDbArc
 50
89.99999999999558
 51
225.504419248042
  0
LINE
  5
1BB
330
1F
100
AcDbEntity
  8
Default
  6
Continuous
 62
     7
100
AcDbLine
 10
292.3115840222834
 20
43.63009117758748
 30
0.0
 11
290.065741860839
 21
43.63009117758748
 31
0.0
  0
ARC
  5
1BC
330
1F
100
AcDbEntity
  8
Default
  6
Continuous
 62
     7
100
AcDbCircle
 10
292.3115840222834
 20
43.07426324374357
 30
0.0
 40
0.5558279338439107
100
AcDbArc
 50
0.0
 51
90.0
  0
LINE
  5
1BD
330
1F
100
AcDbEntity
  8
Default
  6
Continuous
 62
     7
100
AcDbLine
 10
294.2698385000768
 20
43.07426324374357
 30
0.0
 11
292.8674119561276
 21
43.07426324374357
 31
0.0
  0
LINE
  5
1BE
330
1F
100
AcDbEntity
  8
Default
  6
Continuous
 62
     7
100
AcDbLine
 10
294.2698385000768
 20
44.21568439367596
 30
0.0
 11
294.2698385000768
 21
43.07426324374357
 31
0.0
  0
ARC
  5
1BF
330
1F
100
AcDbEntity
  8
Default
  6
Continuous
 62
     7
100
AcDbCircle
 10
293.4689975594104
 20
44.21568439367596
 30
0.0
 40
0.8008409406664567
100
AcDbArc
 50
0.0
 51
90.0
  0
LINE
  5
1C0
330
1F
100
AcDbEntity
  8
Default
  6
Continuous
 62
     7
100
AcDbLine
 10
293.4689975594104
 20
45.01652533434243
 30
0.0
 11
290.0141773805576
 21
45.01652533434243
 31
0.0
  0
ARC
  5
1C1
330
1F
100
AcDbEntity
  8
Default
  6
Continuous
 62
     7
100
AcDbCircle
 10
290.0141773805576
 20
43.38733330259482
 30
0.0
 40
1.629192031747615
100
AcDbArc
 50
90.0
 51
160.9692997852031
  0
LINE
  5
1C2
330
1F
100
AcDbEntity
  8
Default
  6
Continuous
 62
     7
100
AcDbLine
 10
288.4740304782656
 20
43.91857166309796
 30
0.0
 11
287.962045136724
 21
42.43424241201152
 31
0.0
  0
ARC
  5
1C3
330
1F
100
AcDbEntity
  8
Default
  6
Continuous
 62
     7
100
AcDbCircle
 10
289.0374374972041
 20
42.06331047452628
 30
0.0
 40
1.137567242507136
100
AcDbArc
 50
160.9692997852025
 51
270.0
  0
LINE
  5
1C4
330
1F
100
AcDbEntity
  8
Default
  6
Continuous
 62
     7
100
AcDbLine
 10
289.0374374972041
 20
40.92574323201916
 30
0.0
 11
291.6642407495619
 21
40.92574323201916
 31
0.0
  0
ARC
  5
1C5
330
1F
100
AcDbEntity
  8
Default
  6
Continuous
 62
     7
100
AcDbCircle
 10
291.6642407495619
 20
40.40521542917864
 30
0.0
 40
0.520527802840498
100
AcDbArc
 50
335.7296301318306
 51
90.0
  0
LINE
  5
1C6
330
1F
100
AcDbEntity
  8
Default
  6
Continuous
 62
     7
100
AcDbLine
 10
292.1387622057279
 20
40.1912561312547
 30
0.0
 11
291.8189341904061
 21
39.48193778414035
 31
0.0
  0
LINE
  5
1C7
330
1F
100
AcDbEntity
  8
Default
  6
Continuous
 62
     7
100
AcDbLine
 10
291.2689130674046
 20
39.22411538273344
 30
0.0
 11
291.8189341904061
 21
39.48193778414038
 31
0.0
  0
LINE
  5
1C8
330
1F
100
AcDbEntity
  8
Default
  6
Continuous
 62
     7
100
AcDbLine
 10
288.8797588143671
 20
39.22411538273344
 30
0.0
 11
291.2689130674046
 21
39.22411538273344
 31
0.0
  0
ARC
  5
1C9
330
1F
100
AcDbEntity
  8
Default
  6
Continuous
 62
     7
100
AcDbCircle
 10
289.2427727555479
 20
39.92882994657904
 30
0.0
 40
0.7927179435257921
100
AcDbArc
 50
180.0
 51
242.7460102802249
  0
LINE
  5
1CA
330
1F
100
AcDbEntity
  8
Default
  6
Continuous
 62
     7
100
AcDbLine
 10
287.3559955648287
 20
39.92882994657904
 30
0.0
 11
288.4500548120222
 21
39.92882994657904
 31
0.0
  0
LINE
  5
1CB
330
1F
100
AcDbEntity
  8
Default
  6
Continuous
 62
     7
100
AcDbLine
 10
287.0736910431555
 20
38.96760394268955
 30
0.0
 11
287.3559955648286
 21
39.92882994657904
 31
0.0
  0
ARC
  5
1CC
330
1F
100
AcDbEntity
  8
Default
  6
Continuous
 62
     7
100
AcDbCircle
 10
288.0478133724573
 20
38.91560809274294
 30
0.0
 40
0.9755090367884461
100
AcDbArc
 50
176.9446154942597
 51
270.0
  0
LINE
  5
1CD
330
1F
100
AcDbEntity
  8
Default
  6
Continuous
 62
     7
100
AcDbLine
 10
291.3539648559938
 20
37.94009905595449
 30
0.0
 11
288.0478133724573
 21
37.94009905595449
 31
0.0
  0
ARC
  5
1CE
330
1F
100
AcDbEntity
  8
Default
  6
Continuous
 62
     7
100
AcDbCircle
 10
291.3539648559938
 20
39.62661561047099
 30
0.0
 40
1.686516554516513
100
AcDbArc
 50
270.0
 51
338.1102367889216
  0
LINE
  5
1CF
330
1F
100
AcDbEntity
  8
Default
  6
Continuous
 62
     7
100
AcDbLine
 10
293.4367935453758
 20
40.28684000848215
 30
0.0
 11
292.9188884227519
 21
38.9978451286073
 31
0.0
  0
LINE
  5
1D0
330
1F
100
AcDbEntity
  8
Default
  6
Continuous
 62
     7
100
AcDbLine
 10
293.5377501997856
 20
41.14918931323852
 30
0.0
 11
293.4367935453758
 21
40.28684000848215
 31
0.0
  0
ARC
  5
1D1
330
1F
100
AcDbEntity
  8
Default
  6
Continuous
 62
     7
100
AcDbCircle
 10
292.5829676716267
 20
41.26096727745809
 30
0.0
 40
0.9613032764754749
100
AcDbArc
 50
353.3226838785851
 51
87.24089234137773
  0
LINE
  5
1D2
330
1F
100
AcDbEntity
  8
Default
  6
Continuous
 62
     7
100
AcDbLine
 10
289.5500970580251
 20
42.36954867989797
 30
0.0
 11
292.6292418346669
 21
42.22115616054175
 31
0.0
  0
HATCH
  5
1D3
330
1F
100
AcDbEntity
  8
Default
  6
Continuous
 62
     7
100
AcDbHatch
 10
0.0
 20
0.0
 30
0.0
210
0.0
220
0.0
230
1.0
  2
SOLID
 70
     1
 71
     0
 91
        1
 92
        1
 93
       15
 72
     1
 10
298.5910692673614
 20
42.98832244327459
 11
295.8925281326356
 21
42.98832244327459
 72
     1
 10
295.8925281326356
 20
42.98832244327459
 11
296.4253610955432
 21
44.86183189349828
 72
     1
 10
296.4253610955432
 20
44.86183189349828
 11
295.2221898889775
 21
44.94777269396726
 72
     1
 10
295.2221898889775
 20
44.94777269396726
 11
293.8299489213801
 21
39.61944306489072
 72
     2
 10
295.2277704604365
 20
39.2542058240405
 40
1.444750254249348
 50
165.356556771656
 51
240.9422969708421
 73
     1
 72
     1
 10
294.5260694051788
 20
37.99130482784015
 11
296.3050439748866
 21
37.99130482784014
 72
     2
 10
296.3050439748867
 20
39.73205926614758
 40
1.740754438307432
 50
269.9999999999981
 51
345.3863812966586
 73
     1
 72
     1
 10
297.9894836640786
 20
39.29286802310861
 11
298.1474744364822
 21
39.89881345526534
 72
     1
 10
298.1474744364822
 20
39.89881345526534
 11
297.0785111791074
 21
39.89881345526532
 72
     2
 10
296.2761159092759
 20
39.89881345526532
 40
0.802395269831482
 50
0.0
 51
90.0
 73
     0
 72
     1
 10
296.2761159092759
 20
39.09641818543384
 11
295.2393780490714
 21
39.09641818543383
 72
     2
 10
295.797875590772
 20
39.60801659068832
 40
0.7573984633894358
 50
137.5094984104635
 51
195.3501364924268
 73
     0
 72
     1
 10
295.0674964481334
 20
39.80851282592249
 11
295.5487649307597
 21
41.56170515548959
 72
     1
 10
295.5487649307597
 20
41.56170515548958
 11
298.1957415852041
 21
41.56170515548961
 72
     1
 10
298.1957415852041
 20
41.56170515548961
 11
298.5910692673614
 21
42.98832244327459
 97
        0
 75
     0
 76
     1
 98
        0
  0
LINE
  5
1D4
330
1F
100
AcDbEntity
  8
Default
  6
Continuous
 62
     7
100
AcDbLine
 10
298.5910692673614
 20
42.98832244327459
 30
0.0
 11
295.8925281326356
 21
42.98832244327459
 31
0.0
  0
LINE
  5
1D5
330
1F
100
AcDbEntity
  8
Default
  6
Continuous
 62
     7
100
AcDbLine
 10
295.8925281326356
 20
42.98832244327459
 30
0.0
 11
296.4253610955432
 21
44.86183189349828
 31
0.0
  0
LINE
  5
1D6
330
1F
100
AcDbEntity
  8
Default
  6
Continuous
 62
     7
100
AcDbLine
 10
296.4253610955432
 20
44.86183189349828
 30
0.0
 11
295.2221898889775
 21
44.94777269396726
 31
0.0
  0
LINE
  5
1D7
330
1F
100
AcDbEntity
  8
Default
  6
Continuous
 62
     7
100
AcDbLine
 10
295.2221898889775
 20
44.94777269396726
 30
0.0
 11
293.8299489213801
 21
39.61944306489072
 31
0.0
  0
ARC
  5
1D8
330
1F
100
AcDbEntity
  8
Default
  6
Continuous
 62
     7
100
AcDbCircle
 10
295.2277704604365
 20
39.2542058240405
 30
0.0
 40
1.444750254249348
100
AcDbArc
 50
165.356556771656
 51
240.9422969708421
  0
LINE
  5
1D9
330
1F
100
AcDbEntity
  8
Default
  6
Continuous
 62
     7
100
AcDbLine
 10
294.5260694051788
 20
37.99130482784015
 30
0.0
 11
296.3050439748866
 21
37.99130482784015
 31
0.0
  0
ARC
  5
1DA
330
1F
100
AcDbEntity
  8
Default
  6
Continuous
 62
     7
100
AcDbCircle
 10
296.3050439748867
 20
39.73205926614758
 30
0.0
 40
1.740754438307432
100
AcDbArc
 50
269.9999999999981
 51
345.3863812966586
  0
LINE
  5
1DB
330
1F
100
AcDbEntity
  8
Default
  6
Continuous
 62
     7
100
AcDbLine
 10
297.9894836640786
 20
39.29286802310861
 30
0.0
 11
298.1474744364822
 21
39.89881345526534
 31
0.0
  0
LINE
  5
1DC
330
1F
100
AcDbEntity
  8
Default
  6
Continuous
 62
     7
100
AcDbLine
 10
298.1474744364822
 20
39.89881345526532
 30
0.0
 11
297.0785111791074
 21
39.89881345526532
 31
0.0
  0
ARC
  5
1DD
330
1F
100
AcDbEntity
  8
Default
  6
Continuous
 62
     7
100
AcDbCircle
 10
296.2761159092759
 20
39.89881345526532
 30
0.0
 40
0.802395269831482
100
AcDbArc
 50
270.0
 51
0.0
  0
LINE
  5
1DE
330
1F
100
AcDbEntity
  8
Default
  6
Continuous
 62
     7
100
AcDbLine
 10
296.2761159092759
 20
39.09641818543382
 30
0.0
 11
295.2393780490714
 21
39.09641818543382
 31
0.0
  0
ARC
  5
1DF
330
1F
100
AcDbEntity
  8
Default
  6
Continuous
 62
     7
100
AcDbCircle
 10
295.797875590772
 20
39.60801659068832
 30
0.0
 40
0.7573984633894358
100
AcDbArc
 50
164.6498635075732
 51
222.4905015895365
  0
LINE
  5
1E0
330
1F
100
AcDbEntity
  8
Default
  6
Continuous
 62
     7
100
AcDbLine
 10
295.5487649307597
 20
41.56170515548958
 30
0.0
 11
295.0674964481334
 21
39.80851282592246
 31
0.0
  0
LINE
  5
1E1
330
1F
100
AcDbEntity
  8
Default
  6
Continuous
 62
     7
100
AcDbLine
 10
295.5487649307597
 20
41.56170515548958
 30
0.0
 11
298.1957415852041
 21
41.56170515548961
 31
0.0
  0
LINE
  5
1E2
330
1F
100
AcDbEntity
  8
Default
  6
Continuous
 62
     7
100
AcDbLine
 10
298.1957415852041
 20
41.56170515548961
 30
0.0
 11
298.5910692673614
 21
42.98832244327459
 31
0.0
  0
HATCH
  5
1E3
330
1F
100
AcDbEntity
  8
Default
  6
Continuous
 62
     7
100
AcDbHatch
 10
0.0
 20
0.0
 30
0.0
210
0.0
220
0.0
230
1.0
  2
SOLID
 70
     1
 71
     0
 91
        2
 92
        1
 93
       18
 72
     1
 10
300.8811300409027
 20
41.8837918455535
 11
302.4366996248796
 21
41.8837918455535
 72
     2
 10
302.4366996248797
 20
41.51961893579875
 40
0.3641729097547328
 50
270.0
 51
375.5730607454763
 73
     0
 72
     1
 10
302.7875033467819
 20
41.42185055185599
 11
302.6083819550674
 21
40.7791432844172
 72
     1
 10
302.6083819550674
 20
40.7791432844172
 11
302.1805187912837
 21
41.10470227061916
 72
     1
 10
302.1805187912838
 20
41.10470227061916
 11
299.9208815991719
 21
41.10470227061916
 72
     2
 10
299.9208815991718
 20
39.96441355152934
 40
1.140288719089841
 50
90.0
 51
166.2789250488003
 73
     1
 72
     1
 10
298.8131345093983
 20
40.23488489563386
 11
298.4586755959616
 21
38.78315687208383
 72
     2
 10
299.0883003195366
 20
38.59568273412093
 40
0.6569428018798507
 50
163.4188177485497
 51
270.0
 73
     1
 72
     1
 10
299.0883003195366
 20
37.93873993224108
 11
301.4476667438201
 21
37.93873993224108
 72
     1
 10
301.44766674382
 20
37.93873993224108
 11
302.0021717346721
 21
38.37292780243651
 72
     1
 10
302.0021717346721
 20
38.37292780243651
 11
301.9599486457452
 21
37.91781521560502
 72
     1
 10
301.9599486457452
 20
37.91781521560502
 11
302.9740500912791
 21
37.91781521560502
 72
     1
 10
302.9740500912792
 20
37.91781521560502
 11
303.8982063434301
 21
41.76213554303214
 72
     2
 10
302.9440472327391
 20
41.99151083764554
 40
0.9813422615446753
 50
346.4828571849505
 51
450.0
 73
     1
 72
     1
 10
302.9440472327391
 20
42.97285309919022
 11
300.6209909744387
 21
42.97285309919022
 72
     2
 10
300.6209909744387
 20
41.52437058984118
 40
1.44848250934902
 50
90.0
 51
179.9999999999991
 73
     1
 72
     1
 10
299.1725084650896
 20
41.5243705898412
 11
300.3219777614628
 21
41.52437058984118
 72
     2
 10
300.8811300409027
 20
41.2691441255892
 40
0.6146477199643093
 50
204.5344461933326
 51
270.0
 73
     0
 97
        0
 92
        1
 93
        4
 72
     2
 10
300.2654809479417
 20
39.51654875020146
 40
0.5144019264246084
 50
90.0
 51
270.0
 73
     1
 72
     1
 10
300.2654809479417
 20
39.00214682377685
 11
301.7437622122299
 21
39.00214682377681
 72
     2
 10
301.7437622122299
 20
39.51654875020144
 40
0.5144019264246084
 50
270.0
 51
450.0
 73
     1
 72
     1
 10
301.7437622122299
 20
40.03095067662604
 11
300.2654809479417
 21
40.03095067662606
 97
        0
 75
     0
 76
     1
 98
        0
  0
LINE
  5
1E4
330
1F
100
AcDbEntity
  8
Default
  6
Continuous
 62
     7
100
AcDbLine
 10
302.4366996248797
 20
41.8837918455535
 30
0.0
 11
300.8811300409027
 21
41.8837918455535
 31
0.0
  0
ARC
  5
1E5
330
1F
100
AcDbEntity
  8
Default
  6
Continuous
 62
     7
100
AcDbCircle
 10
302.4366996248797
 20
41.51961893579875
 30
0.0
 40
0.3641729097547328
100
AcDbArc
 50
344.4269392545227
 51
90.0
  0
LINE
  5
1E6
330
1F
100
AcDbEntity
  8
Default
  6
Continuous
 62
     7
100
AcDbLine
 10
302.6083819550674
 20
40.7791432844172
 30
0.0
 11
302.7875033467819
 21
41.42185055185599
 31
0.0
  0
LINE
  5
1E7
330
1F
100
AcDbEntity
  8
Default
  6
Continuous
 62
     7
100
AcDbLine
 10
302.1805187912838
 20
41.10470227061916
 30
0.0
 11
302.6083819550674
 21
40.77914328441718
 31
0.0
  0
LINE
  5
1E8
330
1F
100
AcDbEntity
  8
Default
  6
Continuous
 62
     7
100
AcDbLine
 10
299.9208815991718
 20
41.10470227061916
 30
0.0
 11
302.1805187912837
 21
41.10470227061916
 31
0.0
  0
ARC
  5
1E9
330
1F
100
AcDbEntity
  8
Default
  6
Continuous
 62
     7
100
AcDbCircle
 10
299.9208815991718
 20
39.96441355152934
 30
0.0
 40
1.140288719089841
100
AcDbArc
 50
90.0
 51
166.2789250488003
  0
LINE
  5
1EA
330
1F
100
AcDbEntity
  8
Default
  6
Continuous
 62
     7
100
AcDbLine
 10
298.8131345093983
 20
40.23488489563384
 30
0.0
 11
298.4586755959616
 21
38.78315687208383
 31
0.0
  0
ARC
  5
1EB
330
1F
100
AcDbEntity
  8
Default
  6
Continuous
 62
     7
100
AcDbCircle
 10
299.0883003195366
 20
38.59568273412093
 30
0.0
 40
0.6569428018798507
100
AcDbArc
 50
163.4188177485491
 51
270.0
  0
LINE
  5
1EC
330
1F
100
AcDbEntity
  8
Default
  6
Continuous
 62
     7
100
AcDbLine
 10
301.44766674382
 20
37.93873993224108
 30
0.0
 11
299.0883003195365
 21
37.93873993224108
 31
0.0
  0
LINE
  5
1ED
330
1F
100
AcDbEntity
  8
Default
  6
Continuous
 62
     7
100
AcDbLine
 10
302.0021717346721
 20
38.37292780243651
 30
0.0
 11
301.44766674382
 21
37.93873993224108
 31
0.0
  0
LINE
  5
1EE
330
1F
100
AcDbEntity
  8
Default
  6
Continuous
 62
     7
100
AcDbLine
 10
301.9599486457452
 20
37.91781521560502
 30
0.0
 11
302.0021717346721
 21
38.37292780243654
 31
0.0
  0
LINE
  5
1EF
330
1F
100
AcDbEntity
  8
Default
  6
Continuous
 62
     7
100
AcDbLine
 10
302.9740500912792
 20
37.91781521560502
 30
0.0
 11
301.9599486457453
 21
37.91781521560502
 31
0.0
  0
LINE
  5
1F0
330
1F
100
AcDbEntity
  8
Default
  6
Continuous
 62
     7
100
AcDbLine
 10
303.8982063434301
 20
41.76213554303215
 30
0.0
 11
302.9740500912792
 21
37.91781521560502
 31
0.0
  0
ARC
  5
1F1
330
1F
100
AcDbEntity
  8
Default
  6
Continuous
 62
     7
100
AcDbCircle
 10
302.9440472327391
 20
41.99151083764554
 30
0.0
 40
0.9813422615446753
100
AcDbArc
 50
346.4828571849505
 51
90.0
  0
LINE
  5
1F2
330
1F
100
AcDbEntity
  8
Default
  6
Continuous
 62
     7
100
AcDbLine
 10
300.6209909744387
 20
42.97285309919022
 30
0.0
 11
302.9440472327391
 21
42.97285309919022
 31
0.0
  0
ARC
  5
1F3
330
1F
100
AcDbEntity
  8
Default
  6
Continuous
 62
     7
100
AcDbCircle
 10
300.6209909744387
 20
41.52437058984118
 30
0.0
 40
1.44848250934902
100
AcDbArc
 50
90.0
 51
179.9999999999991
  0
LINE
  5
1F4
330
1F
100
AcDbEntity
  8
Default
  6
Continuous
 62
     7
100
AcDbLine
 10
300.3219777614629
 20
41.52437058984118
 30
0.0
 11
299.1725084650897
 21
41.52437058984118
 31
0.0
  0
ARC
  5
1F5
330
1F
100
AcDbEntity
  8
Default
  6
Continuous
 62
     7
100
AcDbCircle
 10
300.8811300409027
 20
41.2691441255892
 30
0.0
 40
0.6146477199643093
100
AcDbArc
 50
90.0
 51
155.4655538066674
  0
LINE
  5
1F6
330
1F
100
AcDbEntity
  8
Default
  6
Continuous
 62
     7
100
AcDbLine
 10
300.2654809479417
 20
40.03095067662606
 30
0.0
 11
301.7437622122299
 21
40.03095067662603
 31
0.0
  0
ARC
  5
1F7
330
1F
100
AcDbEntity
  8
Default
  6
Continuous
 62
     7
100
AcDbCircle
 10
301.7437622122299
 20
39.51654875020144
 30
0.0
 40
0.5144019264246084
100
AcDbArc
 50
270.0
 51
90.0
  0
LINE
  5
1F8
330
1F
100
AcDbEntity
  8
Default
  6
Continuous
 62
     7
100
AcDbLine
 10
301.7437622122299
 20
39.00214682377681
 30
0.0
 11
300.2654809479417
 21
39.00214682377683
 31
0.0
  0
ARC
  5
1F9
330
1F
100
AcDbEntity
  8
Default
  6
Continuous
 62
     7
100
AcDbCircle
 10
300.2654809479417
 20
39.51654875020146
 30
0.0
 40
0.5144019264246084
100
AcDbArc
 50
90.0
 51
270.0
  0
HATCH
  5
1FA
330
1F
100
AcDbEntity
  8
Default
  6
Continuous
 62
     7
100
AcDbHatch
 10
0.0
 20
0.0
 30
0.0
210
0.0
220
0.0
230
1.0
  2
SOLID
 70
     1
 71
     0
 91
        1
 92
        1
 93
       15
 72
     2
 10
306.4275265264233
 20
40.81716065527102
 40
0.8846894959670665
 50
195.0400252808034
 51
262.681439968963
 73
     0
 72
     1
 10
306.3148295499854
 20
41.69464278943457
 11
307.2866956568541
 21
41.69464278943457
 72
     2
 10
307.2866956568541
 20
41.37877537503392
 40
0.3158674144006616
 50
270.0
 51
360.0
 73
     0
 72
     1
 10
307.6025630712548
 20
41.37877537503392
 11
307.6025630712548
 21
40.93590521477388
 72
     1
 10
307.6025630712548
 20
40.93590521477388
 11
308.8382713713287
 21
40.93590521477388
 72
     1
 10
308.8382713713287
 20
40.93590521477388
 11
308.8382713713287
 21
42.24025183188716
 72
     2
 10
308.0834310041142
 20
42.24025183188721
 40
0.7548403672145045
 50
0.0
 51
100.7116500857166
 73
     1
 72
     1
 10
307.9431315360549
 20
42.98193912397115
 11
306.7240363318248
 21
42.98193912397117
 72
     2
 10
306.7240363318249
 20
42.4659975732019
 40
0.5159415507692616
 50
90.00000000000631
 51
144.0617205196809
 73
     1
 72
     1
 10
306.3063044086971
 20
42.76881059176313
 11
306.0564028234608
 21
42.42407022924677
 72
     1
 10
306.0564028234608
 20
42.42407022924677
 11
306.0564028234608
 21
42.98193912397115
 72
     1
 10
306.0564028234608
 20
42.98193912397115
 11
304.8013198563082
 21
42.98193912397117
 72
     1
 10
304.8013198563082
 20
42.98193912397117
 11
303.5271083487041
 21
37.9691560464378
 72
     1
 10
303.5271083487041
 20
37.9691560464378
 11
304.7462035529341
 21
37.96915604643777
 72
     1
 10
304.7462035529341
 20
37.96915604643777
 11
305.5731422579013
 21
41.04673205152206
 97
        0
 75
     0
 76
     1
 98
        0
  0
ARC
  5
1FB
330
1F
100
AcDbEntity
  8
Default
  6
Continuous
 62
     7
100
AcDbCircle
 10
306.4275265264233
 20
40.81716065527102
 30
0.0
 40
0.8846894959670665
100
AcDbArc
 50
97.31856003103692
 51
164.9599747191967
  0
LINE
  5
1FC
330
1F
100
AcDbEntity
  8
Default
  6
Continuous
 62
     7
100
AcDbLine
 10
306.3148295499854
 20
41.69464278943457
 30
0.0
 11
307.2866956568541
 21
41.69464278943457
 31
0.0
  0
ARC
  5
1FD
330
1F
100
AcDbEntity
  8
Default
  6
Continuous
 62
     7
100
AcDbCircle
 10
307.2866956568541
 20
41.37877537503392
 30
0.0
 40
0.3158674144006616
100
AcDbArc
 50
0.0
 51
90.0
  0
LINE
  5
1FE
330
1F
100
AcDbEntity
  8
Default
  6
Continuous
 62
     7
100
AcDbLine
 10
307.6025630712548
 20
41.37877537503392
 30
0.0
 11
307.6025630712548
 21
40.93590521477388
 31
0.0
  0
LINE
  5
1FF
330
1F
100
AcDbEntity
  8
Default
  6
Continuous
 62
     7
100
AcDbLine
 10
307.6025630712548
 20
40.93590521477388
 30
0.0
 11
308.8382713713287
 21
40.93590521477388
 31
0.0
  0
LINE
  5
200
330
1F
100
AcDbEntity
  8
Default
  6
Continuous
 62
     7
100
AcDbLine
 10
308.8382713713287
 20
40.93590521477388
 30
0.0
 11
308.8382713713287
 21
42.24025183188716
 31
0.0
  0
ARC
  5
201
330
1F
100
AcDbEntity
  8
Default
  6
Continuous
 62
     7
100
AcDbCircle
 10
308.0834310041142
 20
42.24025183188721
 30
0.0
 40
0.7548403672145045
100
AcDbArc
 50
0.0
 51
100.7116500857166
  0
LINE
  5
202
330
1F
100
AcDbEntity
  8
Default
  6
Continuous
 62
     7
100
AcDbLine
 10
307.9431315360549
 20
42.98193912397117
 30
0.0
 11
306.7240363318248
 21
42.98193912397117
 31
0.0
  0
ARC
  5
203
330
1F
100
AcDbEntity
  8
Default
  6
Continuous
 62
     7
100
AcDbCircle
 10
306.7240363318249
 20
42.4659975732019
 30
0.0
 40
0.5159415507692616
100
AcDbArc
 50
90.00000000000631
 51
144.0617205196809
  0
LINE
  5
204
330
1F
100
AcDbEntity
  8
Default
  6
Continuous
 62
     7
100
AcDbLine
 10
306.3063044086971
 20
42.76881059176313
 30
0.0
 11
306.0564028234608
 21
42.42407022924677
 31
0.0
  0
LINE
  5
205
330
1F
100
AcDbEntity
  8
Default
  6
Continuous
 62
     7
100
AcDbLine
 10
306.0564028234608
 20
42.42407022924675
 30
0.0
 11
306.0564028234608
 21
42.98193912397115
 31
0.0
  0
LINE
  5
206
330
1F
100
AcDbEntity
  8
Default
  6
Continuous
 62
     7
100
AcDbLine
 10
306.0564028234608
 20
42.98193912397117
 30
0.0
 11
304.8013198563082
 21
42.98193912397117
 31
0.0
  0
LINE
  5
207
330
1F
100
AcDbEntity
  8
Default
  6
Continuous
 62
     7
100
AcDbLine
 10
304.8013198563082
 20
42.98193912397117
 30
0.0
 11
303.5271083487041
 21
37.9691560464378
 31
0.0
  0
LINE
  5
208
330
1F
100
AcDbEntity
  8
Default
  6
Continuous
 62
     7
100
AcDbLine
 10
303.5271083487041
 20
37.96915604643777
 30
0.0
 11
304.7462035529341
 21
37.96915604643777
 31
0.0
  0
LINE
  5
209
330
1F
100
AcDbEntity
  8
Default
  6
Continuous
 62
     7
100
AcDbLine
 10
304.7462035529341
 20
37.96915604643777
 30
0.0
 11
305.5731422579013
 21
41.04673205152206
 31
0.0
  0
MTEXT
  5
20A
330
1F
100
AcDbEntity
  8
Default
100
AcDbMText
 10
320.5856634163974
 20
40.54577368023029
 30
0.0
 40
3.252554666666667
 41
20.36148375327623
 71
     5
 72
     1
  1
{\fSolid Edge ISO|b0||i0||c0|p34;\C7;\H3.252554667;\W0.9;S  J}
  7
SEACAD_Solid_Edge_ISO
 73
     1
 44
1.0
1001
ACAD
1000
ACAD_MTEXT_DEFINED_HEIGHT_BEGIN
1070
    46
1040
5.446154713178293
1000
ACAD_MTEXT_DEFINED_HEIGHT_END
  0
LINE
  5
20B
330
1F
100
AcDbEntity
  8
0
  6
Continuous
 62
     7
100
AcDbLine
 10
268.5863615397593
 20
52.73868873550416
 30
0.0
 11
268.5863615397593
 21
14.63733406883748
 31
0.0
  0
LINE
  5
20C
330
1F
100
AcDbEntity
  8
Default
  6
Continuous
 62
     7
100
AcDbLine
 10
268.5863615397593
 20
14.63733406883748
 30
0.0
 11
268.5863615397593
 21
52.73868873550416
 31
0.0
  0
LINE
  5
20D
330
1F
100
AcDbEntity
  8
Default
  6
Continuous
 62
     7
100
AcDbLine
 10
268.5863615397593
 20
14.63733406883748
 30
0.0
 11
268.5863615397593
 21
52.73868873550416
 31
0.0
  0
LINE
  5
20E
330
1F
100
AcDbEntity
  8
Default
  6
Continuous
 62
     7
100
AcDbLine
 10
185.8784448730926
 20
36.94056606883748
 30
0.0
 11
185.8784448730926
 21
14.63733406883749
 31
0.0
  0
MTEXT
  5
20F
330
1F
100
AcDbEntity
  8
0
100
AcDbMText
 10
231.0696638317485
 20
31.89613759591226
 30
0.0
 40
2.315821666666667
 41
22.67012954871797
 71
     1
 72
     1
  1
{\fSolid Edge ANSI|b0||i0||c0|p34;\C7;\H2.315821667;\W1.;\U+AC01          \U+B3C4}
 73
     1
 44
1.0
1001
ACAD
1000
ACAD_MTEXT_DEFINED_HEIGHT_BEGIN
1070
    46
1040
3.206538974358974
1000
ACAD_MTEXT_DEFINED_HEIGHT_END
  0
LINE
  5
210
330
1F
100
AcDbEntity
  8
0
  6
Continuous
 62
     7
100
AcDbLine
 10
227.2324032064261
 20
42.75802573550423
 30
0.0
 11
227.2324032064261
 21
14.63733406883748
 31
0.0
  0
LINE
  5
211
330
1F
100
AcDbEntity
  8
0
  6
Continuous
 62
     7
100
AcDbLine
 10
268.5863615397593
 20
52.73868873550416
 30
0.0
 11
268.5863615397593
 21
14.63733406883748
 31
0.0
  0
LINE
  5
212
330
1F
100
AcDbEntity
  8
0
  6
Continuous
 62
     7
100
AcDbLine
 10
185.8784448730928
 20
67.60751006883756
 30
0.0
 11
185.8784448730928
 21
14.63733406883748
 31
0.0
  0
MTEXT
  5
213
330
1F
100
AcDbEntity
  8
0
100
AcDbMText
 10
259.8404773717955
 20
32.08141474198966
 30
0.0
 40
2.315821666666667
 41
4.857898129487157
 71
     1
 72
     1
  1
{\fSolid Edge ANSI|b0||i0||c0|p34;\C7;\H2.315821667;\W1.;0.3}
 73
     1
 44
1.0
1001
ACAD
1000
ACAD_MTEXT_DEFINED_HEIGHT_BEGIN
1070
    46
1040
3.206538974358974
1000
ACAD_MTEXT_DEFINED_HEIGHT_END
  0
MTEXT
  5
214
330
1F
100
AcDbEntity
  8
0
100
AcDbMText
 10
264.1158404487185
 20
32.08141474198966
 30
0.0
 40
2.315821666666667
 41
3.238604364102581
 71
     1
 72
     1
  1
{\fSolid Edge ANSI|b0||i0||c0|p34;\C7;\H2.315821667;\W1.;\U+00B0}
 73
     1
 44
1.0
1001
ACAD
1000
ACAD_MTEXT_DEFINED_HEIGHT_BEGIN
1070
    46
1040
3.206538974358973
1000
ACAD_MTEXT_DEFINED_HEIGHT_END
  0
MTEXT
  5
215
330
1F
100
AcDbEntity
  8
0
100
AcDbMText
 10
234.8825484229189
 20
18.32510263813726
 30
0.0
 40
2.315821666666667
 41
16.19295448717948
 71
     1
 72
     1
  1
{\fSolid Edge ANSI|b0||i0||c0|p34;\C7;\H2.315821667;\W1.;HOLE PITCH}
 73
     1
 44
1.0
1001
ACAD
1000
ACAD_MTEXT_DEFINED_HEIGHT_BEGIN
1070
    46
1040
3.206538974358973
1000
ACAD_MTEXT_DEFINED_HEIGHT_END
  0
MTEXT
  5
216
330
1F
100
AcDbEntity
  8
0
100
AcDbMText
 10
231.1221481990011
 20
22.87826669024505
 30
0.0
 40
2.315821666666667
 41
22.67012954871797
 71
     1
 72
     1
  1
{\fSolid Edge ANSI|b0||i0||c0|p34;\C7;\H2.315821667;\W1.;\U+C9C1    \U+AC01    \U+B3C4}
 73
     1
 44
1.0
1001
ACAD
1000
ACAD_MTEXT_DEFINED_HEIGHT_BEGIN
1070
    46
1040
3.206538974358974
1000
ACAD_MTEXT_DEFINED_HEIGHT_END
  0
MTEXT
  5
217
330
1F
100
AcDbEntity
  8
0
100
AcDbMText
 10
231.1221481990011
 20
27.50991002357839
 30
0.0
 40
2.315821666666667
 41
22.67012954871797
 71
     1
 72
     1
  1
{\fSolid Edge ANSI|b0||i0||c0|p34;\C7;\H2.315821667;\W1.;\U+D3C9    \U+BA74    \U+B3C4}
 73
     1
 44
1.0
1001
ACAD
1000
ACAD_MTEXT_DEFINED_HEIGHT_BEGIN
1070
    46
1040
3.206538974358974
1000
ACAD_MTEXT_DEFINED_HEIGHT_END
  0
MTEXT
  5
218
330
1F
100
AcDbEntity
  8
0
100
AcDbMText
 10
258.9512579527577
 20
22.80951560067979
 30
0.0
 40
2.315821666666667
 41
6.477191894871781
 71
     1
 72
     1
  1
{\fSolid Edge ANSI|b0||i0||c0|p34;\C7;\H2.315821667;\W1.;0.10}
 73
     1
 44
1.0
1001
ACAD
1000
ACAD_MTEXT_DEFINED_HEIGHT_BEGIN
1070
    46
1040
3.206538974358973
1000
ACAD_MTEXT_DEFINED_HEIGHT_END
  0
MTEXT
  5
219
330
1F
100
AcDbEntity
  8
0
100
AcDbMText
 10
258.9512579527577
 20
18.17787226734643
 30
0.0
 40
2.315821666666667
 41
6.477191894871781
 71
     1
 72
     1
  1
{\fSolid Edge ANSI|b0||i0||c0|p34;\C7;\H2.315821667;\W1.;0.15}
 73
     1
 44
1.0
1001
ACAD
1000
ACAD_MTEXT_DEFINED_HEIGHT_BEGIN
1070
    46
1040
3.206538974358973
1000
ACAD_MTEXT_DEFINED_HEIGHT_END
  0
MTEXT
  5
21A
330
1F
100
AcDbEntity
  8
0
100
AcDbMText
 10
258.9512579527577
 20
27.44115893401313
 30
0.0
 40
2.315821666666667
 41
6.477191894871781
 71
     1
 72
     1
  1
{\fSolid Edge ANSI|b0||i0||c0|p34;\C7;\H2.315821667;\W1.;0.10}
 73
     1
 44
1.0
1001
ACAD
1000
ACAD_MTEXT_DEFINED_HEIGHT_BEGIN
1070
    46
1040
3.206538974358973
1000
ACAD_MTEXT_DEFINED_HEIGHT_END
  0
MTEXT
  5
21B
330
1F
100
AcDbEntity
  8
0
100
AcDbMText
 10
227.2195864130526
 20
63.88411896861722
 30
0.0
 40
3.0
 41
83.53499583333334
 71
     5
 72
     1
  1
{\fSolid Edge ANSI|b0||i0||c0|p34;\C7;\H3.;\W1.;\U+C77C       \U+BC18       \U+ACF5       \U+CC28}
 73
     1
 44
1.0
1001
ACAD
1000
ACAD_MTEXT_DEFINED_HEIGHT_BEGIN
1070
    46
1040
7.422039132892744
1000
ACAD_MTEXT_DEFINED_HEIGHT_END
  0
LINE
  5
21C
330
1F
100
AcDbEntity
  8
0
  6
Continuous
 62
     7
100
AcDbLine
 10
185.8784448730925
 20
55.21062440217088
 30
0.0
 11
268.5863615397593
 21
55.21062440217088
 31
0.0
  0
LINE
  5
21D
330
1F
100
AcDbEntity
  8
0
  6
Continuous
 62
     7
100
AcDbLine
 10
185.8784448730925
 20
60.17309940217088
 30
0.0
 11
268.5863615397593
 21
60.17309940217083
 31
0.0
  0
LINE
  5
21E
330
1F
100
AcDbEntity
  8
0
  6
Continuous
 62
     7
100
AcDbLine
 10
185.8784448730928
 20
42.75802573550421
 30
0.0
 11
268.5863615397594
 21
42.75802573550421
 31
0.0
  0
LINE
  5
21F
330
1F
100
AcDbEntity
  8
0
  6
Continuous
 62
     7
100
AcDbLine
 10
185.8784448730928
 20
37.7955507355042
 30
0.0
 11
268.5863615397594
 21
37.7955507355042
 31
0.0
  0
LINE
  5
220
330
1F
100
AcDbEntity
  8
0
  6
Continuous
 62
     7
100
AcDbLine
 10
185.8784448730928
 20
33.16390740217085
 30
0.0
 11
268.5863615397594
 21
33.16390740217085
 31
0.0
  0
LINE
  5
221
330
1F
100
AcDbEntity
  8
0
  6
Continuous
 62
     7
100
AcDbLine
 10
185.8784448730928
 20
28.5322640688375
 30
0.0
 11
268.5863615397594
 21
28.5322640688375
 31
0.0
  0
LINE
  5
222
330
1F
100
AcDbEntity
  8
0
  6
Continuous
 62
     7
100
AcDbLine
 10
185.8784448730928
 20
23.90062073550416
 30
0.0
 11
268.5863615397594
 21
23.9006207355042
 31
0.0
  0
LINE
  5
223
330
1F
100
AcDbEntity
  8
0
  6
Continuous
 62
     7
100
AcDbLine
 10
185.8784448730928
 20
19.26897740217083
 30
0.0
 11
268.5863615397594
 21
19.26897740217083
 31
0.0
  0
LINE
  5
224
330
1F
100
AcDbEntity
  8
0
  6
Continuous
 62
     7
100
AcDbLine
 10
185.8784448730927
 20
67.60751006883756
 30
0.0
 11
268.5863615397594
 21
67.60751006883751
 31
0.0
  0
MTEXT
  5
225
330
1F
100
AcDbEntity
  8
0
100
AcDbMText
 10
189.183912747424
 20
41.52566531343002
 30
0.0
 40
2.4812375
 41
24.28942331410255
 71
     1
 72
     1
  1
{\fSolid Edge ANSI|b0||i0||c0|p34;\C7;\H2.4812375;\W1.;\U+CE58  \U+C218  \U+AD6C  \U+BD84}
 73
     1
 44
1.0
1001
ACAD
1000
ACAD_MTEXT_DEFINED_HEIGHT_BEGIN
1070
    46
1040
3.435576282051284
1000
ACAD_MTEXT_DEFINED_HEIGHT_END
  0
MTEXT
  5
226
330
1F
100
AcDbEntity
  8
0
100
AcDbMText
 10
218.5148545540648
 20
41.59950156544824
 30
0.0
 40
2.4812375
 41
6.939847256410272
 71
     1
 72
     1
  1
{\fSolid Edge ANSI|b0||i0||c0|p34;\C7;\H2.4812375;\W1.;1 \U+AE09}
 73
     1
 44
1.0
1001
ACAD
1000
ACAD_MTEXT_DEFINED_HEIGHT_BEGIN
1070
    46
1040
3.435576282051284
1000
ACAD_MTEXT_DEFINED_HEIGHT_END
  0
MTEXT
  5
227
330
1F
100
AcDbEntity
  8
0
100
AcDbMText
 10
231.1221481990011
 20
36.77319669024509
 30
0.0
 40
2.315821666666667
 41
22.67012954871797
 71
     1
 72
     1
  1
{\fSolid Edge ANSI|b0||i0||c0|p34;\C7;\H2.315821667;\W1.;\U+BAA8    \U+B530    \U+AE30}
 73
     1
 44
1.0
1001
ACAD
1000
ACAD_MTEXT_DEFINED_HEIGHT_BEGIN
1070
    46
1040
3.206538974358974
1000
ACAD_MTEXT_DEFINED_HEIGHT_END
  0
MTEXT
  5
228
330
1F
100
AcDbEntity
  8
0
100
AcDbMText
 10
192.1409269366195
 20
18.32510263813725
 30
0.0
 40
2.315821666666667
 41
22.67012954871797
 71
     1
 72
     1
  1
{\fSolid Edge ANSI|b0||i0||c0|p34;\C7;\H2.315821667;\W1.;315 < L < 1000}
 73
     1
 44
1.0
1001
ACAD
1000
ACAD_MTEXT_DEFINED_HEIGHT_BEGIN
1070
    46
1040
3.206538974358974
1000
ACAD_MTEXT_DEFINED_HEIGHT_END
  0
MTEXT
  5
229
330
1F
100
AcDbEntity
  8
0
100
AcDbMText
 10
193.0316275776451
 20
22.95674597147057
 30
0.0
 40
2.315821666666667
 41
21.05083578333335
 71
     1
 72
     1
  1
{\fSolid Edge ANSI|b0||i0||c0|p34;\C7;\H2.315821667;\W1.;120 < L < 315}
 73
     1
 44
1.0
1001
ACAD
1000
ACAD_MTEXT_DEFINED_HEIGHT_BEGIN
1070
    46
1040
3.206538974358973
1000
ACAD_MTEXT_DEFINED_HEIGHT_END
  0
MTEXT
  5
22A
330
1F
100
AcDbEntity
  8
0
100
AcDbMText
 10
193.9223282186707
 20
27.58838930480393
 30
0.0
 40
2.315821666666667
 41
19.43154201794873
 71
     1
 72
     1
  1
{\fSolid Edge ANSI|b0||i0||c0|p34;\C7;\H2.315821667;\W1.;30 < L < 120}
 73
     1
 44
1.0
1001
ACAD
1000
ACAD_MTEXT_DEFINED_HEIGHT_BEGIN
1070
    46
1040
3.206538974358973
1000
ACAD_MTEXT_DEFINED_HEIGHT_END
  0
MTEXT
  5
22B
330
1F
100
AcDbEntity
  8
0
100
AcDbMText
 10
195.7037295007219
 20
32.22003263813725
 30
0.0
 40
2.315821666666667
 41
16.19295448717948
 71
     1
 72
     1
  1
{\fSolid Edge ANSI|b0||i0||c0|p34;\C7;\H2.315821667;\W1.;6 < L < 30}
 73
     1
 44
1.0
1001
ACAD
1000
ACAD_MTEXT_DEFINED_HEIGHT_BEGIN
1070
    46
1040
3.206538974358973
1000
ACAD_MTEXT_DEFINED_HEIGHT_END
  0
MTEXT
  5
22C
330
1F
100
AcDbEntity
  8
0
100
AcDbMText
 10
195.3474492443116
 20
36.85167597147061
 30
0.0
 40
2.315821666666667
 41
17.8122482525641
 71
     1
 72
     1
  1
{\fSolid Edge ANSI|b0||i0||c0|p34;\C7;\H2.315821667;\W1.;0.5 < L < 6}
 73
     1
 44
1.0
1001
ACAD
1000
ACAD_MTEXT_DEFINED_HEIGHT_BEGIN
1070
    46
1040
3.206538974358973
1000
ACAD_MTEXT_DEFINED_HEIGHT_END
  0
MTEXT
  5
22D
330
1F
100
AcDbEntity
  8
0
100
AcDbMText
 10
237.2577501323207
 20
41.48331930480402
 30
0.0
 40
2.315821666666667
 41
12.95436695641028
 71
     1
 72
     1
  1
{\fSolid Edge ANSI|b0||i0||c0|p34;\C7;\H2.315821667;\W1.;1000 < L}
 73
     1
 44
1.0
1001
ACAD
1000
ACAD_MTEXT_DEFINED_HEIGHT_BEGIN
1070
    46
1040
3.206538974358973
1000
ACAD_MTEXT_DEFINED_HEIGHT_END
  0
MTEXT
  5
22E
330
1F
100
AcDbEntity
  8
0
100
AcDbMText
 10
218.7629783040649
 20
22.80951560067974
 30
0.0
 40
2.315821666666667
 41
6.477191894871781
 71
     1
 72
     1
  1
{\fSolid Edge ANSI|b0||i0||c0|p34;\C7;\H2.315821667;\W1.;0.20}
 73
     1
 44
1.0
1001
ACAD
1000
ACAD_MTEXT_DEFINED_HEIGHT_BEGIN
1070
    46
1040
3.206538974358973
1000
ACAD_MTEXT_DEFINED_HEIGHT_END
  0
MTEXT
  5
22F
330
1F
100
AcDbEntity
  8
0
100
AcDbMText
 10
258.9512579527577
 20
41.33608893401319
 30
0.0
 40
2.315821666666667
 41
6.477191894871781
 71
     1
 72
     1
  1
{\fSolid Edge ANSI|b0||i0||c0|p34;\C7;\H2.315821667;\W1.;0.50}
 73
     1
 44
1.0
1001
ACAD
1000
ACAD_MTEXT_DEFINED_HEIGHT_BEGIN
1070
    46
1040
3.206538974358973
1000
ACAD_MTEXT_DEFINED_HEIGHT_END
  0
MTEXT
  5
230
330
1F
100
AcDbEntity
  8
0
100
AcDbMText
 10
259.8419585937833
 20
36.70444560067985
 30
0.0
 40
2.315821666666667
 41
4.857898129487157
 71
     1
 72
     1
  1
{\fSolid Edge ANSI|b0||i0||c0|p34;\C7;\H2.315821667;\W1.;0.3}
 73
     1
 44
1.0
1001
ACAD
1000
ACAD_MTEXT_DEFINED_HEIGHT_BEGIN
1070
    46
1040
3.206538974358974
1000
ACAD_MTEXT_DEFINED_HEIGHT_END
  0
MTEXT
  5
231
330
1F
100
AcDbEntity
  8
0
100
AcDbMText
 10
218.7629783040649
 20
18.17787226734642
 30
0.0
 40
2.315821666666667
 41
6.477191894871781
 71
     1
 72
     1
  1
{\fSolid Edge ANSI|b0||i0||c0|p34;\C7;\H2.315821667;\W1.;0.30}
 73
     1
 44
1.0
1001
ACAD
1000
ACAD_MTEXT_DEFINED_HEIGHT_BEGIN
1070
    46
1040
3.206538974358973
1000
ACAD_MTEXT_DEFINED_HEIGHT_END
  0
MTEXT
  5
232
330
1F
100
AcDbEntity
  8
0
100
AcDbMText
 10
218.7629783040649
 20
27.4411589340131
 30
0.0
 40
2.315821666666667
 41
6.477191894871781
 71
     1
 72
     1
  1
{\fSolid Edge ANSI|b0||i0||c0|p34;\C7;\H2.315821667;\W1.;0.15}
 73
     1
 44
1.0
1001
ACAD
1000
ACAD_MTEXT_DEFINED_HEIGHT_BEGIN
1070
    46
1040
3.206538974358973
1000
ACAD_MTEXT_DEFINED_HEIGHT_END
  0
MTEXT
  5
233
330
1F
100
AcDbEntity
  8
0
100
AcDbMText
 10
218.7629783040649
 20
31.74197060067959
 30
0.0
 40
2.315821666666667
 41
6.477191894871781
 71
     1
 72
     1
  1
{\fSolid Edge ANSI|b0||i0||c0|p34;\C7;\H2.315821667;\W1.;0.10}
 73
     1
 44
1.0
1001
ACAD
1000
ACAD_MTEXT_DEFINED_HEIGHT_BEGIN
1070
    46
1040
3.206538974358973
1000
ACAD_MTEXT_DEFINED_HEIGHT_END
  0
MTEXT
  5
234
330
1F
100
AcDbEntity
  8
0
100
AcDbMText
 10
218.7629783040649
 20
36.70444560067978
 30
0.0
 40
2.315821666666667
 41
6.477191894871781
 71
     1
 72
     1
  1
{\fSolid Edge ANSI|b0||i0||c0|p34;\C7;\H2.315821667;\W1.;0.05}
 73
     1
 44
1.0
1001
ACAD
1000
ACAD_MTEXT_DEFINED_HEIGHT_BEGIN
1070
    46
1040
3.206538974358973
1000
ACAD_MTEXT_DEFINED_HEIGHT_END
  0
MTEXT
  5
235
330
1F
100
AcDbEntity
  8
0
100
AcDbMText
 10
193.4225984818219
 20
57.69186190217087
 30
0.0
 40
2.4812375
 41
15.23919028963277
 71
     5
 72
     1
  1
{\fSolid Edge ANSI|b0||i0||c0|p34;\C7;\H2.4812375;\W1.;\U+C18C\U+C22B\U+C810}
 73
     1
 44
1.0
1001
ACAD
1000
ACAD_MTEXT_DEFINED_HEIGHT_BEGIN
1070
    46
1040
4.962474999999992
1000
ACAD_MTEXT_DEFINED_HEIGHT_END
  0
MTEXT
  5
236
330
1F
100
AcDbEntity
  8
0
100
AcDbMText
 10
193.4345550728247
 20
45.86858461258876
 30
0.0
 40
2.315821666666667
 41
4.857898129487181
 71
     5
 72
     1
  1
{\fSolid Edge ANSI|b0||i0||c0|p34;\C7;\H2.315821667;\W1.;.XX}
 73
     1
 44
1.0
1001
ACAD
1000
ACAD_MTEXT_DEFINED_HEIGHT_BEGIN
1070
    46
1040
3.206538974358973
1000
ACAD_MTEXT_DEFINED_HEIGHT_END
  0
MTEXT
  5
237
330
1F
100
AcDbEntity
  8
0
100
AcDbMText
 10
192.4531373108209
 20
52.02322666769371
 30
0.0
 40
2.315821666666667
 41
3.238604364102557
 71
     5
 72
     1
  1
{\fSolid Edge ANSI|b0||i0||c0|p34;\C7;\H2.315821667;\W1.;.X}
 73
     1
 44
1.0
1001
ACAD
1000
ACAD_MTEXT_DEFINED_HEIGHT_BEGIN
1070
    46
1040
3.206538974358967
1000
ACAD_MTEXT_DEFINED_HEIGHT_END
  0
LINE
  5
238
330
1F
100
AcDbEntity
  8
0
  6
Continuous
 62
     7
100
AcDbLine
 10
200.966752090551
 20
60.17309940217087
 30
0.0
 11
200.966752090551
 21
42.75802573550419
 31
0.0
  0
LINE
  5
239
330
1F
100
AcDbEntity
  8
0
  6
Continuous
 62
     7
100
AcDbLine
 10
216.0550593080092
 20
60.17309940217089
 30
0.0
 11
216.0550593080092
 21
42.75802573550423
 31
0.0
  0
MTEXT
  5
23A
330
1F
100
AcDbEntity
  8
0
100
AcDbMText
 10
208.0830983507841
 20
52.02352666769377
 30
0.0
 40
2.315821666666667
 41
4.857898129487157
 71
     5
 72
     1
  1
{\fSolid Edge ANSI|b0||i0||c0|p34;\C7;\H2.315821667;\W1.;0.1}
 73
     1
 44
1.0
1001
ACAD
1000
ACAD_MTEXT_DEFINED_HEIGHT_BEGIN
1070
    46
1040
3.206538974358967
1000
ACAD_MTEXT_DEFINED_HEIGHT_END
  0
MTEXT
  5
23B
330
1F
100
AcDbEntity
  8
0
100
AcDbMText
 10
208.0431529766312
 20
45.77054356602291
 30
0.0
 40
2.315821666666667
 41
6.477191894871781
 71
     5
 72
     1
  1
{\fSolid Edge ANSI|b0||i0||c0|p34;\C7;\H2.315821667;\W1.;0.01}
 73
     1
 44
1.0
1001
ACAD
1000
ACAD_MTEXT_DEFINED_HEIGHT_BEGIN
1070
    46
1040
3.206538974358973
1000
ACAD_MTEXT_DEFINED_HEIGHT_END
  0
MTEXT
  5
23C
330
1F
100
AcDbEntity
  8
0
100
AcDbMText
 10
208.5109056992801
 20
57.69184910263196
 30
0.0
 40
2.4812375
 41
15.23919028963277
 71
     5
 72
     1
  1
{\fSolid Edge ANSI|b0||i0||c0|p34;\C7;\H2.4812375;\W1.;\U+D5C8\U+C6A9\U+CE58}
 73
     1
 44
1.0
1001
ACAD
1000
ACAD_MTEXT_DEFINED_HEIGHT_BEGIN
1070
    46
1040
4.962475
1000
ACAD_MTEXT_DEFINED_HEIGHT_END
  0
MTEXT
  5
23D
330
1F
100
AcDbEntity
  8
0
100
AcDbMText
 10
242.321478242699
 20
57.69150201299333
 30
0.0
 40
2.4812375
 41
53.05816624807341
 71
     5
 72
     1
  1
{\fSolid Edge ANSI|b0||i0||c0|p34;\C7;\H2.4812375;\W1.;\U+D45C   \U+BA74   \U+C870   \U+B3C4}
 73
     1
 44
1.0
1001
ACAD
1000
ACAD_MTEXT_DEFINED_HEIGHT_BEGIN
1070
    46
1040
4.962475
1000
ACAD_MTEXT_DEFINED_HEIGHT_END
  0
LINE
  5
23E
330
1F
100
AcDbEntity
  8
0
  6
Continuous
 62
     7
100
AcDbLine
 10
216.0550593080092
 20
42.75802573550423
 30
0.0
 11
216.0550593080092
 21
14.63733406883748
 31
0.0
  0
LINE
  5
23F
330
1F
100
AcDbEntity
  8
0
  6
Continuous
 62
     7
100
AcDbLine
 10
256.2489505339055
 20
42.75802573550423
 30
0.0
 11
256.2489505339055
 21
14.63733406883748
 31
0.0
  0
LINE
  5
240
330
1F
100
AcDbEntity
  8
0
  6
Continuous
 62
     7
100
AcDbLine
 10
185.8784448730926
 20
14.63733406883748
 30
0.0
 11
268.5863615397593
 21
14.63733406883748
 31
0.0
  0
MTEXT
  5
241
330
1F
100
AcDbEntity
  8
0
100
AcDbMText
 10
219.712735835372
 20
52.85026359301764
 30
0.0
 40
2.315821666666667
 41
19.43154201794873
 71
     1
 72
     1
  1
{\fSolid Edge ANSI|b0||i0||c0|p34;\C7;\H2.315821667;\W1.; ,    = 6.3a}
 73
     1
 44
1.0
1001
ACAD
1000
ACAD_MTEXT_DEFINED_HEIGHT_BEGIN
1070
    46
1040
3.206538974358973
1000
ACAD_MTEXT_DEFINED_HEIGHT_END
  0
MTEXT
  5
242
330
1F
100
AcDbEntity
  8
0
100
AcDbMText
 10
219.6689099796963
 20
47.18842261463649
 30
0.0
 40
2.315821666666667
 41
17.8122482525641
 71
     1
 72
     1
  1
{\fSolid Edge ANSI|b0||i0||c0|p34;\C7;\H2.315821667;\W1.; ,    = 25a}
 73
     1
 44
1.0
1001
ACAD
1000
ACAD_MTEXT_DEFINED_HEIGHT_BEGIN
1070
    46
1040
3.206538974358973
1000
ACAD_MTEXT_DEFINED_HEIGHT_END
  0
MTEXT
  5
243
330
1F
100
AcDbEntity
  8
0
100
AcDbMText
 10
244.5674202718162
 20
46.92637715391096
 30
0.0
 40
2.315821666666667
 41
22.67012954871797
 71
     1
 72
     1
  1
{\fSolid Edge ANSI|b0||i0||c0|p34;\C7;\H2.315821667;\W1.; ,      = 1.6a}
 73
     1
 44
1.0
1001
ACAD
1000
ACAD_MTEXT_DEFINED_HEIGHT_BEGIN
1070
    46
1040
3.206538974358974
1000
ACAD_MTEXT_DEFINED_HEIGHT_END
  0
MTEXT
  5
244
330
1F
100
AcDbEntity
  8
0
100
AcDbMText
 10
244.743620617981
 20
52.7604182271962
 30
0.0
 40
2.315821666666667
 41
22.67012954871797
 71
     1
 72
     1
  1
{\fSolid Edge ANSI|b0||i0||c0|p34;\C7;\H2.315821667;\W1.; ,      = 0.2a}
 73
     1
 44
1.0
1001
ACAD
1000
ACAD_MTEXT_DEFINED_HEIGHT_BEGIN
1070
    46
1040
3.206538974358974
1000
ACAD_MTEXT_DEFINED_HEIGHT_END
  0
INSERT
  5
246
330
1F
100
AcDbEntity
  8
Default
100
AcDbBlockReference
  2
SEANNOT_GROUP14
 10
0.0
 20
0.0
 30
0.0
  0
INSERT
  5
24D
330
1F
100
AcDbEntity
  8
Default
100
AcDbBlockReference
  2
SEANNOT_GROUP15
 10
0.0
 20
0.0
 30
0.0
  0
INSERT
  5
257
330
1F
100
AcDbEntity
  8
Default
100
AcDbBlockReference
  2
SEANNOT_GROUP16
 10
0.0
 20
0.0
 30
0.0
  0
INSERT
  5
264
330
1F
100
AcDbEntity
  8
Default
100
AcDbBlockReference
  2
SEANNOT_GROUP17
 10
0.0
 20
0.0
 30
0.0
  0
INSERT
  5
274
330
1F
100
AcDbEntity
  8
Default
100
AcDbBlockReference
  2
SEANNOT_GROUP18
 10
0.0
 20
0.0
 30
0.0
  0
INSERT
  5
27C
330
1F
100
AcDbEntity
  8
Default
100
AcDbBlockReference
  2
SEANNOT_GROUP19
 10
0.0
 20
0.0
 30
0.0
  0
INSERT
  5
284
330
1F
100
AcDbEntity
  8
Default
100
AcDbBlockReference
  2
SEANNOT_GROUP20
 10
0.0
 20
0.0
 30
0.0
  0
INSERT
  5
28C
330
1F
100
AcDbEntity
  8
Default
100
AcDbBlockReference
  2
SEANNOT_GROUP21
 10
0.0
 20
0.0
 30
0.0
  0
MTEXT
  5
293
330
1F
100
AcDbEntity
  8
Default
100
AcDbMText
 10
383.7425333347235
 20
35.31694856206564
 30
0.0
 40
4.065693333333333
 41
21.21954358992831
 71
     5
 72
     1
  1
{\fSolid Edge ISO|b0||i0||c0|p34;\C7;\H4.065693333;\W1.;Ass'y}
 73
     1
 44
1.0
1001
ACAD
1000
ACAD_MTEXT_DEFINED_HEIGHT_BEGIN
1070
    46
1040
11.62158631978959
1000
ACAD_MTEXT_DEFINED_HEIGHT_END
  0
LINE
  5
294
330
1F
100
AcDbEntity
  8
Default
  6
Continuous
 62
     7
100
AcDbLine
 10
268.5863615397593
 20
52.73868873550416
 30
0.0
 11
268.5863615397593
 21
67.6075100688375
 31
0.0
  0
LINE
  5
295
330
1F
100
AcDbEntity
  8
Default
  6
Continuous
 62
     7
100
AcDbLine
 10
185.8784448730928
 20
48.98432506883754
 30
0.0
 11
216.0550593080092
 21
48.98432506883753
 31
0.0
  0
LINE
  5
296
330
1F
100
AcDbEntity
  8
Default
  6
Continuous
 62
     7
100
AcDbLine
 10
13.02849487309254
 20
14.63733406883762
 30
0.0
 11
13.02849487309254
 21
6.304000735504289
 31
0.0
  0
LINE
  5
297
330
1F
100
AcDbEntity
  8
Default
  6
Continuous
 62
     7
100
AcDbLine
 10
13.02849487309254
 20
14.63733406883748
 30
0.0
 11
4.695161539759207
 21
14.63733406883748
 31
0.0
  0
LINE
  5
298
330
1F
100
AcDbEntity
  8
Default
  6
Continuous
 62
     7
100
AcDbLine
 10
13.02849487309255
 20
175.5226274021709
 30
0.0
 11
4.695161539759212
 21
175.5226274021709
 31
0.0
  0
LINE
  5
299
330
1F
100
AcDbEntity
  8
Default
  6
Continuous
 62
     7
100
AcDbLine
 10
13.02849487309262
 20
336.4079207355043
 30
0.0
 11
4.695161539759377
 21
336.4079207355043
 31
0.0
  0
LINE
  5
29A
330
1F
100
AcDbEntity
  8
Default
  6
Continuous
 62
     7
100
AcDbLine
 10
13.02849487309262
 20
336.4079207355043
 30
0.0
 11
13.02849487309271
 21
344.7412540688376
 31
0.0
  0
LINE
  5
29B
330
1F
100
AcDbEntity
  8
Default
  6
Continuous
 62
     7
100
AcDbLine
 10
477.6791615397592
 20
336.4079207355043
 30
0.0
 11
477.6791615397592
 21
344.7412540688376
 31
0.0
  0
LINE
  5
29C
330
1F
100
AcDbEntity
  8
Default
  6
Continuous
 62
     7
100
AcDbLine
 10
477.6791615397592
 20
336.4079207355043
 30
0.0
 11
486.0124948730925
 21
336.4079207355043
 31
0.0
  0
LINE
  5
29D
330
1F
100
AcDbEntity
  8
Default
  6
Continuous
 62
     7
100
AcDbLine
 10
477.6791615397592
 20
175.5226274021708
 30
0.0
 11
486.0124948730925
 21
175.5226274021708
 31
0.0
  0
LINE
  5
29E
330
1F
100
AcDbEntity
  8
Default
  6
Continuous
 62
     7
100
AcDbLine
 10
477.6791615397592
 20
14.63733406883748
 30
0.0
 11
486.0124948730925
 21
14.63733406883748
 31
0.0
  0
LINE
  5
29F
330
1F
100
AcDbEntity
  8
Default
  6
Continuous
 62
     7
100
AcDbLine
 10
477.6791615397592
 20
14.63733406883748
 30
0.0
 11
477.6791615397592
 21
6.30400073550415
 31
0.0
  0
LINE
  5
2A0
330
1F
100
AcDbEntity
  8
Default
  6
Continuous
 62
     7
100
AcDbLine
 10
4.695161539759213
 20
255.9652740688376
 30
0.0
 11
13.02849487309255
 21
255.9652740688375
 31
0.0
  0
LINE
  5
2A1
330
1F
100
AcDbEntity
  8
Default
  6
Continuous
 62
     7
100
AcDbLine
 10
4.695161539759209
 20
95.07998073550421
 30
0.0
 11
13.02849487309255
 21
95.0799807355042
 31
0.0
  0
LINE
  5
2A2
330
1F
100
AcDbEntity
  8
Default
  6
Continuous
 62
     7
100
AcDbLine
 10
477.6791615397592
 20
95.07998073550355
 30
0.0
 11
486.0124948730925
 21
95.07998073550355
 31
0.0
  0
LINE
  5
2A3
330
1F
100
AcDbEntity
  8
Default
  6
Continuous
 62
     7
100
AcDbLine
 10
477.6791615397592
 20
255.9652740688349
 30
0.0
 11
486.0124948730925
 21
255.9652740688349
 31
0.0
  0
MTEXT
  5
2A4
330
1F
100
AcDbEntity
  8
Default
100
AcDbMText
 10
8.742356418532616
 20
294.9514069742425
 30
0.0
 40
4.166666666666667
 41
2.295471378787879
 71
     5
 72
     1
  1
{\fSolid Edge ISO|b0||i0||c0|p34;\C7;\H4.166666667;\W1.;A}
 73
     1
 44
1.0
1001
ACAD
1000
ACAD_MTEXT_DEFINED_HEIGHT_BEGIN
1070
    46
1040
6.818198484848483
1000
ACAD_MTEXT_DEFINED_HEIGHT_END
  0
MTEXT
  5
2A5
330
1F
100
AcDbEntity
  8
Default
100
AcDbMText
 10
480.8073201819417
 20
295.0756242736326
 30
0.0
 40
4.166666666666667
 41
2.295471378787847
 71
     5
 72
     1
  1
{\fSolid Edge ISO|b0||i0||c0|p34;\C7;\H4.166666667;\W1.;A}
 73
     1
 44
1.0
1001
ACAD
1000
ACAD_MTEXT_DEFINED_HEIGHT_BEGIN
1070
    46
1040
6.818198484848483
1000
ACAD_MTEXT_DEFINED_HEIGHT_END
  0
MTEXT
  5
2A6
330
1F
100
AcDbEntity
  8
Default
100
AcDbMText
 10
8.732895054896087
 20
214.5087519742425
 30
0.0
 40
4.166666666666667
 41
2.391115318181819
 71
     5
 72
     1
  1
{\fSolid Edge ISO|b0||i0||c0|p34;\C7;\H4.166666667;\W1.;B}
 73
     1
 44
1.0
1001
ACAD
1000
ACAD_MTEXT_DEFINED_HEIGHT_BEGIN
1070
    46
1040
6.818198484848483
1000
ACAD_MTEXT_DEFINED_HEIGHT_END
  0
MTEXT
  5
2A7
330
1F
100
AcDbEntity
  8
Default
100
AcDbMText
 10
480.7978588183053
 20
214.6329609402993
 30
0.0
 40
4.166666666666667
 41
2.391115318181886
 71
     5
 72
     1
  1
{\fSolid Edge ISO|b0||i0||c0|p34;\C7;\H4.166666667;\W1.;B}
 73
     1
 44
1.0
1001
ACAD
1000
ACAD_MTEXT_DEFINED_HEIGHT_BEGIN
1070
    46
1040
6.818198484848483
1000
ACAD_MTEXT_DEFINED_HEIGHT_END
  0
MTEXT
  5
2A8
330
1F
100
AcDbEntity
  8
Default
100
AcDbMText
 10
8.742364751865784
 20
134.0660969742425
 30
0.0
 40
4.166666666666667
 41
2.295471378787879
 71
     5
 72
     1
  1
{\fSolid Edge ISO|b0||i0||c0|p34;\C7;\H4.166666667;\W1.;C}
 73
     1
 44
1.0
1001
ACAD
1000
ACAD_MTEXT_DEFINED_HEIGHT_BEGIN
1070
    46
1040
6.818198484848483
1000
ACAD_MTEXT_DEFINED_HEIGHT_END
  0
MTEXT
  5
2A9
330
1F
100
AcDbEntity
  8
Default
100
AcDbMText
 10
480.8073285152748
 20
134.1903059402993
 30
0.0
 40
4.166666666666667
 41
2.295471378787847
 71
     5
 72
     1
  1
{\fSolid Edge ISO|b0||i0||c0|p34;\C7;\H4.166666667;\W1.;C}
 73
     1
 44
1.0
1001
ACAD
1000
ACAD_MTEXT_DEFINED_HEIGHT_BEGIN
1070
    46
1040
6.818198484848483
1000
ACAD_MTEXT_DEFINED_HEIGHT_END
  0
MTEXT
  5
2AA
330
1F
100
AcDbEntity
  8
Default
100
AcDbMText
 10
8.723425357926388
 20
53.62344197424238
 30
0.0
 40
4.166666666666667
 41
2.486759257575759
 71
     5
 72
     1
  1
{\fSolid Edge ISO|b0||i0||c0|p34;\C7;\H4.166666667;\W1.;D}
 73
     1
 44
1.0
1001
ACAD
1000
ACAD_MTEXT_DEFINED_HEIGHT_BEGIN
1070
    46
1040
6.818198484848483
1000
ACAD_MTEXT_DEFINED_HEIGHT_END
  0
MTEXT
  5
2AB
330
1F
100
AcDbEntity
  8
Default
100
AcDbMText
 10
480.7883891213354
 20
53.74765927363244
 30
0.0
 40
4.166666666666667
 41
2.486759257575739
 71
     5
 72
     1
  1
{\fSolid Edge ISO|b0||i0||c0|p34;\C7;\H4.166666667;\W1.;D}
 73
     1
 44
1.0
1001
ACAD
1000
ACAD_MTEXT_DEFINED_HEIGHT_BEGIN
1070
    46
1040
6.818198484848494
1000
ACAD_MTEXT_DEFINED_HEIGHT_END
  0
MTEXT
  5
2AC
330
1F
100
AcDbEntity
  8
Default
100
AcDbMText
 10
49.57651345827045
 20
340.6751204913955
 30
0.0
 40
4.166666666666667
 41
1.721607742424242
 71
     5
 72
     1
  1
{\fSolid Edge ISO|b0||i0||c0|p34;\C7;\H4.166666667;\W1.;1}
 73
     1
 44
1.0
1001
ACAD
1000
ACAD_MTEXT_DEFINED_HEIGHT_BEGIN
1070
    46
1040
6.818198484848483
1000
ACAD_MTEXT_DEFINED_HEIGHT_END
  0
MTEXT
  5
2AD
330
1F
100
AcDbEntity
  8
Default
100
AcDbMText
 10
51.31995340165864
 20
10.44664646421262
 30
0.0
 40
4.166666666666667
 41
1.721607742424242
 71
     5
 72
     1
  1
{\fSolid Edge ISO|b0||i0||c0|p34;\C7;\H4.166666667;\W1.;1}
 73
     1
 44
1.0
1001
ACAD
1000
ACAD_MTEXT_DEFINED_HEIGHT_BEGIN
1070
    46
1040
6.818198484848487
1000
ACAD_MTEXT_DEFINED_HEIGHT_END
  0
MTEXT
  5
2AE
330
1F
100
AcDbEntity
  8
Default
100
AcDbMText
 10
127.0388500744319
 20
340.6751038247288
 30
0.0
 40
4.166666666666667
 41
2.582403196969684
 71
     5
 72
     1
  1
{\fSolid Edge ISO|b0||i0||c0|p34;\C7;\H4.166666667;\W1.;2}
 73
     1
 44
1.0
1001
ACAD
1000
ACAD_MTEXT_DEFINED_HEIGHT_BEGIN
1070
    46
1040
6.818198484848483
1000
ACAD_MTEXT_DEFINED_HEIGHT_END
  0
MTEXT
  5
2AF
330
1F
100
AcDbEntity
  8
Default
100
AcDbMText
 10
128.78229001782
 20
10.44662979754595
 30
0.0
 40
4.166666666666667
 41
2.582403196969684
 71
     5
 72
     1
  1
{\fSolid Edge ISO|b0||i0||c0|p34;\C7;\H4.166666667;\W1.;2}
 73
     1
 44
1.0
1001
ACAD
1000
ACAD_MTEXT_DEFINED_HEIGHT_BEGIN
1070
    46
1040
6.818198484848484
1000
ACAD_MTEXT_DEFINED_HEIGHT_END
  0
MTEXT
  5
2B0
330
1F
100
AcDbEntity
  8
Default
100
AcDbMText
 10
204.4656177511996
 20
340.6750954913955
 30
0.0
 40
4.166666666666667
 41
2.199827439393948
 71
     5
 72
     1
  1
{\fSolid Edge ISO|b0||i0||c0|p34;\C7;\H4.166666667;\W1.;3}
 73
     1
 44
1.0
1001
ACAD
1000
ACAD_MTEXT_DEFINED_HEIGHT_BEGIN
1070
    46
1040
6.818198484848483
1000
ACAD_MTEXT_DEFINED_HEIGHT_END
  0
MTEXT
  5
2B1
330
1F
100
AcDbEntity
  8
Default
100
AcDbMText
 10
206.2090576945877
 20
10.44662146421262
 30
0.0
 40
4.166666666666667
 41
2.199827439393948
 71
     5
 72
     1
  1
{\fSolid Edge ISO|b0||i0||c0|p34;\C7;\H4.166666667;\W1.;3}
 73
     1
 44
1.0
1001
ACAD
1000
ACAD_MTEXT_DEFINED_HEIGHT_BEGIN
1070
    46
1040
6.818198484848487
1000
ACAD_MTEXT_DEFINED_HEIGHT_END
  0
MTEXT
  5
2B2
330
1F
100
AcDbEntity
  8
Default
100
AcDbMText
 10
281.8260975491794
 20
340.6750788247288
 30
0.0
 40
4.166666666666667
 41
2.486759257575739
 71
     5
 72
     1
  1
{\fSolid Edge ISO|b0||i0||c0|p34;\C7;\H4.166666667;\W1.;4}
 73
     1
 44
1.0
1001
ACAD
1000
ACAD_MTEXT_DEFINED_HEIGHT_BEGIN
1070
    46
1040
6.818198484848483
1000
ACAD_MTEXT_DEFINED_HEIGHT_END
  0
MTEXT
  5
2B3
330
1F
100
AcDbEntity
  8
Default
100
AcDbMText
 10
283.5695374925676
 20
10.44661313087929
 30
0.0
 40
4.166666666666667
 41
2.486759257575739
 71
     5
 72
     1
  1
{\fSolid Edge ISO|b0||i0||c0|p34;\C7;\H4.166666667;\W1.;4}
 73
     1
 44
1.0
1001
ACAD
1000
ACAD_MTEXT_DEFINED_HEIGHT_BEGIN
1070
    46
1040
6.818198484848487
1000
ACAD_MTEXT_DEFINED_HEIGHT_END
  0
MTEXT
  5
2B4
330
1F
100
AcDbEntity
  8
Default
100
AcDbMText
 10
359.2244561350381
 20
340.6750788247288
 30
0.0
 40
4.166666666666667
 41
2.391115318181793
 71
     5
 72
     1
  1
{\fSolid Edge ISO|b0||i0||c0|p34;\C7;\H4.166666667;\W1.;5}
 73
     1
 44
1.0
1001
ACAD
1000
ACAD_MTEXT_DEFINED_HEIGHT_BEGIN
1070
    46
1040
6.818198484848483
1000
ACAD_MTEXT_DEFINED_HEIGHT_END
  0
MTEXT
  5
2B5
330
1F
100
AcDbEntity
  8
Default
100
AcDbMText
 10
360.9678960784262
 20
10.44660479754596
 30
0.0
 40
4.166666666666667
 41
2.391115318181793
 71
     5
 72
     1
  1
{\fSolid Edge ISO|b0||i0||c0|p34;\C7;\H4.166666667;\W1.;5}
 73
     1
 44
1.0
1001
ACAD
1000
ACAD_MTEXT_DEFINED_HEIGHT_BEGIN
1070
    46
1040
6.818198484848484
1000
ACAD_MTEXT_DEFINED_HEIGHT_END
  0
MTEXT
  5
2B6
330
1F
100
AcDbEntity
  8
Default
100
AcDbMText
 10
436.5944056299875
 20
340.6750788247288
 30
0.0
 40
4.166666666666667
 41
2.582403196969778
 71
     5
 72
     1
  1
{\fSolid Edge ISO|b0||i0||c0|p34;\C7;\H4.166666667;\W1.;6}
 73
     1
 44
1.0
1001
ACAD
1000
ACAD_MTEXT_DEFINED_HEIGHT_BEGIN
1070
    46
1040
6.818198484848483
1000
ACAD_MTEXT_DEFINED_HEIGHT_END
  0
MTEXT
  5
2B7
330
1F
100
AcDbEntity
  8
Default
100
AcDbMText
 10
438.3378455733757
 20
10.44661313087929
 30
0.0
 40
4.166666666666667
 41
2.582403196969684
 71
     5
 72
     1
  1
{\fSolid Edge ISO|b0||i0||c0|p34;\C7;\H4.166666667;\W1.;6}
 73
     1
 44
1.0
1001
ACAD
1000
ACAD_MTEXT_DEFINED_HEIGHT_BEGIN
1070
    46
1040
6.818198484848487
1000
ACAD_MTEXT_DEFINED_HEIGHT_END
  0
MTEXT
  5
2B8
330
1F
100
AcDbEntity
  8
Default
100
AcDbMText
 10
44.12250686544191
 20
18.35453940217084
 30
0.0
 40
4.065693333333333
 41
21.06643998469868
 71
     5
 72
     1
  1
{\fSolid Edge ISO|b0||i0||c0|p34;\C7;\H4.065693333;\W1.;Zone}
 73
     1
 44
1.0
1001
ACAD
1000
ACAD_MTEXT_DEFINED_HEIGHT_BEGIN
1070
    46
1040
7.434410666666697
1000
ACAD_MTEXT_DEFINED_HEIGHT_END
  0
MTEXT
  5
2B9
330
1F
100
AcDbEntity
  8
Default
100
AcDbMText
 10
33.38436546089007
 20
94.68680199807335
 30
0.0
 40
5.0
 41
94.13843137956006
 71
     1
 72
     1
  3
{\fSolid Edge ISO|b0||i0||c0|p34;\C7;\H5.;\W1.;Note.\P}{\fSolid Edge ISO|b0||i0||c0|p34;\C7;\H5.;\W1.;1.\U+C9C0\U+C2DC \U+C5C6\U+B294 \U+BAA8\U+B530\U+AE30: C0.3\P}{\fSolid Edge ISO|b0||i0||c0|p34;\C7;\H5.;\W1.;2.\U+C9C0\U+C2DC \U+C5C6\U+B294 \U+B77
  1
C\U+C6B4\U+B4DC: R0.3\P}{\fSolid Edge ISO|b0||i0||c0|p34;\C7;\H5.;\W1.;3.\U+D640\U+AC04 \U+AC70\U+B9AC \U+ACF5\U+CC28: \U+00B10.1\P}{\fSolid Edge ISO|b0||i0||c0|p34;\C7;\H5.;\W1.;4.\U+BAA8\U+B4E0 Burr \U+C81C\U+AC70}
 73
     1
 44
1.0
1001
ACAD
1000
ACAD_MTEXT_DEFINED_HEIGHT_BEGIN
1070
    46
1040
48.15224380077657
1000
ACAD_MTEXT_DEFINED_HEIGHT_END
  0
INSERT
  5
2BB
330
1F
100
AcDbEntity
  8
0
100
AcDbBlockReference
  2
SE3
 10
0.0
 20
0.0
 30
0.0
  0
INSERT
  5
2DE
330
1F
100
AcDbEntity
  8
0
100
AcDbBlockReference
  2
SE11
 10
0.0
 20
0.0
 30
0.0
  0
INSERT
  5
301
330
1F
100
AcDbEntity
  8
0
100
AcDbBlockReference
  2
SE19
 10
0.0
 20
0.0
 30
0.0
  0
INSERT
  5
324
330
1F
100
AcDbEntity
  8
0
100
AcDbBlockReference
  2
SE27
 10
0.0
 20
0.0
 30
0.0
  0
INSERT
  5
347
330
1F
100
AcDbEntity
  8
0
100
AcDbBlockReference
  2
SE35
 10
0.0
 20
0.0
 30
0.0
  0
ENDSEC
  0
SECTION
  2
OBJECTS
  0
DICTIONARY
  5
C
330
0
100
AcDbDictionary
281
     1
  3
ACAD_DETAILVIEWSTYLE
350
3A6
  3
ACAD_GROUP
350
D
  3
ACAD_LAYOUT
350
1A
  3
ACAD_MLINESTYLE
350
17
  3
ACAD_PLOTSETTINGS
350
19
  3
ACAD_PLOTSTYLENAME
350
E
  3
ACAD_SCALELIST
350
47
  3
ACAD_SECTIONVIEWSTYLE
350
3A7
  3
AcDbVariableDictionary
350
36C
  3
APPDATA
350
3AA
  3
DWGPROPS
350
3D1
  0
DICTIONARY
  5
3A6
102
{ACAD_REACTORS
330
C
102
}
330
C
100
AcDbDictionary
281
     1
  0
DICTIONARY
  5
D
102
{ACAD_REACTORS
330
C
102
}
330
C
100
AcDbDictionary
281
     1
  0
DICTIONARY
  5
1A
102
{ACAD_REACTORS
330
C
102
}
330
C
100
AcDbDictionary
281
     1
  3
Layout1
350
1E
  3
Model
350
22
  0
DICTIONARY
  5
17
102
{ACAD_REACTORS
330
C
102
}
330
C
100
AcDbDictionary
281
     1
  3
Standard
350
18
  0
DICTIONARY
  5
19
102
{ACAD_REACTORS
330
C
102
}
330
C
100
AcDbDictionary
281
     1
  0
ACDBDICTIONARYWDFLT
  5
E
102
{ACAD_REACTORS
330
C
102
}
330
C
100
AcDbDictionary
281
     1
  3
Normal
350
F
100
AcDbDictionaryWithDefault
340
F
  0
DICTIONARY
  5
47
102
{ACAD_REACTORS
330
C
102
}
330
C
100
AcDbDictionary
281
     1
  3
A0
350
48
  3
A1
350
49
  3
A2
350
4A
  3
A3
350
4B
  3
A4
350
4C
  3
A5
350
4D
  3
A6
350
4E
  3
A7
350
4F
  3
A8
350
50
  3
A9
350
51
  3
B0
350
52
  3
B1
350
53
  3
B2
350
54
  3
B3
350
55
  3
B4
350
56
  3
B5
350
57
  3
B6
350
58
  3
B7
350
59
  3
B8
350
5A
  3
B9
350
5B
  3
C0
350
5C
  3
C1
350
5D
  3
C2
350
5E
  3
C3
350
5F
  3
C4
350
60
  3
C5
350
61
  3
C6
350
62
  3
C7
350
63
  3
C8
350
64
  3
C9
350
65
  3
D0
350
66
  3
D1
350
67
  3
D2
350
68
  0
DICTIONARY
  5
3A7
102
{ACAD_REACTORS
330
C
102
}
330
C
100
AcDbDictionary
281
     1
  0
DICTIONARY
  5
36C
102
{ACAD_REACTORS
330
C
102
}
330
C
100
AcDbDictionary
281
     1
  0
DICTIONARY
  5
3AA
102
{ACAD_REACTORS
330
C
102
}
330
C
100
AcDbDictionary
281
     1
  0
XRECORD
  5
3D1
102
{ACAD_REACTORS
330
C
102
}
330
C
100
AcDbXrecord
280
     1
  1
DWGPROPS COOKIE
  2

  3

  4

  6

  7

  8

  9

300
=
301
=
302
=
303
=
304
=
305
=
306
=
307
=
308
=
309
=
 40
0.0
 41
2458869.355641123
 42
2458970.277804826
  1

 90
        0
  0
LAYOUT
  5
1E
102
{ACAD_REACTORS
330
1A
102
}
330
1A
100
AcDbPlotSettings
  1

  2
none_device
  4

  6

 40
0.0
 41
0.0
 42
0.0
 43
0.0
 44
0.0
 45
0.0
 46
0.0
 47
0.0
 48
0.0
 49
0.0
140
0.0
141
0.0
142
1.0
143
1.0
 70
   688
 72
     1
 73
     0
 74
     5
  7

 75
    16
147
1.0
148
0.0
149
0.0
100
AcDbLayout
  1
Layout1
 70
     1
 71
     1
 10
0.0
 20
0.0
 11
495.0
 21
350.0
 12
0.0
 22
0.0
 32
0.0
 14
0.0
 24
0.0
 34
0.0
 15
495.0
 25
350.0
 35
0.0
146
0.0
 13
0.0
 23
0.0
 33
0.0
 16
1.0
 26
0.0
 36
0.0
 17
0.0
 27
1.0
 37
0.0
 76
     0
330
1B
  0
LAYOUT
  5
22
102
{ACAD_REACTORS
330
1A
102
}
330
1A
100
AcDbPlotSettings
  1

  2
none_device
  4
Letter_(8.50_x_11.00_Inches)
  6

 40
6.35
 41
6.35
 42
6.35000508
 43
6.35000508
 44
215.9
 45
279.4
 46
0.0
 47
0.0
 48
0.0
 49
0.0
140
0.0
141
0.0
142
1.0
143
1.0
 70
  1712
 72
     1
 73
     0
 74
     0
  7

 75
     0
147
1.0
148
0.0
149
0.0
100
AcDbLayout
  1
Model
 70
     1
 71
     0
 10
0.0
 20
0.0
 11
495.0
 21
350.0
 12
0.0
 22
0.0
 32
0.0
 14
4.695161539759226
 24
6.304000735504161
 34
0.0
 15
486.0124948730925
 25
344.7412540688375
 35
0.0
146
0.0
 13
0.0
 23
0.0
 33
0.0
 16
1.0
 26
0.0
 36
0.0
 17
0.0
 27
1.0
 37
0.0
 76
     0
330
1F
331
29
  0
MLINESTYLE
  5
18
102
{ACAD_REACTORS
330
17
102
}
330
17
100
AcDbMlineStyle
  2
Standard
 70
     0
  3

 62
   256
 51
90.0
 52
90.0
 71
     2
 49
0.5
 62
   256
  6
BYLAYER
 49
-0.5
 62
   256
  6
BYLAYER
  0
ACDBPLACEHOLDER
  5
F
102
{ACAD_REACTORS
330
E
102
}
330
E
  0
SCALE
  5
48
102
{ACAD_REACTORS
330
47
102
}
330
47
100
AcDbScale
 70
     0
300
1:1
140
1.0
141
1.0
290
     1
  0
SCALE
  5
49
102
{ACAD_REACTORS
330
47
102
}
330
47
100
AcDbScale
 70
     0
300
1:2
140
1.0
141
2.0
290
     0
  0
SCALE
  5
4A
102
{ACAD_REACTORS
330
47
102
}
330
47
100
AcDbScale
 70
     0
300
1:4
140
1.0
141
4.0
290
     0
  0
SCALE
  5
4B
102
{ACAD_REACTORS
330
47
102
}
330
47
100
AcDbScale
 70
     0
300
1:5
140
1.0
141
5.0
290
     0
  0
SCALE
  5
4C
102
{ACAD_REACTORS
330
47
102
}
330
47
100
AcDbScale
 70
     0
300
1:8
140
1.0
141
8.0
290
     0
  0
SCALE
  5
4D
102
{ACAD_REACTORS
330
47
102
}
330
47
100
AcDbScale
 70
     0
300
1:10
140
1.0
141
10.0
290
     0
  0
SCALE
  5
4E
102
{ACAD_REACTORS
330
47
102
}
330
47
100
AcDbScale
 70
     0
300
1:16
140
1.0
141
16.0
290
     0
  0
SCALE
  5
4F
102
{ACAD_REACTORS
330
47
102
}
330
47
100
AcDbScale
 70
     0
300
1:20
140
1.0
141
20.0
290
     0
  0
SCALE
  5
50
102
{ACAD_REACTORS
330
47
102
}
330
47
100
AcDbScale
 70
     0
300
1:30
140
1.0
141
30.0
290
     0
  0
SCALE
  5
51
102
{ACAD_REACTORS
330
47
102
}
330
47
100
AcDbScale
 70
     0
300
1:40
140
1.0
141
40.0
290
     0
  0
SCALE
  5
52
102
{ACAD_REACTORS
330
47
102
}
330
47
100
AcDbScale
 70
     0
300
1:50
140
1.0
141
50.0
290
     0
  0
SCALE
  5
53
102
{ACAD_REACTORS
330
47
102
}
330
47
100
AcDbScale
 70
     0
300
1:100
140
1.0
141
100.0
290
     0
  0
SCALE
  5
54
102
{ACAD_REACTORS
330
47
102
}
330
47
100
AcDbScale
 70
     0
300
2:1
140
2.0
141
1.0
290
     0
  0
SCALE
  5
55
102
{ACAD_REACTORS
330
47
102
}
330
47
100
AcDbScale
 70
     0
300
4:1
140
4.0
141
1.0
290
     0
  0
SCALE
  5
56
102
{ACAD_REACTORS
330
47
102
}
330
47
100
AcDbScale
 70
     0
300
8:1
140
8.0
141
1.0
290
     0
  0
SCALE
  5
57
102
{ACAD_REACTORS
330
47
102
}
330
47
100
AcDbScale
 70
     0
300
10:1
140
10.0
141
1.0
290
     0
  0
SCALE
  5
58
102
{ACAD_REACTORS
330
47
102
}
330
47
100
AcDbScale
 70
     0
300
100:1
140
100.0
141
1.0
290
     0
  0
SCALE
  5
59
102
{ACAD_REACTORS
330
47
102
}
330
47
100
AcDbScale
 70
     0
300
1/128" = 1'-0"
140
0.0078125
141
12.0
290
     0
  0
SCALE
  5
5A
102
{ACAD_REACTORS
330
47
102
}
330
47
100
AcDbScale
 70
     0
300
1/64" = 1'-0"
140
0.015625
141
12.0
290
     0
  0
SCALE
  5
5B
102
{ACAD_REACTORS
330
47
102
}
330
47
100
AcDbScale
 70
     0
300
1/32" = 1'-0"
140
0.03125
141
12.0
290
     0
  0
SCALE
  5
5C
102
{ACAD_REACTORS
330
47
102
}
330
47
100
AcDbScale
 70
     0
300
1/16" = 1'-0"
140
0.0625
141
12.0
290
     0
  0
SCALE
  5
5D
102
{ACAD_REACTORS
330
47
102
}
330
47
100
AcDbScale
 70
     0
300
3/32" = 1'-0"
140
0.09375
141
12.0
290
     0
  0
SCALE
  5
5E
102
{ACAD_REACTORS
330
47
102
}
330
47
100
AcDbScale
 70
     0
300
1/8" = 1'-0"
140
0.125
141
12.0
290
     0
  0
SCALE
  5
5F
102
{ACAD_REACTORS
330
47
102
}
330
47
100
AcDbScale
 70
     0
300
3/16" = 1'-0"
140
0.1875
141
12.0
290
     0
  0
SCALE
  5
60
102
{ACAD_REACTORS
330
47
102
}
330
47
100
AcDbScale
 70
     0
300
1/4" = 1'-0"
140
0.25
141
12.0
290
     0
  0
SCALE
  5
61
102
{ACAD_REACTORS
330
47
102
}
330
47
100
AcDbScale
 70
     0
300
3/8" = 1'-0"
140
0.375
141
12.0
290
     0
  0
SCALE
  5
62
102
{ACAD_REACTORS
330
47
102
}
330
47
100
AcDbScale
 70
     0
300
1/2" = 1'-0"
140
0.5
141
12.0
290
     0
  0
SCALE
  5
63
102
{ACAD_REACTORS
330
47
102
}
330
47
100
AcDbScale
 70
     0
300
3/4" = 1'-0"
140
0.75
141
12.0
290
     0
  0
SCALE
  5
64
102
{ACAD_REACTORS
330
47
102
}
330
47
100
AcDbScale
 70
     0
300
1" = 1'-0"
140
1.0
141
12.0
290
     0
  0
SCALE
  5
65
102
{ACAD_REACTORS
330
47
102
}
330
47
100
AcDbScale
 70
     0
300
1-1/2" = 1'-0"
140
1.5
141
12.0
290
     0
  0
SCALE
  5
66
102
{ACAD_REACTORS
330
47
102
}
330
47
100
AcDbScale
 70
     0
300
3" = 1'-0"
140
3.0
141
12.0
290
     0
  0
SCALE
  5
67
102
{ACAD_REACTORS
330
47
102
}
330
47
100
AcDbScale
 70
     0
300
6" = 1'-0"
140
6.0
141
12.0
290
     0
  0
SCALE
  5
68
102
{ACAD_REACTORS
330
47
102
}
330
47
100
AcDbScale
 70
     0
300
1'-0" = 1'-0"
140
12.0
141
12.0
290
     0
  0
ENDSEC
  0
EOF
