  0
SECTION
  2
HEADER
  9
$ACADVER
  1
AC1015
  9
$ACADMAINTVER
 70
     6
  9
$DWGCODEPAGE
  3
ANSI_949
  9
$INSBASE
 10
0.0
 20
0.0
 30
0.0
  9
$EXTMIN
 10
-0.0643212627868479
 20
0.1434571966790656
 30
0.0
  9
$EXTMAX
 10
419.9356787372132
 20
297.143457196679
 30
0.0
  9
$LIMMIN
 10
0.0
 20
0.0
  9
$LIMMAX
 10
420.0
 20
297.0
  9
$ORTHOMODE
 70
     0
  9
$REGENMODE
 70
     1
  9
$FILLMODE
 70
     1
  9
$QTEXTMODE
 70
     0
  9
$MIRRTEXT
 70
     1
  9
$LTSCALE
 40
1.0
  9
$ATTMODE
 70
     1
  9
$TEXTSIZE
 40
3.0
  9
$TRACEWID
 40
1.0
  9
$TEXTSTYLE
  7
Standard
  9
$CLAYER
  8
0
  9
$CELTYPE
  6
ByLayer
  9
$CECOLOR
 62
   256
  9
$CELTSCALE
 40
1.0
  9
$DISPSILH
 70
     0
  9
$DIMSCALE
 40
1.0
  9
$DIMASZ
 40
1.8
  9
$DIMEXO
 40
1.0
  9
$DIMDLI
 40
3.75
  9
$DIMRND
 40
0.0
  9
$DIMDLE
 40
0.0
  9
$DIMEXE
 40
1.0
  9
$DIMTP
 40
0.0
  9
$DIMTM
 40
0.0
  9
$DIMTXT
 40
3.0
  9
$DIMCEN
 40
2.5
  9
$DIMTSZ
 40
0.0
  9
$DIMTOL
 70
     0
  9
$DIMLIM
 70
     0
  9
$DIMTIH
 70
     1
  9
$DIMTOH
 70
     1
  9
$DIMSE1
 70
     0
  9
$DIMSE2
 70
     0
  9
$DIMTAD
 70
     1
  9
$DIMZIN
 70
     0
  9
$DIMBLK
  1

  9
$DIMASO
 70
     1
  9
$DIMSHO
 70
     1
  9
$DIMPOST
  1

  9
$DIMAPOST
  1

  9
$DIMALT
 70
     0
  9
$DIMALTD
 70
     3
  9
$DIMALTF
 40
0.0393700787401575
  9
$DIMLFAC
 40
1.0
  9
$DIMTOFL
 70
     1
  9
$DIMTVP
 40
0.0
  9
$DIMTIX
 70
     0
  9
$DIMSOXD
 70
     0
  9
$DIMSAH
 70
     0
  9
$DIMBLK1
  1

  9
$DIMBLK2
  1

  9
$DIMSTYLE
  2
ISO-25
  9
$DIMCLRD
 70
     0
  9
$DIMCLRE
 70
     0
  9
$DIMCLRT
 70
     0
  9
$DIMTFAC
 40
1.0
  9
$DIMGAP
 40
1.524
  9
$DIMJUST
 70
     0
  9
$DIMSD1
 70
     0
  9
$DIMSD2
 70
     0
  9
$DIMTOLJ
 70
     0
  9
$DIMTZIN
 70
     0
  9
$DIMALTZ
 70
     0
  9
$DIMALTTZ
 70
     0
  9
$DIMUPT
 70
     0
  9
$DIMDEC
 70
     2
  9
$DIMTDEC
 70
     2
  9
$DIMALTU
 70
     2
  9
$DIMALTTD
 70
     3
  9
$DIMTXSTY
  7
Standard
  9
$DIMAUNIT
 70
     0
  9
$DIMADEC
 70
     3
  9
$DIMALTRND
 40
0.0
  9
$DIMAZIN
 70
     0
  9
$DIMDSEP
 70
    44
  9
$DIMATFIT
 70
     3
  9
$DIMFRAC
 70
     0
  9
$DIMLDRBLK
  1

  9
$DIMLUNIT
 70
     2
  9
$DIMLWD
 70
    -2
  9
$DIMLWE
 70
    -2
  9
$DIMTMOVE
 70
     0
  9
$LUNITS
 70
     2
  9
$LUPREC
 70
     4
  9
$SKETCHINC
 40
1.0
  9
$FILLETRAD
 40
10.0
  9
$AUNITS
 70
     0
  9
$AUPREC
 70
     3
  9
$MENU
  1
.
  9
$ELEVATION
 40
0.0
  9
$PELEVATION
 40
0.0
  9
$THICKNESS
 40
0.0
  9
$LIMCHECK
 70
     0
  9
$CHAMFERA
 40
0.0
  9
$CHAMFERB
 40
0.0
  9
$CHAMFERC
 40
0.0
  9
$CHAMFERD
 40
0.0
  9
$SKPOLY
 70
     0
  9
$TDCREATE
 40
2458500.977098148
  9
$TDUCREATE
 40
2458500.602098148
  9
$TDUPDATE
 40
2458976.401739143
  9
$TDUUPDATE
 40
2458976.026739143
  9
$TDINDWG
 40
0.0109221991
  9
$TDUSRTIMER
 40
0.0011999653
  9
$USRTIMER
 70
     1
  9
$ANGBASE
 50
0.0
  9
$ANGDIR
 70
     0
  9
$PDMODE
 70
     0
  9
$PDSIZE
 40
-1.0
  9
$PLINEWID
 40
0.0
  9
$SPLFRAME
 70
     0
  9
$SPLINETYPE
 70
     6
  9
$SPLINESEGS
 70
     8
  9
$HANDSEED
  5
3AB
  9
$SURFTAB1
 70
     6
  9
$SURFTAB2
 70
     6
  9
$SURFTYPE
 70
     6
  9
$SURFU
 70
     6
  9
$SURFV
 70
     6
  9
$UCSBASE
  2

  9
$UCSNAME
  2

  9
$UCSORG
 10
0.0
 20
0.0
 30
0.0
  9
$UCSXDIR
 10
1.0
 20
0.0
 30
0.0
  9
$UCSYDIR
 10
0.0
 20
1.0
 30
0.0
  9
$UCSORTHOREF
  2

  9
$UCSORTHOVIEW
 70
     0
  9
$UCSORGTOP
 10
0.0
 20
0.0
 30
0.0
  9
$UCSORGBOTTOM
 10
0.0
 20
0.0
 30
0.0
  9
$UCSORGLEFT
 10
0.0
 20
0.0
 30
0.0
  9
$UCSORGRIGHT
 10
0.0
 20
0.0
 30
0.0
  9
$UCSORGFRONT
 10
0.0
 20
0.0
 30
0.0
  9
$UCSORGBACK
 10
0.0
 20
0.0
 30
0.0
  9
$PUCSBASE
  2

  9
$PUCSNAME
  2

  9
$PUCSORG
 10
0.0
 20
0.0
 30
0.0
  9
$PUCSXDIR
 10
1.0
 20
0.0
 30
0.0
  9
$PUCSYDIR
 10
0.0
 20
1.0
 30
0.0
  9
$PUCSORTHOREF
  2

  9
$PUCSORTHOVIEW
 70
     0
  9
$PUCSORGTOP
 10
0.0
 20
0.0
 30
0.0
  9
$PUCSORGBOTTOM
 10
0.0
 20
0.0
 30
0.0
  9
$PUCSORGLEFT
 10
0.0
 20
0.0
 30
0.0
  9
$PUCSORGRIGHT
 10
0.0
 20
0.0
 30
0.0
  9
$PUCSORGFRONT
 10
0.0
 20
0.0
 30
0.0
  9
$PUCSORGBACK
 10
0.0
 20
0.0
 30
0.0
  9
$USERI1
 70
     0
  9
$USERI2
 70
     0
  9
$USERI3
 70
     0
  9
$USERI4
 70
     0
  9
$USERI5
 70
     0
  9
$USERR1
 40
0.0
  9
$USERR2
 40
0.0
  9
$USERR3
 40
0.0
  9
$USERR4
 40
0.0
  9
$USERR5
 40
0.0
  9
$WORLDVIEW
 70
     1
  9
$SHADEDGE
 70
     3
  9
$SHADEDIF
 70
    70
  9
$TILEMODE
 70
     1
  9
$MAXACTVP
 70
    64
  9
$PINSBASE
 10
0.0
 20
0.0
 30
0.0
  9
$PLIMCHECK
 70
     0
  9
$PEXTMIN
 10
1.000000000000000E+20
 20
1.000000000000000E+20
 30
1.000000000000000E+20
  9
$PEXTMAX
 10
-1.000000000000000E+20
 20
-1.000000000000000E+20
 30
-1.000000000000000E+20
  9
$PLIMMIN
 10
0.0
 20
0.0
  9
$PLIMMAX
 10
0.0
 20
0.0
  9
$UNITMODE
 70
     0
  9
$VISRETAIN
 70
     1
  9
$PLINEGEN
 70
     0
  9
$PSLTSCALE
 70
     1
  9
$TREEDEPTH
 70
  3020
  9
$CMLSTYLE
  2
Standard
  9
$CMLJUST
 70
     0
  9
$CMLSCALE
 40
20.0
  9
$PROXYGRAPHICS
 70
     1
  9
$MEASUREMENT
 70
     1
  9
$CELWEIGHT
370
    -1
  9
$ENDCAPS
280
     0
  9
$JOINSTYLE
280
     0
  9
$LWDISPLAY
290
     1
  9
$INSUNITS
 70
     4
  9
$HYPERLINKBASE
  1

  9
$STYLESHEET
  1
acad.ctb
  9
$XEDIT
290
     1
  9
$CEPSNTYPE
380
     0
  9
$PSTYLEMODE
290
     1
  9
$FINGERPRINTGUID
  2
{CB04D58A-8207-4185-A0A7-21970A9D36BD}
  9
$VERSIONGUID
  2
{A4784D68-B058-754F-A425-E0943FD90219}
  9
$EXTNAMES
290
     1
  9
$PSVPSCALE
 40
0.0
  9
$OLESTARTUP
290
     0
  0
ENDSEC
  0
SECTION
  2
CLASSES
  0
CLASS
  1
ACDBDICTIONARYWDFLT
  2
AcDbDictionaryWithDefault
  3
ObjectDBX Classes
 90
        0
280
     0
281
     0
  0
CLASS
  1
VISUALSTYLE
  2
AcDbVisualStyle
  3
ObjectDBX Classes
 90
     4095
280
     0
281
     0
  0
CLASS
  1
MATERIAL
  2
AcDbMaterial
  3
ObjectDBX Classes
 90
     1153
280
     0
281
     0
  0
CLASS
  1
SCALE
  2
AcDbScale
  3
ObjectDBX Classes
 90
     1153
280
     0
281
     0
  0
CLASS
  1
TABLESTYLE
  2
AcDbTableStyle
  3
ObjectDBX Classes
 90
     4095
280
     0
281
     0
  0
CLASS
  1
MLEADERSTYLE
  2
AcDbMLeaderStyle
  3
ACDB_MLEADERSTYLE_CLASS
 90
     4095
280
     0
281
     0
  0
CLASS
  1
SUN
  2
AcDbSun
  3
SCENEOE
 90
     1153
280
     0
281
     0
  0
CLASS
  1
ACDBPLACEHOLDER
  2
AcDbPlaceHolder
  3
ObjectDBX Classes
 90
        0
280
     0
281
     0
  0
CLASS
  1
LAYOUT
  2
AcDbLayout
  3
ObjectDBX Classes
 90
        0
280
     0
281
     0
  0
CLASS
  1
ACDBSECTIONVIEWSTYLE
  2
AcDbSectionViewStyle
  3
ObjectDBX Classes
 90
     1025
280
     0
281
     0
  0
CLASS
  1
ACDBDETAILVIEWSTYLE
  2
AcDbDetailViewStyle
  3
ObjectDBX Classes
 90
     1025
280
     0
281
     0
  0
CLASS
  1
DICTIONARYVAR
  2
AcDbDictionaryVar
  3
ObjectDBX Classes
 90
        0
280
     0
281
     0
  0
CLASS
  1
CELLSTYLEMAP
  2
AcDbCellStyleMap
  3
ObjectDBX Classes
 90
     1152
280
     0
281
     0
  0
ENDSEC
  0
SECTION
  2
TABLES
  0
TABLE
  2
VPORT
  5
8
330
0
100
AcDbSymbolTable
 70
     1
  0
VPORT
  5
29
330
8
100
AcDbSymbolTableRecord
100
AcDbViewportTableRecord
  2
*Active
 70
     0
 10
0.0
 20
0.0
 11
1.0
 21
1.0
 12
255.7186897247042
 22
207.2474696818538
 13
0.0
 23
0.0
 14
10.0
 24
10.0
 15
10.0
 25
10.0
 16
0.0
 26
0.0
 36
1.0
 17
0.0
 27
0.0
 37
0.0
 40
308.4370750671724
 41
2.15647226173542
 42
50.0
 43
0.0
 44
0.0
 50
0.0
 51
0.0
 71
    16
 72
  2000
 73
     1
 74
     3
 75
     0
 76
     0
 77
     0
 78
     0
281
     0
 65
     1
110
0.0
120
0.0
130
0.0
111
1.0
121
0.0
131
0.0
112
0.0
122
1.0
132
0.0
 79
     0
146
0.0
1001
ACAD_NAV_VCDISPLAY
1070
     3
  0
ENDTAB
  0
TABLE
  2
LTYPE
  5
5
330
0
100
AcDbSymbolTable
 70
     6
  0
LTYPE
  5
14
330
5
100
AcDbSymbolTableRecord
100
AcDbLinetypeTableRecord
  2
ByBlock
 70
     0
  3

 72
    65
 73
     0
 40
0.0
  0
LTYPE
  5
15
330
5
100
AcDbSymbolTableRecord
100
AcDbLinetypeTableRecord
  2
ByLayer
 70
     0
  3

 72
    65
 73
     0
 40
0.0
  0
LTYPE
  5
16
330
5
100
AcDbSymbolTableRecord
100
AcDbLinetypeTableRecord
  2
Continuous
 70
     0
  3
Solid line
 72
    65
 73
     0
 40
0.0
  0
LTYPE
  5
6E
330
5
100
AcDbSymbolTableRecord
100
AcDbLinetypeTableRecord
  2
HIDDEN
 70
     0
  3
Hidden __ __ __ __ __ __ __ __ __ __ __ __ __ __
 72
    65
 73
     2
 40
1.905
 49
1.27
 74
     0
 49
-0.635
 74
     0
  0
LTYPE
  5
6F
330
5
100
AcDbSymbolTableRecord
100
AcDbLinetypeTableRecord
  2
PHANTOM
 70
     0
  3
Phantom ______  __  __  ______  __  __  ______
 72
    65
 73
     6
 40
12.7
 49
6.349999999999999
 74
     0
 49
-1.27
 74
     0
 49
1.27
 74
     0
 49
-1.27
 74
     0
 49
1.27
 74
     0
 49
-1.27
 74
     0
  0
LTYPE
  5
70
330
5
100
AcDbSymbolTableRecord
100
AcDbLinetypeTableRecord
  2
CENTER
 70
     0
  3
Center ____ _ ____ _ ____ _ ____ _ ____ _ ____
 72
    65
 73
     4
 40
10.16
 49
6.349999999999999
 74
     0
 49
-1.27
 74
     0
 49
1.27
 74
     0
 49
-1.27
 74
     0
  0
LTYPE
  5
71
330
5
100
AcDbSymbolTableRecord
100
AcDbLinetypeTableRecord
  2
CENTERX2
 70
     0
  3
Center (2x) ________  __  ________  __  _____
 72
    65
 73
     4
 40
20.32
 49
12.7
 74
     0
 49
-2.54
 74
     0
 49
2.54
 74
     0
 49
-2.54
 74
     0
  0
LTYPE
  5
72
330
5
100
AcDbSymbolTableRecord
100
AcDbLinetypeTableRecord
  2
DOT2
 70
     0
  3
Dot (.5x) ........................................
 72
    65
 73
     2
 40
0.635
 49
0.0
 74
     0
 49
-0.635
 74
     0
  0
ENDTAB
  0
TABLE
  2
LAYER
  5
2
330
0
100
AcDbSymbolTable
 70
    20
  0
LAYER
  5
10
102
{ACAD_XDICTIONARY
360
2B2
102
}
330
2
100
AcDbSymbolTableRecord
100
AcDbLayerTableRecord
  2
0
 70
     0
 62
     7
  6
Continuous
370
    -3
390
F
  0
LAYER
  5
73
102
{ACAD_XDICTIONARY
360
2B4
102
}
330
2
100
AcDbSymbolTableRecord
100
AcDbLayerTableRecord
  2
SLD-0
 70
     0
 62
     7
  6
Continuous
370
    -1
390
F
  0
LAYER
  5
74
102
{ACAD_XDICTIONARY
360
2B6
102
}
330
2
100
AcDbSymbolTableRecord
100
AcDbLayerTableRecord
  2
외형선
 70
     0
 62
     7
  6
Continuous
370
    -1
390
F
  0
LAYER
  5
75
102
{ACAD_XDICTIONARY
360
2B8
102
}
330
2
100
AcDbSymbolTableRecord
100
AcDbLayerTableRecord
  2
치수선
 70
     0
 62
     7
  6
Continuous
370
    -3
390
F
  0
LAYER
  5
76
102
{ACAD_XDICTIONARY
360
2BA
102
}
330
2
100
AcDbSymbolTableRecord
100
AcDbLayerTableRecord
  2
중심선
 70
     0
 62
     6
  6
PHANTOM
370
    -3
390
F
  0
LAYER
  5
77
102
{ACAD_XDICTIONARY
360
2BC
102
}
330
2
100
AcDbSymbolTableRecord
100
AcDbLayerTableRecord
  2
숨은선
 70
     0
 62
     2
  6
HIDDEN
370
    -3
390
F
  0
LAYER
  5
78
102
{ACAD_XDICTIONARY
360
2BE
102
}
330
2
100
AcDbSymbolTableRecord
100
AcDbLayerTableRecord
  2
강조선
 70
     0
 62
     1
  6
Continuous
370
    25
390
F
  0
LAYER
  5
79
102
{ACAD_XDICTIONARY
360
2C0
102
}
330
2
100
AcDbSymbolTableRecord
100
AcDbLayerTableRecord
  2
가상선
 70
     0
 62
     4
  6
CENTERX2
370
    -3
390
F
  0
LAYER
  5
7A
102
{ACAD_XDICTIONARY
360
2C2
102
}
330
2
100
AcDbSymbolTableRecord
100
AcDbLayerTableRecord
  2
일반
 70
     0
 62
     7
  6
Continuous
370
    -3
390
F
  0
LAYER
  5
7B
102
{ACAD_XDICTIONARY
360
2C4
102
}
330
2
100
AcDbSymbolTableRecord
100
AcDbLayerTableRecord
  2
FORMAT
 70
     0
 62
     7
  6
Continuous
370
    -3
390
F
  0
LAYER
  5
7C
102
{ACAD_XDICTIONARY
360
2C6
102
}
330
2
100
AcDbSymbolTableRecord
100
AcDbLayerTableRecord
  2
외형
 70
     0
 62
     7
  6
Continuous
370
    -3
390
F
  0
LAYER
  5
7D
102
{ACAD_XDICTIONARY
360
2C8
102
}
330
2
100
AcDbSymbolTableRecord
100
AcDbLayerTableRecord
  2
DIM
 70
     0
 62
   102
  6
Continuous
370
    -3
390
F
  0
LAYER
  5
7E
102
{ACAD_XDICTIONARY
360
2CA
102
}
330
2
100
AcDbSymbolTableRecord
100
AcDbLayerTableRecord
  2
CEN
 70
     0
 62
     6
  6
CENTER
370
    -3
390
F
  0
LAYER
  5
7F
102
{ACAD_XDICTIONARY
360
2CC
102
}
330
2
100
AcDbSymbolTableRecord
100
AcDbLayerTableRecord
  2
HIDE
 70
     0
 62
     2
  6
HIDDEN
370
    -3
390
F
  0
LAYER
  5
80
102
{ACAD_XDICTIONARY
360
2CE
102
}
330
2
100
AcDbSymbolTableRecord
100
AcDbLayerTableRecord
  2
PHAN
 70
     0
 62
    81
  6
PHANTOM
370
    -3
390
F
  0
LAYER
  5
81
102
{ACAD_XDICTIONARY
360
2D0
102
}
330
2
100
AcDbSymbolTableRecord
100
AcDbLayerTableRecord
  2
TEXT1
 70
     0
 62
    30
  6
Continuous
370
    -3
390
F
  0
LAYER
  5
82
102
{ACAD_XDICTIONARY
360
2D2
102
}
330
2
100
AcDbSymbolTableRecord
100
AcDbLayerTableRecord
  2
FORM
 70
     0
 62
     8
  6
Continuous
370
    -3
390
F
  0
LAYER
  5
83
102
{ACAD_XDICTIONARY
360
2D4
102
}
330
2
100
AcDbSymbolTableRecord
100
AcDbLayerTableRecord
  2
TEXT2
 70
     0
 62
     1
  6
Continuous
370
    -3
390
F
  0
LAYER
  5
84
102
{ACAD_XDICTIONARY
360
2D6
102
}
330
2
100
AcDbSymbolTableRecord
100
AcDbLayerTableRecord
  2
TEXT3
 70
     0
 62
     3
  6
Continuous
370
    -3
390
F
  0
LAYER
  5
85
102
{ACAD_XDICTIONARY
360
2D8
102
}
330
2
100
AcDbSymbolTableRecord
100
AcDbLayerTableRecord
  2
SLD-0_0
 70
     0
 62
     7
  6
Continuous
370
    -1
390
F
  0
ENDTAB
  0
TABLE
  2
STYLE
  5
3
330
0
100
AcDbSymbolTable
 70
    18
  0
STYLE
  5
11
330
3
100
AcDbSymbolTableRecord
100
AcDbTextStyleTableRecord
  2
Standard
 70
     0
 40
0.0
 41
1.0
 50
0.0
 71
     0
 42
3.0
  3
txt
  4

  0
STYLE
  5
A7
330
3
100
AcDbSymbolTableRecord
100
AcDbTextStyleTableRecord
  2
SLDTEXTSTYLE0
 70
     0
 40
0.0
 41
0.6335548961036545
 50
0.0
 71
     0
 42
3.0
  3
TXT
  4

  0
STYLE
  5
BA
330
3
100
AcDbSymbolTableRecord
100
AcDbTextStyleTableRecord
  2
SLDTEXTSTYLE1
 70
     0
 40
0.0
 41
0.75
 50
0.0
 71
     0
 42
3.0
  3
TXT
  4
bigfont
  0
STYLE
  5
C2
330
3
100
AcDbSymbolTableRecord
100
AcDbTextStyleTableRecord
  2
SLDTEXTSTYLE2
 70
     0
 40
0.0
 41
0.625
 50
0.0
 71
     0
 42
3.0
  3
TXT
  4
bigfont
  0
STYLE
  5
CA
330
3
100
AcDbSymbolTableRecord
100
AcDbTextStyleTableRecord
  2
SLDTEXTSTYLE3
 70
     0
 40
0.0
 41
0.7
 50
0.0
 71
     0
 42
3.0
  3
TXT
  4
bigfont
  0
STYLE
  5
CC
330
3
100
AcDbSymbolTableRecord
100
AcDbTextStyleTableRecord
  2
SLDTEXTSTYLE4
 70
     0
 40
0.0
 41
0.7
 50
0.0
 71
     0
 42
3.0
  3
TXT
  4

  0
STYLE
  5
142
330
3
100
AcDbSymbolTableRecord
100
AcDbTextStyleTableRecord
  2
SLDTEXTSTYLE5
 70
     0
 40
0.0
 41
0.5456936747639093
 50
0.0
 71
     0
 42
3.0
  3
TXT
  4

  0
STYLE
  5
155
330
3
100
AcDbSymbolTableRecord
100
AcDbTextStyleTableRecord
  2
SLDTEXTSTYLE6
 70
     0
 40
0.0
 41
0.75
 50
0.0
 71
     0
 42
3.0
  3
TXT
  4

  0
STYLE
  5
158
330
3
100
AcDbSymbolTableRecord
100
AcDbTextStyleTableRecord
  2
SLDTEXTSTYLE7
 70
     0
 40
0.0
 41
1.0
 50
0.0
 71
     0
 42
3.0
  3
TXT
  4

  0
STYLE
  5
15D
330
3
100
AcDbSymbolTableRecord
100
AcDbTextStyleTableRecord
  2
SLDTEXTSTYLE8
 70
     0
 40
0.0
 41
0.6142857142857144
 50
0.0
 71
     0
 42
3.0
  3
TXT
  4
bigfont
  0
STYLE
  5
15F
330
3
100
AcDbSymbolTableRecord
100
AcDbTextStyleTableRecord
  2
SLDTEXTSTYLE9
 70
     0
 40
0.0
 41
0.646153846153846
 50
0.0
 71
     0
 42
3.0
  3
TXT
  4
bigfont
  0
STYLE
  5
166
330
3
100
AcDbSymbolTableRecord
100
AcDbTextStyleTableRecord
  2
SLDTEXTSTYLE10
 70
     0
 40
0.0
 41
0.6466666666666666
 50
0.0
 71
     0
 42
3.0
  3
TXT
  4
bigfont
  0
STYLE
  5
16B
330
3
100
AcDbSymbolTableRecord
100
AcDbTextStyleTableRecord
  2
SLDTEXTSTYLE11
 70
     0
 40
0.0
 41
0.5615384615384615
 50
0.0
 71
     0
 42
3.0
  3
TXT
  4
bigfont
  0
STYLE
  5
16D
330
3
100
AcDbSymbolTableRecord
100
AcDbTextStyleTableRecord
  2
SLDTEXTSTYLE12
 70
     0
 40
0.0
 41
0.62
 50
0.0
 71
     0
 42
3.0
  3
TXT
  4
bigfont
  0
STYLE
  5
171
330
3
100
AcDbSymbolTableRecord
100
AcDbTextStyleTableRecord
  2
SLDTEXTSTYLE13
 70
     0
 40
0.0
 41
0.6333333333333334
 50
0.0
 71
     0
 42
3.0
  3
TXT
  4
bigfont
  0
STYLE
  5
182
330
3
100
AcDbSymbolTableRecord
100
AcDbTextStyleTableRecord
  2
SLDTEXTSTYLE14
 70
     0
 40
0.0
 41
0.5333333333333334
 50
0.0
 71
     0
 42
3.0
  3
TXT
  4
bigfont
  0
STYLE
  5
184
330
3
100
AcDbSymbolTableRecord
100
AcDbTextStyleTableRecord
  2
SLDTEXTSTYLE15
 70
     0
 40
0.0
 41
0.6
 50
0.0
 71
     0
 42
3.0
  3
TXT
  4
bigfont
  0
STYLE
  5
256
330
3
100
AcDbSymbolTableRecord
100
AcDbTextStyleTableRecord
  2
SLDTEXTSTYLE16
 70
     0
 40
0.0
 41
1.0
 50
0.0
 71
     0
 42
3.0
  3
TXT
  4

  0
ENDTAB
  0
TABLE
  2
VIEW
  5
6
330
0
100
AcDbSymbolTable
 70
     0
  0
ENDTAB
  0
TABLE
  2
UCS
  5
7
330
0
100
AcDbSymbolTable
 70
     0
  0
ENDTAB
  0
TABLE
  2
APPID
  5
9
330
0
100
AcDbSymbolTable
 70
     3
  0
APPID
  5
12
330
9
100
AcDbSymbolTableRecord
100
AcDbRegAppTableRecord
  2
ACAD
 70
     0
  0
APPID
  5
2ED
330
9
100
AcDbSymbolTableRecord
100
AcDbRegAppTableRecord
  2
ACAD_NAV_VCDISPLAY
 70
     0
  0
APPID
  5
3A0
330
9
100
AcDbSymbolTableRecord
100
AcDbRegAppTableRecord
  2
ACAD_MLEADERVER
 70
     0
  0
ENDTAB
  0
TABLE
  2
DIMSTYLE
  5
A
330
0
100
AcDbSymbolTable
 70
     6
100
AcDbDimStyleTable
  0
DIMSTYLE
105
27
330
A
100
AcDbSymbolTableRecord
100
AcDbDimStyleTableRecord
  2
ISO-25
 70
     0
 41
2.5
 42
0.625
 43
3.75
 44
1.25
 73
     0
 74
     0
 77
     1
 78
     8
140
2.5
141
2.5
143
0.03937007874016
147
0.625
171
     3
172
     1
178
     0
271
     2
272
     2
274
     3
278
    44
283
     0
284
     8
340
11
  0
DIMSTYLE
105
1CB
102
{ACAD_REACTORS
330
1CA
102
}
330
A
100
AcDbSymbolTableRecord
100
AcDbDimStyleTableRecord
  2
SLDDIMSTYLE0
 70
     0
  3
<>
 41
1.8
 44
0.0
 45
0.000000001
 78
    12
 79
     3
140
3.0
141
0.0
147
0.75
172
     1
173
     1
178
     0
271
     6
272
     2
276
     2
284
    12
340
CC
341
1CC
343
1CC
  0
DIMSTYLE
105
1D8
102
{ACAD_REACTORS
330
1D7
330
1E2
330
212
330
21C
330
226
330
242
102
}
330
A
100
AcDbSymbolTableRecord
100
AcDbDimStyleTableRecord
  2
SLDDIMSTYLE1
 70
     0
 41
1.8
 44
0.0
 45
0.000000001
 73
     0
 74
     0
 77
     3
 78
    12
 79
     3
140
3.0
147
0.75
173
     1
178
     0
271
     2
272
     2
276
     2
284
    12
340
CC
  0
DIMSTYLE
105
231
102
{ACAD_REACTORS
330
230
102
}
330
A
100
AcDbSymbolTableRecord
100
AcDbDimStyleTableRecord
  2
SLDDIMSTYLE2
 70
     0
 41
1.8
 44
0.0
 45
0.000000001
 47
0.1
 71
     1
 73
     0
 74
     0
 77
     3
 78
    12
 79
     3
140
3.0
147
0.75
172
     1
173
     1
178
     0
271
     2
272
     2
276
     2
289
     0
340
CC
  0
DIMSTYLE
105
257
102
{ACAD_REACTORS
330
258
330
25B
330
25D
102
}
330
A
100
AcDbSymbolTableRecord
100
AcDbDimStyleTableRecord
  2
SLDDIMSTYLE3
 70
     0
 41
0.0
 44
0.0
 45
0.000000001
140
3.243861849401115
147
0.8109654623502787
173
     1
178
     0
271
     0
272
     0
276
     2
340
256
341
1CC
343
1CC
344
1CC
  0
DIMSTYLE
105
259
330
A
100
AcDbSymbolTableRecord
100
AcDbDimStyleTableRecord
  2
SLDDIMSTYLE4
 70
     0
 41
1.8
 44
0.0
 45
0.000000001
146
1.8
147
0.0
173
     1
178
     0
271
     0
272
     0
276
     2
340
11
  0
ENDTAB
  0
TABLE
  2
BLOCK_RECORD
  5
1
330
0
100
AcDbSymbolTable
 70
    20
  0
BLOCK_RECORD
  5
1F
330
1
100
AcDbSymbolTableRecord
100
AcDbBlockTableRecord
  2
*Model_Space
340
22
  0
BLOCK_RECORD
  5
1B
330
1
100
AcDbSymbolTableRecord
100
AcDbBlockTableRecord
  2
*Paper_Space
340
1E
  0
BLOCK_RECORD
  5
23
330
1
100
AcDbSymbolTableRecord
100
AcDbBlockTableRecord
  2
*Paper_Space0
340
26
  0
BLOCK_RECORD
  5
86
330
1
100
AcDbSymbolTableRecord
100
AcDbBlockTableRecord
  2
블록15
340
0
102
{BLKREFS
331
14D
102
}
  0
BLOCK_RECORD
  5
A9
330
1
100
AcDbSymbolTableRecord
100
AcDbBlockTableRecord
  2
블록3_1
340
0
102
{BLKREFS
331
153
102
}
  0
BLOCK_RECORD
  5
DD
330
1
100
AcDbSymbolTableRecord
100
AcDbBlockTableRecord
  2
블록7
340
0
102
{BLKREFS
331
150
102
}
  0
BLOCK_RECORD
  5
131
330
1
100
AcDbSymbolTableRecord
100
AcDbBlockTableRecord
  2
블록36
340
0
102
{BLKREFS
331
0
102
}
  0
BLOCK_RECORD
  5
144
330
1
100
AcDbSymbolTableRecord
100
AcDbBlockTableRecord
  2
블록37
340
0
102
{BLKREFS
331
0
102
}
  0
BLOCK_RECORD
  5
15A
330
1
100
AcDbSymbolTableRecord
100
AcDbBlockTableRecord
  2
SW_NOTE_0
340
0
102
{BLKREFS
331
0
102
}
  0
BLOCK_RECORD
  5
18D
330
1
100
AcDbSymbolTableRecord
100
AcDbBlockTableRecord
  2
SW_SFSYMBOL_0
340
0
102
{BLKREFS
331
196
102
}
  0
BLOCK_RECORD
  5
1CC
330
1
100
AcDbSymbolTableRecord
100
AcDbBlockTableRecord
  2
_NONE
340
0
  0
BLOCK_RECORD
  5
1CF
330
1
100
AcDbSymbolTableRecord
100
AcDbBlockTableRecord
  2
_D
340
0
  0
BLOCK_RECORD
  5
1D9
330
1
100
AcDbSymbolTableRecord
100
AcDbBlockTableRecord
  2
_D_1
340
0
  0
BLOCK_RECORD
  5
1E3
330
1
100
AcDbSymbolTableRecord
100
AcDbBlockTableRecord
  2
_D_2
340
0
  0
BLOCK_RECORD
  5
1EC
330
1
100
AcDbSymbolTableRecord
100
AcDbBlockTableRecord
  2
SW_CENTERMARKSYMBOL_0
340
0
102
{BLKREFS
331
1F7
102
}
  0
BLOCK_RECORD
  5
213
330
1
100
AcDbSymbolTableRecord
100
AcDbBlockTableRecord
  2
_D_3
340
0
  0
BLOCK_RECORD
  5
21D
330
1
100
AcDbSymbolTableRecord
100
AcDbBlockTableRecord
  2
_D_4
340
0
  0
BLOCK_RECORD
  5
227
330
1
100
AcDbSymbolTableRecord
100
AcDbBlockTableRecord
  2
_D_5
340
0
  0
BLOCK_RECORD
  5
232
330
1
100
AcDbSymbolTableRecord
100
AcDbBlockTableRecord
  2
_D_6
340
0
  0
BLOCK_RECORD
  5
243
330
1
100
AcDbSymbolTableRecord
100
AcDbBlockTableRecord
  2
_D_7
340
0
  0
BLOCK_RECORD
  5
24C
330
1
100
AcDbSymbolTableRecord
100
AcDbBlockTableRecord
  2
SW_CHAMFER_DIMENSION_0
340
0
102
{BLKREFS
331
255
102
}
  0
BLOCK_RECORD
  5
262
330
1
100
AcDbSymbolTableRecord
100
AcDbBlockTableRecord
  2
SW_DATUMTAG_0
340
0
102
{BLKREFS
331
26D
102
}
  0
ENDTAB
  0
ENDSEC
  0
SECTION
  2
BLOCKS
  0
BLOCK
  5
20
330
1F
100
AcDbEntity
  8
0
100
AcDbBlockBegin
  2
*Model_Space
 70
     0
 10
0.0
 20
0.0
 30
0.0
  3
*Model_Space
  1

  0
ENDBLK
  5
21
330
1F
100
AcDbEntity
  8
0
100
AcDbBlockEnd
  0
BLOCK
  5
1C
330
1B
100
AcDbEntity
 67
     1
  8
0
100
AcDbBlockBegin
  2
*Paper_Space
 70
     0
 10
0.0
 20
0.0
 30
0.0
  3
*Paper_Space
  1

  0
ENDBLK
  5
1D
330
1B
100
AcDbEntity
 67
     1
  8
0
100
AcDbBlockEnd
  0
BLOCK
  5
24
330
23
100
AcDbEntity
  8
0
100
AcDbBlockBegin
  2
*Paper_Space0
 70
     0
 10
0.0
 20
0.0
 30
0.0
  3
*Paper_Space0
  1

  0
ENDBLK
  5
25
330
23
100
AcDbEntity
  8
0
100
AcDbBlockEnd
  0
BLOCK
  5
87
330
86
100
AcDbEntity
  8
0
100
AcDbBlockBegin
  2
블록15
 70
     2
 10
0.0
 20
0.0
 30
0.0
  3
블록15
  1

  0
LINE
  5
89
330
86
100
AcDbEntity
  8
0
  6
Continuous
 62
     7
370
    18
100
AcDbLine
 10
33.00000000000003
 20
35.0
 30
0.0
 11
170.0
 21
35.0
 31
0.0
  0
LINE
  5
8A
330
86
100
AcDbEntity
  8
0
  6
Continuous
 62
     7
370
    18
100
AcDbLine
 10
33.00000000000003
 20
11.0
 30
0.0
 11
170.0
 21
11.0
 31
0.0
  0
LINE
  5
8B
330
86
100
AcDbEntity
  8
0
  6
Continuous
 62
     7
370
    18
100
AcDbLine
 10
33.00000000000003
 20
40.0
 30
0.0
 11
170.0
 21
40.0
 31
0.0
  0
LINE
  5
8C
330
86
100
AcDbEntity
  8
0
  6
Continuous
 62
     7
370
    18
100
AcDbLine
 10
33.00000000000003
 20
45.0
 30
0.0
 11
170.0
 21
45.0
 31
0.0
  0
LINE
  5
8D
330
86
100
AcDbEntity
  8
0
  6
Continuous
 62
     7
370
    18
100
AcDbLine
 10
33.00000000000003
 20
50.0
 30
0.0
 11
170.0
 21
50.0
 31
0.0
  0
LINE
  5
8E
330
86
100
AcDbEntity
  8
0
  6
Continuous
 62
     7
370
    18
100
AcDbLine
 10
87.00000000000001
 20
17.0
 30
0.0
 11
170.0
 21
17.0
 31
0.0
  0
LINE
  5
8F
330
86
100
AcDbEntity
  8
0
  6
Continuous
 62
     7
370
    18
100
AcDbLine
 10
87.00000000000001
 20
23.0
 30
0.0
 11
170.0
 21
23.0
 31
0.0
  0
LINE
  5
90
330
86
100
AcDbEntity
  8
0
  6
Continuous
 62
     7
370
    18
100
AcDbLine
 10
87.00000000000001
 20
29.0
 30
0.0
 11
170.0
 21
29.0
 31
0.0
  0
LINE
  5
91
330
86
100
AcDbEntity
  8
0
  6
Continuous
 62
     7
370
    18
100
AcDbLine
 10
33.00000000000003
 20
25.0
 30
0.0
 11
87.00000000000001
 21
25.0
 31
0.0
  0
LINE
  5
92
330
86
100
AcDbEntity
  8
0
  6
Continuous
 62
     7
370
    18
100
AcDbLine
 10
33.00000000000003
 20
30.0
 30
0.0
 11
87.00000000000001
 21
30.0
 31
0.0
  0
LINE
  5
93
330
86
100
AcDbEntity
  8
0
  6
Continuous
 62
     7
370
    18
100
AcDbLine
 10
50.99999999999999
 20
35.0
 30
0.0
 11
50.99999999999999
 21
11.0
 31
0.0
  0
LINE
  5
94
330
86
100
AcDbEntity
  8
외형
100
AcDbLine
 10
33.00000000000003
 20
50.0
 30
0.0
 11
33.00000000000003
 21
0.0000000000000017
 31
0.0
  0
LINE
  5
95
330
86
100
AcDbEntity
  8
0
  6
Continuous
 62
     7
370
    18
100
AcDbLine
 10
41.00000000000004
 20
50.0
 30
0.0
 11
41.00000000000004
 21
30.0
 31
0.0
  0
LINE
  5
96
330
86
100
AcDbEntity
  8
0
  6
Continuous
 62
     7
370
    18
100
AcDbLine
 10
69.0
 20
50.0
 30
0.0
 11
69.0
 21
11.0
 31
0.0
  0
LINE
  5
97
330
86
100
AcDbEntity
  8
0
  6
Continuous
 62
     7
370
    18
100
AcDbLine
 10
87.00000000000001
 20
35.0
 30
0.0
 11
87.00000000000001
 21
0.0000000000000017
 31
0.0
  0
LINE
  5
98
330
86
100
AcDbEntity
  8
0
  6
Continuous
 62
     7
370
    18
100
AcDbLine
 10
56.99999999999999
 20
50.0
 30
0.0
 11
56.99999999999999
 21
35.0
 31
0.0
  0
LINE
  5
99
330
86
100
AcDbEntity
  8
0
  6
Continuous
 62
     7
370
    18
100
AcDbLine
 10
59.0
 20
35.0
 30
0.0
 11
59.0
 21
30.0
 31
0.0
  0
LINE
  5
9A
330
86
100
AcDbEntity
  8
0
  6
Continuous
 62
     7
370
    18
100
AcDbLine
 10
77.00000000000001
 20
35.0
 30
0.0
 11
77.00000000000001
 21
30.0
 31
0.0
  0
LINE
  5
9B
330
86
100
AcDbEntity
  8
0
  6
Continuous
 62
     7
370
    18
100
AcDbLine
 10
103.0
 20
35.0
 30
0.0
 11
103.0
 21
0.0000000000000017
 31
0.0
  0
LINE
  5
9C
330
86
100
AcDbEntity
  8
0
  6
Continuous
 62
     7
370
    18
100
AcDbLine
 10
119.0
 20
50.0
 30
0.0
 11
119.0
 21
35.0
 31
0.0
  0
LINE
  5
9D
330
86
100
AcDbEntity
  8
0
  6
Continuous
 62
     7
370
    18
100
AcDbLine
 10
0.0
 20
267.0
 30
0.0
 11
170.0
 21
267.0
 31
0.0
  0
LINE
  5
9E
330
86
100
AcDbEntity
  8
0
  6
Continuous
 62
     7
370
    18
100
AcDbLine
 10
0.0
 20
272.0
 30
0.0
 11
170.0
 21
272.0
 31
0.0
  0
LINE
  5
9F
330
86
100
AcDbEntity
  8
0
  6
Continuous
 62
     7
370
    18
100
AcDbLine
 10
0.0
 20
272.0
 30
0.0
 11
0.0
 21
267.0
 31
0.0
  0
LINE
  5
A0
330
86
100
AcDbEntity
  8
0
  6
Continuous
 62
     7
370
    18
100
AcDbLine
 10
0.0
 20
277.0
 30
0.0
 11
0.0
 21
272.0
 31
0.0
  0
LINE
  5
A1
330
86
100
AcDbEntity
  8
0
  6
Continuous
 62
     7
370
    18
100
AcDbLine
 10
45.00000000000004
 20
272.0
 30
0.0
 11
45.00000000000004
 21
267.0
 31
0.0
  0
LINE
  5
A2
330
86
100
AcDbEntity
  8
0
  6
Continuous
 62
     7
370
    18
100
AcDbLine
 10
45.00000000000004
 20
277.0
 30
0.0
 11
45.00000000000004
 21
272.0
 31
0.0
  0
LINE
  5
A3
330
86
100
AcDbEntity
  8
0
  6
Continuous
 62
     7
370
    18
100
AcDbLine
 10
92.67785896865838
 20
272.0
 30
0.0
 11
92.67785896865833
 21
267.0
 31
0.0
  0
LINE
  5
A4
330
86
100
AcDbEntity
  8
0
  6
Continuous
 62
     7
370
    18
100
AcDbLine
 10
92.67785896865838
 20
277.0
 30
0.0
 11
92.67785896865838
 21
272.0
 31
0.0
  0
LINE
  5
A5
330
86
100
AcDbEntity
  8
0
  6
Continuous
 62
     7
370
    18
100
AcDbLine
 10
111.2678934577471
 20
272.0
 30
0.0
 11
111.2678934577471
 21
267.0
 31
0.0
  0
LINE
  5
A6
330
86
100
AcDbEntity
  8
0
  6
Continuous
 62
     7
370
    18
100
AcDbLine
 10
111.2678934577471
 20
277.0
 30
0.0
 11
111.2678934577471
 21
272.0
 31
0.0
  0
ATTDEF
  5
A8
330
86
100
AcDbEntity
  8
외형
 62
     7
100
AcDbText
 10
105.370353604249
 20
25.58043521424174
 30
0.0
 40
2.116666666666666
  1
 SEALING UNIT
 41
0.6335548961036545
  7
SLDTEXTSTYLE0
 11
105.370353604249
 21
24.52210188090841
 31
0.0
100
AcDbAttributeDefinition
  3

  2
AUTOATTR10
 70
     0
 74
     1
  0
ENDBLK
  5
88
330
86
100
AcDbEntity
  8
0
100
AcDbBlockEnd
  0
BLOCK
  5
AA
330
A9
100
AcDbEntity
  8
0
100
AcDbBlockBegin
  2
블록3_1
 70
     0
 10
0.0
 20
0.0
 30
0.0
  3
블록3_1
  1

  0
ELLIPSE
  5
AC
330
A9
100
AcDbEntity
  8
0
  6
Continuous
 62
     7
370
    18
100
AcDbEllipse
 10
28.21500000000007
 20
40.9612499999991
 30
0.0
 11
-4.454999999999987
 21
0.0
 31
0.0
210
0.0
220
0.0
230
1.0
 40
0.6388888888888902
 41
0.0
 42
6.283185307179586
  0
LINE
  5
AD
330
A9
100
AcDbEntity
  8
0
  6
Continuous
 62
     7
370
    18
100
AcDbLine
 10
0.0000000000000278
 20
43.80749999999999
 30
0.0
 11
41.58000000000006
 21
43.80749999999999
 31
0.0
  0
LINE
  5
AE
330
A9
100
AcDbEntity
  8
0
  6
Continuous
 62
     7
370
    18
100
AcDbLine
 10
0.0000000000000278
 20
38.115
 30
0.0
 11
41.58000000000006
 21
38.115
 31
0.0
  0
LINE
  5
AF
330
A9
100
AcDbEntity
  8
0
  6
Continuous
 62
     7
370
    18
100
AcDbLine
 10
0.0000000000000278
 20
49.49999999999999
 30
0.0
 11
41.58000000000006
 21
49.49999999999999
 31
0.0
  0
LINE
  5
B0
330
A9
100
AcDbEntity
  8
0
  6
Continuous
 62
     7
370
    18
100
AcDbLine
 10
0.0000000000000278
 20
32.66999999999999
 30
0.0
 11
41.58000000000006
 21
32.66999999999999
 31
0.0
  0
LINE
  5
B1
330
A9
100
AcDbEntity
  8
0
  6
Continuous
 62
     7
370
    18
100
AcDbLine
 10
0.0000000000000278
 20
27.225
 30
0.0
 11
41.58000000000006
 21
27.225
 31
0.0
  0
LINE
  5
B2
330
A9
100
AcDbEntity
  8
0
  6
Continuous
 62
     7
370
    18
100
AcDbLine
 10
0.0000000000000278
 20
16.33499999999999
 30
0.0
 11
41.58000000000006
 21
16.33499999999999
 31
0.0
  0
LINE
  5
B3
330
A9
100
AcDbEntity
  8
0
  6
Continuous
 62
     7
370
    18
100
AcDbLine
 10
0.0000000000000278
 20
21.77999999999999
 30
0.0
 11
41.58000000000006
 21
21.77999999999999
 31
0.0
  0
LINE
  5
B4
330
A9
100
AcDbEntity
  8
0
  6
Continuous
 62
     7
370
    18
100
AcDbLine
 10
0.0000000000000278
 20
10.88999999999999
 30
0.0
 11
41.58000000000006
 21
10.88999999999999
 31
0.0
  0
LINE
  5
B5
330
A9
100
AcDbEntity
  8
0
  6
Continuous
 62
     7
370
    18
100
AcDbLine
 10
0.0000000000000278
 20
5.444999999999991
 30
0.0
 11
41.58000000000006
 21
5.444999999999991
 31
0.0
  0
LINE
  5
B6
330
A9
100
AcDbEntity
  8
0
  6
Continuous
 62
     7
370
    18
100
AcDbLine
 10
0.0000000000000278
 20
49.49999999999999
 30
0.0
 11
0.0000000000000278
 21
-0.0000000000000069
 31
0.0
  0
LINE
  5
B7
330
A9
100
AcDbEntity
  8
0
  6
Continuous
 62
     7
370
    18
100
AcDbLine
 10
32.67
 20
43.80749999999999
 30
0.0
 11
32.67
 21
-0.0000000000000069
 31
0.0
  0
LINE
  5
B8
330
A9
100
AcDbEntity
  8
0
  6
Continuous
 62
     7
370
    18
100
AcDbLine
 10
41.58000000000006
 20
49.49999999999999
 30
0.0
 11
41.58000000000006
 21
-0.0000000000000069
 31
0.0
  0
LINE
  5
B9
330
A9
100
AcDbEntity
  8
0
  6
Continuous
 62
     7
370
    18
100
AcDbLine
 10
23.76000000000009
 20
43.80749999999999
 30
0.0
 11
23.76000000000009
 21
-0.0000000000000069
 31
0.0
  0
MTEXT
  5
BB
330
A9
100
AcDbEntity
  8
치수선
100
AcDbMText
 10
0.9900000000000742
 20
30.97926640356094
 30
0.0
 40
1.852083333333333
 41
0.0
 71
     1
 72
     1
  1
6초과
  7
SLDTEXTSTYLE1
 73
     1
 44
1.0
  0
MTEXT
  5
BC
330
A9
100
AcDbEntity
  8
치수선
100
AcDbMText
 10
22.26453583757092
 20
36.42426640356094
 30
0.0
 40
1.852083333333333
 41
0.0
 71
     3
 72
     1
  1
6이하
  7
SLDTEXTSTYLE1
 73
     1
 44
1.0
  0
MTEXT
  5
BD
330
A9
100
AcDbEntity
  8
치수선
100
AcDbMText
 10
22.22723673924813
 20
30.97926640356094
 30
0.0
 40
1.852083333333333
 41
0.0
 71
     3
 72
     1
  1
30이하
  7
SLDTEXTSTYLE1
 73
     1
 44
1.0
  0
MTEXT
  5
BE
330
A9
100
AcDbEntity
  8
치수선
100
AcDbMText
 10
22.18993764092534
 20
25.53426640356096
 30
0.0
 40
1.852083333333333
 41
0.0
 71
     3
 72
     1
  1
120이하
  7
SLDTEXTSTYLE1
 73
     1
 44
1.0
  0
MTEXT
  5
BF
330
A9
100
AcDbEntity
  8
치수선
100
AcDbMText
 10
22.18993764092534
 20
20.08926640356094
 30
0.0
 40
1.852083333333333
 41
0.0
 71
     3
 72
     1
  1
315이하
  7
SLDTEXTSTYLE1
 73
     1
 44
1.0
  0
MTEXT
  5
C0
330
A9
100
AcDbEntity
  8
치수선
100
AcDbMText
 10
22.15263900826384
 20
14.64426640356092
 30
0.0
 40
1.852083333333333
 41
0.0
 71
     3
 72
     1
  1
1000이하
  7
SLDTEXTSTYLE1
 73
     1
 44
1.0
  0
MTEXT
  5
C1
330
A9
100
AcDbEntity
  8
치수선
100
AcDbMText
 10
23.5637501023214
 20
9.502557187919903
 30
0.0
 40
1.852083333333333
 41
0.0
 71
     3
 72
     1
  1
2000이하
  7
SLDTEXTSTYLE1
 73
     1
 44
1.0
  0
MTEXT
  5
C3
330
A9
100
AcDbEntity
  8
치수선
100
AcDbMText
 10
20.3458425714574
 20
48.05676640356093
 30
0.0
 40
1.852083333333333
 41
0.0
 71
     2
 72
     1
  1
일 반  공 차
  7
SLDTEXTSTYLE2
 73
     1
 44
1.0
  0
MTEXT
  5
C4
330
A9
100
AcDbEntity
  8
치수선
100
AcDbMText
 10
0.9900000000000742
 20
25.53426640356094
 30
0.0
 40
1.852083333333333
 41
0.0
 71
     1
 72
     1
  1
30초과
  7
SLDTEXTSTYLE1
 73
     1
 44
1.0
  0
MTEXT
  5
C5
330
A9
100
AcDbEntity
  8
치수선
100
AcDbMText
 10
0.9900000000000742
 20
3.74255441132021
 30
0.0
 40
2.116666666666666
 41
0.0
 71
     1
 72
     1
  1
2000초과
  7
SLDTEXTSTYLE1
 73
     1
 44
1.0
  0
MTEXT
  5
C6
330
A9
100
AcDbEntity
  8
치수선
100
AcDbMText
 10
0.2844444529711831
 20
9.19926640356092
 30
0.0
 40
1.852083333333333
 41
0.0
 71
     1
 72
     1
  1
1000초과
  7
SLDTEXTSTYLE1
 73
     1
 44
1.0
  0
MTEXT
  5
C7
330
A9
100
AcDbEntity
  8
치수선
100
AcDbMText
 10
0.9900000000000742
 20
20.08926640356094
 30
0.0
 40
1.852083333333333
 41
0.0
 71
     1
 72
     1
  1
120초과
  7
SLDTEXTSTYLE1
 73
     1
 44
1.0
  0
MTEXT
  5
C8
330
A9
100
AcDbEntity
  8
치수선
100
AcDbMText
 10
0.9900000000000742
 20
14.64426640356093
 30
0.0
 40
1.852083333333333
 41
0.0
 71
     1
 72
     1
  1
315초과
  7
SLDTEXTSTYLE1
 73
     1
 44
1.0
  0
MTEXT
  5
C9
330
A9
100
AcDbEntity
  8
치수선
100
AcDbMText
 10
0.9900000000000742
 20
36.44769030073089
 30
0.0
 40
1.322916666666666
 41
0.0
 71
     1
 72
     1
  1
0.5초과
  7
SLDTEXTSTYLE1
 73
     1
 44
1.0
  0
MTEXT
  5
CB
330
A9
100
AcDbEntity
  8
치수선
100
AcDbMText
 10
11.41783649553858
 20
42.24051640356093
 30
0.0
 40
1.852083333333333
 41
0.0
 71
     2
 72
     1
  1
치수 구분
  7
SLDTEXTSTYLE3
 73
     1
 44
1.0
  0
MTEXT
  5
CD
330
A9
100
AcDbEntity
  8
치수선
100
AcDbMText
 10
37.23414061702798
 20
25.51084259370249
 30
0.0
 40
2.381249999999999
 41
0.0
 71
     2
 72
     1
  1
±0.15
  7
SLDTEXTSTYLE4
 73
     1
 44
1.0
  0
MTEXT
  5
CE
330
A9
100
AcDbEntity
  8
치수선
100
AcDbMText
 10
28.29988718010487
 20
25.5108425937025
 30
0.0
 40
2.381249999999999
 41
0.0
 71
     2
 72
     1
  1
±0.3
  7
SLDTEXTSTYLE4
 73
     1
 44
1.0
  0
MTEXT
  5
CF
330
A9
100
AcDbEntity
  8
치수선
100
AcDbMText
 10
28.30595058031382
 20
9.175842593702473
 30
0.0
 40
2.381249999999999
 41
0.0
 71
     2
 72
     1
  1
±1.2
  7
SLDTEXTSTYLE4
 73
     1
 44
1.0
  0
MTEXT
  5
D0
330
A9
100
AcDbEntity
  8
치수선
100
AcDbMText
 10
28.30595058031382
 20
3.730842593702474
 30
0.0
 40
2.381249999999999
 41
0.0
 71
     2
 72
     1
  1
±1.5
  7
SLDTEXTSTYLE4
 73
     1
 44
1.0
  0
MTEXT
  5
D1
330
A9
100
AcDbEntity
  8
치수선
100
AcDbMText
 10
37.20988718010518
 20
3.79152582178556
 30
0.0
 40
2.381249999999999
 41
0.0
 71
     2
 72
     1
  1
±0.8
  7
SLDTEXTSTYLE4
 73
     1
 44
1.0
  0
MTEXT
  5
D2
330
A9
100
AcDbEntity
  8
치수선
100
AcDbMText
 10
37.20988718010496
 20
9.175842593702473
 30
0.0
 40
2.381249999999999
 41
0.0
 71
     2
 72
     1
  1
±0.5
  7
SLDTEXTSTYLE4
 73
     1
 44
1.0
  0
MTEXT
  5
D3
330
A9
100
AcDbEntity
  8
치수선
100
AcDbMText
 10
28.29988718010487
 20
20.06584259370248
 30
0.0
 40
2.381249999999999
 41
0.0
 71
     2
 72
     1
  1
±0.5
  7
SLDTEXTSTYLE4
 73
     1
 44
1.0
  0
MTEXT
  5
D4
330
A9
100
AcDbEntity
  8
치수선
100
AcDbMText
 10
28.29988718010487
 20
14.62084259370248
 30
0.0
 40
2.381249999999999
 41
0.0
 71
     2
 72
     1
  1
±0.8
  7
SLDTEXTSTYLE4
 73
     1
 44
1.0
  0
MTEXT
  5
D5
330
A9
100
AcDbEntity
  8
치수선
100
AcDbMText
 10
37.20988718010496
 20
20.06584259370248
 30
0.0
 40
2.381249999999999
 41
0.0
 71
     2
 72
     1
  1
±0.2
  7
SLDTEXTSTYLE4
 73
     1
 44
1.0
  0
MTEXT
  5
D6
330
A9
100
AcDbEntity
  8
치수선
100
AcDbMText
 10
37.20988718010496
 20
14.62084259370247
 30
0.0
 40
2.381249999999999
 41
0.0
 71
     2
 72
     1
  1
±0.3
  7
SLDTEXTSTYLE4
 73
     1
 44
1.0
  0
MTEXT
  5
D7
330
A9
100
AcDbEntity
  8
치수선
100
AcDbMText
 10
28.29988718010487
 20
30.9558425937025
 30
0.0
 40
2.381249999999999
 41
0.0
 71
     2
 72
     1
  1
±0.2
  7
SLDTEXTSTYLE4
 73
     1
 44
1.0
  0
MTEXT
  5
D8
330
A9
100
AcDbEntity
  8
치수선
100
AcDbMText
 10
28.30595058031382
 20
36.40084259370249
 30
0.0
 40
2.381249999999999
 41
0.0
 71
     2
 72
     1
  1
±0.1
  7
SLDTEXTSTYLE4
 73
     1
 44
1.0
  0
MTEXT
  5
D9
330
A9
100
AcDbEntity
  8
치수선
100
AcDbMText
 10
37.22807721681903
 20
36.40084259370249
 30
0.0
 40
2.381249999999999
 41
0.0
 71
     2
 72
     1
  1
±0.05
  7
SLDTEXTSTYLE4
 73
     1
 44
1.0
  0
MTEXT
  5
DA
330
A9
100
AcDbEntity
  8
치수선
100
AcDbMText
 10
37.21595058031391
 20
30.9558425937025
 30
0.0
 40
2.381249999999999
 41
0.0
 71
     2
 72
     1
  1
±0.1
  7
SLDTEXTSTYLE4
 73
     1
 44
1.0
  0
MTEXT
  5
DB
330
A9
100
AcDbEntity
  8
치수선
100
AcDbMText
 10
27.86387585267427
 20
42.24051640356093
 30
0.0
 40
1.852083333333333
 41
0.0
 71
     2
 72
     1
  1
보통급
  7
SLDTEXTSTYLE1
 73
     1
 44
1.0
  0
MTEXT
  5
DC
330
A9
100
AcDbEntity
  8
치수선
100
AcDbMText
 10
36.77387585267434
 20
42.24051640356093
 30
0.0
 40
1.852083333333333
 41
0.0
 71
     2
 72
     1
  1
정밀급
  7
SLDTEXTSTYLE1
 73
     1
 44
1.0
  0
ENDBLK
  5
AB
330
A9
100
AcDbEntity
  8
0
100
AcDbBlockEnd
  0
BLOCK
  5
DE
330
DD
100
AcDbEntity
  8
0
100
AcDbBlockBegin
  2
블록7
 70
     0
 10
0.0
 20
0.0
 30
0.0
  3
블록7
  1

  0
LINE
  5
E0
330
DD
100
AcDbEntity
  8
0
  6
Continuous
 62
     7
370
    18
100
AcDbLine
 10
0.0
 20
0.0
 30
0.0
 11
10.0
 21
0.0
 31
0.0
  0
LINE
  5
E1
330
DD
100
AcDbEntity
  8
0
  6
Continuous
 62
     7
370
    18
100
AcDbLine
 10
0.0
 20
0.0
 30
0.0
 11
0.0
 21
10.0
 31
0.0
  0
LINE
  5
E2
330
DD
100
AcDbEntity
  8
0
  6
Continuous
 62
     7
370
    18
100
AcDbLine
 10
420.0
 20
0.0
 30
0.0
 11
410.0
 21
0.0
 31
0.0
  0
LINE
  5
E3
330
DD
100
AcDbEntity
  8
0
  6
Continuous
 62
     7
370
    18
100
AcDbLine
 10
420.0
 20
0.0
 30
0.0
 11
420.0
 21
10.0
 31
0.0
  0
LINE
  5
E4
330
DD
100
AcDbEntity
  8
0
  6
Continuous
 62
     7
370
    18
100
AcDbLine
 10
420.0
 20
287.0
 30
0.0
 11
420.0
 21
297.0
 31
0.0
  0
LINE
  5
E5
330
DD
100
AcDbEntity
  8
0
  6
Continuous
 62
     7
370
    18
100
AcDbLine
 10
420.0
 20
297.0
 30
0.0
 11
410.0
 21
297.0
 31
0.0
  0
LINE
  5
E6
330
DD
100
AcDbEntity
  8
0
  6
Continuous
 62
     7
370
    18
100
AcDbLine
 10
10.0
 20
297.0
 30
0.0
 11
0.0
 21
297.0
 31
0.0
  0
LINE
  5
E7
330
DD
100
AcDbEntity
  8
0
  6
Continuous
 62
     7
370
    18
100
AcDbLine
 10
0.0
 20
297.0
 30
0.0
 11
0.0
 21
287.0
 31
0.0
  0
LINE
  5
E8
330
DD
100
AcDbEntity
  8
0
  6
Continuous
 62
     2
370
    35
100
AcDbLine
 10
160.0
 20
5.0
 30
0.0
 11
260.0
 21
5.0
 31
0.0
  0
LINE
  5
E9
330
DD
100
AcDbEntity
  8
0
  6
Continuous
 62
     2
370
    35
100
AcDbLine
 10
160.0
 20
5.0
 30
0.0
 11
160.0
 21
10.0
 31
0.0
  0
LINE
  5
EA
330
DD
100
AcDbEntity
  8
0
  6
Continuous
 62
     2
370
    35
100
AcDbLine
 10
260.0
 20
5.0
 30
0.0
 11
260.0
 21
10.0
 31
0.0
  0
LINE
  5
EB
330
DD
100
AcDbEntity
  8
0
  6
Continuous
 62
     2
370
    35
100
AcDbLine
 10
170.0
 20
5.0
 30
0.0
 11
170.0
 21
10.0
 31
0.0
  0
LINE
  5
EC
330
DD
100
AcDbEntity
  8
0
  6
Continuous
 62
     2
370
    35
100
AcDbLine
 10
180.0
 20
5.0
 30
0.0
 11
180.0
 21
10.0
 31
0.0
  0
LINE
  5
ED
330
DD
100
AcDbEntity
  8
0
  6
Continuous
 62
     2
370
    35
100
AcDbLine
 10
190.0
 20
5.0
 30
0.0
 11
190.0
 21
10.0
 31
0.0
  0
LINE
  5
EE
330
DD
100
AcDbEntity
  8
0
  6
Continuous
 62
     2
370
    35
100
AcDbLine
 10
200.0
 20
5.0
 30
0.0
 11
200.0
 21
10.0
 31
0.0
  0
LINE
  5
EF
330
DD
100
AcDbEntity
  8
0
  6
Continuous
 62
     2
370
    35
100
AcDbLine
 10
220.0
 20
5.0
 30
0.0
 11
220.0
 21
10.0
 31
0.0
  0
LINE
  5
F0
330
DD
100
AcDbEntity
  8
0
  6
Continuous
 62
     2
370
    35
100
AcDbLine
 10
230.0
 20
5.0
 30
0.0
 11
230.0
 21
10.0
 31
0.0
  0
LINE
  5
F1
330
DD
100
AcDbEntity
  8
0
  6
Continuous
 62
     2
370
    35
100
AcDbLine
 10
240.0
 20
5.0
 30
0.0
 11
240.0
 21
10.0
 31
0.0
  0
LINE
  5
F2
330
DD
100
AcDbEntity
  8
0
  6
Continuous
 62
     2
370
    35
100
AcDbLine
 10
250.0
 20
5.0
 30
0.0
 11
250.0
 21
10.0
 31
0.0
  0
LINE
  5
F3
330
DD
100
AcDbEntity
  8
0
  6
Continuous
 62
     2
370
    35
100
AcDbLine
 10
5.0
 20
148.5
 30
0.0
 11
15.0
 21
148.5
 31
0.0
  0
LINE
  5
F4
330
DD
100
AcDbEntity
  8
0
  6
Continuous
 62
     2
370
    35
100
AcDbLine
 10
405.0
 20
148.5
 30
0.0
 11
415.0
 21
148.5
 31
0.0
  0
LINE
  5
F5
330
DD
100
AcDbEntity
  8
0
  6
Continuous
 62
     2
370
    35
100
AcDbLine
 10
210.0
 20
282.0
 30
0.0
 11
210.0
 21
292.0
 31
0.0
  0
LINE
  5
F6
330
DD
100
AcDbEntity
  8
0
  6
Continuous
 62
     2
370
    35
100
AcDbLine
 10
210.0
 20
5.0
 30
0.0
 11
210.0
 21
15.0
 31
0.0
  0
LINE
  5
F7
330
DD
100
AcDbEntity
  8
0
  6
Continuous
 62
     1
370
    25
100
AcDbLine
 10
12.5
 20
151.0
 30
0.0
 11
12.5
 21
146.0
 31
0.0
  0
LINE
  5
F8
330
DD
100
AcDbEntity
  8
0
  6
Continuous
 62
     1
370
    25
100
AcDbLine
 10
12.5
 20
146.0
 30
0.0
 11
7.5
 21
148.5
 31
0.0
  0
LINE
  5
F9
330
DD
100
AcDbEntity
  8
0
  6
Continuous
 62
     1
370
    25
100
AcDbLine
 10
7.5
 20
148.5
 30
0.0
 11
12.5
 21
151.0
 31
0.0
  0
LINE
  5
FA
330
DD
100
AcDbEntity
  8
0
  6
Continuous
 62
     1
370
    25
100
AcDbLine
 10
210.0
 20
7.5
 30
0.0
 11
207.5
 21
12.5
 31
0.0
  0
LINE
  5
FB
330
DD
100
AcDbEntity
  8
0
  6
Continuous
 62
     1
370
    25
100
AcDbLine
 10
207.5
 20
12.5
 30
0.0
 11
212.5
 21
12.5
 31
0.0
  0
LINE
  5
FC
330
DD
100
AcDbEntity
  8
0
  6
Continuous
 62
     1
370
    25
100
AcDbLine
 10
212.5
 20
12.5
 30
0.0
 11
210.0
 21
7.5
 31
0.0
  0
LINE
  5
FD
330
DD
100
AcDbEntity
  8
0
  6
Continuous
 62
     1
370
    25
100
AcDbLine
 10
10.0
 20
194.5
 30
0.0
 11
5.0
 21
194.5
 31
0.0
  0
LINE
  5
FE
330
DD
100
AcDbEntity
  8
0
  6
Continuous
 62
     1
370
    25
100
AcDbLine
 10
10.0
 20
240.5
 30
0.0
 11
5.0
 21
240.5
 31
0.0
  0
LINE
  5
FF
330
DD
100
AcDbEntity
  8
0
  6
Continuous
 62
     1
370
    25
100
AcDbLine
 10
10.0
 20
102.5
 30
0.0
 11
5.0
 21
102.5
 31
0.0
  0
LINE
  5
100
330
DD
100
AcDbEntity
  8
0
  6
Continuous
 62
     1
370
    25
100
AcDbLine
 10
10.0
 20
56.5
 30
0.0
 11
5.0
 21
56.5
 31
0.0
  0
LINE
  5
101
330
DD
100
AcDbEntity
  8
0
  6
Continuous
 62
     1
370
    25
100
AcDbLine
 10
415.0
 20
240.5
 30
0.0
 11
410.0
 21
240.5
 31
0.0
  0
LINE
  5
102
330
DD
100
AcDbEntity
  8
0
  6
Continuous
 62
     1
370
    25
100
AcDbLine
 10
415.0
 20
194.5
 30
0.0
 11
410.0
 21
194.5
 31
0.0
  0
LINE
  5
103
330
DD
100
AcDbEntity
  8
0
  6
Continuous
 62
     1
370
    25
100
AcDbLine
 10
415.0
 20
102.5
 30
0.0
 11
410.0
 21
102.5
 31
0.0
  0
LINE
  5
104
330
DD
100
AcDbEntity
  8
0
  6
Continuous
 62
     1
370
    25
100
AcDbLine
 10
415.0
 20
56.5
 30
0.0
 11
410.0
 21
56.5
 31
0.0
  0
LINE
  5
105
330
DD
100
AcDbEntity
  8
0
  6
Continuous
 62
     1
370
    25
100
AcDbLine
 10
110.0
 20
287.0
 30
0.0
 11
110.0
 21
292.0
 31
0.0
  0
LINE
  5
106
330
DD
100
AcDbEntity
  8
0
  6
Continuous
 62
     1
370
    25
100
AcDbLine
 10
160.0
 20
287.0
 30
0.0
 11
160.0
 21
292.0
 31
0.0
  0
LINE
  5
107
330
DD
100
AcDbEntity
  8
0
  6
Continuous
 62
     1
370
    25
100
AcDbLine
 10
60.0
 20
287.0
 30
0.0
 11
60.0
 21
292.0
 31
0.0
  0
LINE
  5
108
330
DD
100
AcDbEntity
  8
0
  6
Continuous
 62
     1
370
    25
100
AcDbLine
 10
260.0
 20
287.0
 30
0.0
 11
260.0
 21
292.0
 31
0.0
  0
LINE
  5
109
330
DD
100
AcDbEntity
  8
0
  6
Continuous
 62
     1
370
    25
100
AcDbLine
 10
310.0
 20
287.0
 30
0.0
 11
310.0
 21
292.0
 31
0.0
  0
LINE
  5
10A
330
DD
100
AcDbEntity
  8
0
  6
Continuous
 62
     1
370
    25
100
AcDbLine
 10
360.0
 20
287.0
 30
0.0
 11
360.0
 21
292.0
 31
0.0
  0
LINE
  5
10B
330
DD
100
AcDbEntity
  8
0
  6
Continuous
 62
     1
370
    25
100
AcDbLine
 10
60.0
 20
5.0
 30
0.0
 11
60.0
 21
10.0
 31
0.0
  0
LINE
  5
10C
330
DD
100
AcDbEntity
  8
0
  6
Continuous
 62
     1
370
    25
100
AcDbLine
 10
110.0
 20
5.0
 30
0.0
 11
110.0
 21
10.0
 31
0.0
  0
LINE
  5
10D
330
DD
100
AcDbEntity
  8
0
  6
Continuous
 62
     1
370
    25
100
AcDbLine
 10
310.0
 20
5.0
 30
0.0
 11
310.0
 21
10.0
 31
0.0
  0
LINE
  5
10E
330
DD
100
AcDbEntity
  8
0
  6
Continuous
 62
     1
370
    25
100
AcDbLine
 10
360.0
 20
5.0
 30
0.0
 11
360.0
 21
10.0
 31
0.0
  0
LINE
  5
10F
330
DD
100
AcDbEntity
  8
0
  6
Continuous
 62
     1
370
    25
100
AcDbLine
 10
0.0
 20
297.0
 30
0.0
 11
420.0
 21
297.0
 31
0.0
  0
LINE
  5
110
330
DD
100
AcDbEntity
  8
0
  6
Continuous
 62
     1
370
    25
100
AcDbLine
 10
420.0
 20
297.0
 30
0.0
 11
420.0
 21
0.0
 31
0.0
  0
LINE
  5
111
330
DD
100
AcDbEntity
  8
0
  6
Continuous
 62
     1
370
    25
100
AcDbLine
 10
420.0
 20
0.0
 30
0.0
 11
0.0
 21
0.0
 31
0.0
  0
LINE
  5
112
330
DD
100
AcDbEntity
  8
0
  6
Continuous
 62
     1
370
    25
100
AcDbLine
 10
0.0
 20
0.0
 30
0.0
 11
0.0
 21
297.0
 31
0.0
  0
LINE
  5
113
330
DD
100
AcDbEntity
  8
0
  6
Continuous
 62
     3
370
    18
100
AcDbLine
 10
410.0
 20
287.0
 30
0.0
 11
10.0
 21
287.0
 31
0.0
  0
LINE
  5
114
330
DD
100
AcDbEntity
  8
0
  6
Continuous
 62
     3
370
    18
100
AcDbLine
 10
10.0
 20
287.0
 30
0.0
 11
10.0
 21
10.0
 31
0.0
  0
LINE
  5
115
330
DD
100
AcDbEntity
  8
0
  6
Continuous
 62
     3
370
    18
100
AcDbLine
 10
410.0
 20
10.0
 30
0.0
 11
410.0
 21
287.0
 31
0.0
  0
LINE
  5
116
330
DD
100
AcDbEntity
  8
0
  6
Continuous
 62
     3
370
    18
100
AcDbLine
 10
10.0
 20
10.0
 30
0.0
 11
410.0
 21
10.0
 31
0.0
  0
MTEXT
  5
117
330
DD
100
AcDbEntity
  8
치수선
100
AcDbMText
 10
7.512500030919909
 20
264.2673817990807
 30
0.0
 40
4.0
 41
0.0
 71
     2
 72
     1
  1
A
  7
SLDTEXTSTYLE4
 73
     1
 44
1.0
  0
MTEXT
  5
118
330
DD
100
AcDbEntity
  8
치수선
100
AcDbMText
 10
7.462500040419398
 20
218.2673817990806
 30
0.0
 40
4.0
 41
0.0
 71
     2
 72
     1
  1
B
  7
SLDTEXTSTYLE4
 73
     1
 44
1.0
  0
MTEXT
  5
119
330
DD
100
AcDbEntity
  8
치수선
100
AcDbMText
 10
7.475000049918889
 20
172.2673817990806
 30
0.0
 40
4.0
 41
0.0
 71
     2
 72
     1
  1
C
  7
SLDTEXTSTYLE4
 73
     1
 44
1.0
  0
MTEXT
  5
11A
330
DD
100
AcDbEntity
  8
치수선
100
AcDbMText
 10
7.462500040419398
 20
126.2673817990806
 30
0.0
 40
4.0
 41
0.0
 71
     2
 72
     1
  1
D
  7
SLDTEXTSTYLE4
 73
     1
 44
1.0
  0
MTEXT
  5
11B
330
DD
100
AcDbEntity
  8
치수선
100
AcDbMText
 10
7.475000049918889
 20
80.26738179908062
 30
0.0
 40
4.0
 41
0.0
 71
     2
 72
     1
  1
E
  7
SLDTEXTSTYLE4
 73
     1
 44
1.0
  0
MTEXT
  5
11C
330
DD
100
AcDbEntity
  8
치수선
100
AcDbMText
 10
7.475000049918889
 20
34.26738179908062
 30
0.0
 40
4.0
 41
0.0
 71
     2
 72
     1
  1
F
  7
SLDTEXTSTYLE4
 73
     1
 44
1.0
  0
MTEXT
  5
11D
330
DD
100
AcDbEntity
  8
치수선
100
AcDbMText
 10
412.5125000309199
 20
264.2673817990807
 30
0.0
 40
4.0
 41
0.0
 71
     2
 72
     1
  1
A
  7
SLDTEXTSTYLE4
 73
     1
 44
1.0
  0
MTEXT
  5
11E
330
DD
100
AcDbEntity
  8
치수선
100
AcDbMText
 10
412.4625000404194
 20
218.2673817990806
 30
0.0
 40
4.0
 41
0.0
 71
     2
 72
     1
  1
B
  7
SLDTEXTSTYLE4
 73
     1
 44
1.0
  0
MTEXT
  5
11F
330
DD
100
AcDbEntity
  8
치수선
100
AcDbMText
 10
412.4750000499189
 20
172.2673817990806
 30
0.0
 40
4.0
 41
0.0
 71
     2
 72
     1
  1
C
  7
SLDTEXTSTYLE4
 73
     1
 44
1.0
  0
MTEXT
  5
120
330
DD
100
AcDbEntity
  8
치수선
100
AcDbMText
 10
412.4625000404194
 20
126.2673817990806
 30
0.0
 40
4.0
 41
0.0
 71
     2
 72
     1
  1
D
  7
SLDTEXTSTYLE4
 73
     1
 44
1.0
  0
MTEXT
  5
121
330
DD
100
AcDbEntity
  8
치수선
100
AcDbMText
 10
412.4750000499189
 20
80.26738179908062
 30
0.0
 40
4.0
 41
0.0
 71
     2
 72
     1
  1
E
  7
SLDTEXTSTYLE4
 73
     1
 44
1.0
  0
MTEXT
  5
122
330
DD
100
AcDbEntity
  8
치수선
100
AcDbMText
 10
412.4750000499189
 20
34.26738179908062
 30
0.0
 40
4.0
 41
0.0
 71
     2
 72
     1
  1
F
  7
SLDTEXTSTYLE4
 73
     1
 44
1.0
  0
MTEXT
  5
123
330
DD
100
AcDbEntity
  8
치수선
100
AcDbMText
 10
84.9750000499189
 20
290.2673817990806
 30
0.0
 40
4.0
 41
0.0
 71
     2
 72
     1
  1
2
  7
SLDTEXTSTYLE4
 73
     1
 44
1.0
  0
MTEXT
  5
124
330
DD
100
AcDbEntity
  8
치수선
100
AcDbMText
 10
34.99999995250256
 20
290.2673817990806
 30
0.0
 40
4.0
 41
0.0
 71
     2
 72
     1
  1
1
  7
SLDTEXTSTYLE4
 73
     1
 44
1.0
  0
MTEXT
  5
125
330
DD
100
AcDbEntity
  8
치수선
100
AcDbMText
 10
134.9750000499189
 20
290.2673817990806
 30
0.0
 40
4.0
 41
0.0
 71
     2
 72
     1
  1
3
  7
SLDTEXTSTYLE4
 73
     1
 44
1.0
  0
MTEXT
  5
126
330
DD
100
AcDbEntity
  8
치수선
100
AcDbMText
 10
184.9625000404194
 20
290.2673817990806
 30
0.0
 40
4.0
 41
0.0
 71
     2
 72
     1
  1
4
  7
SLDTEXTSTYLE4
 73
     1
 44
1.0
  0
MTEXT
  5
127
330
DD
100
AcDbEntity
  8
치수선
100
AcDbMText
 10
234.9750000499189
 20
290.2673817990806
 30
0.0
 40
4.0
 41
0.0
 71
     2
 72
     1
  1
5
  7
SLDTEXTSTYLE4
 73
     1
 44
1.0
  0
MTEXT
  5
128
330
DD
100
AcDbEntity
  8
치수선
100
AcDbMText
 10
284.9750000499189
 20
290.2673817990806
 30
0.0
 40
4.0
 41
0.0
 71
     2
 72
     1
  1
6
  7
SLDTEXTSTYLE4
 73
     1
 44
1.0
  0
MTEXT
  5
129
330
DD
100
AcDbEntity
  8
치수선
100
AcDbMText
 10
334.9750000499189
 20
290.2673817990806
 30
0.0
 40
4.0
 41
0.0
 71
     2
 72
     1
  1
7
  7
SLDTEXTSTYLE4
 73
     1
 44
1.0
  0
MTEXT
  5
12A
330
DD
100
AcDbEntity
  8
치수선
100
AcDbMText
 10
384.9750000499189
 20
290.2673817990806
 30
0.0
 40
4.0
 41
0.0
 71
     2
 72
     1
  1
8
  7
SLDTEXTSTYLE4
 73
     1
 44
1.0
  0
MTEXT
  5
12B
330
DD
100
AcDbEntity
  8
치수선
100
AcDbMText
 10
34.99999995250256
 20
8.267381799080622
 30
0.0
 40
4.0
 41
0.0
 71
     2
 72
     1
  1
1
  7
SLDTEXTSTYLE4
 73
     1
 44
1.0
  0
MTEXT
  5
12C
330
DD
100
AcDbEntity
  8
치수선
100
AcDbMText
 10
134.9750000499189
 20
8.267381799080622
 30
0.0
 40
4.0
 41
0.0
 71
     2
 72
     1
  1
3
  7
SLDTEXTSTYLE4
 73
     1
 44
1.0
  0
MTEXT
  5
12D
330
DD
100
AcDbEntity
  8
치수선
100
AcDbMText
 10
84.9750000499189
 20
8.267381799080622
 30
0.0
 40
4.0
 41
0.0
 71
     2
 72
     1
  1
2
  7
SLDTEXTSTYLE4
 73
     1
 44
1.0
  0
MTEXT
  5
12E
330
DD
100
AcDbEntity
  8
치수선
100
AcDbMText
 10
334.9750000499189
 20
8.267381799080622
 30
0.0
 40
4.0
 41
0.0
 71
     2
 72
     1
  1
7
  7
SLDTEXTSTYLE4
 73
     1
 44
1.0
  0
MTEXT
  5
12F
330
DD
100
AcDbEntity
  8
치수선
100
AcDbMText
 10
284.9750000499189
 20
8.267381799080622
 30
0.0
 40
4.0
 41
0.0
 71
     2
 72
     1
  1
6
  7
SLDTEXTSTYLE4
 73
     1
 44
1.0
  0
MTEXT
  5
130
330
DD
100
AcDbEntity
  8
치수선
100
AcDbMText
 10
384.9750000499189
 20
8.267381799080622
 30
0.0
 40
4.0
 41
0.0
 71
     2
 72
     1
  1
8
  7
SLDTEXTSTYLE4
 73
     1
 44
1.0
  0
ENDBLK
  5
DF
330
DD
100
AcDbEntity
  8
0
100
AcDbBlockEnd
  0
BLOCK
  5
132
330
131
100
AcDbEntity
  8
0
100
AcDbBlockBegin
  2
블록36
 70
     0
 10
0.0
 20
0.0
 30
0.0
  3
블록36
  1

  0
CIRCLE
  5
134
330
131
100
AcDbEntity
  8
강조선
100
AcDbCircle
 10
2.65293221729046
 20
5.197500000002359
 30
0.0
 40
0.4950000000000232
  0
ARC
  5
135
330
131
100
AcDbEntity
  8
강조선
100
AcDbCircle
 10
3.960000000002242
 20
3.960000000002545
 30
0.0
 40
3.375000000000077
100
AcDbArc
 50
86.1774462706771
 51
359.9999999999535
  0
ARC
  5
136
330
131
100
AcDbEntity
  8
강조선
100
AcDbCircle
 10
3.960000000002242
 20
3.960000000002545
 30
0.0
 40
2.918999999994534
100
AcDbArc
 50
85.57918789881052
 51
351.1317794642719
  0
CIRCLE
  5
137
330
131
100
AcDbEntity
  8
강조선
100
AcDbCircle
 10
3.960000000002242
 20
3.960000000002545
 30
0.0
 40
3.960000000002791
  0
LINE
  5
138
330
131
100
AcDbEntity
  8
강조선
100
AcDbLine
 10
6.844104887131805
 20
3.509999999998694
 30
0.0
 11
5.084999999997871
 21
3.509999999998694
 31
0.0
  0
LINE
  5
139
330
131
100
AcDbEntity
  8
강조선
100
AcDbLine
 10
5.084999999997871
 20
3.959999999999758
 30
0.0
 11
7.335000000002318
 21
3.959999999999758
 31
0.0
  0
LINE
  5
13A
330
131
100
AcDbEntity
  8
강조선
100
AcDbLine
 10
5.085000000005224
 20
2.722500000003813
 30
0.0
 11
5.085000000005224
 21
2.272500000003086
 31
0.0
  0
LINE
  5
13B
330
131
100
AcDbEntity
  8
강조선
100
AcDbLine
 10
5.084999999997871
 20
3.509999999998694
 30
0.0
 11
5.084999999997871
 21
3.959999999999758
 31
0.0
  0
LINE
  5
13C
330
131
100
AcDbEntity
  8
강조선
100
AcDbLine
 10
3.735000000005095
 20
2.272500000003086
 30
0.0
 11
3.735000000005095
 21
5.647500000003087
 31
0.0
  0
LINE
  5
13D
330
131
100
AcDbEntity
  8
강조선
100
AcDbLine
 10
4.185000000005101
 20
5.647500000003087
 30
0.0
 11
4.185000000005101
 21
2.722500000003813
 31
0.0
  0
LINE
  5
13E
330
131
100
AcDbEntity
  8
강조선
100
AcDbLine
 10
4.185000000005101
 20
7.327491648098979
 30
0.0
 11
4.185000000005101
 21
6.870315446816998
 31
0.0
  0
LINE
  5
13F
330
131
100
AcDbEntity
  8
강조선
100
AcDbLine
 10
3.735000000005095
 20
5.647500000003087
 30
0.0
 11
4.185000000005101
 21
5.647500000003087
 31
0.0
  0
LINE
  5
140
330
131
100
AcDbEntity
  8
강조선
100
AcDbLine
 10
4.185000000005101
 20
2.722500000003813
 30
0.0
 11
5.085000000005224
 21
2.722500000003813
 31
0.0
  0
LINE
  5
141
330
131
100
AcDbEntity
  8
강조선
100
AcDbLine
 10
5.085000000005224
 20
2.272500000003086
 30
0.0
 11
3.735000000005095
 21
2.272500000003086
 31
0.0
  0
MTEXT
  5
143
330
131
100
AcDbEntity
  8
TEXT3
100
AcDbMText
 10
8.680736754293484
 20
5.058984838288758
 30
0.0
 40
5.0
 41
0.0
 71
     1
 72
     1
  1
LG Electronics Inc.
  7
SLDTEXTSTYLE5
 73
     1
 44
1.0
  0
ENDBLK
  5
133
330
131
100
AcDbEntity
  8
0
100
AcDbBlockEnd
  0
BLOCK
  5
145
330
144
100
AcDbEntity
  8
0
100
AcDbBlockBegin
  2
블록37
 70
     0
 10
0.0
 20
0.0
 30
0.0
  3
블록37
  1

  0
LINE
  5
147
330
144
100
AcDbEntity
  8
일반
100
AcDbLine
 10
2.044278782372626
 20
8.540794715904427
 30
0.0
 11
0.0
 21
4.999999999999997
 31
0.0
  0
LINE
  5
148
330
144
100
AcDbEntity
  8
일반
100
AcDbLine
 10
0.0
 20
4.999999999999997
 30
0.0
 11
4.088557564747574
 21
4.999999999999997
 31
0.0
  0
LINE
  5
149
330
144
100
AcDbEntity
  8
일반
100
AcDbLine
 10
4.088557564747574
 20
4.999999999999997
 30
0.0
 11
2.044278782372626
 21
8.540794715904427
 31
0.0
  0
LINE
  5
14A
330
144
100
AcDbEntity
  8
일반
100
AcDbLine
 10
0.0
 20
0.0
 30
0.0
 11
4.088557564747574
 21
0.0
 31
0.0
  0
LINE
  5
14B
330
144
100
AcDbEntity
  8
일반
100
AcDbLine
 10
4.088557564747574
 20
0.0
 30
0.0
 11
2.044278782372623
 21
3.540794715904424
 31
0.0
  0
LINE
  5
14C
330
144
100
AcDbEntity
  8
일반
100
AcDbLine
 10
2.044278782372623
 20
3.540794715904424
 30
0.0
 11
0.0
 21
0.0
 31
0.0
  0
ENDBLK
  5
146
330
144
100
AcDbEntity
  8
0
100
AcDbBlockEnd
  0
BLOCK
  5
15B
330
15A
100
AcDbEntity
  8
0
100
AcDbBlockBegin
  2
SW_NOTE_0
 70
     0
 10
0.0
 20
0.0
 30
0.0
  3
SW_NOTE_0
  1

  0
MTEXT
  5
15E
330
15A
100
AcDbEntity
  8
일반
 62
     0
100
AcDbMText
 10
0.0
 20
4.092790073775991
 30
0.0
 40
3.174999999999999
 41
0.0
 71
     1
 72
     1
  1
- 주 기 -
  7
SLDTEXTSTYLE8
 73
     1
 44
1.0
  0
MTEXT
  5
160
330
15A
100
AcDbEntity
  8
일반
 62
     0
100
AcDbMText
 10
0.0
 20
-0.1405432083966887
 30
0.0
 40
3.174999999999999
 41
0.0
 71
     1
 72
     1
  1
1.거친 모서리 및 모든 Burr는 제거 할 것
  7
SLDTEXTSTYLE9
 73
     1
 44
1.0
  0
MTEXT
  5
161
330
15A
100
AcDbEntity
  8
일반
 62
     0
100
AcDbMText
 10
0.0
 20
-4.373876490569368
 30
0.0
 40
3.174999999999999
 41
0.0
 71
     1
 72
     1
  1
2.지시없는 모서리 C0.5이하로 할 것
  7
SLDTEXTSTYLE3
 73
     1
 44
1.0
  0
ENDBLK
  5
15C
330
15A
100
AcDbEntity
  8
0
100
AcDbBlockEnd
  0
BLOCK
  5
18E
330
18D
100
AcDbEntity
  8
0
100
AcDbBlockBegin
  2
SW_SFSYMBOL_0
 70
     0
 10
0.0
 20
0.0
 30
0.0
  3
SW_SFSYMBOL_0
  1

  0
LINE
  5
190
330
18D
100
AcDbEntity
  8
일반
 62
     0
100
AcDbLine
 10
0.0
 20
0.0
 30
0.0
 11
-3.250000000000002
 21
6.500000000000005
 31
0.0
  0
LINE
  5
191
330
18D
100
AcDbEntity
  8
일반
 62
     0
100
AcDbLine
 10
0.0
 20
0.0
 30
0.0
 11
3.249999999999996
 21
6.500000000000005
 31
0.0
  0
LINE
  5
192
330
18D
100
AcDbEntity
  8
일반
 62
     0
100
AcDbLine
 10
-3.250000000000002
 20
6.500000000000005
 30
0.0
 11
3.249999999999996
 21
6.500000000000005
 31
0.0
  0
LINE
  5
193
330
18D
100
AcDbEntity
  8
일반
 62
     0
100
AcDbLine
 10
-6.500000000000002
 20
0.0
 30
0.0
 11
-9.750000000000002
 21
6.500000000000005
 31
0.0
  0
LINE
  5
194
330
18D
100
AcDbEntity
  8
일반
 62
     0
100
AcDbLine
 10
-6.500000000000002
 20
0.0
 30
0.0
 11
-3.250000000000002
 21
6.500000000000005
 31
0.0
  0
LINE
  5
195
330
18D
100
AcDbEntity
  8
일반
 62
     0
100
AcDbLine
 10
-9.750000000000002
 20
6.500000000000005
 30
0.0
 11
-3.250000000000002
 21
6.500000000000005
 31
0.0
  0
ENDBLK
  5
18F
330
18D
100
AcDbEntity
  8
0
100
AcDbBlockEnd
  0
BLOCK
  5
1CD
330
1CC
100
AcDbEntity
  8
0
100
AcDbBlockBegin
  2
_NONE
 70
     0
 10
0.0
 20
0.0
 30
0.0
  3
_NONE
  1

  0
ENDBLK
  5
1CE
330
1CC
100
AcDbEntity
  8
0
100
AcDbBlockEnd
  0
BLOCK
  5
1D0
330
1CF
100
AcDbEntity
  8
0
100
AcDbBlockBegin
  2
_D
 70
     0
 10
0.0
 20
0.0
 30
0.0
  3
_D
  1

  0
SOLID
  5
1D2
330
1CF
100
AcDbEntity
  8
DIM
100
AcDbTrace
 10
151.9865944390891
 20
126.7021369370802
 30
0.0
 11
151.5883171941443
 21
128.5025189065964
 31
0.0
 12
150.8632873948145
 22
128.1643890645477
 32
0.0
 13
150.8632873948145
 23
128.1643890645477
 33
0.0
  0
LINE
  5
1D3
330
1CF
100
AcDbEntity
  8
DIM
100
AcDbLine
 10
151.9865944390891
 20
126.7021369370802
 30
0.0
 11
139.9957151425649
 21
152.4133984970485
 31
0.0
  0
LINE
  5
1D4
330
1CF
100
AcDbEntity
  8
DIM
100
AcDbLine
 10
158.9605224313442
 20
111.7483973259047
 30
0.0
 11
151.9865944390891
 21
126.7021369370802
 31
0.0
  0
LINE
  5
1D5
330
1CF
100
AcDbEntity
  8
DIM
100
AcDbLine
 10
139.9957151425649
 20
152.4133984970485
 30
0.0
 11
105.8165481162836
 21
152.4133984970485
 31
0.0
  0
MTEXT
  5
1D6
330
1CF
100
AcDbEntity
  8
DIM
100
AcDbMText
 10
105.8165481162836
 20
156.2806017163643
 30
0.0
 40
3.0
 41
0.0
 71
     1
 72
     1
  1
M18X1.5 Tap DP 15
  7
SLDTEXTSTYLE4
 73
     1
 44
1.0
  0
ENDBLK
  5
1D1
330
1CF
100
AcDbEntity
  8
0
100
AcDbBlockEnd
  0
BLOCK
  5
1DA
330
1D9
100
AcDbEntity
  8
0
100
AcDbBlockBegin
  2
_D_1
 70
     0
 10
0.0
 20
0.0
 30
0.0
  3
_D_1
  1

  0
SOLID
  5
1DC
330
1D9
100
AcDbEntity
  8
DIM
100
AcDbTrace
 10
189.9735584352167
 20
141.2252671314925
 30
0.0
 11
189.5735584352167
 21
139.4252671314925
 31
0.0
 12
190.3735584352167
 22
139.4252671314925
 32
0.0
 13
190.3735584352167
 23
139.4252671314925
 33
0.0
  0
SOLID
  5
1DD
330
1D9
100
AcDbEntity
  8
DIM
100
AcDbTrace
 10
189.9735584352167
 20
97.2252671314925
 30
0.0
 11
190.3735584352167
 21
99.02526713149248
 31
0.0
 12
189.5735584352167
 22
99.02526713149248
 32
0.0
 13
189.5735584352167
 23
99.02526713149248
 33
0.0
  0
LINE
  5
1DE
330
1D9
100
AcDbEntity
  8
DIM
100
AcDbLine
 10
180.9735584352167
 20
141.2252671314925
 30
0.0
 11
190.9735584352167
 21
141.2252671314925
 31
0.0
  0
LINE
  5
1DF
330
1D9
100
AcDbEntity
  8
DIM
100
AcDbLine
 10
180.9735584352167
 20
97.2252671314925
 30
0.0
 11
190.9735584352167
 21
97.2252671314925
 31
0.0
  0
LINE
  5
1E0
330
1D9
100
AcDbEntity
  8
DIM
100
AcDbLine
 10
189.9735584352167
 20
141.2252671314925
 30
0.0
 11
189.9735584352167
 21
97.2252671314925
 31
0.0
  0
MTEXT
  5
1E1
330
1D9
100
AcDbEntity
  8
DIM
100
AcDbMText
 10
186.1063552159007
 20
117.2169337949305
 30
0.0
 40
3.0
 41
0.0
 71
     1
 72
     1
  1
44
  7
SLDTEXTSTYLE4
 11
-7.000000000000000E-15
 21
1.0
 31
0.0
 73
     1
 44
1.0
  0
ENDBLK
  5
1DB
330
1D9
100
AcDbEntity
  8
0
100
AcDbBlockEnd
  0
BLOCK
  5
1E4
330
1E3
100
AcDbEntity
  8
0
100
AcDbBlockBegin
  2
_D_2
 70
     0
 10
0.0
 20
0.0
 30
0.0
  3
_D_2
  1

  0
SOLID
  5
1E6
330
1E3
100
AcDbEntity
  8
DIM
100
AcDbTrace
 10
130.9735584352167
 20
87.22526713149249
 30
0.0
 11
132.7735584352167
 21
86.82526713149247
 31
0.0
 12
132.7735584352167
 22
87.62526713149246
 32
0.0
 13
132.7735584352167
 23
87.62526713149246
 33
0.0
  0
SOLID
  5
1E7
330
1E3
100
AcDbEntity
  8
DIM
100
AcDbTrace
 10
179.9735584352166
 20
87.22526713149249
 30
0.0
 11
178.1735584352166
 21
87.62526713149246
 31
0.0
 12
178.1735584352166
 22
86.82526713149247
 32
0.0
 13
178.1735584352166
 23
86.82526713149247
 33
0.0
  0
LINE
  5
1E8
330
1E3
100
AcDbEntity
  8
DIM
100
AcDbLine
 10
130.9735584352167
 20
96.22526713149249
 30
0.0
 11
130.9735584352167
 21
86.22526713149246
 31
0.0
  0
LINE
  5
1E9
330
1E3
100
AcDbEntity
  8
DIM
100
AcDbLine
 10
179.9735584352166
 20
96.22526713149249
 30
0.0
 11
179.9735584352166
 21
86.22526713149246
 31
0.0
  0
LINE
  5
1EA
330
1E3
100
AcDbEntity
  8
DIM
100
AcDbLine
 10
130.9735584352167
 20
87.22526713149249
 30
0.0
 11
179.9735584352166
 21
87.22526713149249
 31
0.0
  0
MTEXT
  5
1EB
330
1E3
100
AcDbEntity
  8
DIM
100
AcDbMText
 10
153.4652250986547
 20
91.09247035080836
 30
0.0
 40
3.0
 41
0.0
 71
     1
 72
     1
  1
49
  7
SLDTEXTSTYLE4
 73
     1
 44
1.0
  0
ENDBLK
  5
1E5
330
1E3
100
AcDbEntity
  8
0
100
AcDbBlockEnd
  0
BLOCK
  5
1ED
330
1EC
100
AcDbEntity
  8
0
100
AcDbBlockBegin
  2
SW_CENTERMARKSYMBOL_0
 70
     0
 10
0.0
 20
0.0
 30
0.0
  3
SW_CENTERMARKSYMBOL_0
  1

  0
LINE
  5
1EF
330
1EC
100
AcDbEntity
  8
CEN
 62
     0
100
AcDbLine
 10
0.0
 20
0.0
 30
0.0
 11
0.0
 21
2.500000000000002
 31
0.0
  0
LINE
  5
1F0
330
1EC
100
AcDbEntity
  8
CEN
 62
     0
100
AcDbLine
 10
0.0
 20
0.0
 30
0.0
 11
-2.500000000000002
 21
0.0
 31
0.0
  0
LINE
  5
1F1
330
1EC
100
AcDbEntity
  8
CEN
 62
     0
100
AcDbLine
 10
0.0
 20
0.0
 30
0.0
 11
0.0
 21
-2.500000000000002
 31
0.0
  0
LINE
  5
1F2
330
1EC
100
AcDbEntity
  8
CEN
 62
     0
100
AcDbLine
 10
0.0
 20
0.0
 30
0.0
 11
2.500000000000002
 21
0.0
 31
0.0
  0
LINE
  5
1F3
330
1EC
100
AcDbEntity
  8
CEN
 62
     0
100
AcDbLine
 10
0.0
 20
5.000000000000004
 30
0.0
 11
0.0
 21
10.74999999999999
 31
0.0
  0
LINE
  5
1F4
330
1EC
100
AcDbEntity
  8
CEN
 62
     0
100
AcDbLine
 10
-5.000000000000004
 20
0.0
 30
0.0
 11
-10.75000000000001
 21
0.0
 31
0.0
  0
LINE
  5
1F5
330
1EC
100
AcDbEntity
  8
CEN
 62
     0
100
AcDbLine
 10
0.0
 20
-5.000000000000004
 30
0.0
 11
0.0
 21
-10.74999999999999
 31
0.0
  0
LINE
  5
1F6
330
1EC
100
AcDbEntity
  8
CEN
 62
     0
100
AcDbLine
 10
5.000000000000004
 20
0.0
 30
0.0
 11
10.75000000000001
 21
0.0
 31
0.0
  0
ENDBLK
  5
1EE
330
1EC
100
AcDbEntity
  8
0
100
AcDbBlockEnd
  0
BLOCK
  5
214
330
213
100
AcDbEntity
  8
0
100
AcDbBlockBegin
  2
_D_3
 70
     0
 10
0.0
 20
0.0
 30
0.0
  3
_D_3
  1

  0
SOLID
  5
216
330
213
100
AcDbEntity
  8
DIM
100
AcDbTrace
 10
146.4735584352166
 20
237.5681047637567
 30
0.0
 11
148.2735584352166
 21
237.1681047637567
 31
0.0
 12
148.2735584352166
 22
237.9681047637567
 32
0.0
 13
148.2735584352166
 23
237.9681047637567
 33
0.0
  0
SOLID
  5
217
330
213
100
AcDbEntity
  8
DIM
100
AcDbTrace
 10
164.4735584352166
 20
237.5681047637567
 30
0.0
 11
162.6735584352166
 21
237.9681047637567
 31
0.0
 12
162.6735584352166
 22
237.1681047637567
 32
0.0
 13
162.6735584352166
 23
237.1681047637567
 33
0.0
  0
LINE
  5
218
330
213
100
AcDbEntity
  8
DIM
100
AcDbLine
 10
146.4735584352166
 20
228.0681047637566
 30
0.0
 11
146.4735584352166
 21
238.5681047637568
 31
0.0
  0
LINE
  5
219
330
213
100
AcDbEntity
  8
DIM
100
AcDbLine
 10
164.4735584352166
 20
228.0681047637566
 30
0.0
 11
164.4735584352166
 21
238.5681047637568
 31
0.0
  0
LINE
  5
21A
330
213
100
AcDbEntity
  8
DIM
100
AcDbLine
 10
146.4735584352166
 20
237.5681047637567
 30
0.0
 11
164.4735584352166
 21
237.5681047637567
 31
0.0
  0
MTEXT
  5
21B
330
213
100
AcDbEntity
  8
DIM
100
AcDbMText
 10
153.4652250986547
 20
241.4353079830726
 30
0.0
 40
3.0
 41
0.0
 71
     1
 72
     1
  1
18
  7
SLDTEXTSTYLE4
 73
     1
 44
1.0
  0
ENDBLK
  5
215
330
213
100
AcDbEntity
  8
0
100
AcDbBlockEnd
  0
BLOCK
  5
21E
330
21D
100
AcDbEntity
  8
0
100
AcDbBlockBegin
  2
_D_4
 70
     0
 10
0.0
 20
0.0
 30
0.0
  3
_D_4
  1

  0
SOLID
  5
220
330
21D
100
AcDbEntity
  8
DIM
100
AcDbTrace
 10
120.9735584352166
 20
227.5681047637566
 30
0.0
 11
120.5735584352165
 21
225.7681047637566
 31
0.0
 12
121.3735584352166
 22
225.7681047637566
 32
0.0
 13
121.3735584352166
 23
225.7681047637566
 33
0.0
  0
SOLID
  5
221
330
21D
100
AcDbEntity
  8
DIM
100
AcDbTrace
 10
120.9735584352166
 20
181.5681047637566
 30
0.0
 11
121.3735584352166
 21
183.3681047637566
 31
0.0
 12
120.5735584352165
 22
183.3681047637566
 32
0.0
 13
120.5735584352165
 23
183.3681047637566
 33
0.0
  0
LINE
  5
222
330
21D
100
AcDbEntity
  8
DIM
100
AcDbLine
 10
131.9735584352166
 20
227.5681047637566
 30
0.0
 11
119.9735584352166
 21
227.5681047637566
 31
0.0
  0
LINE
  5
223
330
21D
100
AcDbEntity
  8
DIM
100
AcDbLine
 10
131.9735584352166
 20
181.5681047637566
 30
0.0
 11
119.9735584352166
 21
181.5681047637566
 31
0.0
  0
LINE
  5
224
330
21D
100
AcDbEntity
  8
DIM
100
AcDbLine
 10
120.9735584352166
 20
227.5681047637566
 30
0.0
 11
120.9735584352166
 21
181.5681047637566
 31
0.0
  0
MTEXT
  5
225
330
21D
100
AcDbEntity
  8
DIM
100
AcDbMText
 10
117.1063552159007
 20
202.5597714271946
 30
0.0
 40
3.0
 41
0.0
 71
     1
 72
     1
  1
46
  7
SLDTEXTSTYLE4
 11
-7.000000000000000E-15
 21
1.0
 31
0.0
 73
     1
 44
1.0
  0
ENDBLK
  5
21F
330
21D
100
AcDbEntity
  8
0
100
AcDbBlockEnd
  0
BLOCK
  5
228
330
227
100
AcDbEntity
  8
0
100
AcDbBlockBegin
  2
_D_5
 70
     0
 10
0.0
 20
0.0
 30
0.0
  3
_D_5
  1

  0
SOLID
  5
22A
330
227
100
AcDbEntity
  8
DIM
100
AcDbTrace
 10
139.9735584352166
 20
171.5681047637566
 30
0.0
 11
141.7735584352166
 21
171.1681047637566
 31
0.0
 12
141.7735584352166
 22
171.9681047637566
 32
0.0
 13
141.7735584352166
 23
171.9681047637566
 33
0.0
  0
SOLID
  5
22B
330
227
100
AcDbEntity
  8
DIM
100
AcDbTrace
 10
170.9735584352166
 20
171.5681047637566
 30
0.0
 11
169.1735584352166
 21
171.9681047637566
 31
0.0
 12
169.1735584352166
 22
171.1681047637566
 32
0.0
 13
169.1735584352166
 23
171.1681047637566
 33
0.0
  0
LINE
  5
22C
330
227
100
AcDbEntity
  8
DIM
100
AcDbLine
 10
139.9735584352166
 20
204.5681047637566
 30
0.0
 11
139.9735584352166
 21
170.5681047637566
 31
0.0
  0
LINE
  5
22D
330
227
100
AcDbEntity
  8
DIM
100
AcDbLine
 10
170.9735584352166
 20
204.5681047637566
 30
0.0
 11
170.9735584352166
 21
170.5681047637566
 31
0.0
  0
LINE
  5
22E
330
227
100
AcDbEntity
  8
DIM
100
AcDbLine
 10
139.9735584352166
 20
171.5681047637566
 30
0.0
 11
170.9735584352166
 21
171.5681047637566
 31
0.0
  0
MTEXT
  5
22F
330
227
100
AcDbEntity
  8
DIM
100
AcDbMText
 10
153.4652250986547
 20
175.4353079830725
 30
0.0
 40
3.0
 41
0.0
 71
     1
 72
     1
  1
31
  7
SLDTEXTSTYLE4
 73
     1
 44
1.0
  0
ENDBLK
  5
229
330
227
100
AcDbEntity
  8
0
100
AcDbBlockEnd
  0
BLOCK
  5
233
330
232
100
AcDbEntity
  8
0
100
AcDbBlockBegin
  2
_D_6
 70
     0
 10
0.0
 20
0.0
 30
0.0
  3
_D_6
  1

  0
SOLID
  5
235
330
232
100
AcDbEntity
  8
DIM
100
AcDbTrace
 10
189.9735584352166
 20
217.5681047637566
 30
0.0
 11
190.3735584352166
 21
219.3681047637566
 31
0.0
 12
189.5735584352165
 22
219.3681047637566
 32
0.0
 13
189.5735584352165
 23
219.3681047637566
 33
0.0
  0
SOLID
  5
236
330
232
100
AcDbEntity
  8
DIM
100
AcDbTrace
 10
189.9735584352166
 20
205.5681047637566
 30
0.0
 11
189.5735584352165
 21
203.7681047637566
 31
0.0
 12
190.3735584352166
 22
203.7681047637566
 32
0.0
 13
190.3735584352166
 23
203.7681047637566
 33
0.0
  0
LINE
  5
237
330
232
100
AcDbEntity
  8
DIM
100
AcDbLine
 10
171.9735584352166
 20
217.5681047637566
 30
0.0
 11
190.9735584352165
 21
217.5681047637566
 31
0.0
  0
LINE
  5
238
330
232
100
AcDbEntity
  8
DIM
100
AcDbLine
 10
171.9735584352166
 20
205.5681047637566
 30
0.0
 11
190.9735584352165
 21
205.5681047637566
 31
0.0
  0
LINE
  5
239
330
232
100
AcDbEntity
  8
DIM
100
AcDbLine
 10
189.9735584352166
 20
217.5681047637566
 30
0.0
 11
189.9735584352166
 21
220.0681047637566
 31
0.0
  0
LINE
  5
23A
330
232
100
AcDbEntity
  8
DIM
100
AcDbLine
 10
189.9735584352166
 20
217.5681047637566
 30
0.0
 11
189.9735584352166
 21
205.5681047637566
 31
0.0
  0
LINE
  5
23B
330
232
100
AcDbEntity
  8
DIM
100
AcDbLine
 10
189.9735584352166
 20
205.5681047637566
 30
0.0
 11
189.9735584352166
 21
203.0681047637566
 31
0.0
  0
MTEXT
  5
23C
330
232
100
AcDbEntity
  8
DIM
100
AcDbMText
 10
186.1063552159007
 20
206.6347712737127
 30
0.0
 40
3.0
 41
0.0
 71
     1
 72
     1
  1
12
  7
SLDTEXTSTYLE4
 11
-7.000000000000000E-15
 21
1.0
 31
0.0
 73
     1
 44
1.0
  0
MTEXT
  5
23D
330
232
100
AcDbEntity
  8
DIM
100
AcDbMText
 10
186.1063552159007
 20
211.7764379468365
 30
0.0
 40
3.0
 41
0.0
 71
     1
 72
     1
  1

  7
SLDTEXTSTYLE4
 11
-7.000000000000000E-15
 21
1.0
 31
0.0
 73
     1
 44
1.0
  0
MTEXT
  5
23E
330
232
100
AcDbEntity
  8
DIM
100
AcDbMText
 10
186.0441234677626
 20
211.8139380675359
 30
0.0
 40
1.5
 41
0.0
 71
     1
 72
     1
  1
+
  7
SLDTEXTSTYLE4
 11
-7.000000000000000E-15
 21
1.0
 31
0.0
 73
     1
 44
1.0
  0
MTEXT
  5
23F
330
232
100
AcDbEntity
  8
DIM
100
AcDbMText
 10
187.7920401531799
 20
212.6316463844935
 30
0.0
 40
1.5
 41
0.0
 71
     1
 72
     1
  1

  7
SLDTEXTSTYLE4
 11
-7.000000000000000E-15
 21
1.0
 31
0.0
 73
     1
 44
1.0
  0
MTEXT
  5
240
330
232
100
AcDbEntity
  8
DIM
100
AcDbMText
 10
186.0441234677626
 20
212.9056045871778
 30
0.0
 40
1.5
 41
0.0
 71
     1
 72
     1
  1
0.10
  7
SLDTEXTSTYLE4
 11
-7.000000000000000E-15
 21
1.0
 31
0.0
 73
     1
 44
1.0
  0
MTEXT
  5
241
330
232
100
AcDbEntity
  8
DIM
100
AcDbMText
 10
187.7920401531799
 20
212.9056045871778
 30
0.0
 40
1.5
 41
0.0
 71
     1
 72
     1
  1
0
  7
SLDTEXTSTYLE4
 11
-7.000000000000000E-15
 21
1.0
 31
0.0
 73
     1
 44
1.0
  0
ENDBLK
  5
234
330
232
100
AcDbEntity
  8
0
100
AcDbBlockEnd
  0
BLOCK
  5
244
330
243
100
AcDbEntity
  8
0
100
AcDbBlockBegin
  2
_D_7
 70
     0
 10
0.0
 20
0.0
 30
0.0
  3
_D_7
  1

  0
SOLID
  5
246
330
243
100
AcDbEntity
  8
DIM
100
AcDbTrace
 10
189.9735584352166
 20
205.5681047637566
 30
0.0
 11
189.5735584352166
 21
203.7681047637566
 31
0.0
 12
190.3735584352166
 22
203.7681047637566
 32
0.0
 13
190.3735584352166
 23
203.7681047637566
 33
0.0
  0
SOLID
  5
247
330
243
100
AcDbEntity
  8
DIM
100
AcDbTrace
 10
189.9735584352166
 20
181.5681047637566
 30
0.0
 11
190.3735584352166
 21
183.3681047637566
 31
0.0
 12
189.5735584352166
 22
183.3681047637566
 32
0.0
 13
189.5735584352166
 23
183.3681047637566
 33
0.0
  0
LINE
  5
248
330
243
100
AcDbEntity
  8
DIM
100
AcDbLine
 10
171.9735584352166
 20
205.5681047637566
 30
0.0
 11
190.9735584352166
 21
205.5681047637566
 31
0.0
  0
LINE
  5
249
330
243
100
AcDbEntity
  8
DIM
100
AcDbLine
 10
178.9735584352166
 20
181.5681047637566
 30
0.0
 11
190.9735584352166
 21
181.5681047637566
 31
0.0
  0
LINE
  5
24A
330
243
100
AcDbEntity
  8
DIM
100
AcDbLine
 10
189.9735584352166
 20
205.5681047637566
 30
0.0
 11
189.9735584352166
 21
181.5681047637566
 31
0.0
  0
MTEXT
  5
24B
330
243
100
AcDbEntity
  8
DIM
100
AcDbMText
 10
186.1063552159007
 20
191.5597714271946
 30
0.0
 40
3.0
 41
0.0
 71
     1
 72
     1
  1
24
  7
SLDTEXTSTYLE4
 11
-7.000000000000000E-15
 21
1.0
 31
0.0
 73
     1
 44
1.0
  0
ENDBLK
  5
245
330
243
100
AcDbEntity
  8
0
100
AcDbBlockEnd
  0
BLOCK
  5
24D
330
24C
100
AcDbEntity
  8
0
100
AcDbBlockBegin
  2
SW_CHAMFER_DIMENSION_0
 70
     0
 10
0.0
 20
0.0
 30
0.0
  3
SW_CHAMFER_DIMENSION_0
  1

  0
SOLID
  5
24F
330
24C
100
AcDbEntity
  8
DIM
 62
     0
100
AcDbTrace
 10
17.61250017583368
 20
-10.99999999999998
 30
0.0
 11
16.79089528420194
 21
-9.34925307752919
 31
0.0
 12
16.16908293036788
 22
-9.852591330217534
 32
0.0
 13
16.16908293036788
 23
-9.852591330217534
 33
0.0
  0
LINE
  5
250
330
24C
100
AcDbEntity
  8
DIM
 62
     0
100
AcDbLine
 10
17.61250017583368
 20
-10.99999999999998
 30
0.0
 11
8.70833359658721
 21
0.0
 31
0.0
  0
LINE
  5
251
330
24C
100
AcDbEntity
  8
DIM
 62
     0
100
AcDbLine
 10
8.70833359658721
 20
0.0
 30
0.0
 11
0.0
 21
0.0
 31
0.0
  0
MTEXT
  5
252
330
24C
100
AcDbEntity
  8
DIM
 62
     0
100
AcDbMText
 10
0.0
 20
3.867203219315884
 30
0.0
 40
3.0
 41
0.0
 71
     1
 72
     1
  1
4-
  7
SLDTEXTSTYLE4
 73
     1
 44
1.0
  0
MTEXT
  5
253
330
24C
100
AcDbEntity
  8
DIM
 62
     0
100
AcDbMText
 10
4.191666841506958
 20
3.867203219315884
 30
0.0
 40
3.0
 41
0.0
 71
     1
 72
     1
  1
C
  7
SLDTEXTSTYLE4
 73
     1
 44
1.0
  0
MTEXT
  5
254
330
24C
100
AcDbEntity
  8
DIM
 62
     0
100
AcDbMText
 10
6.699999794363975
 20
3.867203219315884
 30
0.0
 40
3.0
 41
0.0
 71
     1
 72
     1
  1
2
  7
SLDTEXTSTYLE4
 73
     1
 44
1.0
  0
ENDBLK
  5
24E
330
24C
100
AcDbEntity
  8
0
100
AcDbBlockEnd
  0
BLOCK
  5
263
330
262
100
AcDbEntity
  8
0
100
AcDbBlockBegin
  2
SW_DATUMTAG_0
 70
     0
 10
0.0
 20
0.0
 30
0.0
  3
SW_DATUMTAG_0
  1

  0
LINE
  5
265
330
262
100
AcDbEntity
  8
일반
 62
     0
100
AcDbLine
 10
1.129166688770055
 20
9.78617825950806
 30
0.0
 11
1.129166688770055
 21
4.747916685417297
 31
0.0
  0
LINE
  5
266
330
262
100
AcDbEntity
  8
일반
 62
     0
100
AcDbLine
 10
-24.32231013985326
 20
9.78617825950806
 30
0.0
 11
3.329166688770063
 21
9.78617825950806
 31
0.0
  0
LINE
  5
267
330
262
100
AcDbEntity
  8
일반
 62
     0
100
AcDbLine
 10
4.129166688770058
 20
-1.252083314582708
 30
0.0
 11
-1.870833311229946
 21
-1.252083314582708
 31
0.0
  0
LINE
  5
268
330
262
100
AcDbEntity
  8
일반
 62
     0
100
AcDbLine
 10
-1.870833311229946
 20
-1.252083314582708
 30
0.0
 11
-1.870833311229946
 21
4.747916685417297
 31
0.0
  0
LINE
  5
269
330
262
100
AcDbEntity
  8
일반
 62
     0
100
AcDbLine
 10
-1.870833311229946
 20
4.747916685417297
 30
0.0
 11
4.129166688770058
 21
4.747916685417297
 31
0.0
  0
LINE
  5
26A
330
262
100
AcDbEntity
  8
일반
 62
     0
100
AcDbLine
 10
4.129166688770058
 20
4.747916685417297
 30
0.0
 11
4.129166688770058
 21
-1.252083314582708
 31
0.0
  0
MTEXT
  5
26B
330
262
100
AcDbEntity
  8
일반
 62
     0
100
AcDbMText
 10
0.0
 20
3.867203219315884
 30
0.0
 40
3.0
 41
0.0
 71
     1
 72
     1
  1
A
  7
SLDTEXTSTYLE4
 73
     1
 44
1.0
  0
SOLID
  5
26C
330
262
100
AcDbEntity
  8
일반
 62
     0
100
AcDbTrace
 10
2.329166688770062
 20
9.78617825950806
 30
0.0
 11
-0.0708333112299509
 21
9.78617825950806
 31
0.0
 12
1.129166688770055
 22
7.68617825950807
 32
0.0
 13
1.129166688770055
 23
7.68617825950807
 33
0.0
  0
ENDBLK
  5
264
330
262
100
AcDbEntity
  8
0
100
AcDbBlockEnd
  0
ENDSEC
  0
SECTION
  2
ENTITIES
  0
INSERT
  5
14D
330
1F
100
AcDbEntity
  8
0
  6
Continuous
 62
     7
100
AcDbBlockReference
 66
     1
  2
블록15
 10
239.970829791983
 20
10.14345719667907
 30
0.0
  0
ATTRIB
  5
14E
330
14D
100
AcDbEntity
  8
외형
 62
     7
100
AcDbText
 10
345.3411833962321
 20
35.87685465050415
 30
0.0
 40
2.422591145833333
  1

 41
0.6335548961036545
  7
SLDTEXTSTYLE0
 11
345.3411833962321
 21
34.66555907758748
 31
0.0
100
AcDbAttribute
  2
AUTOATTR10
 70
     0
 74
     1
  0
SEQEND
  5
14F
330
14D
100
AcDbEntity
  8
0
  6
Continuous
 62
     7
  0
INSERT
  5
150
330
1F
100
AcDbEntity
  8
0
  6
Continuous
 62
     7
100
AcDbBlockReference
  2
블록7
 10
-0.0643212627868262
 20
0.1434571966790754
 30
0.0
  0
INSERT
  5
153
330
1F
100
AcDbEntity
  8
0
  6
Continuous
 62
     7
100
AcDbBlockReference
  2
블록3_1
 10
230.1309335717976
 20
10.8537250149478
 30
0.0
  0
MTEXT
  5
165
330
1F
100
AcDbEntity
  8
외형
100
AcDbMText
 10
242.1668829595958
 20
281.0067939521796
 30
0.0
 40
2.116666666666666
 41
0.0
 71
     1
 72
     1
  1
FLOATING_JOINT
  7
SLDTEXTSTYLE4
 73
     1
 44
1.0
  0
MTEXT
  5
183
330
1F
100
AcDbEntity
  8
치수선
100
AcDbMText
 10
376.5343118603706
 20
286.348662790213
 30
0.0
 40
2.116666666666666
 41
0.0
 71
     2
 72
     1
  1
비          고
  7
SLDTEXTSTYLE14
 73
     1
 44
1.0
  0
MTEXT
  5
185
330
1F
100
AcDbEntity
  8
치수선
100
AcDbMText
 10
307.6691873956776
 20
286.348662790213
 30
0.0
 40
2.116666666666666
 41
0.0
 71
     2
 72
     1
  1
재  질 & 후 처 리
  7
SLDTEXTSTYLE15
 73
     1
 44
1.0
  0
MTEXT
  5
186
330
1F
100
AcDbEntity
  8
치수선
100
AcDbMText
 10
261.4285949976892
 20
286.3486627902129
 30
0.0
 40
2.116666666666666
 41
0.0
 71
     2
 72
     1
  1
품  명
  7
SLDTEXTSTYLE15
 73
     1
 44
1.0
  0
MTEXT
  5
187
330
1F
100
AcDbEntity
  8
치수선
100
AcDbMText
 10
341.5542556871809
 20
286.348662790213
 30
0.0
 40
2.116666666666666
 41
0.0
 71
     2
 72
     1
  1
수  량
  7
SLDTEXTSTYLE15
 73
     1
 44
1.0
  0
INSERT
  5
196
330
1F
100
AcDbEntity
  8
일반
100
AcDbBlockReference
  2
SW_SFSYMBOL_0
 10
36.13292567280605
 20
267.8364128861202
 30
0.0
  0
LINE
  5
197
330
1F
100
AcDbEntity
  8
외형선
100
AcDbLine
 10
325.1181495457552
 20
178.3354829827917
 30
0.0
 11
325.1181495457552
 21
214.2632785110863
 31
0.0
  0
LINE
  5
198
330
1F
100
AcDbEntity
  8
외형선
100
AcDbLine
 10
325.1181495457552
 20
214.2632785110863
 30
0.0
 11
327.9465758170277
 21
214.2632792714255
 31
0.0
  0
LINE
  5
199
330
1F
100
AcDbEntity
  8
외형선
100
AcDbLine
 10
327.9465758170277
 20
214.2632792714255
 30
0.0
 11
327.9465758170277
 21
178.3354837431311
 31
0.0
  0
LINE
  5
19A
330
1F
100
AcDbEntity
  8
외형선
100
AcDbLine
 10
327.9465758170277
 20
178.3354837431311
 30
0.0
 11
325.1181495457552
 21
178.3354829827917
 31
0.0
  0
LINE
  5
19B
330
1F
100
AcDbEntity
  8
외형선
100
AcDbLine
 10
357.6450602264677
 20
231.4078493885593
 30
0.0
 11
357.6450615435567
 21
233.0406651195048
 31
0.0
  0
LINE
  5
19C
330
1F
100
AcDbEntity
  8
외형선
100
AcDbLine
 10
327.9465758170277
 20
214.2632792714255
 30
0.0
 11
357.6450602264677
 21
231.4078493885593
 31
0.0
  0
LINE
  5
19D
330
1F
100
AcDbEntity
  8
외형선
100
AcDbLine
 10
325.1181495457552
 20
214.2632785110863
 30
0.0
 11
293.2983431279552
 21
232.632461757023
 31
0.0
  0
LINE
  5
19E
330
1F
100
AcDbEntity
  8
외형선
100
AcDbLine
 10
293.2983444450442
 20
234.2652774879685
 30
0.0
 11
293.2983431279552
 21
232.632461757023
 31
0.0
  0
LINE
  5
19F
330
1F
100
AcDbEntity
  8
외형선
100
AcDbLine
 10
293.2983444450442
 20
234.2652774879685
 30
0.0
 11
322.9968288544841
 21
251.4098476051022
 31
0.0
  0
LINE
  5
1A0
330
1F
100
AcDbEntity
  8
외형선
100
AcDbLine
 10
325.8252551257566
 20
251.4098483654415
 30
0.0
 11
322.9968288544841
 21
251.4098476051022
 31
0.0
  0
LINE
  5
1A1
330
1F
100
AcDbEntity
  8
외형선
100
AcDbLine
 10
335.0176441293871
 20
246.1031951489354
 30
0.0
 11
325.8252551257566
 21
251.4098483654415
 31
0.0
  0
LINE
  5
1A2
330
1F
100
AcDbEntity
  8
외형선
100
AcDbLine
 10
335.0176447879316
 20
245.6949914062839
 30
0.0
 11
335.0176441293871
 21
246.1031951489354
 31
0.0
  0
LINE
  5
1A3
330
1F
100
AcDbEntity
  8
외형선
100
AcDbLine
 10
335.0176447879316
 20
245.6949914062839
 30
0.0
 11
328.6536833726627
 21
242.0211546810626
 31
0.0
  0
LINE
  5
1A4
330
1F
100
AcDbEntity
  8
외형선
100
AcDbLine
 10
327.9465764755723
 20
242.0211546810626
 30
0.0
 11
328.6536833726627
 21
242.0211546810626
 31
0.0
  0
LINE
  5
1A5
330
1F
100
AcDbEntity
  8
외형선
100
AcDbLine
 10
327.9465764755723
 20
242.0211546810626
 30
0.0
 11
323.7039357515745
 21
244.4703790378202
 31
0.0
  0
LINE
  5
1A6
330
1F
100
AcDbEntity
  8
외형선
100
AcDbLine
 10
323.7039357515745
 20
244.4703790378202
 30
0.0
 11
315.2186542212608
 21
239.5719302767838
 31
0.0
  0
LINE
  5
1A7
330
1F
100
AcDbEntity
  8
외형선
100
AcDbLine
 10
315.2186542212608
 20
239.5719302767838
 30
0.0
 11
337.1389640797957
 21
226.917604750344
 31
0.0
  0
LINE
  5
1A8
330
1F
100
AcDbEntity
  8
외형선
100
AcDbLine
 10
337.1389640797957
 20
226.917604750344
 30
0.0
 11
345.6242456101093
 21
231.8160535113805
 31
0.0
  0
LINE
  5
1A9
330
1F
100
AcDbEntity
  8
외형선
100
AcDbLine
 10
345.6242456101093
 20
231.8160535113805
 30
0.0
 11
341.3816048861115
 21
234.2652778681381
 31
0.0
  0
LINE
  5
1AA
330
1F
100
AcDbEntity
  8
외형선
100
AcDbLine
 10
341.3816048861115
 20
234.6734819909594
 30
0.0
 11
341.3816048861115
 21
234.2652778681381
 31
0.0
  0
LINE
  5
1AB
330
1F
100
AcDbEntity
  8
외형선
100
AcDbLine
 10
341.3816048861115
 20
234.6734819909594
 30
0.0
 11
347.7455663013805
 21
238.3473187161806
 31
0.0
  0
LINE
  5
1AC
330
1F
100
AcDbEntity
  8
외형선
100
AcDbLine
 10
348.4526725399263
 20
238.3473183360109
 30
0.0
 11
347.7455663013805
 21
238.3473187161806
 31
0.0
  0
LINE
  5
1AD
330
1F
100
AcDbEntity
  8
외형선
100
AcDbLine
 10
357.6450615435567
 20
233.0406651195048
 30
0.0
 11
348.4526725399263
 21
238.3473183360109
 31
0.0
  0
LINE
  5
1AE
330
1F
100
AcDbEntity
  8
외형선
100
AcDbLine
 10
293.2983431279552
 20
196.7046662287285
 30
0.0
 11
325.1181495457552
 21
178.3354829827917
 31
0.0
  0
LINE
  5
1AF
330
1F
100
AcDbEntity
  8
외형선
100
AcDbLine
 10
293.2983431279552
 20
232.632461757023
 30
0.0
 11
293.2983431279552
 21
196.7046662287285
 31
0.0
  0
LWPOLYLINE
  5
1B0
330
1F
100
AcDbEntity
  8
외형선
100
AcDbPolyline
 90
       67
 70
   128
 43
0.0
 10
315.0418772500341
 20
202.1162889268868
 10
315.0154623712744
 20
202.7718793204727
 10
314.9364561281072
 20
203.4520309626002
 10
314.8055743584127
 20
204.1505842660778
 10
314.6240021130329
 20
204.8612129562527
 10
314.393384436149
 20
205.5774811999205
 10
314.115808913851
 20
206.2929030148511
 10
313.7937898690705
 20
207.0009987326754
 10
313.4302436661613
 20
207.6953558335991
 10
313.0284620398462
 20
208.3696869291956
 10
312.5920844363488
 20
209.0178837526764
 10
312.1250617934446
 20
209.6340776122914
 10
311.6316242717808
 20
210.2126872974643
 10
311.1162400958439
 20
210.7484728776792
 10
310.5835769467886
 20
211.2365819445077
 10
310.0384585808176
 20
211.6725955680147
 10
309.4858216739375
 20
212.0525634759995
 10
308.9306709997729
 20
212.3730451385507
 10
308.3780340928929
 20
212.6311382217396
 10
307.8329157269219
 20
212.824504866847
 10
307.3002525778664
 20
212.9513955812794
 10
306.7848684019296
 20
213.0106599046079
 10
306.2914308802658
 20
213.001761055312
 10
305.8244082373617
 20
212.9247800617255
 10
305.3880306338642
 20
212.7804140949015
 10
304.9862490075492
 20
212.5699701909318
 10
304.6227028046398
 20
212.2953546014379
 10
304.3006837598594
 20
211.9590541588322
 10
304.0231082375615
 20
211.5641142202982
 10
303.7924905606775
 20
211.1141114787401
 10
303.6109183152977
 20
210.6131216407922
 10
303.4800365456032
 20
210.065681212076
 10
303.401030302436
 20
209.4767482366653
 10
303.3746154236764
 20
208.8516558129279
 10
303.401030302436
 20
208.196065419342
 10
303.4800365456032
 20
207.5159137772145
 10
303.6109183152977
 20
206.8173604737369
 10
303.7924905606775
 20
206.106731783562
 10
304.0231082375615
 20
205.3904635398942
 10
304.3006837598594
 20
204.6750417249636
 10
304.6227028046398
 20
203.9669460071393
 10
304.9862490075492
 20
203.2725889062156
 10
305.3880306338642
 20
202.5982578106191
 10
305.8244082373617
 20
201.9500609871383
 10
306.2914308802658
 20
201.3338671275233
 10
306.7848684019296
 20
200.7552574423504
 10
307.3002525778664
 20
200.2194718621356
 10
307.8329157269219
 20
199.731362795307
 10
308.3780340928929
 20
199.2953491718
 10
308.9306709997729
 20
198.9153812638152
 10
309.4858216739375
 20
198.5948996012639
 10
310.0384585808176
 20
198.3368065180751
 10
310.5835769467886
 20
198.1434398729677
 10
311.1162400958439
 20
198.0165491585353
 10
311.6316242717808
 20
197.9572848352067
 10
312.1250617934446
 20
197.9661836845027
 10
312.5920844363488
 20
198.0431646780893
 10
313.0284620398462
 20
198.1875306449132
 10
313.4302436661613
 20
198.3979745488829
 10
313.7937898690705
 20
198.6725901383767
 10
314.115808913851
 20
199.0088905809825
 10
314.393384436149
 20
199.4038305195165
 10
314.6240021130329
 20
199.8538332610746
 10
314.8055743584127
 20
200.3548230990225
 10
314.9364561281072
 20
200.9022635277388
 10
315.0154623712744
 20
201.4911965031493
 10
315.0418772500341
 20
202.1162889268868
  0
LINE
  5
1B1
330
1F
100
AcDbEntity
  8
외형선
100
AcDbLine
 10
357.6450602264677
 20
195.4800538602647
 30
0.0
 11
357.6450602264677
 21
231.4078493885593
 31
0.0
  0
LINE
  5
1B2
330
1F
100
AcDbEntity
  8
외형선
100
AcDbLine
 10
327.9465758170277
 20
178.3354837431311
 30
0.0
 11
357.6450602264677
 21
195.4800538602647
 31
0.0
  0
LINE
  5
1B3
330
1F
100
AcDbEntity
  8
외형선
100
AcDbLine
 10
341.3816048861115
 20
234.2652778681381
 30
0.0
 11
341.3816048861115
 21
229.3668291588848
 31
0.0
  0
LINE
  5
1B4
330
1F
100
AcDbEntity
  8
외형선
100
AcDbLine
 10
323.7039357515745
 20
244.4703790378202
 30
0.0
 11
323.7039357515745
 21
234.6734816193135
 31
0.0
  0
LINE
  5
1B5
330
1F
100
AcDbEntity
  8
외형선
100
AcDbLine
 10
328.6536833726627
 20
242.0211546810626
 30
0.0
 11
328.6536833726627
 21
231.8160537104267
 31
0.0
  0
LINE
  5
1B6
330
1F
100
AcDbEntity
  8
외형선
100
AcDbLine
 10
327.9465764755723
 20
232.2242572625559
 30
0.0
 11
327.9465764755723
 21
242.0211546810626
 31
0.0
  0
LINE
  5
1B7
330
1F
100
AcDbEntity
  8
외형선
100
AcDbLine
 10
335.0176447879316
 20
228.1422170865944
 30
0.0
 11
335.0176447879316
 21
245.6949914062839
 31
0.0
  0
LWPOLYLINE
  5
1B8
330
1F
100
AcDbEntity
  8
숨은선
  6
HIDDEN
370
    18
100
AcDbPolyline
 90
       17
 70
   128
 43
0.0
 10
309.2082463684653
 20
198.1351050811837
 10
306.7728639178075
 20
200.1004206590965
 10
304.7082463684653
 20
202.8853331857406
 10
303.3287130265216
 20
206.0658649742293
 10
302.8442853377864
 20
209.1578088913577
 10
303.3287130265216
 20
211.6904445042844
 10
304.7082463684654
 20
213.2782009993403
 10
306.7728639178075
 20
213.6793568432016
 10
309.2082463684654
 20
212.8328396951272
 10
311.6436288191232
 20
210.8675241172144
 10
313.7082463684654
 20
208.0826115905703
 10
315.0877797104091
 20
204.9020798020816
 10
315.5722073991443
 20
201.8101358849532
 10
315.087779710409
 20
199.2775002720265
 10
313.7082463684653
 20
197.6897437769707
 10
311.6436288191231
 20
197.2885879331094
 10
309.2082463684653
 20
198.1351050811837
  0
LINE
  5
1B9
330
1F
100
AcDbEntity
  8
외형선
100
AcDbLine
 10
177.9735593292863
 20
97.22526725070178
 30
0.0
 11
177.9735593292863
 21
141.2252670122832
 31
0.0
  0
LINE
  5
1BA
330
1F
100
AcDbEntity
  8
외형선
100
AcDbLine
 10
179.9735577944667
 20
141.2252670122832
 30
0.0
 11
179.9735577944667
 21
97.22526725070178
 31
0.0
  0
LINE
  5
1BB
330
1F
100
AcDbEntity
  8
외형선
100
AcDbLine
 10
179.9735577944667
 20
97.22526725070178
 30
0.0
 11
177.9735593292863
 21
97.22526725070178
 31
0.0
  0
LINE
  5
1BC
330
1F
100
AcDbEntity
  8
외형선
100
AcDbLine
 10
177.9735593292863
 20
141.2252670122832
 30
0.0
 11
179.9735577944667
 21
141.2252670122832
 31
0.0
  0
LINE
  5
1BD
330
1F
100
AcDbEntity
  8
외형선
100
AcDbLine
 10
132.973557541147
 20
141.2252670122832
 30
0.0
 11
132.973557541147
 21
97.22526725070178
 31
0.0
  0
CIRCLE
  5
1BE
330
1F
100
AcDbEntity
  8
외형선
100
AcDbCircle
 10
155.4735584352167
 20
119.2252671314925
 30
0.0
 40
8.25
  0
LINE
  5
1BF
330
1F
100
AcDbEntity
  8
외형선
100
AcDbLine
 10
132.973557541147
 20
97.22526725070178
 30
0.0
 11
177.9735593292863
 21
97.22526725070178
 31
0.0
  0
LINE
  5
1C0
330
1F
100
AcDbEntity
  8
외형선
100
AcDbLine
 10
177.9735593292863
 20
141.2252670122832
 30
0.0
 11
132.973557541147
 21
141.2252670122832
 31
0.0
  0
LINE
  5
1C1
330
1F
100
AcDbEntity
  8
외형선
100
AcDbLine
 10
130.9735590759666
 20
97.22526725070178
 30
0.0
 11
130.9735590759666
 21
141.2252670122832
 31
0.0
  0
LINE
  5
1C2
330
1F
100
AcDbEntity
  8
외형선
100
AcDbLine
 10
132.973557541147
 20
97.22526725070178
 30
0.0
 11
130.9735590759666
 21
97.22526725070178
 31
0.0
  0
LINE
  5
1C3
330
1F
100
AcDbEntity
  8
외형선
100
AcDbLine
 10
130.9735590759666
 20
141.2252670122832
 30
0.0
 11
132.973557541147
 21
141.2252670122832
 31
0.0
  0
LINE
  5
1C4
330
1F
100
AcDbEntity
  8
숨은선
  6
HIDDEN
370
    18
100
AcDbLine
 10
139.9735586885364
 20
141.2252670122832
 30
0.0
 11
139.9735586885364
 21
97.22526725070178
 31
0.0
  0
LINE
  5
1C5
330
1F
100
AcDbEntity
  8
숨은선
  6
HIDDEN
370
    18
100
AcDbLine
 10
170.9735581818969
 20
141.2252670122832
 30
0.0
 11
170.9735581818969
 21
97.22526725070178
 31
0.0
  0
LINE
  5
1C6
330
1F
100
AcDbEntity
  8
숨은선
  6
HIDDEN
370
    18
100
AcDbLine
 10
164.9735581297429
 20
141.2252670122832
 30
0.0
 11
164.9735581297429
 21
97.22526725070178
 31
0.0
  0
LINE
  5
1C7
330
1F
100
AcDbEntity
  8
숨은선
  6
HIDDEN
370
    18
100
AcDbLine
 10
164.4735580477865
 20
97.22526725070178
 30
0.0
 11
164.4735580477865
 21
141.2252670122832
 31
0.0
  0
LINE
  5
1C8
330
1F
100
AcDbEntity
  8
숨은선
  6
HIDDEN
370
    18
100
AcDbLine
 10
146.4735588226468
 20
141.2252670122832
 30
0.0
 11
146.4735588226468
 21
97.22526725070178
 31
0.0
  0
LINE
  5
1C9
330
1F
100
AcDbEntity
  8
숨은선
  6
HIDDEN
370
    18
100
AcDbLine
 10
145.9735587406905
 20
97.22526725070178
 30
0.0
 11
145.9735587406905
 21
141.2252670122832
 31
0.0
  0
DIMENSION
  5
1CA
330
1F
100
AcDbEntity
  8
DIM
100
AcDbDimension
  2
_D
 10
158.9605224313443
 20
111.7483973259047
 30
0.0
 11
122.1123816294243
 21
154.1613151824658
 31
0.0
 70
   163
  1
M18X1.5 Tap DP 15\P
 71
     5
 42
-1.0
  3
SLDDIMSTYLE0
100
AcDbDiametricDimension
 15
151.9865944390891
 25
126.7021369370802
 35
0.0
 40
0.0
  0
DIMENSION
  5
1D7
330
1F
100
AcDbEntity
  8
DIM
100
AcDbDimension
  2
_D_1
 10
189.9735584352167
 20
97.2252671314925
 30
0.0
 11
189.9735584352167
 21
119.2252671314925
 31
0.0
 70
   160
  1
<>
 71
     2
 42
-1.0
  3
SLDDIMSTYLE1
100
AcDbAlignedDimension
 13
179.9735584352166
 23
141.2252671314925
 33
0.0
 14
179.9735584352166
 24
97.2252671314925
 34
0.0
 50
90.00000000000018
100
AcDbRotatedDimension
  0
DIMENSION
  5
1E2
330
1F
100
AcDbEntity
  8
DIM
100
AcDbDimension
  2
_D_2
 10
179.9735584352166
 20
87.22526713149249
 30
0.0
 11
155.4735584352167
 21
87.22526713149249
 31
0.0
 70
   160
  1
<>
 71
     2
 42
-1.0
  3
SLDDIMSTYLE1
100
AcDbAlignedDimension
 13
130.9735584352167
 23
97.2252671314925
 33
0.0
 14
179.9735584352166
 24
97.2252671314925
 34
0.0
100
AcDbRotatedDimension
  0
INSERT
  5
1F7
330
1F
100
AcDbEntity
  8
CEN
100
AcDbBlockReference
  2
SW_CENTERMARKSYMBOL_0
 10
155.4735584352167
 20
119.2252671314925
 30
0.0
  0
ARC
  5
1F8
330
1F
100
AcDbEntity
  8
숨은선
  6
HIDDEN
370
    18
100
AcDbCircle
 10
155.4735584352167
 20
119.2252671314925
 30
0.0
 40
8.99999999999999
100
AcDbArc
 50
75.0000000000001
 51
345.0000000000008
  0
LINE
  5
1F9
330
1F
100
AcDbEntity
  8
외형선
100
AcDbLine
 10
179.9735577944667
 20
225.5681044806346
 30
0.0
 11
177.9735593292863
 21
227.5681048084602
 31
0.0
  0
LINE
  5
1FA
330
1F
100
AcDbEntity
  8
외형선
100
AcDbLine
 10
179.9735577944667
 20
183.5681050468787
 30
0.0
 11
179.9735577944667
 21
225.5681044806346
 31
0.0
  0
LINE
  5
1FB
330
1F
100
AcDbEntity
  8
외형선
100
AcDbLine
 10
177.9735593292863
 20
181.5681047190532
 30
0.0
 11
179.9735577944667
 21
183.5681050468787
 31
0.0
  0
LINE
  5
1FC
330
1F
100
AcDbEntity
  8
외형선
100
AcDbLine
 10
177.9735593292863
 20
181.5681047190532
 30
0.0
 11
132.9735575411469
 21
181.5681047190532
 31
0.0
  0
LINE
  5
1FD
330
1F
100
AcDbEntity
  8
외형선
100
AcDbLine
 10
130.9735590759665
 20
183.5681050468787
 30
0.0
 11
132.9735575411469
 21
181.5681047190532
 31
0.0
  0
LINE
  5
1FE
330
1F
100
AcDbEntity
  8
외형선
100
AcDbLine
 10
130.9735590759665
 20
183.5681050468787
 30
0.0
 11
130.9735590759665
 21
225.5681044806346
 31
0.0
  0
LINE
  5
1FF
330
1F
100
AcDbEntity
  8
외형선
100
AcDbLine
 10
132.9735575411469
 20
227.5681048084602
 30
0.0
 11
130.9735590759665
 21
225.5681044806346
 31
0.0
  0
LINE
  5
200
330
1F
100
AcDbEntity
  8
외형선
100
AcDbLine
 10
145.9735587406904
 20
227.5681048084602
 30
0.0
 11
132.9735575411469
 21
227.5681048084602
 31
0.0
  0
LINE
  5
201
330
1F
100
AcDbEntity
  8
외형선
100
AcDbLine
 10
146.4735588226468
 20
227.0681056578264
 30
0.0
 11
145.9735587406904
 21
227.5681048084602
 31
0.0
  0
LINE
  5
202
330
1F
100
AcDbEntity
  8
외형선
100
AcDbLine
 10
146.4735588226468
 20
227.0681056578264
 30
0.0
 11
146.4735588226468
 21
218.068105113934
 31
0.0
  0
LINE
  5
203
330
1F
100
AcDbEntity
  8
외형선
100
AcDbLine
 10
145.9735587406904
 20
217.5681050319776
 30
0.0
 11
146.4735588226468
 21
218.068105113934
 31
0.0
  0
LINE
  5
204
330
1F
100
AcDbEntity
  8
외형선
100
AcDbLine
 10
145.9735587406904
 20
217.5681050319776
 30
0.0
 11
139.9735586885364
 21
217.5681050319776
 31
0.0
  0
LINE
  5
205
330
1F
100
AcDbEntity
  8
외형선
100
AcDbLine
 10
139.9735586885364
 20
217.5681050319776
 30
0.0
 11
139.9735586885364
 21
205.5681048112541
 31
0.0
  0
LINE
  5
206
330
1F
100
AcDbEntity
  8
외형선
100
AcDbLine
 10
139.9735586885364
 20
205.5681048112541
 30
0.0
 11
170.9735581818969
 21
205.5681048112541
 31
0.0
  0
LINE
  5
207
330
1F
100
AcDbEntity
  8
외형선
100
AcDbLine
 10
170.9735581818969
 20
205.5681048112541
 30
0.0
 11
170.9735581818969
 21
217.5681050319776
 31
0.0
  0
LINE
  5
208
330
1F
100
AcDbEntity
  8
외형선
100
AcDbLine
 10
170.9735581818969
 20
217.5681050319776
 30
0.0
 11
164.9735581297428
 21
217.5681050319776
 31
0.0
  0
LINE
  5
209
330
1F
100
AcDbEntity
  8
외형선
100
AcDbLine
 10
164.4735580477864
 20
218.068105113934
 30
0.0
 11
164.9735581297428
 21
217.5681050319776
 31
0.0
  0
LINE
  5
20A
330
1F
100
AcDbEntity
  8
외형선
100
AcDbLine
 10
164.4735580477864
 20
218.068105113934
 30
0.0
 11
164.4735580477864
 21
227.0681056578264
 31
0.0
  0
LINE
  5
20B
330
1F
100
AcDbEntity
  8
외형선
100
AcDbLine
 10
164.9735581297428
 20
227.5681048084602
 30
0.0
 11
164.4735580477864
 21
227.0681056578264
 31
0.0
  0
LINE
  5
20C
330
1F
100
AcDbEntity
  8
외형선
100
AcDbLine
 10
177.9735593292863
 20
227.5681048084602
 30
0.0
 11
164.9735581297428
 21
227.5681048084602
 31
0.0
  0
LINE
  5
20D
330
1F
100
AcDbEntity
  8
숨은선
  6
HIDDEN
370
    18
100
AcDbLine
 10
163.7235583905131
 20
196.568104383777
 30
0.0
 11
147.2235584799201
 21
196.568104383777
 31
0.0
  0
LINE
  5
20E
330
1F
100
AcDbEntity
  8
숨은선
  6
HIDDEN
370
    18
100
AcDbLine
 10
163.7235583905131
 20
196.568104383777
 30
0.0
 11
155.4735584352166
 21
201.5252047602638
 31
0.0
  0
LINE
  5
20F
330
1F
100
AcDbEntity
  8
숨은선
  6
HIDDEN
370
    18
100
AcDbLine
 10
155.4735584352166
 20
201.5252047602638
 30
0.0
 11
147.2235584799201
 21
196.568104383777
 31
0.0
  0
LINE
  5
210
330
1F
100
AcDbEntity
  8
숨은선
  6
HIDDEN
370
    18
100
AcDbLine
 10
163.7235583905131
 20
181.5681047190532
 30
0.0
 11
163.7235583905131
 21
196.568104383777
 31
0.0
  0
LINE
  5
211
330
1F
100
AcDbEntity
  8
숨은선
  6
HIDDEN
370
    18
100
AcDbLine
 10
147.2235584799201
 20
196.568104383777
 30
0.0
 11
147.2235584799201
 21
181.5681047190532
 31
0.0
  0
DIMENSION
  5
212
330
1F
100
AcDbEntity
  8
DIM
100
AcDbDimension
  2
_D_3
 10
164.4735584352166
 20
237.5681047637567
 30
0.0
 11
155.4735584352166
 21
237.5681047637567
 31
0.0
 70
   160
  1
<>
 71
     2
 42
-1.0
  3
SLDDIMSTYLE1
100
AcDbAlignedDimension
 13
146.4735584352166
 23
227.0681047637566
 33
0.0
 14
164.4735584352166
 24
227.0681047637566
 34
0.0
100
AcDbRotatedDimension
  0
DIMENSION
  5
21C
330
1F
100
AcDbEntity
  8
DIM
100
AcDbDimension
  2
_D_4
 10
120.9735584352166
 20
181.5681047637566
 30
0.0
 11
120.9735584352166
 21
204.5681047637566
 31
0.0
 70
   160
  1
<>
 71
     2
 42
-1.0
  3
SLDDIMSTYLE1
100
AcDbAlignedDimension
 13
132.9735584352166
 23
227.5681047637566
 33
0.0
 14
132.9735584352166
 24
181.5681047637566
 34
0.0
 50
90.00000000000018
100
AcDbRotatedDimension
  0
DIMENSION
  5
226
330
1F
100
AcDbEntity
  8
DIM
100
AcDbDimension
  2
_D_5
 10
170.9735584352166
 20
171.5681047637566
 30
0.0
 11
155.4735584352166
 21
171.5681047637566
 31
0.0
 70
   160
  1
<>
 71
     2
 42
-1.0
  3
SLDDIMSTYLE1
100
AcDbAlignedDimension
 13
139.9735584352166
 23
205.5681047637566
 33
0.0
 14
170.9735584352166
 24
205.5681047637566
 34
0.0
100
AcDbRotatedDimension
  0
DIMENSION
  5
230
330
1F
100
AcDbEntity
  8
DIM
100
AcDbDimension
  2
_D_6
 10
189.9735584352166
 20
205.5681047637566
 30
0.0
 11
189.9735584352166
 21
211.5681047637566
 31
0.0
 70
   160
  1
<>
 71
     2
 42
-1.0
  3
SLDDIMSTYLE2
100
AcDbAlignedDimension
 13
170.9735584352166
 23
217.5681047637566
 33
0.0
 14
170.9735584352166
 24
205.5681047637566
 34
0.0
 50
90.00000000000018
100
AcDbRotatedDimension
  0
DIMENSION
  5
242
330
1F
100
AcDbEntity
  8
DIM
100
AcDbDimension
  2
_D_7
 10
189.9735584352166
 20
181.5681047637566
 30
0.0
 11
189.9735584352166
 21
193.5681047637566
 31
0.0
 70
   160
  1
<>
 71
     2
 42
-1.0
  3
SLDDIMSTYLE1
100
AcDbAlignedDimension
 13
170.9735584352166
 23
205.5681047637566
 33
0.0
 14
177.9735584352166
 24
181.5681047637566
 34
0.0
 50
90.00000000000018
100
AcDbRotatedDimension
  0
INSERT
  5
255
330
1F
100
AcDbEntity
  8
DIM
100
AcDbBlockReference
  2
SW_CHAMFER_DIMENSION_0
 10
114.3610582593829
 20
237.5681047637566
 30
0.0
  0
TOLERANCE
  5
258
330
1F
100
AcDbEntity
  8
일반
100
AcDbFcf
  3
SLDDIMSTYLE3
 10
173.7778512026195
 20
166.7247863939788
 30
0.0
  1
{\Fgdt;c}%%v0.02%%v%%v%%v%%v%%v^J
  0
LEADER
  5
25A
330
1F
100
AcDbEntity
  8
일반
100
AcDbLeader
  3
SLDDIMSTYLE4
 76
     2
 10
173.7778512026195
 20
181.5681047637566
 30
0.0
 10
173.7778512026195
 20
166.7247863939788
 30
0.0
  0
TOLERANCE
  5
25B
330
1F
100
AcDbEntity
  8
일반
100
AcDbFcf
  3
SLDDIMSTYLE3
 10
168.2647710189947
 20
156.856840737736
 30
0.0
  1
{\Fgdt;f}%%v0.02%%v%%vA%%v%%v%%v^J{\Fgdt;c}%%v0.02%%v%%v%%v%%v%%v^J
  0
LEADER
  5
25C
330
1F
100
AcDbEntity
  8
일반
100
AcDbLeader
  3
SLDDIMSTYLE4
 76
     2
 10
168.2647710189947
 20
217.5681047637566
 30
0.0
 10
168.2647710189947
 20
156.856840737736
 30
0.0
  0
TOLERANCE
  5
25D
330
1F
100
AcDbEntity
  8
일반
100
AcDbFcf
  3
SLDDIMSTYLE3
 10
182.5537416976811
 20
242.7791848978657
 30
0.0
  1
{\Fgdt;f}%%v0.02%%v%%vA%%v%%v%%v^J{\Fgdt;c}%%v0.02%%v%%v%%v%%v%%v^J
  0
LEADER
  5
25E
330
1F
100
AcDbEntity
  8
일반
100
AcDbLeader
  3
SLDDIMSTYLE4
 76
     2
 10
182.5537416976811
 20
205.5681047637566
 30
0.0
 10
182.5537416976811
 20
242.7791848978657
 30
0.0
  0
LINE
  5
25F
330
1F
100
AcDbEntity
  8
숨은선
  6
HIDDEN
370
    18
100
AcDbLine
 10
146.4735584352166
 20
181.5681047637567
 30
0.0
 11
146.4735584352166
 21
196.5681047637566
 31
0.0
  0
LINE
  5
260
330
1F
100
AcDbEntity
  8
숨은선
  6
HIDDEN
370
    18
100
AcDbLine
 10
164.4735584352166
 20
181.5681047637567
 30
0.0
 11
164.4735584352166
 21
196.5681047637566
 31
0.0
  0
LINE
  5
261
330
1F
100
AcDbEntity
  8
숨은선
  6
HIDDEN
370
    18
100
AcDbLine
 10
164.4735584352166
 20
196.5681047637566
 30
0.0
 11
146.4735584352166
 21
196.5681047637566
 31
0.0
  0
INSERT
  5
26D
330
1F
100
AcDbEntity
  8
일반
100
AcDbBlockReference
  2
SW_DATUMTAG_0
 10
202.2958685750699
 20
171.7819265042485
 30
0.0
  0
LINE
  5
26E
330
1F
100
AcDbEntity
  8
CEN
  6
CENTERX2
370
    18
100
AcDbLine
 10
155.4735584352166
 20
196.5681047637566
 30
0.0
 11
155.4735584352166
 21
203.5252048707341
 31
0.0
  0
LINE
  5
26F
330
1F
100
AcDbEntity
  8
CEN
  6
CENTERX2
370
    18
100
AcDbLine
 10
155.4735584352166
 20
196.5681047637566
 30
0.0
 11
155.4735584352166
 21
179.5681047637567
 31
0.0
  0
ENDSEC
  0
SECTION
  2
OBJECTS
  0
DICTIONARY
  5
C
330
0
100
AcDbDictionary
281
     1
  3
ACAD_CIP_PREVIOUS_PRODUCT_INFO
350
2B1
  3
ACAD_DETAILVIEWSTYLE
350
2AA
  3
ACAD_GROUP
350
D
  3
ACAD_LAYOUT
350
1A
  3
ACAD_MLINESTYLE
350
17
  3
ACAD_PLOTSETTINGS
350
19
  3
ACAD_PLOTSTYLENAME
350
E
  3
ACAD_SCALELIST
350
47
  3
ACAD_SECTIONVIEWSTYLE
350
2A8
  3
AcDbVariableDictionary
350
2E3
  3
APPDATA
350
3A7
  3
DWGPROPS
350
3A8
  0
DICTIONARY
  5
2B2
330
10
100
AcDbDictionary
280
     1
281
     1
  3
ADSK_XREC_LAYER_RECONCILED
360
2B3
  0
DICTIONARY
  5
2B4
330
73
100
AcDbDictionary
280
     1
281
     1
  3
ADSK_XREC_LAYER_RECONCILED
360
2B5
  0
DICTIONARY
  5
2B6
330
74
100
AcDbDictionary
280
     1
281
     1
  3
ADSK_XREC_LAYER_RECONCILED
360
2B7
  0
DICTIONARY
  5
2B8
330
75
100
AcDbDictionary
280
     1
281
     1
  3
ADSK_XREC_LAYER_RECONCILED
360
2B9
  0
DICTIONARY
  5
2BA
330
76
100
AcDbDictionary
280
     1
281
     1
  3
ADSK_XREC_LAYER_RECONCILED
360
2BB
  0
DICTIONARY
  5
2BC
330
77
100
AcDbDictionary
280
     1
281
     1
  3
ADSK_XREC_LAYER_RECONCILED
360
2BD
  0
DICTIONARY
  5
2BE
330
78
100
AcDbDictionary
280
     1
281
     1
  3
ADSK_XREC_LAYER_RECONCILED
360
2BF
  0
DICTIONARY
  5
2C0
330
79
100
AcDbDictionary
280
     1
281
     1
  3
ADSK_XREC_LAYER_RECONCILED
360
2C1
  0
DICTIONARY
  5
2C2
330
7A
100
AcDbDictionary
280
     1
281
     1
  3
ADSK_XREC_LAYER_RECONCILED
360
2C3
  0
DICTIONARY
  5
2C4
330
7B
100
AcDbDictionary
280
     1
281
     1
  3
ADSK_XREC_LAYER_RECONCILED
360
2C5
  0
DICTIONARY
  5
2C6
330
7C
100
AcDbDictionary
280
     1
281
     1
  3
ADSK_XREC_LAYER_RECONCILED
360
2C7
  0
DICTIONARY
  5
2C8
330
7D
100
AcDbDictionary
280
     1
281
     1
  3
ADSK_XREC_LAYER_RECONCILED
360
2C9
  0
DICTIONARY
  5
2CA
330
7E
100
AcDbDictionary
280
     1
281
     1
  3
ADSK_XREC_LAYER_RECONCILED
360
2CB
  0
DICTIONARY
  5
2CC
330
7F
100
AcDbDictionary
280
     1
281
     1
  3
ADSK_XREC_LAYER_RECONCILED
360
2CD
  0
DICTIONARY
  5
2CE
330
80
100
AcDbDictionary
280
     1
281
     1
  3
ADSK_XREC_LAYER_RECONCILED
360
2CF
  0
DICTIONARY
  5
2D0
330
81
100
AcDbDictionary
280
     1
281
     1
  3
ADSK_XREC_LAYER_RECONCILED
360
2D1
  0
DICTIONARY
  5
2D2
330
82
100
AcDbDictionary
280
     1
281
     1
  3
ADSK_XREC_LAYER_RECONCILED
360
2D3
  0
DICTIONARY
  5
2D4
330
83
100
AcDbDictionary
280
     1
281
     1
  3
ADSK_XREC_LAYER_RECONCILED
360
2D5
  0
DICTIONARY
  5
2D6
330
84
100
AcDbDictionary
280
     1
281
     1
  3
ADSK_XREC_LAYER_RECONCILED
360
2D7
  0
DICTIONARY
  5
2D8
330
85
100
AcDbDictionary
280
     1
281
     1
  3
ADSK_XREC_LAYER_RECONCILED
360
2D9
  0
XRECORD
  5
2B1
102
{ACAD_REACTORS
330
C
102
}
330
C
100
AcDbXrecord
280
     1
300
ACD
300
2019
300
ACD_F_S
  0
DICTIONARY
  5
2AA
102
{ACAD_REACTORS
330
C
102
}
330
C
100
AcDbDictionary
281
     1
  3
Metric50
350
2AB
  0
DICTIONARY
  5
D
102
{ACAD_REACTORS
330
C
102
}
330
C
100
AcDbDictionary
281
     1
  0
DICTIONARY
  5
1A
102
{ACAD_REACTORS
330
C
102
}
330
C
100
AcDbDictionary
281
     1
  3
Layout1
350
1E
  3
Layout2
350
26
  3
Model
350
22
  0
DICTIONARY
  5
17
102
{ACAD_REACTORS
330
C
102
}
330
C
100
AcDbDictionary
281
     1
  3
Standard
350
18
  0
DICTIONARY
  5
19
102
{ACAD_REACTORS
330
C
102
}
330
C
100
AcDbDictionary
281
     1
  0
ACDBDICTIONARYWDFLT
  5
E
102
{ACAD_REACTORS
330
C
102
}
330
C
100
AcDbDictionary
281
     1
  3
Normal
350
F
100
AcDbDictionaryWithDefault
340
F
  0
DICTIONARY
  5
47
102
{ACAD_REACTORS
330
C
102
}
330
C
100
AcDbDictionary
281
     1
  3
A0
350
48
  3
A1
350
49
  3
A2
350
4A
  3
A3
350
4B
  3
A4
350
4C
  3
A5
350
4D
  3
A6
350
4E
  3
A7
350
4F
  3
A8
350
50
  3
A9
350
51
  3
B0
350
52
  3
B1
350
53
  3
B2
350
54
  3
B3
350
55
  3
B4
350
56
  3
B5
350
57
  3
B6
350
58
  3
B7
350
59
  3
B8
350
5A
  3
B9
350
5B
  3
C0
350
5C
  3
C1
350
5D
  3
C2
350
5E
  3
C3
350
5F
  3
C4
350
60
  3
C5
350
61
  3
C6
350
62
  3
C7
350
63
  3
C8
350
64
  3
C9
350
65
  3
D0
350
66
  3
D1
350
67
  3
D2
350
68
  0
DICTIONARY
  5
2A8
102
{ACAD_REACTORS
330
C
102
}
330
C
100
AcDbDictionary
281
     1
  3
Metric50
350
2A9
  0
DICTIONARY
  5
2E3
102
{ACAD_REACTORS
330
C
102
}
330
C
100
AcDbDictionary
281
     1
  3
DIMASSOC
350
2EB
  3
INDEXCTL
350
2EA
  3
SORTENTS
350
2E9
  0
DICTIONARY
  5
3A7
102
{ACAD_REACTORS
330
C
102
}
330
C
100
AcDbDictionary
281
     1
  0
XRECORD
  5
3A8
102
{ACAD_REACTORS
330
C
102
}
330
C
100
AcDbXrecord
280
     1
  1
DWGPROPS COOKIE
  2

  3

  4

  6

  7

  8
강태경
  9

300
=
301
=
302
=
303
=
304
=
305
=
306
=
307
=
308
=
309
=
 40
0.0
 41
2458500.602098148
 42
2458976.026739143
  1

 90
        0
  0
XRECORD
  5
2B3
102
{ACAD_REACTORS
330
2B2
102
}
330
2B2
100
AcDbXrecord
280
     1
290
     1
  0
XRECORD
  5
2B5
102
{ACAD_REACTORS
330
2B4
102
}
330
2B4
100
AcDbXrecord
280
     1
290
     1
  0
XRECORD
  5
2B7
102
{ACAD_REACTORS
330
2B6
102
}
330
2B6
100
AcDbXrecord
280
     1
290
     1
  0
XRECORD
  5
2B9
102
{ACAD_REACTORS
330
2B8
102
}
330
2B8
100
AcDbXrecord
280
     1
290
     1
  0
XRECORD
  5
2BB
102
{ACAD_REACTORS
330
2BA
102
}
330
2BA
100
AcDbXrecord
280
     1
290
     1
  0
XRECORD
  5
2BD
102
{ACAD_REACTORS
330
2BC
102
}
330
2BC
100
AcDbXrecord
280
     1
290
     1
  0
XRECORD
  5
2BF
102
{ACAD_REACTORS
330
2BE
102
}
330
2BE
100
AcDbXrecord
280
     1
290
     1
  0
XRECORD
  5
2C1
102
{ACAD_REACTORS
330
2C0
102
}
330
2C0
100
AcDbXrecord
280
     1
290
     1
  0
XRECORD
  5
2C3
102
{ACAD_REACTORS
330
2C2
102
}
330
2C2
100
AcDbXrecord
280
     1
290
     1
  0
XRECORD
  5
2C5
102
{ACAD_REACTORS
330
2C4
102
}
330
2C4
100
AcDbXrecord
280
     1
290
     1
  0
XRECORD
  5
2C7
102
{ACAD_REACTORS
330
2C6
102
}
330
2C6
100
AcDbXrecord
280
     1
290
     1
  0
XRECORD
  5
2C9
102
{ACAD_REACTORS
330
2C8
102
}
330
2C8
100
AcDbXrecord
280
     1
290
     1
  0
XRECORD
  5
2CB
102
{ACAD_REACTORS
330
2CA
102
}
330
2CA
100
AcDbXrecord
280
     1
290
     1
  0
XRECORD
  5
2CD
102
{ACAD_REACTORS
330
2CC
102
}
330
2CC
100
AcDbXrecord
280
     1
290
     1
  0
XRECORD
  5
2CF
102
{ACAD_REACTORS
330
2CE
102
}
330
2CE
100
AcDbXrecord
280
     1
290
     1
  0
XRECORD
  5
2D1
102
{ACAD_REACTORS
330
2D0
102
}
330
2D0
100
AcDbXrecord
280
     1
290
     1
  0
XRECORD
  5
2D3
102
{ACAD_REACTORS
330
2D2
102
}
330
2D2
100
AcDbXrecord
280
     1
290
     1
  0
XRECORD
  5
2D5
102
{ACAD_REACTORS
330
2D4
102
}
330
2D4
100
AcDbXrecord
280
     1
290
     1
  0
XRECORD
  5
2D7
102
{ACAD_REACTORS
330
2D6
102
}
330
2D6
100
AcDbXrecord
280
     1
290
     1
  0
XRECORD
  5
2D9
102
{ACAD_REACTORS
330
2D8
102
}
330
2D8
100
AcDbXrecord
280
     1
290
     1
  0
ACDBDETAILVIEWSTYLE
  5
2AB
102
{ACAD_REACTORS
330
2AA
102
}
102
{ACAD_XDICTIONARY
360
3A5
102
}
330
2AA
100
AcDbModelDocViewStyle
 70
     0
  3
Metric50
290
     0
100
AcDbDetailViewStyle
 70
     0
 71
     0
 90
        3
 71
     1
340
11
 40
5.0
340
0
 40
5.0
300

 40
0.0
280
     1
 71
     2
340
16
 90
       25
 71
     3
340
11
 40
5.0
 90
        0
 40
15.0
 90
        1
300
%<\AcVar ViewDetailId>% (%<\AcVar ViewScale \f "%sn">%)
 71
     4
340
16
 90
       25
340
16
 90
       25
280
     0
  0
LAYOUT
  5
1E
102
{ACAD_REACTORS
330
1A
102
}
330
1A
100
AcDbPlotSettings
  1

  2
none_device
  4

  6

 40
0.0
 41
0.0
 42
0.0
 43
0.0
 44
0.0
 45
0.0
 46
0.0
 47
0.0
 48
0.0
 49
0.0
140
0.0
141
0.0
142
1.0
143
1.0
 70
   688
 72
     1
 73
     0
 74
     5
  7

 75
    16
147
1.0
148
0.0
149
0.0
100
AcDbLayout
  1
Layout1
 70
     1
 71
     1
 10
0.0
 20
0.0
 11
420.0
 21
297.0
 12
0.0
 22
0.0
 32
0.0
 14
1.000000000000000E+20
 24
1.000000000000000E+20
 34
1.000000000000000E+20
 15
-1.000000000000000E+20
 25
-1.000000000000000E+20
 35
-1.000000000000000E+20
146
0.0
 13
0.0
 23
0.0
 33
0.0
 16
1.0
 26
0.0
 36
0.0
 17
0.0
 27
1.0
 37
0.0
 76
     0
330
1B
  0
LAYOUT
  5
26
102
{ACAD_REACTORS
330
1A
102
}
330
1A
100
AcDbPlotSettings
  1

  2
none_device
  4

  6

 40
0.0
 41
0.0
 42
0.0
 43
0.0
 44
0.0
 45
0.0
 46
0.0
 47
0.0
 48
0.0
 49
0.0
140
0.0
141
0.0
142
1.0
143
1.0
 70
   688
 72
     1
 73
     0
 74
     5
  7

 75
    16
147
1.0
148
0.0
149
0.0
100
AcDbLayout
  1
Layout2
 70
     1
 71
     2
 10
0.0
 20
0.0
 11
0.0
 21
0.0
 12
0.0
 22
0.0
 32
0.0
 14
0.0
 24
0.0
 34
0.0
 15
0.0
 25
0.0
 35
0.0
146
0.0
 13
0.0
 23
0.0
 33
0.0
 16
1.0
 26
0.0
 36
0.0
 17
0.0
 27
1.0
 37
0.0
 76
     0
330
23
  0
LAYOUT
  5
22
102
{ACAD_REACTORS
330
1A
102
}
330
1A
100
AcDbPlotSettings
  1

  2
none_device
  4
Letter_(8.50_x_11.00_Inches)
  6

 40
6.349999999999999
 41
6.349999999999999
 42
6.350005079999999
 43
6.350005079999999
 44
215.9
 45
279.4
 46
0.0
 47
0.0
 48
0.0
 49
0.0
140
0.0
141
0.0
142
1.0
143
1.0
 70
  1712
 72
     1
 73
     0
 74
     0
  7

 75
     0
147
1.0
148
0.0
149
0.0
100
AcDbLayout
  1
Model
 70
     1
 71
     0
 10
0.0
 20
0.0
 11
420.0
 21
297.0
 12
0.0
 22
0.0
 32
0.0
 14
-0.0643212627868479
 24
0.1434571966790656
 34
0.0
 15
419.9356787372132
 25
297.143457196679
 35
0.0
146
0.0
 13
0.0
 23
0.0
 33
0.0
 16
1.0
 26
0.0
 36
0.0
 17
0.0
 27
1.0
 37
0.0
 76
     0
330
1F
331
29
  0
MLINESTYLE
  5
18
102
{ACAD_REACTORS
330
17
102
}
330
17
100
AcDbMlineStyle
  2
STANDARD
 70
     0
  3

 62
   256
 51
90.0
 52
90.0
 71
     2
 49
0.5
 62
   256
  6
BYLAYER
 49
-0.5
 62
   256
  6
BYLAYER
  0
ACDBPLACEHOLDER
  5
F
102
{ACAD_REACTORS
330
E
102
}
330
E
  0
SCALE
  5
48
102
{ACAD_REACTORS
330
47
102
}
330
47
100
AcDbScale
 70
     0
300
1:1
140
1.0
141
1.0
290
     1
  0
SCALE
  5
49
102
{ACAD_REACTORS
330
47
102
}
330
47
100
AcDbScale
 70
     0
300
1:2
140
1.0
141
2.0
290
     0
  0
SCALE
  5
4A
102
{ACAD_REACTORS
330
47
102
}
330
47
100
AcDbScale
 70
     0
300
1:4
140
1.0
141
4.0
290
     0
  0
SCALE
  5
4B
102
{ACAD_REACTORS
330
47
102
}
330
47
100
AcDbScale
 70
     0
300
1:5
140
1.0
141
5.0
290
     0
  0
SCALE
  5
4C
102
{ACAD_REACTORS
330
47
102
}
330
47
100
AcDbScale
 70
     0
300
1:8
140
1.0
141
8.0
290
     0
  0
SCALE
  5
4D
102
{ACAD_REACTORS
330
47
102
}
330
47
100
AcDbScale
 70
     0
300
1:10
140
1.0
141
10.0
290
     0
  0
SCALE
  5
4E
102
{ACAD_REACTORS
330
47
102
}
330
47
100
AcDbScale
 70
     0
300
1:16
140
1.0
141
16.0
290
     0
  0
SCALE
  5
4F
102
{ACAD_REACTORS
330
47
102
}
330
47
100
AcDbScale
 70
     0
300
1:20
140
1.0
141
20.0
290
     0
  0
SCALE
  5
50
102
{ACAD_REACTORS
330
47
102
}
330
47
100
AcDbScale
 70
     0
300
1:30
140
1.0
141
30.0
290
     0
  0
SCALE
  5
51
102
{ACAD_REACTORS
330
47
102
}
330
47
100
AcDbScale
 70
     0
300
1:40
140
1.0
141
40.0
290
     0
  0
SCALE
  5
52
102
{ACAD_REACTORS
330
47
102
}
330
47
100
AcDbScale
 70
     0
300
1:50
140
1.0
141
50.0
290
     0
  0
SCALE
  5
53
102
{ACAD_REACTORS
330
47
102
}
330
47
100
AcDbScale
 70
     0
300
1:100
140
1.0
141
100.0
290
     0
  0
SCALE
  5
54
102
{ACAD_REACTORS
330
47
102
}
330
47
100
AcDbScale
 70
     0
300
2:1
140
2.0
141
1.0
290
     0
  0
SCALE
  5
55
102
{ACAD_REACTORS
330
47
102
}
330
47
100
AcDbScale
 70
     0
300
4:1
140
4.0
141
1.0
290
     0
  0
SCALE
  5
56
102
{ACAD_REACTORS
330
47
102
}
330
47
100
AcDbScale
 70
     0
300
8:1
140
8.0
141
1.0
290
     0
  0
SCALE
  5
57
102
{ACAD_REACTORS
330
47
102
}
330
47
100
AcDbScale
 70
     0
300
10:1
140
10.0
141
1.0
290
     0
  0
SCALE
  5
58
102
{ACAD_REACTORS
330
47
102
}
330
47
100
AcDbScale
 70
     0
300
100:1
140
100.0
141
1.0
290
     0
  0
SCALE
  5
59
102
{ACAD_REACTORS
330
47
102
}
330
47
100
AcDbScale
 70
     0
300
1/128" = 1'-0"
140
0.0078125
141
12.0
290
     0
  0
SCALE
  5
5A
102
{ACAD_REACTORS
330
47
102
}
330
47
100
AcDbScale
 70
     0
300
1/64" = 1'-0"
140
0.015625
141
12.0
290
     0
  0
SCALE
  5
5B
102
{ACAD_REACTORS
330
47
102
}
330
47
100
AcDbScale
 70
     0
300
1/32" = 1'-0"
140
0.03125
141
12.0
290
     0
  0
SCALE
  5
5C
102
{ACAD_REACTORS
330
47
102
}
330
47
100
AcDbScale
 70
     0
300
1/16" = 1'-0"
140
0.0625
141
12.0
290
     0
  0
SCALE
  5
5D
102
{ACAD_REACTORS
330
47
102
}
330
47
100
AcDbScale
 70
     0
300
3/32" = 1'-0"
140
0.09375
141
12.0
290
     0
  0
SCALE
  5
5E
102
{ACAD_REACTORS
330
47
102
}
330
47
100
AcDbScale
 70
     0
300
1/8" = 1'-0"
140
0.125
141
12.0
290
     0
  0
SCALE
  5
5F
102
{ACAD_REACTORS
330
47
102
}
330
47
100
AcDbScale
 70
     0
300
3/16" = 1'-0"
140
0.1875
141
12.0
290
     0
  0
SCALE
  5
60
102
{ACAD_REACTORS
330
47
102
}
330
47
100
AcDbScale
 70
     0
300
1/4" = 1'-0"
140
0.25
141
12.0
290
     0
  0
SCALE
  5
61
102
{ACAD_REACTORS
330
47
102
}
330
47
100
AcDbScale
 70
     0
300
3/8" = 1'-0"
140
0.375
141
12.0
290
     0
  0
SCALE
  5
62
102
{ACAD_REACTORS
330
47
102
}
330
47
100
AcDbScale
 70
     0
300
1/2" = 1'-0"
140
0.5
141
12.0
290
     0
  0
SCALE
  5
63
102
{ACAD_REACTORS
330
47
102
}
330
47
100
AcDbScale
 70
     0
300
3/4" = 1'-0"
140
0.75
141
12.0
290
     0
  0
SCALE
  5
64
102
{ACAD_REACTORS
330
47
102
}
330
47
100
AcDbScale
 70
     0
300
1" = 1'-0"
140
1.0
141
12.0
290
     0
  0
SCALE
  5
65
102
{ACAD_REACTORS
330
47
102
}
330
47
100
AcDbScale
 70
     0
300
1-1/2" = 1'-0"
140
1.5
141
12.0
290
     0
  0
SCALE
  5
66
102
{ACAD_REACTORS
330
47
102
}
330
47
100
AcDbScale
 70
     0
300
3" = 1'-0"
140
3.0
141
12.0
290
     0
  0
SCALE
  5
67
102
{ACAD_REACTORS
330
47
102
}
330
47
100
AcDbScale
 70
     0
300
6" = 1'-0"
140
6.0
141
12.0
290
     0
  0
SCALE
  5
68
102
{ACAD_REACTORS
330
47
102
}
330
47
100
AcDbScale
 70
     0
300
1'-0" = 1'-0"
140
12.0
141
12.0
290
     0
  0
ACDBSECTIONVIEWSTYLE
  5
2A9
102
{ACAD_REACTORS
330
2A8
102
}
102
{ACAD_XDICTIONARY
360
3A3
102
}
330
2A8
100
AcDbModelDocViewStyle
 70
     0
  3
Metric50
290
     0
100
AcDbSectionViewStyle
 70
     0
 71
     0
 90
      102
 71
     1
340
11
 40
5.0
340
0
340
0
 40
5.0
300
I, O, Q, S, X, Z
 40
10.0
 90
        0
 40
2.5
 90
        0
 71
     2
340
16
 90
       25
340
16
 90
       50
 40
5.0
 40
2.5
 40
5.0
 71
     3
340
11
 40
5.0
 90
        0
 40
15.0
 90
        1
300
%<\AcVar ViewSectionStartId>%-%<\AcVar ViewSectionEndId>% (%<\AcVar ViewScale \f "%sn">%)
 71
     4
300
ANSI31
 40
1.0
 90
        0
290
     0
290
     0
 90
        6
 40
0.0
 40
1.570796326794896
 40
0.2617993877991494
 40
1.308996938995747
 40
-0.2617993877991494
 40
1.832595714594046
  0
DICTIONARYVAR
  5
2EB
102
{ACAD_REACTORS
330
2E3
102
}
330
2E3
100
DictionaryVariables
280
     0
  1
1
  0
DICTIONARYVAR
  5
2EA
102
{ACAD_REACTORS
330
2E3
102
}
330
2E3
100
DictionaryVariables
280
     0
  1
0
  0
DICTIONARYVAR
  5
2E9
102
{ACAD_REACTORS
330
2E3
102
}
330
2E3
100
DictionaryVariables
280
     0
  1
127
  0
DICTIONARY
  5
3A5
330
2AB
100
AcDbDictionary
280
     1
281
     1
  3
ACAD_XREC_ROUNDTRIP
360
3A9
  0
DICTIONARY
  5
3A3
330
2A9
100
AcDbDictionary
280
     1
281
     1
  3
ACAD_XREC_ROUNDTRIP
360
3AA
  0
XRECORD
  5
3A9
102
{ACAD_REACTORS
330
3A5
102
}
330
3A5
100
AcDbXrecord
280
     1
102
DISPLAYNAME
  1
Metric50
102
FLAGS
 90
        0
  0
XRECORD
  5
3AA
102
{ACAD_REACTORS
330
3A3
102
}
330
3A3
100
AcDbXrecord
280
     1
102
DISPLAYNAME
  1
Metric50
102
FLAGS
 90
        0
  0
ENDSEC
  0
EOF
